<svg width="24" height="24" viewBox="0 0 24 24" fill="none" xmlns="http://www.w3.org/2000/svg">
<path d="M21.7396 19.8752C20.3402 17.4644 18.1001 15.655 15.449 14.7939C16.7198 14.0383 17.7073 12.8863 18.2598 11.5149C18.8124 10.1436 18.8994 8.62881 18.5076 7.20321C18.1158 5.77762 17.2667 4.5201 16.0909 3.62385C14.915 2.7276 13.4775 2.24219 11.999 2.24219C10.5205 2.24219 9.08295 2.7276 7.90711 3.62385C6.73128 4.5201 5.88222 5.77762 5.49038 7.20321C5.09853 8.62881 5.18558 10.1436 5.73815 11.5149C6.29071 12.8863 7.27823 14.0383 8.54899 14.7939C5.89783 15.655 3.6578 17.4644 2.25837 19.8752C2.18966 19.9882 2.15332 20.1179 2.15332 20.2502C2.15332 20.3824 2.18966 20.5121 2.25837 20.6252C2.32247 20.7401 2.4164 20.8356 2.53025 20.9016C2.6441 20.9676 2.77365 21.0016 2.90524 21.0002H21.0927C21.2243 21.0016 21.3539 20.9676 21.4677 20.9016C21.5816 20.8356 21.6755 20.7401 21.7396 20.6252C21.8083 20.5121 21.8447 20.3824 21.8447 20.2502C21.8447 20.1179 21.8083 19.9882 21.7396 19.8752Z" fill="#0761FD"/>
</svg>
