<svg width="22" height="23" viewBox="0 0 22 23" fill="none" xmlns="http://www.w3.org/2000/svg">
<path d="M8.25 5.3125V17.6875" stroke="#525C76" stroke-width="1.5" stroke-linecap="round" stroke-linejoin="round"/>
<path d="M2.06251 14.8687C2.06163 14.7104 2.11613 14.5568 2.21656 14.4344C2.317 14.3119 2.45706 14.2285 2.61251 14.1984C3.23085 14.0671 3.78534 13.7275 4.1832 13.2363C4.58106 12.7451 4.79815 12.1321 4.79815 11.5C4.79815 10.8679 4.58106 10.2549 4.1832 9.76373C3.78534 9.27252 3.23085 8.93285 2.61251 8.80156C2.45706 8.7715 2.317 8.68805 2.21656 8.56565C2.11613 8.44324 2.06163 8.28958 2.06251 8.13125V6C2.06251 5.81766 2.13494 5.6428 2.26387 5.51386C2.39281 5.38493 2.56767 5.3125 2.75001 5.3125H19.25C19.4323 5.3125 19.6072 5.38493 19.7361 5.51386C19.8651 5.6428 19.9375 5.81766 19.9375 6V8.13125C19.9384 8.28958 19.8839 8.44324 19.7835 8.56565C19.683 8.68805 19.543 8.7715 19.3875 8.80156C18.7692 8.93285 18.2147 9.27252 17.8168 9.76373C17.419 10.2549 17.2019 10.8679 17.2019 11.5C17.2019 12.1321 17.419 12.7451 17.8168 13.2363C18.2147 13.7275 18.7692 14.0671 19.3875 14.1984C19.543 14.2285 19.683 14.3119 19.7835 14.4344C19.8839 14.5568 19.9384 14.7104 19.9375 14.8687V17C19.9375 17.1823 19.8651 17.3572 19.7361 17.4861C19.6072 17.6151 19.4323 17.6875 19.25 17.6875H2.75001C2.56767 17.6875 2.39281 17.6151 2.26387 17.4861C2.13494 17.3572 2.06251 17.1823 2.06251 17V14.8687Z" stroke="#525C76" stroke-width="1.5" stroke-linecap="round" stroke-linejoin="round"/>
</svg>
