<svg width="20" height="13" viewBox="0 0 20 13" fill="none" xmlns="http://www.w3.org/2000/svg">
<g clip-path="url(#clip0_411_11933)">
<path d="M18.2089 0H1.79109C1.72271 0 1.65422 0 1.58596 0.000398741C1.52826 0.000809565 1.4707 0.00144997 1.41313 0.00302076C1.28759 0.0064161 1.16097 0.013823 1.037 0.0361042C0.911047 0.058772 0.793842 0.0957461 0.6795 0.153962C0.567091 0.211127 0.46418 0.285897 0.374996 0.375118C0.285773 0.46434 0.211003 0.567082 0.153851 0.679611C0.0956224 0.793953 0.0586241 0.911195 0.0361134 1.03725C0.0137126 1.16125 0.00625612 1.28785 0.00287287 1.41326C0.00132624 1.47082 0.000662876 1.52839 0.000287093 1.58594C-0.000111647 1.65434 2.12662e-05 1.72269 2.12662e-05 1.79122V11.0127C2.12662e-05 11.0813 -0.000111647 11.1495 0.000287093 11.218C0.000662876 11.2756 0.00132624 11.3331 0.00287287 11.3907C0.00625612 11.516 0.0137126 11.6426 0.0361134 11.7666C0.0586241 11.8927 0.0956224 12.0099 0.153851 12.1242C0.211003 12.2367 0.285773 12.3396 0.374996 12.4287C0.46418 12.5181 0.567091 12.5928 0.6795 12.6499C0.793842 12.7082 0.911047 12.7452 1.037 12.7679C1.16097 12.79 1.28759 12.7975 1.41313 12.8009C1.4707 12.8022 1.52826 12.803 1.58596 12.8033C1.65422 12.8038 1.72271 12.8038 1.79109 12.8038H18.2089C18.2772 12.8038 18.3457 12.8038 18.4139 12.8033C18.4715 12.803 18.5291 12.8022 18.5869 12.8009C18.7122 12.7975 18.8388 12.79 18.963 12.7679C19.0888 12.7452 19.206 12.7082 19.3204 12.6499C19.4329 12.5928 19.5355 12.5181 19.6249 12.4287C19.714 12.3396 19.7888 12.2367 19.8461 12.1242C19.9044 12.0099 19.9414 11.8927 19.9638 11.7666C19.9862 11.6426 19.9935 11.516 19.9969 11.3907C19.9984 11.3331 19.9992 11.2756 19.9995 11.218C20 11.1495 20 11.0813 20 11.0127V1.79122C20 1.72269 20 1.65434 19.9995 1.58594C19.9992 1.52839 19.9984 1.47082 19.9969 1.41326C19.9935 1.28785 19.9862 1.16125 19.9638 1.03725C19.9414 0.911195 19.9044 0.793953 19.8461 0.679611C19.7888 0.567082 19.714 0.46434 19.6249 0.375118C19.5355 0.285897 19.4329 0.211127 19.3204 0.153962C19.206 0.0957461 19.0888 0.058772 18.963 0.0361042C18.8388 0.013823 18.7122 0.0064161 18.5869 0.00302076C18.5291 0.00144997 18.4715 0.000809565 18.4139 0.000398741C18.3457 0 18.2772 0 18.2089 0Z" fill="black"/>
<path d="M18.2089 0.426758L18.4109 0.427144C18.4656 0.427531 18.5203 0.428123 18.5753 0.429621C18.671 0.432207 18.783 0.437391 18.8873 0.456095C18.978 0.472432 19.0541 0.497275 19.1271 0.534442C19.1992 0.571066 19.2652 0.61906 19.3229 0.676635C19.3807 0.734598 19.4288 0.80074 19.4659 0.873613C19.5029 0.946051 19.5276 1.02176 19.5438 1.11314C19.5625 1.21635 19.5676 1.3286 19.5702 1.42489C19.5717 1.47924 19.5724 1.53359 19.5727 1.58923C19.5732 1.65652 19.5732 1.72378 19.5732 1.7912V11.0127C19.5732 11.0801 19.5732 11.1473 19.5727 11.216C19.5724 11.2703 19.5717 11.3247 19.5702 11.3791C19.5676 11.4753 19.5625 11.5875 19.5436 11.6919C19.5276 11.782 19.5029 11.8577 19.4657 11.9306C19.4287 12.0032 19.3807 12.0693 19.3231 12.1269C19.2651 12.1849 19.1993 12.2328 19.1264 12.2697C19.0539 12.3067 18.978 12.3315 18.8882 12.3477C18.7817 12.3667 18.6651 12.3719 18.5772 12.3743C18.5219 12.3755 18.4669 12.3763 18.4106 12.3765C18.3435 12.377 18.2761 12.377 18.2089 12.377H1.79107C1.79017 12.377 1.7893 12.377 1.7884 12.377C1.72201 12.377 1.6555 12.377 1.5879 12.3765C1.53279 12.3763 1.4778 12.3755 1.42464 12.3743C1.33479 12.3719 1.21808 12.3667 1.11248 12.3478C1.0219 12.3315 0.945955 12.3067 0.872538 12.2692C0.800295 12.2326 0.734525 12.1848 0.676515 12.1267C0.618951 12.0692 0.571114 12.0034 0.534128 11.9306C0.497105 11.8578 0.472335 11.7819 0.456048 11.6907C0.437222 11.5865 0.43205 11.4747 0.429466 11.3792C0.42799 11.3245 0.427374 11.2699 0.427024 11.2155L0.426758 11.0551L0.42677 11.0127V1.7912L0.426758 1.74884L0.427012 1.58872C0.427374 1.53405 0.42799 1.47939 0.429466 1.42476C0.43205 1.32917 0.437222 1.21738 0.456204 1.11228C0.472347 1.02191 0.497105 0.945955 0.534321 0.872864C0.571017 0.80062 0.618939 0.73467 0.676806 0.676817C0.734442 0.619156 0.800426 0.571223 0.87313 0.534249C0.945761 0.497262 1.02185 0.472432 1.11244 0.456132C1.21681 0.437379 1.32883 0.432207 1.42477 0.429609C1.47946 0.428123 1.53415 0.427531 1.58842 0.427157L1.79107 0.426758H18.2089Z" fill="white"/>
<path d="M5.45971 4.30642C5.63096 4.09223 5.74716 3.80463 5.71651 3.51074C5.46583 3.52321 5.15993 3.67612 4.98282 3.89048C4.8238 4.07405 4.68305 4.37369 4.71975 4.65526C5.00115 4.67966 5.28229 4.5146 5.45971 4.30642Z" fill="black"/>
<path d="M5.71353 4.71025C5.30487 4.68591 4.95741 4.94218 4.76225 4.94218C4.56699 4.94218 4.26814 4.72252 3.94491 4.72844C3.5242 4.73462 3.13384 4.97248 2.92035 5.35081C2.48124 6.10764 2.80447 7.23029 3.23148 7.84669C3.43885 8.15164 3.68876 8.48742 4.01806 8.47536C4.32919 8.46315 4.45114 8.2739 4.82933 8.2739C5.20725 8.2739 5.3171 8.47536 5.64645 8.46925C5.988 8.46315 6.20152 8.16415 6.40889 7.8589C6.64678 7.51127 6.74416 7.17561 6.75029 7.15718C6.74416 7.15108 6.09169 6.90077 6.08564 6.15023C6.07948 5.52179 6.5979 5.22287 6.6223 5.20433C6.32954 4.77134 5.87212 4.72252 5.71353 4.71025Z" fill="black"/>
<path d="M9.27189 3.85974C10.1601 3.85974 10.7786 4.472 10.7786 5.3634C10.7786 6.25799 10.1474 6.87343 9.24962 6.87343H8.26619V8.43736H7.55566V3.85974H9.27189V3.85974ZM8.26619 6.27702H9.08147C9.70009 6.27702 10.0522 5.94396 10.0522 5.36658C10.0522 4.78926 9.70009 4.45933 9.08465 4.45933H8.26619V6.27702Z" fill="black"/>
<path d="M10.9639 7.48883C10.9639 6.90508 11.4112 6.54664 12.2043 6.50221L13.1178 6.44831V6.19137C13.1178 5.8202 12.8672 5.59815 12.4486 5.59815C12.0519 5.59815 11.8045 5.78844 11.7443 6.08668H11.0971C11.1352 5.48391 11.6491 5.03979 12.4739 5.03979C13.2828 5.03979 13.7999 5.46806 13.7999 6.13741V8.43732H13.1432V7.88851H13.1274C12.9339 8.25969 12.512 8.49441 12.0742 8.49441C11.4207 8.49441 10.9639 8.08836 10.9639 7.48883ZM13.1178 7.18747V6.92418L12.2962 6.9749C11.887 7.00348 11.6554 7.18429 11.6554 7.4698C11.6554 7.76161 11.8965 7.95197 12.2645 7.95197C12.7435 7.95197 13.1178 7.62204 13.1178 7.18747Z" fill="black"/>
<path d="M14.4198 9.66505V9.10988C14.4704 9.12255 14.5846 9.12255 14.6418 9.12255C14.959 9.12255 15.1303 8.98934 15.2349 8.64674C15.2349 8.64038 15.2953 8.44371 15.2953 8.44053L14.0898 5.1001H14.8321L15.676 7.81561H15.6886L16.5325 5.1001H17.2558L16.0058 8.6118C15.7204 9.42078 15.3905 9.6809 14.6989 9.6809C14.6418 9.6809 14.4704 9.67453 14.4198 9.66505Z" fill="black"/>
</g>
<defs>
<clipPath id="clip0_411_11933">
<rect width="20" height="12.8038" fill="white"/>
</clipPath>
</defs>
</svg>
