<svg width="20" height="28" viewBox="0 0 20 28" fill="none" xmlns="http://www.w3.org/2000/svg">
<g clip-path="url(#clip0_421_8711)">
<path d="M7.87586 14.331C8.1931 14.7103 8.51035 15.0621 8.82759 15.3862H8.47586C8.27586 15.1724 8.07586 14.9517 7.87586 14.7241C6.67586 13.3241 5.48966 11.6069 4.33103 10.0414V9.62069C5.50345 11.1793 6.68276 12.9103 7.87586 14.331ZM10.4966 13.1793C9.78621 12.3862 9.31034 11.3517 8.91035 10.2207C8.31034 8.51724 7.89655 6.57931 7.08276 4.91034C6.68276 4.06897 6.17241 3.29655 5.48966 2.65517C5.15172 2.33793 4.76552 2.05517 4.33793 1.8069V2.17241C4.57931 2.31724 4.8 2.48276 5.01379 2.65517C6.06897 3.53103 6.72414 4.72414 7.23448 6.03448C7.61379 7.02069 7.91035 8.06896 8.22069 9.09655C8.68966 10.6345 9.2 12.1172 10.131 13.2345C10.6 13.7931 11.1724 14.2621 11.8897 14.5862C12.2138 14.7379 12.5724 14.8552 12.9655 14.9448C13.131 14.8759 13.2897 14.8 13.4414 14.7103C12.8897 14.6207 12.4138 14.4759 11.9931 14.2828C11.3862 14.0069 10.9034 13.6345 10.4966 13.1793ZM8.2 13.7862C6.94483 12.1379 5.77931 10.069 4.56552 8.30345C4.48966 8.2 4.41379 8.08965 4.34483 7.98621V8.44828C4.4069 8.53103 4.46207 8.62069 4.52414 8.71035C5.73103 10.4897 6.89655 12.5517 8.17931 14.1862C8.52414 14.6276 8.87586 15.0345 9.24138 15.3931H9.62069C9.12414 14.9379 8.65517 14.3862 8.2 13.7862ZM8.84138 12.6966C7.78621 10.9931 7.0069 8.84138 5.9931 6.97241C5.51034 6.08965 4.97931 5.26897 4.33793 4.58621V5.02069C4.92414 5.70345 5.42069 6.51034 5.87586 7.37931C6.86207 9.25517 7.64828 11.4 8.75172 13.1034C9.30345 13.9517 9.93793 14.6897 10.7172 15.2276C10.7931 15.2828 10.8759 15.331 10.9586 15.3793C11.1379 15.3655 11.3103 15.3517 11.4828 15.331C11.469 15.3241 11.4552 15.3172 11.4345 15.3103C10.3586 14.7655 9.53793 13.8345 8.84138 12.6966ZM9.15862 12.1586C8.2069 10.4276 7.61379 8.23448 6.69655 6.31034C6.24138 5.34483 5.70345 4.44828 4.9931 3.70345C4.78621 3.48966 4.57241 3.28966 4.33793 3.10345V3.49655C5.30345 4.32414 5.98621 5.46207 6.55172 6.71034C7.42759 8.63448 8.02069 10.8207 9.03448 12.5517C9.53793 13.4207 10.1517 14.1724 10.9655 14.7172C11.2759 14.9241 11.6138 15.1034 11.9862 15.2414C12.1793 15.2 12.3655 15.1517 12.5379 15.1034C12.2414 15.0207 11.9655 14.9172 11.7103 14.7931C10.5793 14.2483 9.7931 13.3103 9.15862 12.1586ZM13.3655 7.67586C14.0276 8.50345 14.7172 9.22759 15.4552 9.74483C15.5379 9.8069 15.6276 9.86207 15.7103 9.91724C15.6897 9.7931 15.6621 9.66897 15.6345 9.54483C14.8483 9 14.1034 8.2 13.3862 7.27586C12.0897 5.6 10.8828 3.50345 9.62759 1.71724C9.1931 1.09655 8.75172 0.517241 8.30345 0H7.94483C8.50345 0.613793 9.04828 1.33793 9.58621 2.12414C10.8276 3.92414 12.0414 6.02069 13.3655 7.67586ZM4.33793 12.7034C5.1931 13.6276 6.05517 14.5517 6.88276 15.3931H7.2C6.27586 14.469 5.29655 13.4138 4.33793 12.3724V12.7034ZM8.51724 13.2414C7.36552 11.5655 6.3931 9.45517 5.27586 7.64138C4.97241 7.15172 4.66207 6.68966 4.33793 6.25517V6.72414C4.63448 7.13793 4.91724 7.57931 5.1931 8.04138C6.28966 9.86897 7.26207 11.9724 8.45517 13.6414C8.93793 14.3103 9.44828 14.9103 10.0276 15.3931H10.3379C10.3862 15.3931 10.4276 15.3931 10.4759 15.3931C9.75172 14.8552 9.11034 14.1034 8.51724 13.2414ZM4.33793 14.8345C4.55172 15.0207 4.76552 15.2069 4.97931 15.3931H5.28276C4.97241 15.1241 4.65517 14.8483 4.33793 14.5724V14.8345ZM4.33793 11.0828V11.4552C5.41379 12.7586 6.52414 14.1241 7.5931 15.269C7.63448 15.3103 7.66897 15.3517 7.71035 15.3931H8.04138C7.88276 15.2276 7.72414 15.0552 7.55862 14.8828C6.49655 13.7241 5.4 12.3724 4.33793 11.0828ZM4.33793 13.8207C4.8069 14.2759 5.27586 14.7241 5.73103 15.1586C5.81379 15.2345 5.89655 15.3172 5.97931 15.3931H6.28966C5.65517 14.7931 4.9931 14.1655 4.33793 13.5241V13.8207ZM13.7655 1.91724C13.3172 1.48966 12.869 1.06207 12.4276 0.634483C12.2414 0.524138 12.0345 0.42069 11.8138 0.337931C12.5586 1.04828 13.3379 1.8 14.1103 2.53103C14.0069 2.31724 13.8897 2.11034 13.7655 1.91724ZM13.7103 6.44828C13.7586 6.37931 13.8069 6.30345 13.8552 6.22759C12.531 4.62759 11.2138 2.70345 9.92414 1.06897C9.63448 0.689655 9.34483 0.337931 9.05517 0H8.72414C9.11724 0.448276 9.51724 0.944828 9.92414 1.46897C11.1586 3.06207 12.4276 4.90345 13.7103 6.44828ZM10.7517 12.6552C10.0552 11.8552 9.64138 10.8069 9.32414 9.65517C8.84138 7.91724 8.57931 5.94483 7.83448 4.22069C7.46207 3.35862 6.96552 2.55862 6.25517 1.88276C5.73793 1.3931 5.11034 0.972414 4.33793 0.648276V1.0069C4.88966 1.24828 5.35862 1.54483 5.75862 1.88276C6.85517 2.8 7.47586 4.02069 7.91035 5.36552C8.23448 6.37241 8.45517 7.44828 8.69655 8.48966C8.87586 9.27586 9.06897 10.0414 9.33103 10.7586C9.71724 11.8345 10.2621 12.7931 11.1586 13.4897C11.8138 14 12.6483 14.3655 13.731 14.531C13.8621 14.4414 13.9862 14.3448 14.1034 14.2483C13.3862 14.1655 12.7793 14.0069 12.269 13.7724C11.6414 13.4966 11.1517 13.1172 10.7517 12.6552ZM15.3448 10.6345C14.3241 10.1034 13.4552 9.16552 12.669 8.03448C11.4828 6.33793 10.4759 4.2069 9.33103 2.36552C8.77931 1.48276 8.2 0.668966 7.54483 0H7.15172C7.92414 0.737931 8.61379 1.70345 9.26207 2.77241C10.3862 4.62069 11.4 6.75172 12.6207 8.43448C13.2345 9.27586 13.8966 10.0069 14.6621 10.5379C15.0069 10.7793 15.3724 10.9724 15.7586 11.1172C15.7655 11.0207 15.7724 10.9241 15.7793 10.8276C15.6207 10.7724 15.4828 10.7034 15.3448 10.6345ZM14.4552 4.22759C14.4552 4.2069 14.4552 4.1931 14.4552 4.17241C14.4552 4.07586 14.4552 3.98621 14.4483 3.88966C13.2414 2.64828 11.9931 1.28966 10.8414 0.0827586C10.7241 0.062069 10.6069 0.0482759 10.4828 0.0344828C10.5172 0.0758621 10.5586 0.110345 10.5931 0.151724C11.8207 1.44138 13.1655 2.90345 14.4552 4.22759ZM14.2207 5.45517C14.2483 5.37241 14.2828 5.28276 14.3034 5.1931C12.9448 3.67586 11.5379 1.91034 10.2276 0.413793C10.1034 0.275862 9.98621 0.137931 9.86207 0C9.77241 0 9.66897 0 9.57241 0H9.54483C9.77931 0.262069 10.0207 0.537931 10.2621 0.813793C11.531 2.28966 12.8966 3.9931 14.2207 5.45517ZM11.2345 9.55172C10.269 7.81379 9.65517 5.6069 8.73103 3.66897C8.26897 2.69655 7.72414 1.7931 7.0069 1.04828C6.62069 0.648276 6.17931 0.289655 5.68276 0H5.02759C5.48966 0.213793 5.90345 0.475862 6.26897 0.77931C7.28276 1.62069 7.9931 2.78621 8.57931 4.06897C9.46897 6 10.0828 8.2 11.1103 9.94483C11.6207 10.8138 12.2414 11.5793 13.0552 12.1241C13.6483 12.5241 14.3517 12.8069 15.1793 12.9379C15.2345 12.8414 15.2828 12.7517 15.3241 12.6483C14.7517 12.5655 14.2483 12.4138 13.8 12.2C12.669 11.6552 11.8759 10.7103 11.2345 9.55172ZM11.5448 11.8828C10.8276 11.0897 10.3448 10.0552 9.94483 8.91035C9.33793 7.2 8.91724 5.26207 8.09655 3.58621C7.68966 2.74483 7.17931 1.97241 6.48966 1.33103C5.91035 0.786207 5.2069 0.337931 4.33793 0.0206897V0.358621C4.9931 0.606897 5.54483 0.937931 6.01379 1.33103C7.06897 2.2069 7.73103 3.4 8.24828 4.71724C8.63448 5.70345 8.93103 6.75862 9.24828 7.78621C9.72414 9.32414 10.2414 10.8138 11.1724 11.9379C11.6414 12.4966 12.2138 12.9655 12.9379 13.2966C13.4207 13.5172 13.9724 13.6759 14.6069 13.7586C14.6897 13.6621 14.7724 13.5655 14.8414 13.469C14.1448 13.3931 13.5517 13.2276 13.0345 12.9931C12.4414 12.7103 11.9517 12.3379 11.5448 11.8828ZM11.9517 8.7931C10.8759 7.07586 10.0621 4.90345 9.02759 3.02069C8.51035 2.06897 7.93103 1.2 7.22759 0.482759C7.06207 0.310345 6.88966 0.151724 6.70345 0H6.22759C6.33103 0.0758621 6.42759 0.151724 6.52414 0.227586C7.49655 1.02759 8.24828 2.16552 8.91724 3.42069C9.92414 5.31035 10.7379 7.47586 11.8621 9.18621C12.4276 10.0414 13.069 10.7862 13.8552 11.3241C14.3586 11.669 14.9241 11.9241 15.5586 12.069C15.5862 11.9793 15.6138 11.8828 15.6414 11.7862C15.2621 11.7034 14.9103 11.5724 14.5793 11.4069C13.4966 10.8759 12.669 9.93793 11.9517 8.7931ZM1.58621 25.3724C0.958621 25.3724 0.496552 25.8276 0.496552 26.4621C0.496552 27.0897 0.951724 27.5517 1.58621 27.5517C2.21379 27.5517 2.67586 27.0966 2.67586 26.4621C2.67586 25.8345 2.22069 25.3724 1.58621 25.3724ZM1.58621 28C0.696552 28 0.0275862 27.3517 0.0275862 26.469V23.8345H0.489655V25.3448C0.765517 25.0828 1.15172 24.9241 1.58621 24.9241C2.47586 24.9241 3.14483 25.5793 3.14483 26.4621C3.14483 27.3448 2.48276 28 1.58621 28ZM6.16552 26.2138C6.06897 25.6897 5.66897 25.3655 5.14483 25.3655C4.61379 25.3655 4.21379 25.7034 4.11724 26.2138H6.16552ZM4.11034 26.6414C4.18621 27.1862 4.58621 27.5448 5.14483 27.5448C5.55172 27.5448 5.87586 27.3517 6.06207 27.0345H6.55172C6.30345 27.6414 5.78621 27.9931 5.14483 27.9931C4.28966 27.9931 3.64138 27.331 3.64138 26.4552C3.64138 25.5793 4.28966 24.9172 5.14483 24.9172C6.03448 24.9172 6.62759 25.6069 6.62759 26.4621C6.62759 26.5172 6.62069 26.5724 6.62069 26.6276H4.11034V26.6414ZM9.49655 26.2828C9.49655 25.6828 9.21379 25.3517 8.70345 25.3517C8.2 25.3517 7.81379 25.7793 7.81379 26.331V27.9379H7.35172V24.9931H7.68276L7.77241 25.4552C7.9931 25.131 8.37241 24.931 8.82759 24.931C9.52414 24.931 9.96552 25.4552 9.96552 26.1724V27.9379H9.50345V26.2828H9.49655ZM13.1586 26.2138C13.0621 25.6897 12.6621 25.3655 12.1379 25.3655C11.6069 25.3655 11.2069 25.7034 11.1103 26.2138H13.1586ZM11.1034 26.6414C11.1793 27.1862 11.5793 27.5448 12.1379 27.5448C12.5448 27.5448 12.869 27.3517 13.0552 27.0345H13.5448C13.2966 27.6414 12.7793 27.9931 12.1379 27.9931C11.2828 27.9931 10.6345 27.331 10.6345 26.4552C10.6345 25.5793 11.2828 24.9172 12.1379 24.9172C13.0276 24.9172 13.6207 25.6069 13.6207 26.4621C13.6207 26.5172 13.6138 26.5724 13.6138 26.6276H11.1034V26.6414ZM15.869 25.0138V25.4H14.9655V27.931H14.5034V25.4H13.931V25.0138H14.5103V24.7724C14.5103 24.1448 14.7931 23.8345 15.4552 23.8345H15.869V24.2069H15.5379C15.1241 24.2069 14.9586 24.3655 14.9586 24.7793V25.0069H15.869V25.0138ZM16.4345 24.9931H16.8966V27.931H16.4345V24.9931ZM19.1793 27.5035H19.5379V27.9379H19.1241C18.4966 27.9379 18.1034 27.5448 18.1034 26.9103V25.4H17.4552V25.0138H18.1034V24.1448H18.5655V25.0138H19.5172V25.4H18.5655V26.8828C18.5655 27.2828 18.7862 27.5035 19.1793 27.5035ZM8.87586 20.5034C8.87586 20.731 8.93793 20.9379 9.07586 21.1241C9.2069 21.3172 9.37931 21.4483 9.58621 21.5172L9.6069 21.5241L9.63448 21.5172C9.84138 21.4414 10.0138 21.3103 10.1448 21.1241C10.2759 20.931 10.3448 20.731 10.3448 20.5034C10.3448 20.2345 10.2759 20.0207 10.1448 19.8621C10.0138 19.7034 9.83448 19.6276 9.61379 19.6276C9.38621 19.6276 9.21379 19.7034 9.08276 19.8621C8.93793 20.0276 8.87586 20.2345 8.87586 20.5034ZM19.5172 19.6897V20.8897C19.5172 21.2414 19.4138 21.5172 19.2069 21.7172C19.0207 21.8966 18.7655 21.9862 18.4483 21.9862H15.5655C15.2 21.9862 14.9172 21.8621 14.7241 21.6138C14.5241 21.8621 14.2414 21.9862 13.8759 21.9862H9.97931C9.8 21.9862 9.70345 21.9517 9.5931 21.9034C9.47586 21.9448 9.37931 21.9862 9.2069 21.9862H5.91034H5.90345C5.53793 21.9862 5.25517 21.8621 5.06207 21.6138C4.86207 21.8621 4.57931 21.9862 4.2069 21.9862H1.02069C0.710345 21.9862 0.462069 21.8897 0.275862 21.6897C0.0896552 21.5034 0 21.2345 0 20.9103V19.8621H0.441379V20.8552C0.441379 21.3379 0.662069 21.5724 1.11034 21.5724H4.16552C4.61379 21.5724 4.83448 21.3379 4.83448 20.8552V19.6897H5.27586V20.8828C5.27586 21.3517 5.49655 21.5793 5.94483 21.5793H8.91035C8.6 21.2828 8.44138 20.9241 8.44138 20.5172C8.44138 20.1103 8.55172 19.7862 8.77931 19.5517C8.98621 19.3379 9.25517 19.2276 9.5931 19.2276C9.97241 19.2276 10.269 19.3655 10.4828 19.6414C10.6621 19.869 10.7448 20.1655 10.7448 20.5172C10.7448 20.931 10.5862 21.2828 10.2828 21.5793H13.8276C14.2759 21.5793 14.4966 21.3517 14.4966 20.8828V19.6966H14.9379V20.8897C14.9379 21.3586 15.1586 21.5862 15.6069 21.5862H18.3862C18.8345 21.5862 19.0552 21.3586 19.0552 20.8897V19.7034L19.5172 19.6897ZM16.4207 24.0552C16.4207 24.1448 16.4414 24.2138 16.4897 24.2621C16.5379 24.3103 16.6069 24.331 16.6897 24.331C16.7724 24.331 16.8414 24.3103 16.8828 24.2621C16.9241 24.2138 16.9448 24.1448 16.9448 24.0552C16.9448 23.9724 16.9241 23.9034 16.8828 23.8621C16.8414 23.8138 16.7724 23.7931 16.6897 23.7931C16.6 23.7931 16.5379 23.8138 16.4897 23.8621C16.4483 23.9034 16.4207 23.9724 16.4207 24.0552ZM18.7793 22.8828C18.7793 22.9724 18.8 23.0414 18.8483 23.0897C18.8966 23.1379 18.9655 23.1586 19.0483 23.1586C19.131 23.1586 19.2 23.1379 19.2414 23.0897C19.2828 23.0414 19.3034 22.9724 19.3034 22.8828C19.3034 22.8 19.2828 22.731 19.2414 22.6897C19.2 22.6414 19.131 22.6207 19.0483 22.6207C18.9586 22.6207 18.8966 22.6414 18.8483 22.6897C18.8 22.731 18.7793 22.7931 18.7793 22.8828ZM14.4621 18.5034C14.4621 18.5931 14.4828 18.6621 14.531 18.7103C14.5793 18.7586 14.6483 18.7793 14.731 18.7793C14.8138 18.7793 14.8828 18.7586 14.9241 18.7103C14.9655 18.6621 14.9862 18.5931 14.9862 18.5034C14.9862 18.4207 14.9655 18.3517 14.9241 18.3103C14.8828 18.2621 14.8138 18.2414 14.731 18.2414C14.6414 18.2414 14.5793 18.2621 14.531 18.3103C14.4897 18.3517 14.4621 18.4207 14.4621 18.5034ZM9.28966 18.4621C9.28966 18.5517 9.31034 18.6207 9.35862 18.669C9.4069 18.7172 9.47586 18.7379 9.55862 18.7379C9.64138 18.7379 9.71035 18.7172 9.75172 18.669C9.7931 18.6207 9.81379 18.5517 9.81379 18.4621C9.81379 18.3793 9.7931 18.3103 9.75172 18.269C9.71035 18.2207 9.64138 18.2 9.55862 18.2C9.46897 18.2 9.4069 18.2207 9.35862 18.269C9.31034 18.3103 9.28966 18.3793 9.28966 18.4621ZM2.90345 18.9379C2.90345 19.0276 2.92414 19.0966 2.97241 19.1448C3.02069 19.1931 3.08966 19.2138 3.17241 19.2138C3.25517 19.2138 3.32414 19.1931 3.36552 19.1448C3.4069 19.0966 3.42759 19.0276 3.42759 18.9379C3.42759 18.8552 3.4069 18.7862 3.36552 18.7448C3.32414 18.6966 3.25517 18.6759 3.17241 18.6759C3.08276 18.6759 3.02069 18.6966 2.97241 18.7448C2.92414 18.7862 2.90345 18.8552 2.90345 18.9379ZM2.1931 18.9379C2.1931 19.0276 2.21379 19.0966 2.26207 19.1448C2.31034 19.1931 2.37931 19.2138 2.46207 19.2138C2.54483 19.2138 2.61379 19.1931 2.65517 19.1448C2.69655 19.0966 2.71724 19.0276 2.71724 18.9379C2.71724 18.8552 2.69655 18.7862 2.65517 18.7448C2.61379 18.6966 2.54483 18.6759 2.46207 18.6759C2.37241 18.6759 2.31034 18.6966 2.26207 18.7448C2.21379 18.7862 2.1931 18.8552 2.1931 18.9379Z" fill="#E4032E"/>
</g>
<defs>
<clipPath id="clip0_421_8711">
<rect width="19.531" height="28" fill="white"/>
</clipPath>
</defs>
</svg>
