<svg width="16" height="17" viewBox="0 0 16 17" fill="none" xmlns="http://www.w3.org/2000/svg">
<path d="M8.57756 2.49999L14.9282 13.5C14.9867 13.6013 15.0175 13.7163 15.0175 13.8333C15.0175 13.9503 14.9867 14.0653 14.9282 14.1667C14.8697 14.268 14.7856 14.3522 14.6842 14.4107C14.5829 14.4692 14.4679 14.5 14.3509 14.5H1.64956C1.53254 14.5 1.41758 14.4692 1.31623 14.4107C1.21489 14.3522 1.13073 14.268 1.07222 14.1667C1.01371 14.0653 0.982909 13.9503 0.98291 13.8333C0.982911 13.7163 1.01372 13.6013 1.07223 13.5L7.42289 2.49999C7.48141 2.39865 7.56556 2.3145 7.66691 2.25599C7.76825 2.19749 7.88321 2.16669 8.00023 2.16669C8.11724 2.16669 8.2322 2.19749 8.33354 2.25599C8.43489 2.3145 8.51904 2.39865 8.57756 2.49999V2.49999ZM7.33356 11.1667V12.5H8.66689V11.1667H7.33356ZM7.33356 6.49999V9.83332H8.66689V6.49999H7.33356Z" fill="#FF3236"/>
</svg>
