<svg width="150" height="87" viewBox="0 0 150 87" fill="none" xmlns="http://www.w3.org/2000/svg">
<g clip-path="url(#clip0_1_2528)">
<path d="M23.4458 45.1105H23.4366C22.6756 45.1192 21.929 44.9027 21.291 44.4883C20.7111 44.1122 20.2388 43.5923 19.9202 42.9795C19.6017 42.3667 19.4477 41.6818 19.4735 40.9918L20.9646 3.80206C21.0029 2.77904 21.4376 1.81083 22.177 1.10155C22.9163 0.392276 23.9027 -0.00265585 24.928 1.34434e-05H109.743C112.451 -0.000165136 115.067 0.979277 117.107 2.757L137.545 20.563C140.174 22.1173 142.322 24.3662 143.753 27.0617C145.184 29.7572 145.842 32.7947 145.654 35.8396C145.527 37.9891 145.439 39.3046 145.38 40.1751C145.268 41.5321 145.232 42.8943 145.271 44.2554L145.275 44.8408L145.179 44.841L23.4458 45.1105Z" fill="#E8E8E8"/>
<path d="M97.1217 33.4278H27.6157C26.8122 33.4269 26.0418 33.1078 25.4736 32.5405C24.9055 31.9732 24.5859 31.2041 24.585 30.4018V9.77975C24.5859 8.97749 24.9055 8.20835 25.4736 7.64107C26.0418 7.07379 26.8122 6.75469 27.6157 6.75378H97.1217C97.9252 6.75469 98.6955 7.07379 99.2637 7.64107C99.8319 8.20835 100.151 8.97749 100.152 9.77975V30.4018C100.151 31.2041 99.8319 31.9732 99.2637 32.5405C98.6955 33.1078 97.9252 33.4269 97.1217 33.4278Z" fill="#D2D2D2"/>
<path d="M123.829 24.7809C123.681 24.7808 123.533 24.7604 123.39 24.7202L108.719 20.6239C108.383 20.5285 108.085 20.3273 107.872 20.0502C107.659 19.7731 107.54 19.4349 107.534 19.0854L107.42 10.1792C107.417 9.96106 107.459 9.74464 107.542 9.54289C107.625 9.34114 107.748 9.15823 107.903 9.00512C108.059 8.852 108.244 8.73185 108.447 8.65187C108.65 8.57189 108.868 8.53372 109.086 8.53966L117.79 8.77783C118.211 8.78845 118.611 8.96268 118.905 9.26335L125.197 15.6767C125.35 15.8333 125.47 16.0191 125.549 16.2231C125.629 16.4271 125.666 16.6449 125.659 16.8637L125.447 23.2149C125.433 23.6342 125.256 24.0317 124.955 24.3237C124.653 24.6158 124.25 24.7796 123.829 24.7809L123.829 24.7809Z" fill="white"/>
<path d="M135.946 51.6598C140.001 51.6598 143.288 48.3775 143.288 44.3286C143.288 40.2797 140.001 36.9974 135.946 36.9974C131.89 36.9974 128.603 40.2797 128.603 44.3286C128.603 48.3775 131.89 51.6598 135.946 51.6598Z" fill="#1B1D28"/>
<path d="M135.946 48.9669C138.511 48.9669 140.591 46.8903 140.591 44.3288C140.591 41.7672 138.511 39.6907 135.946 39.6907C133.38 39.6907 131.3 41.7672 131.3 44.3288C131.3 46.8903 133.38 48.9669 135.946 48.9669Z" fill="white"/>
<path d="M52.1039 51.7347C56.1592 51.7347 59.4466 48.4524 59.4466 44.4036C59.4466 40.3547 56.1592 37.0724 52.1039 37.0724C48.0487 37.0724 44.7612 40.3547 44.7612 44.4036C44.7612 48.4524 48.0487 51.7347 52.1039 51.7347Z" fill="#1B1D28"/>
<path d="M52.1044 49.0416C54.6699 49.0416 56.7497 46.965 56.7497 44.4035C56.7497 41.8419 54.6699 39.7654 52.1044 39.7654C49.5388 39.7654 47.459 41.8419 47.459 44.4035C47.459 46.965 49.5388 49.0416 52.1044 49.0416Z" fill="white"/>
<path d="M125.98 25.8723H125.381C124.859 25.8717 124.358 25.6644 123.989 25.2958C123.62 24.9272 123.412 24.4274 123.412 23.9061V19.5673C123.412 19.046 123.62 18.5462 123.989 18.1776C124.358 17.809 124.859 17.6017 125.381 17.6011H125.98C126.502 17.6017 127.003 17.809 127.372 18.1776C127.741 18.5462 127.949 19.046 127.95 19.5673V23.9061C127.949 24.4274 127.741 24.9272 127.372 25.2958C127.003 25.6644 126.502 25.8717 125.98 25.8723Z" fill="#1B1D28"/>
<path d="M63.4809 18.3702H28.2773V19.2679H63.4809V18.3702Z" fill="#E8E8E8"/>
<path d="M63.4809 24.355H28.2773V25.2527H63.4809V24.355Z" fill="#E8E8E8"/>
<path d="M37.9434 31.6884H35.3959C35.1171 31.6884 34.8498 31.5778 34.6526 31.381C34.4555 31.1841 34.3447 30.9172 34.3447 30.6388C34.3447 30.3604 34.4555 30.0935 34.6526 29.8966C34.8498 29.6998 35.1171 29.5892 35.3959 29.5892H37.9434C38.2222 29.5892 38.4896 29.6998 38.6867 29.8966C38.8839 30.0935 38.9946 30.3604 38.9946 30.6388C38.9946 30.9172 38.8839 31.1841 38.6867 31.381C38.4896 31.5778 38.2222 31.6884 37.9434 31.6884H37.9434Z" fill="#E8E8E8"/>
<path d="M40.94 29.7812C40.7122 29.7812 40.4937 29.8716 40.3326 30.0324C40.1715 30.1932 40.0811 30.4114 40.0811 30.6388C40.0811 30.8662 40.1715 31.0844 40.3326 31.2452C40.4937 31.406 40.7122 31.4964 40.94 31.4964H43.4874C43.7152 31.4964 43.9337 31.406 44.0948 31.2452C44.2558 31.0844 44.3463 30.8662 44.3463 30.6388C44.3463 30.4114 44.2558 30.1932 44.0948 30.0324C43.9337 29.8716 43.7152 29.7812 43.4874 29.7812H40.94Z" fill="#E8E8E8"/>
<path d="M49.0323 31.6884H46.4848C46.206 31.6884 45.9386 31.5778 45.7415 31.381C45.5444 31.1841 45.4336 30.9172 45.4336 30.6388C45.4336 30.3604 45.5444 30.0935 45.7415 29.8966C45.9386 29.6998 46.206 29.5892 46.4848 29.5892H49.0323C49.3111 29.5892 49.5785 29.6998 49.7756 29.8966C49.9727 30.0935 50.0835 30.3604 50.0835 30.6388C50.0835 30.9172 49.9727 31.1841 49.7756 31.381C49.5785 31.5778 49.3111 31.6884 49.0323 31.6884Z" fill="#E8E8E8"/>
<path d="M63.6468 33.783H32.0199C31.6822 33.7819 31.3587 33.6472 31.1203 33.4084C30.8819 33.1696 30.748 32.8462 30.748 32.509C30.748 32.1718 30.8819 31.8484 31.1203 31.6096C31.3587 31.3708 31.6822 31.2361 32.0199 31.235H63.6468C63.9845 31.2361 64.308 31.3708 64.5464 31.6096C64.7848 31.8484 64.9187 32.1718 64.9187 32.509C64.9187 32.8462 64.7848 33.1696 64.5464 33.4084C64.308 33.6472 63.9845 33.7819 63.6468 33.783Z" fill="#E8E8E8"/>
<path d="M32.5825 24.5119H31.3645C31.2631 24.5118 31.1658 24.4715 31.0941 24.3999C31.0224 24.3283 30.9821 24.2313 30.9819 24.13V21.4677C30.982 21.3664 31.0224 21.2693 31.0941 21.1977C31.1658 21.1261 31.263 21.0858 31.3645 21.0857C31.3852 21.0856 31.4052 21.0774 31.4198 21.0627C31.4345 21.0481 31.4428 21.0282 31.4428 21.0075V20.4322C31.4428 20.2917 31.4987 20.1569 31.5982 20.0575C31.6978 19.9582 31.8327 19.9023 31.9735 19.9023C32.1142 19.9023 32.2492 19.9582 32.3488 20.0575C32.4483 20.1569 32.5042 20.2917 32.5042 20.4322V21.0075C32.5042 21.0282 32.5125 21.0481 32.5272 21.0627C32.5418 21.0774 32.5617 21.0856 32.5825 21.0857C32.6839 21.0858 32.7812 21.1261 32.8529 21.1977C32.9246 21.2693 32.965 21.3664 32.9651 21.4677V24.13C32.9649 24.2313 32.9246 24.3283 32.8529 24.3999C32.7812 24.4715 32.6839 24.5118 32.5825 24.5119Z" fill="#E8E8E8"/>
<path d="M35.4932 24.5118H34.2751C34.1737 24.5117 34.0765 24.4714 34.0048 24.3998C33.9331 24.3283 33.8927 24.2312 33.8926 24.1299V21.4676C33.8927 21.3663 33.933 21.2692 34.0047 21.1976C34.0764 21.126 34.1737 21.0857 34.2751 21.0856C34.2959 21.0856 34.3158 21.0773 34.3305 21.0627C34.3452 21.048 34.3535 21.0281 34.3535 21.0074V20.4321C34.354 20.292 34.4102 20.1577 34.5096 20.0588C34.6091 19.9598 34.7438 19.9043 34.8842 19.9043C35.0246 19.9043 35.1592 19.9598 35.2587 20.0588C35.3582 20.1577 35.4143 20.292 35.4148 20.4321V21.0074C35.4149 21.0281 35.4231 21.048 35.4378 21.0627C35.4525 21.0773 35.4724 21.0856 35.4932 21.0856C35.5946 21.0857 35.6918 21.126 35.7636 21.1976C35.8353 21.2692 35.8756 21.3663 35.8757 21.4676V24.1299C35.8756 24.2312 35.8353 24.3282 35.7635 24.3998C35.6918 24.4714 35.5946 24.5117 35.4932 24.5118Z" fill="#E8E8E8"/>
<path d="M54.1846 18.9242H52.9666C52.8652 18.9241 52.7679 18.8838 52.6962 18.8122C52.6245 18.7406 52.5841 18.6435 52.584 18.5422V15.88C52.5841 15.7787 52.6244 15.6816 52.6962 15.61C52.7679 15.5384 52.8651 15.4981 52.9666 15.498C52.9873 15.498 53.0073 15.4897 53.0219 15.4751C53.0366 15.4604 53.0449 15.4405 53.0449 15.4198V14.8445C53.0455 14.7044 53.1018 14.5703 53.2012 14.4715C53.3007 14.3726 53.4353 14.3171 53.5756 14.3171C53.7159 14.3171 53.8505 14.3726 53.9499 14.4715C54.0494 14.5703 54.1056 14.7044 54.1062 14.8445V15.4198C54.1063 15.4405 54.1145 15.4604 54.1292 15.4751C54.1439 15.4897 54.1638 15.498 54.1846 15.498C54.286 15.4981 54.3833 15.5384 54.455 15.61C54.5267 15.6816 54.567 15.7787 54.5671 15.88V18.5422C54.567 18.6435 54.5267 18.7406 54.455 18.8122C54.3833 18.8838 54.286 18.924 54.1846 18.9242Z" fill="#E8E8E8"/>
<path d="M57.0947 18.9242H55.8767C55.7753 18.9241 55.6781 18.8838 55.6063 18.8122C55.5346 18.7406 55.4943 18.6435 55.4941 18.5422V15.88C55.4943 15.7788 55.5346 15.6816 55.6063 15.61C55.678 15.5384 55.7753 15.4981 55.8767 15.498C55.8975 15.498 55.9174 15.4897 55.9321 15.4751C55.9468 15.4604 55.955 15.4405 55.955 15.4198V14.8445C55.9553 14.7042 56.0113 14.5697 56.1108 14.4705C56.2103 14.3714 56.3452 14.3157 56.4857 14.3157C56.6263 14.3157 56.7611 14.3714 56.8606 14.4705C56.9601 14.5697 57.0162 14.7042 57.0164 14.8445V15.4198C57.0165 15.4405 57.0247 15.4604 57.0394 15.4751C57.0541 15.4897 57.074 15.498 57.0948 15.498C57.1962 15.4981 57.2934 15.5384 57.3652 15.61C57.4369 15.6817 57.4772 15.7788 57.4773 15.88V18.5422C57.4772 18.6435 57.4368 18.7406 57.3651 18.8122C57.2934 18.8838 57.1962 18.9241 57.0947 18.9242Z" fill="#E8E8E8"/>
<path d="M93.1419 11.6953H76.5767V33.7104H93.1419V11.6953Z" fill="#E8E8E8"/>
<path d="M93.1419 16.6754H76.5767V17.1224H93.1419V16.6754Z" fill="#D2D2D2"/>
<path d="M93.1419 22.0393H76.5767V22.4863H93.1419V22.0393Z" fill="#D2D2D2"/>
<path d="M93.1419 27.4036H76.5767V27.8506H93.1419V27.4036Z" fill="#D2D2D2"/>
<path d="M39.2554 24.7615H38.011C37.8389 24.7613 37.6739 24.693 37.5522 24.5715C37.4305 24.4499 37.362 24.2852 37.3618 24.1133V22.5357C37.362 22.3638 37.4305 22.1991 37.5522 22.0775C37.6739 21.956 37.8389 21.8877 38.011 21.8875H39.2554C39.4275 21.8877 39.5925 21.956 39.7142 22.0775C39.8359 22.1991 39.9044 22.3638 39.9046 22.5357V24.1133C39.9044 24.2852 39.8359 24.4499 39.7142 24.5715C39.5925 24.693 39.4275 24.7613 39.2554 24.7615Z" fill="#E8E8E8"/>
<path d="M79.1799 23.4148C79.097 23.4232 79.0136 23.4251 78.9304 23.4206C78.9162 23.4191 78.902 23.4232 78.8908 23.432C78.8796 23.4408 78.8723 23.4536 78.8705 23.4678L78.7114 24.6597C78.6991 24.7462 78.6636 24.8278 78.6087 24.8958C78.5634 24.9499 78.5297 25.0128 78.5098 25.0804C78.4898 25.1481 78.484 25.2191 78.4927 25.2891V27.3138C78.4927 27.3138 78.4824 27.5837 78.6902 27.5837C78.9388 27.6149 79.1904 27.6149 79.439 27.5837C79.439 27.5837 79.6053 27.5523 79.6053 27.3032V25.3096C79.618 25.2401 79.6154 25.1686 79.5977 25.1001C79.58 25.0317 79.5475 24.9679 79.5027 24.9132C79.4495 24.845 79.4152 24.7641 79.4031 24.6785L79.2378 23.4616C79.2359 23.4479 79.2289 23.4355 79.2181 23.4268C79.2074 23.4181 79.1937 23.4138 79.1799 23.4148Z" fill="#D2D2D2"/>
<path d="M81.1955 23.4148C81.1126 23.4232 81.0292 23.4251 80.946 23.4206C80.9319 23.4191 80.9176 23.4232 80.9064 23.432C80.8952 23.4408 80.8879 23.4537 80.8861 23.4678L80.727 24.6597C80.7148 24.7462 80.6793 24.8278 80.6243 24.8958C80.579 24.9499 80.5454 25.0128 80.5254 25.0804C80.5054 25.1481 80.4996 25.2191 80.5083 25.2891V27.3138C80.5083 27.3138 80.498 27.5837 80.7058 27.5837C80.9544 27.6149 81.206 27.6149 81.4546 27.5837C81.4546 27.5837 81.6209 27.5523 81.6209 27.3032V25.3096C81.6336 25.2401 81.631 25.1686 81.6133 25.1001C81.5956 25.0317 81.5631 24.9679 81.5183 24.9132C81.4651 24.845 81.4308 24.7641 81.4187 24.6785L81.2534 23.4616C81.2515 23.4479 81.2445 23.4355 81.2337 23.4268C81.223 23.4181 81.2093 23.4138 81.1955 23.4148Z" fill="#D2D2D2"/>
<path d="M83.2097 23.4148C83.1268 23.4232 83.0434 23.4251 82.9602 23.4206C82.946 23.4191 82.9318 23.4232 82.9206 23.432C82.9094 23.4408 82.9021 23.4536 82.9003 23.4678L82.7412 24.6597C82.7289 24.7462 82.6934 24.8278 82.6385 24.8958C82.5932 24.9499 82.5595 25.0128 82.5395 25.0804C82.5196 25.1481 82.5138 25.2191 82.5225 25.2891V27.3138C82.5225 27.3138 82.5122 27.5837 82.7199 27.5837C82.9686 27.6149 83.2202 27.6149 83.4688 27.5837C83.4688 27.5837 83.6351 27.5523 83.6351 27.3032V25.3096C83.6478 25.2401 83.6452 25.1686 83.6275 25.1001C83.6097 25.0317 83.5773 24.9679 83.5324 24.9132C83.4793 24.845 83.445 24.7641 83.4329 24.6785L83.2675 23.4616C83.2657 23.4479 83.2586 23.4355 83.2479 23.4268C83.2371 23.4181 83.2235 23.4138 83.2097 23.4148Z" fill="#D2D2D2"/>
<path d="M79.1799 18.0507C79.097 18.059 79.0136 18.061 78.9304 18.0565C78.9162 18.0549 78.902 18.059 78.8908 18.0678C78.8796 18.0767 78.8723 18.0895 78.8705 18.1036L78.7114 19.2955C78.6991 19.3821 78.6636 19.4637 78.6087 19.5317C78.5634 19.5858 78.5297 19.6486 78.5098 19.7163C78.4898 19.7839 78.484 19.855 78.4927 19.925V21.9496C78.4927 21.9496 78.4824 22.2196 78.6902 22.2196C78.9388 22.2508 79.1904 22.2508 79.439 22.2196C79.439 22.2196 79.6053 22.1882 79.6053 21.939V19.9455C79.618 19.8759 79.6154 19.8045 79.5977 19.736C79.5799 19.6676 79.5475 19.6038 79.5027 19.5491C79.4495 19.4808 79.4152 19.3999 79.4031 19.3143L79.2378 18.0975C79.2359 18.0838 79.2288 18.0714 79.2181 18.0627C79.2074 18.054 79.1937 18.0497 79.1799 18.0507Z" fill="#D2D2D2"/>
<path d="M81.1955 18.0507C81.1126 18.059 81.0292 18.061 80.946 18.0565C80.9319 18.0549 80.9176 18.059 80.9064 18.0678C80.8952 18.0767 80.8879 18.0895 80.8861 18.1036L80.727 19.2955C80.7148 19.3821 80.6793 19.4637 80.6243 19.5317C80.579 19.5858 80.5454 19.6486 80.5254 19.7163C80.5054 19.7839 80.4996 19.855 80.5083 19.925V21.9496C80.5083 21.9496 80.498 22.2196 80.7058 22.2196C80.9544 22.2508 81.206 22.2508 81.4546 22.2196C81.4546 22.2196 81.6209 22.1882 81.6209 21.939V19.9455C81.6336 19.8759 81.631 19.8044 81.6133 19.736C81.5956 19.6676 81.5631 19.6038 81.5183 19.5491C81.4651 19.4808 81.4308 19.3999 81.4187 19.3143L81.2534 18.0975C81.2515 18.0838 81.2445 18.0714 81.2337 18.0627C81.223 18.054 81.2093 18.0497 81.1955 18.0507Z" fill="#D2D2D2"/>
<path d="M83.2097 18.0507C83.1268 18.059 83.0434 18.061 82.9602 18.0565C82.946 18.0549 82.9318 18.059 82.9206 18.0678C82.9094 18.0767 82.9021 18.0895 82.9003 18.1036L82.7412 19.2955C82.7289 19.3821 82.6934 19.4637 82.6385 19.5317C82.5932 19.5858 82.5595 19.6486 82.5395 19.7163C82.5196 19.7839 82.5138 19.855 82.5225 19.925V21.9496C82.5225 21.9496 82.5122 22.2196 82.7199 22.2196C82.9686 22.2508 83.2202 22.2508 83.4688 22.2196C83.4688 22.2196 83.6351 22.1882 83.6351 21.939V19.9455C83.6478 19.8759 83.6452 19.8045 83.6275 19.736C83.6097 19.6676 83.5773 19.6038 83.5324 19.5491C83.4793 19.4808 83.445 19.3999 83.4329 19.3143L83.2675 18.0975C83.2657 18.0838 83.2586 18.0714 83.2479 18.0627C83.2371 18.054 83.2235 18.0497 83.2097 18.0507Z" fill="#D2D2D2"/>
<path d="M87.3508 18.0507C87.2679 18.059 87.1845 18.061 87.1013 18.0565C87.0871 18.0549 87.0729 18.059 87.0617 18.0678C87.0505 18.0767 87.0432 18.0895 87.0414 18.1036L86.8823 19.2955C86.87 19.3821 86.8345 19.4637 86.7796 19.5317C86.7343 19.5858 86.7006 19.6486 86.6807 19.7163C86.6607 19.7839 86.6549 19.855 86.6636 19.925V21.9496C86.6636 21.9496 86.6533 22.2196 86.8611 22.2196C87.1097 22.2508 87.3613 22.2508 87.6099 22.2196C87.6099 22.2196 87.7763 22.1882 87.7763 21.939V19.9455C87.7889 19.8759 87.7863 19.8045 87.7686 19.736C87.7509 19.6676 87.7184 19.6038 87.6736 19.5491C87.6205 19.4808 87.5861 19.3999 87.574 19.3143L87.4087 18.0975C87.4068 18.0838 87.3998 18.0714 87.389 18.0627C87.3783 18.054 87.3646 18.0497 87.3508 18.0507Z" fill="#D2D2D2"/>
<path d="M89.366 18.0507C89.2831 18.059 89.1996 18.061 89.1164 18.0565C89.1023 18.0549 89.088 18.059 89.0768 18.0678C89.0656 18.0767 89.0584 18.0895 89.0566 18.1036L88.8974 19.2955C88.8852 19.3821 88.8497 19.4637 88.7947 19.5317C88.7494 19.5858 88.7158 19.6486 88.6958 19.7163C88.6758 19.7839 88.67 19.855 88.6787 19.925V21.9496C88.6787 21.9496 88.6685 22.2196 88.8762 22.2196C89.1248 22.2508 89.3764 22.2508 89.625 22.2196C89.625 22.2196 89.7914 22.1882 89.7914 21.939V19.9455C89.804 19.8759 89.8014 19.8045 89.7837 19.736C89.766 19.6676 89.7336 19.6038 89.6887 19.5491C89.6356 19.4808 89.6012 19.3999 89.5891 19.3143L89.4238 18.0975C89.4219 18.0838 89.4149 18.0714 89.4041 18.0627C89.3934 18.054 89.3797 18.0497 89.366 18.0507Z" fill="#D2D2D2"/>
<path d="M91.3806 18.0507C91.2977 18.059 91.2143 18.061 91.1311 18.0565C91.1169 18.0549 91.1027 18.059 91.0915 18.0678C91.0803 18.0767 91.073 18.0895 91.0712 18.1036L90.9121 19.2955C90.8998 19.3821 90.8643 19.4637 90.8094 19.5317C90.7641 19.5858 90.7304 19.6486 90.7104 19.7163C90.6905 19.7839 90.6847 19.855 90.6934 19.925V21.9496C90.6934 21.9496 90.6831 22.2196 90.8908 22.2196C91.1395 22.2508 91.3911 22.2508 91.6397 22.2196C91.6397 22.2196 91.806 22.1882 91.806 21.939V19.9455C91.8187 19.8759 91.8161 19.8045 91.7984 19.736C91.7807 19.6676 91.7482 19.6038 91.7034 19.5491C91.6503 19.4808 91.6159 19.3999 91.6038 19.3143L91.4385 18.0975C91.4366 18.0838 91.4295 18.0714 91.4188 18.0627C91.4081 18.054 91.3944 18.0497 91.3806 18.0507Z" fill="#D2D2D2"/>
<path d="M82.6502 12.7984C82.5673 12.8067 82.4838 12.8086 82.4006 12.8042C82.3865 12.8026 82.3722 12.8067 82.361 12.8155C82.3498 12.8243 82.3426 12.8372 82.3408 12.8513L82.1816 14.0432C82.1694 14.1297 82.1339 14.2113 82.0789 14.2793C82.0336 14.3335 81.9999 14.3963 81.98 14.464C81.96 14.5316 81.9542 14.6027 81.9629 14.6727V16.6973C81.9629 16.6973 81.9526 16.9673 82.1604 16.9673C82.409 16.9985 82.6606 16.9985 82.9092 16.9673C82.9092 16.9673 83.0756 16.9358 83.0756 16.6867V14.6932C83.0883 14.6236 83.0857 14.5521 83.0679 14.4837C83.0502 14.4152 83.0178 14.3515 82.9729 14.2968C82.9198 14.2285 82.8855 14.1476 82.8733 14.062L82.708 12.8452C82.7061 12.8315 82.6991 12.819 82.6883 12.8103C82.6776 12.8016 82.6639 12.7974 82.6502 12.7984Z" fill="#D2D2D2"/>
<path d="M84.6648 12.7984C84.5819 12.8067 84.4985 12.8086 84.4153 12.8042C84.4011 12.8026 84.3869 12.8067 84.3757 12.8155C84.3645 12.8243 84.3572 12.8372 84.3554 12.8513L84.1962 14.0432C84.184 14.1297 84.1485 14.2113 84.0936 14.2793C84.0483 14.3335 84.0146 14.3963 83.9946 14.464C83.9747 14.5316 83.9689 14.6027 83.9775 14.6727V16.6973C83.9775 16.6973 83.9673 16.9673 84.175 16.9673C84.4237 16.9985 84.6752 16.9985 84.9239 16.9673C84.9239 16.9673 85.0902 16.9358 85.0902 16.6867V14.6932C85.1029 14.6236 85.1003 14.5521 85.0826 14.4837C85.0648 14.4152 85.0324 14.3515 84.9875 14.2968C84.9344 14.2285 84.9001 14.1476 84.8879 14.062L84.7226 12.8452C84.7207 12.8315 84.7137 12.819 84.703 12.8103C84.6922 12.8016 84.6786 12.7974 84.6648 12.7984Z" fill="#D2D2D2"/>
<path d="M86.6794 12.7984C86.5965 12.8067 86.5131 12.8086 86.4299 12.8042C86.4158 12.8026 86.4015 12.8067 86.3903 12.8155C86.3791 12.8243 86.3718 12.8372 86.37 12.8513L86.2109 14.0432C86.1986 14.1297 86.1632 14.2113 86.1082 14.2793C86.0629 14.3335 86.0292 14.3963 86.0093 14.464C85.9893 14.5316 85.9835 14.6027 85.9922 14.6727V16.6973C85.9922 16.6973 85.9819 16.9673 86.1897 16.9673C86.4383 16.9985 86.6899 16.9985 86.9385 16.9673C86.9385 16.9673 87.1049 16.9358 87.1049 16.6867V14.6932C87.1175 14.6236 87.1149 14.5521 87.0972 14.4837C87.0795 14.4152 87.047 14.3515 87.0022 14.2968C86.9491 14.2285 86.9147 14.1476 86.9026 14.062L86.7373 12.8452C86.7354 12.8315 86.7284 12.819 86.7176 12.8103C86.7069 12.8016 86.6932 12.7974 86.6794 12.7984Z" fill="#D2D2D2"/>
<path d="M149.808 51.863H11.1542C11.1032 51.863 11.0543 51.8427 11.0182 51.8067C10.9822 51.7707 10.9619 51.7219 10.9619 51.671C10.9619 51.62 10.9822 51.5712 11.0182 51.5352C11.0543 51.4992 11.1032 51.4789 11.1542 51.4789H149.808C149.859 51.4789 149.908 51.4992 149.944 51.5352C149.98 51.5712 150 51.62 150 51.671C150 51.7219 149.98 51.7707 149.944 51.8067C149.908 51.8427 149.859 51.863 149.808 51.863Z" fill="#BBBBBB"/>
<path d="M17.2374 51.7442H15.5483C15.3915 51.7442 15.2412 51.682 15.1303 51.5713C15.0194 51.4606 14.9572 51.3104 14.9572 51.1539C14.9572 50.9974 15.0194 50.8472 15.1303 50.7365C15.2412 50.6258 15.3915 50.5637 15.5483 50.5637H17.2374C17.3942 50.5637 17.5445 50.6258 17.6554 50.7365C17.7663 50.8472 17.8286 50.9974 17.8286 51.1539C17.8286 51.3104 17.7663 51.4606 17.6554 51.5713C17.5445 51.682 17.3942 51.7442 17.2374 51.7442Z" fill="#D2D2D2"/>
<path d="M17.8289 51.4069H14.9574C14.8678 51.4069 14.7819 51.3713 14.7186 51.3081C14.6552 51.2448 14.6196 51.159 14.6196 51.0696C14.6196 50.9801 14.6552 50.8943 14.7186 50.8311C14.7819 50.7678 14.8678 50.7323 14.9574 50.7323H17.8289C17.9184 50.7323 18.0044 50.7678 18.0677 50.8311C18.1311 50.8943 18.1667 50.9801 18.1667 51.0696C18.1667 51.159 18.1311 51.2448 18.0677 51.3081C18.0044 51.3713 17.9184 51.4069 17.8289 51.4069Z" fill="#BBBBBB"/>
<path d="M17.4881 52.8446H15.2507C15.006 52.8443 14.7715 52.747 14.5986 52.5742C14.4257 52.4013 14.3286 52.167 14.3286 51.9228C14.3286 51.6785 14.4257 51.4442 14.5986 51.2714C14.7715 51.0985 15.006 51.0012 15.2507 51.0009H17.4881C17.733 51.0009 17.9678 51.098 18.141 51.2709C18.3141 51.4438 18.4114 51.6783 18.4114 51.9228C18.4114 52.1672 18.3141 52.4017 18.141 52.5746C17.9678 52.7475 17.733 52.8446 17.4881 52.8446Z" fill="#D2D2D2"/>
<path d="M24.1627 53.262H22.4736C22.3168 53.262 22.1665 53.1998 22.0556 53.0892C21.9447 52.9785 21.8824 52.8283 21.8824 52.6718C21.8824 52.5152 21.9447 52.3651 22.0556 52.2544C22.1665 52.1437 22.3168 52.0815 22.4736 52.0815H24.1627C24.3195 52.0815 24.4698 52.1437 24.5807 52.2544C24.6916 52.3651 24.7539 52.5152 24.7539 52.6718C24.7539 52.8283 24.6916 52.9785 24.5807 53.0892C24.4698 53.1998 24.3195 53.262 24.1627 53.262Z" fill="#D2D2D2"/>
<path d="M24.7541 52.9247H21.8827C21.7931 52.9247 21.7072 52.8892 21.6439 52.826C21.5805 52.7627 21.5449 52.6769 21.5449 52.5875C21.5449 52.498 21.5805 52.4122 21.6439 52.349C21.7072 52.2857 21.7931 52.2502 21.8827 52.2502H24.7541C24.8437 52.2502 24.9297 52.2857 24.993 52.349C25.0564 52.4122 25.092 52.498 25.092 52.5875C25.092 52.6769 25.0564 52.7627 24.993 52.826C24.9297 52.8892 24.8437 52.9247 24.7541 52.9247Z" fill="#BBBBBB"/>
<path d="M24.4134 54.3623H22.1759C21.9313 54.362 21.6968 54.2647 21.5239 54.0919C21.351 53.919 21.2539 53.6847 21.2539 53.4405C21.2539 53.1962 21.351 52.9619 21.5239 52.7891C21.6968 52.6162 21.9313 52.5189 22.1759 52.5186H24.4134C24.6583 52.5186 24.8931 52.6157 25.0663 52.7886C25.2394 52.9615 25.3367 53.196 25.3367 53.4405C25.3367 53.685 25.2394 53.9194 25.0663 54.0923C24.8931 54.2652 24.6583 54.3623 24.4134 54.3623Z" fill="#D2D2D2"/>
<path d="M12.1688 56.1813C11.7328 59.0105 33.8173 59.0105 33.3796 56.1808C33.8156 53.3521 11.731 53.3521 12.1688 56.1813Z" fill="#E8E8E8"/>
<path d="M23.3973 57.2626H22.1497V73.7447H23.3973V57.2626Z" fill="#E8E8E8"/>
<path d="M15.4808 55.1386C15.4076 54.9961 15.3028 54.8721 15.1745 54.7759C15.0462 54.6798 14.8976 54.614 14.7401 54.5836C14.5826 54.5533 14.4202 54.559 14.2653 54.6005C14.1103 54.642 13.9668 54.7182 13.8457 54.8232L9.26533 53.7402L8.92756 52.621L7.10034 52.9205C7.34774 53.6818 7.2483 55.6324 8.42457 55.6524L13.6065 56.1082C14.2225 57.3215 16.1136 56.3367 15.4808 55.1386Z" fill="#9F616A"/>
<path d="M5.549 63.0998H10.1568C10.1568 63.2321 14.9058 63.3394 14.9058 63.3394C15.8177 64.006 15.3889 65.721 14.1869 65.6871L5.549 65.6871C3.96039 65.7097 3.95714 63.0775 5.549 63.0998Z" fill="#E8E8E8"/>
<path d="M10.5613 65.6395H9.3136V73.6889H10.5613V65.6395Z" fill="#E8E8E8"/>
<path d="M14.1127 73.6452C14.1127 73.7798 12.222 73.6972 9.88972 73.6972C7.55744 73.6972 5.66675 73.7798 5.66675 73.6452C7.2704 72.1163 12.5319 72.1301 14.1127 73.6452Z" fill="#E8E8E8"/>
<path d="M12.8902 72.6059L14.0668 72.6057L14.6265 69.5588H12.89L12.8902 72.6059Z" fill="#9F616A"/>
<path d="M12.5903 73.7447L16.3843 73.7446C16.4403 71.7565 13.8379 72.2782 12.5902 72.2223L12.5903 73.7447Z" fill="#1B1D28"/>
<path d="M14.6497 70.7164L16.9954 65.4644C17.1913 65.0217 17.2129 64.5216 17.0561 64.0638C16.8992 63.6059 16.5754 63.2238 16.1491 62.9936L11.061 60.2695C9.95065 60.1797 7.7036 59.9802 6.59753 59.8779C4.5868 63.5057 12.98 64.3265 14.1685 64.9487C14.2133 64.9606 14.2552 64.9817 14.2916 65.0106C14.3279 65.0395 14.3578 65.0756 14.3795 65.1166C14.4012 65.1576 14.4142 65.2026 14.4177 65.2489C14.4211 65.2951 14.415 65.3416 14.3996 65.3853L12.2203 70.2738C12.1979 70.3359 12.1899 70.4022 12.1971 70.4677C12.2042 70.5332 12.2262 70.5963 12.2615 70.652C12.2968 70.7078 12.3444 70.7547 12.4006 70.7893C12.4568 70.8239 12.5202 70.8452 12.5859 70.8516C12.9304 70.7716 14.5002 71.2469 14.6497 70.7164Z" fill="#1B1D28"/>
<path d="M12.1218 72.6059L13.2984 72.6057L13.8583 69.5588H12.1216L12.1218 72.6059Z" fill="#9F616A"/>
<path d="M11.8225 73.7447L15.6165 73.7446C15.6725 71.7565 13.07 72.2782 11.8224 72.2223L11.8225 73.7447Z" fill="#1B1D28"/>
<path d="M13.7861 71.0039L16.1319 65.7519C16.3277 65.3092 16.3494 64.8091 16.1925 64.3512C16.0357 63.8934 15.7118 63.5113 15.2855 63.2811L10.1974 60.557C9.22851 60.4794 7.15473 60.2953 6.19816 60.2145L6.19839 60.1915C5.69445 60.8088 5.88256 63.0436 7.37499 63.4231C9.65093 64.2564 12.2802 64.9685 13.305 65.236C13.3498 65.248 13.3917 65.2691 13.428 65.298C13.4643 65.3269 13.4943 65.363 13.516 65.404C13.5377 65.445 13.5506 65.4901 13.5541 65.5363C13.5575 65.5826 13.5514 65.629 13.536 65.6728L11.3567 70.5613C11.3343 70.6233 11.3263 70.6896 11.3335 70.7552C11.3406 70.8207 11.3627 70.8838 11.398 70.9395C11.4332 70.9953 11.4808 71.0422 11.537 71.0768C11.5932 71.1114 11.6566 71.1327 11.7223 71.1391C12.0692 71.0619 13.6349 71.5324 13.7861 71.0039Z" fill="#1B1D28"/>
<path d="M9.36546 60.3103C9.47793 60.2309 11.093 61.0769 11.381 60.4061C10.0373 57.0522 10.9632 55.6039 10.1402 53.6806C9.59843 52.1491 7.7153 52.2546 6.41462 52.2144C5.92973 52.4485 5.53373 52.8331 5.28578 53.3105C5.03782 53.7879 4.95122 54.3326 5.03891 54.8632C5.04652 56.9564 6.30086 58.5528 5.86226 60.071C5.84395 60.1333 5.83842 60.1986 5.84601 60.263C5.85359 60.3274 5.87413 60.3897 5.90639 60.446C5.93866 60.5023 5.98198 60.5515 6.03376 60.5907C6.08555 60.6299 6.14473 60.6582 6.20775 60.674C6.44489 60.6167 9.2971 60.3207 9.41289 60.224L9.36546 60.3103Z" fill="#0761FD"/>
<path d="M7.12743 46.7108C4.04461 46.7246 4.04487 51.4046 7.12758 51.418C10.2103 51.4042 10.21 46.7242 7.12743 46.7108Z" fill="#9F616A"/>
<path d="M6.37622 51.2247C6.50147 51.2794 6.75795 50.2829 6.64306 50.0836C6.47219 49.7873 6.4823 49.7894 6.36887 49.5933C6.02977 49.1824 6.6161 48.5013 6.93078 49.023C6.94973 47.455 10.0023 48.8103 9.70423 47.0649C6.21605 43.6597 1.34627 49.0211 6.37622 51.2247Z" fill="#1B1D28"/>
<path d="M41.1961 62.4062H37.594C37.594 62.5603 33.6565 62.6854 33.6565 62.6854C32.5935 63.4622 33.0937 65.4607 34.4942 65.4212L41.1961 65.4212C43.048 65.4475 43.0505 62.3803 41.1961 62.4062Z" fill="#E8E8E8"/>
<path d="M38.5766 65.3657H37.1227V73.7446H38.5766V65.3657Z" fill="#E8E8E8"/>
<path d="M32.8807 73.5896C32.5943 73.7219 43.0079 73.7214 42.7227 73.5898C40.8539 71.808 34.7228 71.8241 32.8807 73.5896Z" fill="#E8E8E8"/>
<path d="M11.5803 57.04L15.676 53.814C16.9536 54.2739 17.661 52.2639 16.3738 51.8248C16.2226 51.7713 16.0612 51.7528 15.9018 51.7707C15.7424 51.7887 15.5891 51.8425 15.4536 51.9283C15.3181 52.014 15.2039 52.1294 15.1197 52.2657C15.0354 52.402 14.9833 52.5557 14.9673 52.7151L10.8901 55.0635L9.87544 54.4803L8.75146 55.9495C9.44422 56.3264 10.7221 57.8229 11.5803 57.04Z" fill="#9F616A"/>
<path d="M8.25098 56.4069L10.5879 54.8203C10.0351 54.1865 9.29042 52.2996 8.15281 52.9185C6.85334 53.4425 8.12459 55.5454 8.25098 56.4069Z" fill="#0761FD"/>
<path d="M26.0202 43.6494H24.3312C24.1744 43.6494 24.024 43.5872 23.9131 43.4765C23.8023 43.3658 23.74 43.2157 23.74 43.0592C23.74 42.9026 23.8023 42.7525 23.9131 42.6418C24.024 42.5311 24.1744 42.4689 24.3312 42.4689H26.0202C26.177 42.4689 26.3274 42.5311 26.4382 42.6418C26.5491 42.7525 26.6114 42.9026 26.6114 43.0592C26.6114 43.2157 26.5491 43.3658 26.4382 43.4765C26.3274 43.5872 26.177 43.6494 26.0202 43.6494Z" fill="#D2D2D2"/>
<path d="M26.6118 43.3121H23.7404C23.6508 43.3121 23.5649 43.2765 23.5015 43.2133C23.4382 43.15 23.4026 43.0642 23.4026 42.9748C23.4026 42.8853 23.4382 42.7996 23.5015 42.7363C23.5649 42.673 23.6508 42.6375 23.7404 42.6375H26.6118C26.7014 42.6375 26.7873 42.673 26.8507 42.7363C26.914 42.7996 26.9496 42.8853 26.9496 42.9748C26.9496 43.0642 26.914 43.15 26.8507 43.2133C26.7873 43.2765 26.7014 43.3121 26.6118 43.3121Z" fill="#BBBBBB"/>
<path d="M26.2716 44.7499H24.0341C23.7893 44.7499 23.5544 44.6528 23.3813 44.4799C23.2081 44.307 23.1108 44.0725 23.1108 43.828C23.1108 43.5835 23.2081 43.3491 23.3813 43.1762C23.5544 43.0033 23.7893 42.9062 24.0341 42.9062H26.2716C26.5165 42.9062 26.7513 43.0033 26.9245 43.1762C27.0976 43.3491 27.1949 43.5835 27.1949 43.828C27.1949 44.0725 27.0976 44.307 26.9245 44.4799C26.7513 44.6528 26.5165 44.7499 26.2716 44.7499Z" fill="#D2D2D2"/>
<path d="M38.1159 56.1097C37.9874 56.0458 37.8744 55.9546 37.785 55.8425C37.6956 55.7303 37.6319 55.6 37.5985 55.4606C37.565 55.3212 37.5625 55.1761 37.5912 55.0357C37.62 54.8953 37.6792 54.7628 37.7647 54.6477L37.0304 47.4793H38.6174L39.2009 54.4789C39.3851 54.6352 39.5055 54.8535 39.5392 55.0925C39.5729 55.3314 39.5177 55.5745 39.3839 55.7755C39.2502 55.9765 39.0472 56.1216 38.8135 56.1832C38.5798 56.2448 38.3316 56.2186 38.1159 56.1097Z" fill="#FFB6B6"/>
<path d="M36.6589 43.5233C37.8989 43.5233 38.9041 42.5197 38.9041 41.2816C38.9041 40.0436 37.8989 39.0399 36.6589 39.0399C35.4189 39.0399 34.4137 40.0436 34.4137 41.2816C34.4137 42.5197 35.4189 43.5233 36.6589 43.5233Z" fill="#FFB6B6"/>
<path d="M36.1476 51.6445L32.7966 50.9139C32.7086 50.8945 32.6293 50.8468 32.5709 50.7782C32.5126 50.7095 32.4784 50.6236 32.4736 50.5337C32.4349 49.7872 32.4071 47.8559 32.9831 46.0529C33.0943 45.7072 33.2739 45.3873 33.5111 45.1122C33.7483 44.837 34.0385 44.6121 34.3643 44.4509C34.6901 44.2896 35.045 44.1952 35.408 44.1733C35.7709 44.1514 36.1346 44.2024 36.4775 44.3232C36.8394 44.4502 37.1703 44.6521 37.4485 44.9157C37.7267 45.1793 37.9459 45.4986 38.0918 45.8527C38.2377 46.2069 38.3069 46.5878 38.295 46.9706C38.2831 47.3533 38.1902 47.7292 38.0225 48.0736C37.2794 49.5971 36.8114 50.7004 36.6315 51.3529C36.6036 51.4541 36.5378 51.5408 36.4478 51.595C36.3578 51.6493 36.2503 51.667 36.1476 51.6445L36.1476 51.6445Z" fill="#0761FD"/>
<path d="M32.9912 72.9408H31.8703L31.3373 68.6248L32.9914 68.625L32.9912 72.9408Z" fill="#FFB6B6"/>
<path d="M31.0701 72.621H33.2315V73.9798H29.7092C29.7092 73.8013 29.7444 73.6247 29.8128 73.4598C29.8812 73.295 29.9814 73.1452 30.1078 73.019C30.2342 72.8928 30.3842 72.7927 30.5493 72.7245C30.7144 72.6562 30.8914 72.621 31.0701 72.621Z" fill="#1B1D28"/>
<path d="M44.1979 71.4908L43.2159 72.0299L40.6659 68.5043L42.1154 67.7087L44.1979 71.4908Z" fill="#FFB6B6"/>
<path d="M42.3602 72.1347L44.2543 71.0951L44.9099 72.2857L41.8233 73.98C41.7373 73.8236 41.6828 73.6518 41.6632 73.4745C41.6436 73.2971 41.6592 73.1177 41.709 72.9463C41.7589 72.775 41.8421 72.6151 41.9538 72.4758C42.0655 72.3366 42.2036 72.2207 42.3602 72.1347Z" fill="#1B1D28"/>
<path d="M33.0116 70.544L31.2863 70.4114C31.1897 70.4042 31.0989 70.3631 31.0297 70.2955C30.9605 70.2278 30.9176 70.1379 30.9084 70.0417C30.6625 67.4811 29.5837 54.505 32.5014 50.5098L32.5096 50.4987L32.5226 50.4939C32.5488 50.4843 35.1508 49.5579 36.6438 51.2557C36.6906 51.3096 36.7226 51.3749 36.7364 51.4449C36.7503 51.515 36.7457 51.5875 36.7229 51.6552L36.666 51.8258C36.6497 51.8741 36.6453 51.9257 36.6532 51.9761C36.6611 52.0265 36.681 52.0743 36.7113 52.1154C37.1256 52.6746 38.52 54.8283 39.0681 59.0636C39.0716 59.0906 39.0785 59.117 39.0888 59.1422L43.1351 69.0667C43.1558 69.1174 43.1661 69.1717 43.1655 69.2264C43.1648 69.2811 43.1532 69.3351 43.1314 69.3853C43.1095 69.4355 43.0779 69.4808 43.0382 69.5186C42.9986 69.5564 42.9518 69.5859 42.9006 69.6053L41.6274 70.0897C41.5346 70.1244 41.4325 70.1248 41.3395 70.0907C41.2465 70.0567 41.1689 69.9904 41.1207 69.904L35.2794 59.323C35.2562 59.2808 35.2202 59.2471 35.1766 59.2267C35.133 59.2062 35.084 59.2 35.0367 59.209C34.9894 59.2179 34.9461 59.2416 34.913 59.2766C34.88 59.3116 34.8589 59.3561 34.8527 59.4038L33.4511 70.1873C33.4382 70.2862 33.3898 70.377 33.3148 70.4428C33.2398 70.5087 33.1434 70.545 33.0435 70.5451C33.033 70.5451 33.0223 70.5448 33.0116 70.544Z" fill="#1B1D28"/>
<path d="M27.9306 43.8854C27.9418 43.9347 27.9491 43.9847 27.9524 44.0351L31.8794 46.297L32.8338 45.7484L33.8514 47.0784L32.2562 48.2136C32.1273 48.3053 31.9721 48.3528 31.8139 48.3489C31.6557 48.3451 31.503 48.2901 31.3788 48.1922L27.3294 45.0027C27.1467 45.0702 26.9477 45.0806 26.7589 45.0325C26.5701 44.9843 26.4004 44.8799 26.2725 44.7332C26.1446 44.5864 26.0644 44.4043 26.0427 44.2109C26.021 44.0176 26.0588 43.8222 26.151 43.6508C26.2432 43.4794 26.3855 43.3401 26.5589 43.2514C26.7324 43.1628 26.9288 43.1289 27.1219 43.1544C27.3151 43.1798 27.496 43.2634 27.6404 43.394C27.7849 43.5246 27.8861 43.696 27.9306 43.8854Z" fill="#FFB6B6"/>
<path d="M31.9328 46.0709C31.9446 46.0131 31.9688 45.9585 32.0037 45.9109C32.0386 45.8632 32.0834 45.8236 32.135 45.7948L33.937 44.7888C34.1764 44.604 34.4794 44.5216 34.7796 44.5597C35.0798 44.5978 35.3526 44.7532 35.5382 44.9918C35.7237 45.2305 35.8068 45.5329 35.7693 45.8326C35.7318 46.1324 35.5767 46.4051 35.3381 46.5909L33.9013 48.0805C33.8603 48.123 33.8106 48.1562 33.7556 48.1778C33.7006 48.1994 33.6415 48.2089 33.5825 48.2057C33.5235 48.2025 33.4658 48.1866 33.4135 48.1591C33.3612 48.1316 33.3154 48.0932 33.2793 48.0465L32.0102 46.4042C31.974 46.3574 31.9484 46.3035 31.935 46.246C31.9217 46.1885 31.9209 46.1288 31.9328 46.0709Z" fill="#0761FD"/>
<path d="M36.5976 49.1727C36.5517 49.1356 36.5142 49.089 36.488 49.0361C36.4617 48.9833 36.4471 48.9254 36.4452 48.8664L36.3806 46.806C36.3267 46.5088 36.3931 46.2024 36.5651 45.954C36.7372 45.7056 37.0009 45.5355 37.2985 45.4809C37.596 45.4264 37.903 45.4919 38.1523 45.6631C38.4015 45.8342 38.5725 46.0971 38.6279 46.3941L39.2907 48.3534C39.3096 48.4093 39.3162 48.4686 39.3101 48.5273C39.304 48.5861 39.2853 48.6427 39.2552 48.6936C39.2252 48.7444 39.1845 48.7882 39.136 48.8219C39.0875 48.8556 39.0322 48.8785 38.9741 48.889L36.9295 49.2576C36.8713 49.2681 36.8116 49.266 36.7543 49.2513C36.697 49.2367 36.6436 49.2098 36.5976 49.1727Z" fill="#0761FD"/>
<path d="M36.3033 40.766C35.7263 41.1603 34.9686 41.5657 34.3792 41.1457C34.1948 41.0055 34.0609 40.8095 33.9974 40.587C33.934 40.3645 33.9444 40.1274 34.0272 39.9113C34.3094 39.1055 35.0848 38.7508 35.8262 38.4788C36.7902 38.1254 37.8397 37.8441 38.8348 38.0973C39.8299 38.3504 40.7093 39.3124 40.5297 40.3218C40.3852 41.1336 39.6183 41.8091 39.7271 42.6264C39.8367 43.4489 40.7632 43.8819 41.5811 44.0289C42.3991 44.1759 43.3144 44.2231 43.9022 44.8097C44.6521 45.558 44.4648 46.8955 43.7592 47.6856C43.0536 48.4757 41.9888 48.8338 40.957 49.0773C39.59 49.3998 38.1114 49.5694 36.8131 49.034C35.5147 48.4987 34.5043 47.0576 34.8804 45.7063C35.0393 45.1355 35.4136 44.6531 35.7753 44.1835C36.1369 43.7139 36.5032 43.2228 36.6412 42.6466C36.7048 42.4072 36.7118 42.1563 36.6617 41.9137C36.6115 41.6711 36.5055 41.4435 36.3521 41.2488C36.2941 41.1858 36.2576 41.106 36.2479 41.021C36.2381 40.9359 36.2556 40.85 36.2978 40.7755L36.3033 40.766Z" fill="#1B1D28"/>
<path d="M60.5223 74.0892H-3.83109C-3.87589 74.0892 -3.91885 74.0714 -3.95053 74.0398C-3.9822 74.0082 -4 73.9653 -4 73.9205C-4 73.8758 -3.9822 73.8329 -3.95053 73.8013C-3.91885 73.7697 -3.87589 73.7519 -3.83109 73.7519H60.5223C60.5671 73.7519 60.61 73.7697 60.6417 73.8013C60.6734 73.8329 60.6912 73.8758 60.6912 73.9205C60.6912 73.9653 60.6734 74.0082 60.6417 74.0398C60.61 74.0714 60.5671 74.0892 60.5223 74.0892Z" fill="#BBBBBB"/>
<path d="M108.989 59.5354C109.087 59.4697 109.169 59.3833 109.23 59.2824C109.29 59.1815 109.328 59.0686 109.34 58.9515C109.353 58.8344 109.339 58.7161 109.301 58.6048C109.262 58.4936 109.2 58.3921 109.118 58.3075L110.409 55.7532L108.93 55.9245L107.93 58.3239C107.797 58.4708 107.723 58.6615 107.721 58.8597C107.719 59.0578 107.79 59.2498 107.921 59.3991C108.051 59.5485 108.232 59.6448 108.429 59.67C108.626 59.6951 108.825 59.6472 108.989 59.5354Z" fill="#FFB7B7"/>
<path d="M119.347 77.629L118.183 77.6289L117.629 73.1464H119.347L119.347 77.629Z" fill="#FFB7B7"/>
<path d="M119.644 78.7556L115.891 78.7554V78.708C115.891 78.3212 116.045 77.9502 116.319 77.6767C116.592 77.4032 116.964 77.2495 117.351 77.2495H117.352L119.644 77.2496L119.644 78.7556Z" fill="#1B1D28"/>
<path d="M112.986 77.629L111.822 77.6289L111.268 73.1464H112.986L112.986 77.629Z" fill="#FFB7B7"/>
<path d="M112.998 78.7556L109.245 78.7554V78.708C109.245 78.3212 109.399 77.9502 109.673 77.6767C109.946 77.4032 110.318 77.2495 110.705 77.2495H110.706L112.998 77.2496L112.998 78.7556Z" fill="#1B1D28"/>
<path d="M112.891 58.6966L111.751 61.3173L110.811 76.38L113.185 76.2851L113.833 69.1048L115.833 62.7092L116.983 69.8392L117.457 76.0956L119.421 76.1805L120.204 58.6966H112.891Z" fill="#1B1D28"/>
<path d="M118.585 45.7652L115.283 45.8477L113.344 46.8413L113.238 54.1725L112.029 59.234C112.029 59.234 119.584 59.7532 120.628 58.9948L119.394 53.2124L121.049 46.9632L118.585 45.7652Z" fill="#0761FD"/>
<path d="M113.855 46.9628L113.547 46.7556C113.547 46.7556 112.274 47.1367 111.897 48.8321C111.897 48.8321 111.609 49.6828 111.483 50.2676C111.338 50.9384 108.137 57.1 108.137 57.1L110.053 57.649L113.567 51.9757L113.855 46.9628Z" fill="#0761FD"/>
<path d="M120.998 60.4755C120.922 60.3854 120.867 60.2798 120.836 60.1661C120.806 60.0524 120.8 59.9334 120.821 59.8175C120.841 59.7015 120.887 59.5915 120.955 59.4952C121.023 59.3988 121.111 59.3184 121.213 59.2597L120.677 56.4489L122.052 57.0208L122.35 59.6024C122.437 59.7803 122.456 59.9841 122.403 60.1751C122.35 60.3661 122.229 60.531 122.062 60.6386C121.895 60.7463 121.695 60.7891 121.499 60.759C121.303 60.729 121.124 60.6281 120.998 60.4755Z" fill="#FFB7B7"/>
<path d="M120.552 47.0505L120.905 46.9359C120.905 46.9359 122.024 47.6529 121.917 49.3863C121.917 49.3863 121.959 50.2832 121.919 50.8802C121.873 51.5649 122.489 58.3689 122.489 58.3689H120.495L119.641 52.2073L120.552 47.0505Z" fill="#0761FD"/>
<path d="M119.396 42.6894C119.396 43.1414 119.262 43.5833 119.01 43.9591C118.759 44.335 118.401 44.6279 117.983 44.8009C117.565 44.9739 117.104 45.0191 116.66 44.9309C116.216 44.8428 115.808 44.6251 115.488 44.3055C115.168 43.9858 114.95 43.5786 114.862 43.1352C114.774 42.6919 114.819 42.2324 114.992 41.8147C115.165 41.3971 115.459 41.0402 115.835 40.7891C116.212 40.5379 116.654 40.4039 117.107 40.4039C117.713 40.4024 118.294 40.6411 118.723 41.0676C119.152 41.4941 119.395 42.0733 119.396 42.678C119.396 42.6818 119.396 42.6856 119.396 42.6894Z" fill="#FFB7B7"/>
<path d="M114.825 39.6196C115.093 39.0439 115.612 39.1577 116.066 39.3528C116.641 39.2255 117.188 38.8445 117.807 39.0698C118.417 39.9556 120.465 39.695 120.029 41.137C120.028 41.4826 120.68 41.2815 120.566 41.8474C120.912 42.9365 119.32 44.9991 118.406 44.5647C118.632 44.1512 119.149 43.2121 118.366 43.1189C116.681 44.6835 118.192 40.1395 116.076 41.461C115.375 42.1012 114.416 40.26 114.825 39.6196Z" fill="#1B1D28"/>
<path d="M106.223 52.6351C106.191 52.6679 106.162 52.7032 106.135 52.7406L102.027 52.6403L101.548 51.7658L100.131 52.3155L100.829 53.9459C100.885 54.0776 100.983 54.1875 101.107 54.2591C101.232 54.3307 101.376 54.3601 101.518 54.343L106.16 53.7831C106.27 53.9215 106.419 54.0233 106.588 54.0751C106.756 54.1268 106.937 54.126 107.105 54.0727C107.274 54.0194 107.422 53.9162 107.53 53.7768C107.638 53.6374 107.702 53.4684 107.711 53.2923C107.721 53.1162 107.677 52.9413 107.584 52.7909C107.492 52.6405 107.356 52.5218 107.195 52.4504C107.033 52.3791 106.854 52.3586 106.68 52.3915C106.506 52.4245 106.347 52.5095 106.223 52.6351V52.6351Z" fill="#9F616A"/>
<path d="M92.8299 77.5473H94.1807L94.8233 72.3448L92.8296 72.3449L92.8299 77.5473Z" fill="#9F616A"/>
<path d="M92.4855 77.107L95.1459 77.1069H95.146C95.5956 77.107 96.0269 77.2853 96.3448 77.6027C96.6628 77.9202 96.8414 78.3507 96.8414 78.7997V78.8547L92.4856 78.8548L92.4855 77.107Z" fill="#1B1D28"/>
<path d="M105.097 77.5173L106.339 76.9874L104.883 71.9512L103.05 72.7332L105.097 77.5173Z" fill="#9F616A"/>
<path d="M104.606 77.2475L107.053 76.204L107.053 76.2039C107.466 76.0276 107.933 76.0225 108.35 76.1897C108.768 76.3569 109.101 76.6828 109.278 77.0956L109.3 77.1462L105.294 78.8548L104.606 77.2475Z" fill="#1B1D28"/>
<path d="M99.3962 53.762L99.4939 55.3426L96.6384 55.6477L93.6505 55.967L94.53 53.567L99.3962 53.762Z" fill="#9F616A"/>
<path d="M99.4967 54.3292C99.4643 54.3165 96.2391 53.0639 94.258 54.0881L94.2093 54.1133L93.8141 52.1711L93.5889 47.9954L95.0542 47.3041L95.4577 46.4017L98.2058 46.2394L98.7705 47.0126L100.693 47.6418L99.5441 54.3479L99.4967 54.3292Z" fill="#1B1D28"/>
<path d="M99.5977 50.5601L99.9376 47.8934L100.712 47.6582L100.725 47.663C100.872 47.7317 101 47.8362 101.097 47.967C101.194 48.0978 101.256 48.2507 101.278 48.4117C101.389 48.9698 102.221 52.4428 102.23 52.4778L102.238 52.5125L100.282 53.2938L99.5977 50.5601Z" fill="#1B1D28"/>
<path d="M104.09 76.603L106.694 76.0699L102.533 64.6064L101.109 60.6963C101.109 60.6963 100.205 57.5613 99.7974 56.3481L99.5511 54.7202L93.7213 55.3645C93.7213 55.3645 92.0931 57.752 92.5877 61.6434L92.364 76.2698L94.9674 76.4031L97.148 61.6516L100.975 69.7383C100.975 69.7383 102.181 73.1891 103.044 73.9371L104.09 76.603Z" fill="#1B1D28"/>
<path d="M98.9434 45.6136H94.2758C94.1798 45.6135 94.0878 45.5754 94.0199 45.5076C93.952 45.4398 93.9138 45.3479 93.9137 45.252V43.2433C93.9137 42.5294 94.1977 41.8448 94.7033 41.34C95.2089 40.8352 95.8946 40.5516 96.6096 40.5516C97.3247 40.5516 98.0104 40.8352 98.516 41.34C99.0216 41.8448 99.3056 42.5294 99.3056 43.2433V45.2521C99.3055 45.3479 99.2673 45.4398 99.1994 45.5076C99.1315 45.5754 99.0395 45.6135 98.9434 45.6136Z" fill="#1B1D28"/>
<path d="M97.164 45.5669C98.2556 45.5669 99.1405 44.6833 99.1405 43.5934C99.1405 42.5035 98.2556 41.6199 97.164 41.6199C96.0723 41.6199 95.1874 42.5035 95.1874 43.5934C95.1874 44.6833 96.0723 45.5669 97.164 45.5669Z" fill="#9F616A"/>
<path d="M99.9435 43.4442H97.0894L97.0601 43.0351L96.9138 43.4442H96.4743L96.4163 42.6333L96.1262 43.4442H95.2759V43.4041C95.2765 42.8395 95.5014 42.2983 95.9012 41.8991C96.301 41.5 96.8431 41.2754 97.4085 41.2748H97.8109C98.3763 41.2754 98.9184 41.5 99.3182 41.8991C99.718 42.2983 99.9429 42.8395 99.9435 43.4041L99.9435 43.4442Z" fill="#1B1D28"/>
<path d="M97.066 45.9886C97.0445 45.9885 97.0231 45.9867 97.0019 45.9829L94.912 45.6148V42.1661H97.2126L97.1556 42.2324C96.3632 43.1552 96.9602 44.6515 97.3866 45.4613C97.418 45.5206 97.4321 45.5875 97.427 45.6545C97.422 45.7214 97.3982 45.7855 97.3583 45.8395C97.3248 45.8856 97.2809 45.9232 97.2301 45.9491C97.1793 45.9751 97.1231 45.9886 97.066 45.9886Z" fill="#1B1D28"/>
<path d="M108.5 52.2928C108.37 52.3059 108.239 52.309 108.108 52.302C108.086 52.2995 108.063 52.3059 108.046 52.3198C108.028 52.3337 108.016 52.3539 108.014 52.3761L107.764 54.2492C107.744 54.3852 107.689 54.5134 107.602 54.6203C107.531 54.7053 107.478 54.8041 107.447 54.9104C107.415 55.0168 107.406 55.1284 107.42 55.2384V58.4203C107.42 58.4203 107.404 58.8445 107.73 58.8445C108.121 58.8935 108.516 58.8935 108.907 58.8445C108.907 58.8445 109.168 58.7951 109.168 58.4036V55.2706C109.188 55.1613 109.184 55.049 109.156 54.9414C109.129 54.8339 109.078 54.7336 109.007 54.6477C108.924 54.5404 108.87 54.4132 108.851 54.2787L108.591 52.3664C108.588 52.3449 108.577 52.3253 108.56 52.3117C108.543 52.298 108.522 52.2913 108.5 52.2928Z" fill="white"/>
<path d="M108.318 58.9349C108.12 58.9349 107.923 58.9226 107.727 58.8982C107.683 58.8992 107.64 58.8912 107.599 58.8747C107.559 58.8581 107.522 58.8333 107.491 58.8019C107.406 58.6928 107.361 58.5569 107.366 58.4182L107.366 55.2417C107.353 55.1249 107.363 55.0065 107.396 54.8937C107.43 54.781 107.486 54.6762 107.561 54.5859C107.641 54.4867 107.693 54.3678 107.711 54.2417L107.961 52.369C107.966 52.3329 107.984 52.3002 108.013 52.2777C108.041 52.2553 108.078 52.2448 108.114 52.2486C108.241 52.2553 108.368 52.2522 108.495 52.2394L108.496 52.2393C108.532 52.2367 108.567 52.2477 108.594 52.2699C108.622 52.2922 108.64 52.3241 108.644 52.3591L108.904 54.2715C108.922 54.3966 108.972 54.5149 109.05 54.6147C109.125 54.7059 109.179 54.8122 109.209 54.9262C109.238 55.0402 109.243 55.1593 109.223 55.2754V58.4036C109.223 58.8346 108.92 58.8967 108.917 58.8973C108.718 58.9223 108.518 58.9349 108.318 58.9349ZM108.101 52.3553C108.093 52.355 108.085 52.3576 108.079 52.3626C108.073 52.3677 108.068 52.3749 108.067 52.3828L107.817 54.2563C107.797 54.402 107.737 54.5395 107.644 54.654C107.578 54.7335 107.528 54.8259 107.499 54.9252C107.47 55.0246 107.461 55.1289 107.474 55.2318L107.474 55.2384V58.4202C107.47 58.5305 107.503 58.639 107.569 58.7277C107.59 58.749 107.615 58.7656 107.643 58.7764C107.671 58.7873 107.701 58.7922 107.731 58.7908L107.737 58.7912C108.124 58.8396 108.514 58.8396 108.901 58.7912C108.906 58.79 109.115 58.7423 109.115 58.4036L109.116 55.261C109.134 55.1593 109.131 55.0549 109.105 54.9548C109.079 54.8548 109.031 54.7616 108.966 54.6817C108.876 54.5668 108.818 54.4304 108.798 54.2863L108.538 52.3736C108.537 52.3657 108.533 52.3586 108.526 52.3536C108.52 52.3485 108.513 52.3459 108.505 52.3463C108.372 52.3596 108.238 52.3627 108.105 52.3556L108.101 52.3553Z" fill="#1B1D28"/>
<path d="M108.502 55.2953H108.105C107.777 55.2953 107.511 55.561 107.511 55.8888V57.3779C107.511 57.7057 107.777 57.9713 108.105 57.9713H108.502C108.83 57.9713 109.096 57.7057 109.096 57.3779V55.8888C109.096 55.561 108.83 55.2953 108.502 55.2953Z" fill="#0761FD"/>
<path d="M106.369 48.9663C106.238 48.9795 106.107 48.9825 105.977 48.9755C105.954 48.973 105.932 48.9795 105.914 48.9933C105.897 49.0072 105.885 49.0274 105.882 49.0496L105.632 50.9227C105.613 51.0587 105.557 51.1869 105.471 51.2938C105.4 51.3789 105.347 51.4776 105.315 51.584C105.284 51.6903 105.275 51.8019 105.289 51.9119V55.0938C105.289 55.0938 105.272 55.518 105.599 55.518C105.99 55.5671 106.385 55.5671 106.776 55.518C106.776 55.518 107.037 55.4686 107.037 55.0771V51.9441C107.057 51.8348 107.053 51.7225 107.025 51.6149C106.997 51.5074 106.946 51.4071 106.876 51.3212C106.792 51.2139 106.738 51.0868 106.719 50.9523L106.46 49.0399C106.457 49.0184 106.446 48.9988 106.429 48.9852C106.412 48.9715 106.39 48.9648 106.369 48.9663Z" fill="white"/>
<path d="M106.187 55.6084C105.989 55.6084 105.792 55.5962 105.596 55.5717C105.552 55.5728 105.509 55.5647 105.468 55.5482C105.427 55.5316 105.391 55.5068 105.36 55.4755C105.274 55.3663 105.23 55.2304 105.235 55.0917L105.235 51.9152C105.221 51.7984 105.231 51.68 105.265 51.5672C105.298 51.4545 105.355 51.3497 105.43 51.2594C105.51 51.1602 105.562 51.0413 105.579 50.9152L105.829 49.0425C105.834 49.0065 105.853 48.9737 105.882 48.9513C105.91 48.9288 105.947 48.9183 105.983 48.9221C106.11 48.9288 106.237 48.9257 106.364 48.9129L106.365 48.9128C106.4 48.9102 106.435 48.9212 106.463 48.9434C106.49 48.9657 106.508 48.9976 106.513 49.0326L106.773 50.9451C106.791 51.0701 106.841 51.1884 106.919 51.2882C106.993 51.3794 107.048 51.4857 107.077 51.5997C107.107 51.7137 107.112 51.8329 107.091 51.9489V55.0771C107.091 55.5081 106.789 55.5702 106.786 55.5708C106.587 55.5958 106.387 55.6084 106.187 55.6084ZM105.97 49.0289C105.962 49.0285 105.954 49.0311 105.948 49.0362C105.941 49.0412 105.937 49.0484 105.936 49.0563L105.686 50.9298C105.665 51.0755 105.606 51.213 105.513 51.3275C105.447 51.4071 105.397 51.4994 105.368 51.5987C105.338 51.6981 105.33 51.8025 105.342 51.9053L105.343 51.9119V55.0938C105.339 55.2041 105.372 55.3125 105.438 55.4012C105.459 55.4225 105.484 55.4391 105.512 55.45C105.54 55.4608 105.569 55.4657 105.599 55.4643L105.606 55.4648C105.992 55.5132 106.383 55.5132 106.769 55.4648C106.775 55.4635 106.984 55.4159 106.984 55.0771L106.985 51.9345C107.003 51.8329 106.999 51.7284 106.974 51.6283C106.948 51.5283 106.9 51.4351 106.835 51.3552C106.745 51.2403 106.687 51.104 106.666 50.9598L106.407 49.0471C106.405 49.0393 106.401 49.0321 106.395 49.0271C106.389 49.022 106.381 49.0195 106.373 49.0199C106.241 49.0331 106.107 49.0362 105.974 49.0291L105.97 49.0289Z" fill="#1B1D28"/>
<path d="M106.37 51.9689H105.974C105.646 51.9689 105.38 52.2345 105.38 52.5623V54.0515C105.38 54.3792 105.646 54.6449 105.974 54.6449H106.37C106.699 54.6449 106.965 54.3792 106.965 54.0515V52.5623C106.965 52.2345 106.699 51.9689 106.37 51.9689Z" fill="#0761FD"/>
<path d="M99.1581 56.227H97.3084C97.1367 56.227 96.972 56.1589 96.8506 56.0376C96.7292 55.9164 96.661 55.752 96.661 55.5806C96.661 55.4092 96.7292 55.2447 96.8506 55.1235C96.972 55.0023 97.1367 54.9342 97.3084 54.9342H99.1581C99.3298 54.9342 99.4945 55.0023 99.6159 55.1235C99.7373 55.2447 99.8055 55.4092 99.8055 55.5806C99.8055 55.752 99.7373 55.9164 99.6159 56.0376C99.4945 56.1589 99.3298 56.227 99.1581 56.227Z" fill="#D2D2D2"/>
<path d="M99.8052 55.8576H96.6607C96.5629 55.8571 96.4693 55.8179 96.4004 55.7487C96.3314 55.6795 96.2927 55.5858 96.2927 55.4882C96.2927 55.3906 96.3314 55.2969 96.4004 55.2277C96.4693 55.1585 96.5629 55.1194 96.6607 55.1188H99.8052C99.854 55.1186 99.9023 55.1279 99.9474 55.1464C99.9925 55.1648 100.034 55.192 100.068 55.2263C100.103 55.2607 100.13 55.3015 100.149 55.3464C100.168 55.3913 100.177 55.4395 100.177 55.4882C100.177 55.5369 100.168 55.5851 100.149 55.63C100.13 55.675 100.103 55.7158 100.068 55.7501C100.034 55.7844 99.9925 55.8116 99.9474 55.83C99.9023 55.8485 99.854 55.8578 99.8052 55.8576Z" fill="#BBBBBB"/>
<path d="M99.4322 57.4321H96.9819C96.714 57.4317 96.4571 57.3252 96.2678 57.136C96.0784 56.9467 95.972 56.6901 95.972 56.4225C95.972 56.155 96.0784 55.8984 96.2678 55.7091C96.4571 55.5199 96.714 55.4133 96.9819 55.413H99.4322C99.7004 55.413 99.9576 55.5194 100.147 55.7087C100.337 55.898 100.443 56.1548 100.443 56.4225C100.443 56.6903 100.337 56.9471 100.147 57.1364C99.9576 57.3257 99.7004 57.4321 99.4322 57.4321Z" fill="#D2D2D2"/>
<path d="M96.0595 55.9073C96.0136 55.9062 95.9678 55.9087 95.9223 55.9148L93.2026 52.8385L93.519 51.8931L92.1522 51.2299L91.4293 52.8493C91.3708 52.9801 91.3565 53.1263 91.3884 53.266C91.4203 53.4056 91.4968 53.5312 91.6062 53.6238L95.1735 56.6416C95.1462 56.8159 95.1728 56.9943 95.2497 57.1531C95.3265 57.3119 95.4499 57.4436 95.6036 57.5307C95.7572 57.6178 95.9337 57.6561 96.1097 57.6405C96.2856 57.625 96.4527 57.5563 96.5886 57.4436C96.7245 57.331 96.8229 57.1797 96.8706 57.0099C96.9182 56.84 96.913 56.6597 96.8556 56.493C96.7981 56.3262 96.6912 56.1808 96.549 56.0762C96.4068 55.9715 96.236 55.9126 96.0595 55.9073Z" fill="#9F616A"/>
<path d="M91.9061 51.6858L92.9694 48.662C93.0888 48.3055 93.2386 48.089 93.4144 48.0183C93.4491 48.0028 93.4865 47.9946 93.5245 47.9942C93.5625 47.9939 93.6001 48.0014 93.6351 48.0163L94.1118 48.6177L94.5543 50.4736L93.4198 53.1381L91.9061 51.6858Z" fill="#1B1D28"/>
<path d="M130.892 79H74.1489C74.1094 79 74.0716 78.9843 74.0436 78.9564C74.0157 78.9285 74 78.8907 74 78.8513C74 78.8118 74.0157 78.774 74.0436 78.7461C74.0716 78.7182 74.1094 78.7026 74.1489 78.7026H130.892C130.932 78.7026 130.97 78.7182 130.998 78.7461C131.026 78.774 131.041 78.8118 131.041 78.8513C131.041 78.8907 131.026 78.9285 130.998 78.9564C130.97 78.9843 130.932 79 130.892 79Z" fill="#BBBBBB"/>
<path d="M103.842 12.2137H22.9795C22.7764 12.2137 22.5764 12.1643 22.3967 12.0697C22.217 11.9752 22.0631 11.8384 21.9483 11.6711C21.8335 11.5038 21.7613 11.3111 21.7378 11.1097C21.7144 10.9083 21.7405 10.7042 21.8138 10.5151L25.8451 0.11731H100.977L105.008 10.5151C105.081 10.7042 105.108 10.9083 105.084 11.1097C105.061 11.3111 104.988 11.5038 104.874 11.6711C104.759 11.8384 104.605 11.9752 104.425 12.0697C104.246 12.1643 104.046 12.2137 103.842 12.2137V12.2137Z" fill="#C4C4C4"/>
</g>
<defs>
<clipPath id="clip0_1_2528">
<rect width="150" height="87" fill="white"/>
</clipPath>
</defs>
</svg>
