<svg width="275" height="205" viewBox="0 0 275 205" fill="none" xmlns="http://www.w3.org/2000/svg">
<path d="M275 180.07H0V180.208H275V180.07Z" fill="#EBEBEB"/>
<path d="M247.445 188.919H229.229V189.057H247.445V188.919Z" fill="#EBEBEB"/>
<path d="M182.171 190.415H177.391V190.553H182.171V190.415Z" fill="#EBEBEB"/>
<path d="M228.679 183.815H218.125V183.953H228.679V183.815Z" fill="#EBEBEB"/>
<path d="M52.6075 184.74H28.853V184.877H52.6075V184.74Z" fill="#EBEBEB"/>
<path d="M60.9896 184.74H57.5081V184.877H60.9896V184.74Z" fill="#EBEBEB"/>
<path d="M123.833 187.06H72.3086V187.198H123.833V187.06Z" fill="#EBEBEB"/>
<path d="M130.35 155.54H24.1504C23.3184 155.539 22.521 155.207 21.9333 154.618C21.3455 154.029 21.0154 153.231 21.0154 152.4V3.113C21.0226 2.28581 21.3559 1.49489 21.9429 0.91202C22.5299 0.329152 23.3232 0.00141701 24.1504 0H130.35C131.183 0 131.982 0.330873 132.571 0.919831C133.16 1.50879 133.49 2.30759 133.49 3.1405V152.4C133.49 153.232 133.16 154.031 132.571 154.62C131.982 155.209 131.183 155.54 130.35 155.54ZM24.1504 0.11C23.3549 0.111457 22.5925 0.428486 22.0305 0.9915C21.4685 1.55451 21.1529 2.31751 21.1529 3.113V152.4C21.1529 153.195 21.4685 153.958 22.0305 154.521C22.5925 155.084 23.3549 155.401 24.1504 155.402H130.35C131.146 155.401 131.909 155.084 132.472 154.521C133.035 153.958 133.351 153.195 133.353 152.4V3.113C133.351 2.317 133.035 1.55402 132.472 0.991164C131.909 0.428307 131.146 0.111454 130.35 0.11H24.1504Z" fill="#EBEBEB"/>
<path d="M249.321 155.54H143.116C142.283 155.539 141.485 155.207 140.897 154.619C140.308 154.03 139.977 153.232 139.975 152.4V3.113C139.984 2.28531 140.318 1.49439 140.906 0.911676C141.494 0.32896 142.288 0.00140156 143.116 0H249.321C250.147 0.00286247 250.939 0.331237 251.525 0.91395C252.11 1.49666 252.443 2.28676 252.45 3.113V152.4C252.45 153.231 252.121 154.028 251.534 154.616C250.948 155.205 250.152 155.537 249.321 155.54ZM143.116 0.11C142.32 0.111454 141.557 0.428307 140.994 0.991164C140.431 1.55402 140.114 2.317 140.113 3.113V152.4C140.114 153.195 140.431 153.958 140.994 154.521C141.557 155.084 142.32 155.401 143.116 155.402H249.321C250.117 155.401 250.88 155.084 251.442 154.521C252.005 153.958 252.322 153.195 252.324 152.4V3.113C252.322 2.317 252.005 1.55402 251.442 0.991164C250.88 0.428307 250.117 0.111454 249.321 0.11H143.116Z" fill="#EBEBEB"/>
<path d="M133.287 65.384H55.198V179.877H133.287V65.384Z" fill="#F0F0F0"/>
<path d="M130.526 68.9865H57.9534V90.134H130.526V68.9865Z" fill="#E0E0E0"/>
<path d="M62.0784 72.4075H57.9534V90.1285H62.0784V72.4075Z" fill="#EBEBEB"/>
<path d="M82.0159 72.4075H77.8909V90.1285H82.0159V72.4075Z" fill="#EBEBEB"/>
<path d="M104.644 71.9624L100.579 72.6631L103.589 90.1266L107.654 89.4259L104.644 71.9624Z" fill="#EBEBEB"/>
<path d="M67.188 74.745H63.063V90.134H67.188V74.745Z" fill="#EBEBEB"/>
<path d="M76.6646 74.745H72.5396V90.134H76.6646V74.745Z" fill="#EBEBEB"/>
<path d="M100.584 74.745H96.459V90.134H100.584V74.745Z" fill="#EBEBEB"/>
<path d="M87.4342 74.211L83.4075 75.106L86.7461 90.1284L90.7729 89.2335L87.4342 74.211Z" fill="#EBEBEB"/>
<path d="M70.752 71.5275H68.6895V90.1285H70.752V71.5275Z" fill="#EBEBEB"/>
<path d="M95.271 71.5275H93.2085V90.1285H95.271V71.5275Z" fill="#EBEBEB"/>
<path d="M57.959 114.631L130.531 114.631V93.4835L57.959 93.4835V114.631Z" fill="#E0E0E0"/>
<path d="M126.401 114.625H130.526V96.9045H126.401V114.625Z" fill="#EBEBEB"/>
<path d="M106.469 114.625H110.594V96.9045H106.469V114.625Z" fill="#EBEBEB"/>
<path d="M80.8319 113.921L84.897 114.622L87.9072 97.1585L83.8421 96.4578L80.8319 113.921Z" fill="#EBEBEB"/>
<path d="M121.292 114.631H125.417V99.242H121.292V114.631Z" fill="#EBEBEB"/>
<path d="M111.821 114.631H115.946V99.242H111.821V114.631Z" fill="#EBEBEB"/>
<path d="M87.9009 114.631H92.0259V99.242H87.9009V114.631Z" fill="#EBEBEB"/>
<path d="M97.7257 113.732L101.752 114.627L105.091 99.6044L101.064 98.7094L97.7257 113.732Z" fill="#EBEBEB"/>
<path d="M117.728 114.625H119.79V96.0245H117.728V114.625Z" fill="#EBEBEB"/>
<path d="M93.2139 114.625H95.2764V96.0245H93.2139V114.625Z" fill="#EBEBEB"/>
<path d="M62.0784 96.9045H57.9534V114.626H62.0784V96.9045Z" fill="#EBEBEB"/>
<path d="M67.188 99.2365H63.063V114.626H67.188V99.2365Z" fill="#EBEBEB"/>
<path d="M76.6646 99.2365H72.5396V114.626H76.6646V99.2365Z" fill="#EBEBEB"/>
<path d="M70.752 96.0245H68.6895V114.625H70.752V96.0245Z" fill="#EBEBEB"/>
<path d="M130.526 117.975H57.9534V139.123H130.526V117.975Z" fill="#E0E0E0"/>
<path d="M103.736 121.396H99.6106V139.117H103.736V121.396Z" fill="#EBEBEB"/>
<path d="M126.367 120.95L122.302 121.65L125.312 139.114L129.377 138.413L126.367 120.95Z" fill="#EBEBEB"/>
<path d="M88.9075 123.734H84.7825V139.123H88.9075V123.734Z" fill="#EBEBEB"/>
<path d="M98.384 123.734H94.259V139.123H98.384V123.734Z" fill="#EBEBEB"/>
<path d="M122.303 123.734H118.178V139.123H122.303V123.734Z" fill="#EBEBEB"/>
<path d="M109.155 123.2L105.129 124.095L108.467 139.118L112.494 138.223L109.155 123.2Z" fill="#EBEBEB"/>
<path d="M92.4714 120.516H90.4089V139.117H92.4714V120.516Z" fill="#EBEBEB"/>
<path d="M116.99 120.516H114.928V139.117H116.99V120.516Z" fill="#EBEBEB"/>
<path d="M78.9366 120.954L74.8716 121.654L77.8818 139.118L81.9468 138.417L78.9366 120.954Z" fill="#EBEBEB"/>
<path d="M74.8716 123.734H70.7466V139.123H74.8716V123.734Z" fill="#EBEBEB"/>
<path d="M61.7257 123.2L57.699 124.095L61.0376 139.117L65.0644 138.223L61.7257 123.2Z" fill="#EBEBEB"/>
<path d="M69.564 120.516H67.5015V139.117H69.564V120.516Z" fill="#EBEBEB"/>
<path d="M41.723 180.174H55.198L55.198 65.384H41.723L41.723 180.174Z" fill="#E0E0E0"/>
<path d="M178.992 177.177H167.546L173.563 128.15C173.708 127.126 174.211 126.186 174.984 125.498C175.756 124.81 176.748 124.419 177.782 124.393H227.7L220.379 177.155L178.992 177.177Z" fill="#F5F5F5"/>
<path d="M215.292 177.177H226.737L232.76 128.15C232.833 127.679 232.803 127.197 232.669 126.739C232.536 126.281 232.304 125.858 231.989 125.5C231.674 125.141 231.285 124.856 230.848 124.665C230.411 124.474 229.937 124.381 229.46 124.394H225.527C224.495 124.425 223.507 124.819 222.736 125.505C221.965 126.192 221.46 127.128 221.309 128.15L215.292 177.177Z" fill="#F0F0F0"/>
<path d="M211.079 177.1L213.153 153.395C213.196 152.881 213.415 152.397 213.772 152.025C214.13 151.652 214.604 151.414 215.116 151.349L215.969 151.239C216.657 151.153 217.294 150.833 217.774 150.332C218.254 149.831 218.547 149.18 218.603 148.489L218.983 144.166C219.02 143.747 218.97 143.325 218.835 142.926C218.7 142.527 218.484 142.161 218.2 141.851C217.916 141.54 217.57 141.292 217.185 141.123C216.8 140.953 216.384 140.866 215.963 140.866H235.092C235.513 140.866 235.929 140.953 236.314 141.123C236.699 141.292 237.045 141.54 237.329 141.851C237.613 142.161 237.829 142.527 237.964 142.926C238.099 143.325 238.149 143.747 238.112 144.166L237.732 148.489C237.676 149.18 237.383 149.831 236.903 150.332C236.423 150.833 235.786 151.153 235.098 151.239L234.245 151.349C233.733 151.415 233.26 151.654 232.903 152.026C232.545 152.398 232.326 152.881 232.282 153.395L230.208 177.1C230.134 177.933 229.751 178.708 229.134 179.273C228.517 179.838 227.711 180.152 226.875 180.153H207.746C208.582 180.152 209.388 179.838 210.005 179.273C210.622 178.708 211.005 177.933 211.079 177.1Z" fill="#E6E6E6"/>
<path d="M158.433 147.483C158.281 145.683 157.46 144.006 156.13 142.784C154.801 141.562 153.061 140.883 151.256 140.883H167.91C169.711 140.89 171.444 141.572 172.767 142.793C174.09 144.015 174.908 145.688 175.06 147.483L176.71 166.271H160.078L158.433 147.483Z" fill="#E6E6E6"/>
<path d="M143.858 140.904H151.25C153.056 140.905 154.796 141.584 156.125 142.806C157.454 144.028 158.276 145.705 158.428 147.504L160.078 166.292H199.744L201.394 147.504C201.544 145.709 202.361 144.036 203.685 142.814C205.009 141.592 206.742 140.911 208.544 140.904H215.941C216.362 140.904 216.778 140.992 217.163 141.161C217.548 141.331 217.894 141.579 218.178 141.889C218.462 142.2 218.678 142.566 218.813 142.964C218.948 143.363 218.998 143.785 218.961 144.204L218.581 148.527C218.525 149.219 218.232 149.869 217.752 150.37C217.272 150.871 216.635 151.191 215.947 151.277L215.094 151.387C214.582 151.452 214.108 151.691 213.751 152.063C213.393 152.436 213.174 152.919 213.131 153.433L211.079 177.1C211.005 177.933 210.622 178.708 210.005 179.273C209.388 179.838 208.582 180.152 207.746 180.152H152.075C151.239 180.152 150.433 179.838 149.816 179.273C149.199 178.708 148.816 177.933 148.742 177.1L146.669 153.395C146.623 152.881 146.403 152.399 146.046 152.027C145.69 151.655 145.216 151.416 144.705 151.349L143.853 151.239C143.164 151.152 142.527 150.832 142.046 150.331C141.566 149.831 141.271 149.18 141.213 148.489L140.839 144.166C140.807 143.75 140.861 143.332 140.999 142.938C141.136 142.544 141.353 142.182 141.637 141.876C141.92 141.57 142.264 141.326 142.646 141.158C143.028 140.991 143.441 140.905 143.858 140.904Z" fill="#F0F0F0"/>
<path d="M56.188 59.664C56.188 59.664 55.5775 55.6435 58.509 53.064C61.4405 50.4845 61.182 48.9555 60.3405 48.7575C59.499 48.5595 58.7345 51.1335 57.4475 51.843C57.4475 51.843 57.4035 48.169 58.7125 46.8215C60.0215 45.474 60.709 41.9815 59.4605 41.921C58.212 41.8605 58.091 43.989 57.8105 45.5015C57.53 47.014 56.1605 49.137 56.1605 49.137C56.1605 49.137 55.891 45.837 55.0605 44.5005C54.23 43.164 56.4685 40.0565 55.6105 38.709C54.7525 37.3615 53.196 39.93 53.3225 42.8285C53.449 45.727 55.385 48.818 54.934 51.843C54.934 51.843 54.0815 49.7145 53.317 49.522C52.5525 49.3295 51.777 47.927 51.2655 47.4045C50.754 46.882 50.105 48.686 51.2655 50.358C52.426 52.03 55.385 56.5125 54.934 60.1315L56.188 59.664Z" fill="#E6E6E6"/>
<path d="M57.9372 57.8325L58.8997 63.855C58.9688 64.2923 58.9424 64.7393 58.8222 65.1654C58.7019 65.5914 58.4908 65.9864 58.2033 66.323C57.9158 66.6597 57.5588 66.93 57.1568 67.1154C56.7548 67.3008 56.3174 67.3969 55.8747 67.397H54.8517C54.409 67.3969 53.9716 67.3008 53.5696 67.1154C53.1676 66.93 52.8105 66.6597 52.523 66.323C52.2355 65.9864 52.0244 65.5914 51.9042 65.1654C51.784 64.7393 51.7575 64.2923 51.8267 63.855L52.8002 57.8325H57.9372Z" fill="#E6E6E6"/>
<path d="M115.527 66.22H118.514V53.3775H115.527V66.22Z" fill="#EBEBEB"/>
<path d="M101.085 66.22H104.071V53.3775H101.085V66.22Z" fill="#EBEBEB"/>
<path d="M82.5078 65.7096L85.4509 66.2169L87.6324 53.561L84.6893 53.0537L82.5078 65.7096Z" fill="#EBEBEB"/>
<path d="M111.826 66.2145H114.812V55.066H111.826V66.2145Z" fill="#EBEBEB"/>
<path d="M104.962 66.2145H107.948V55.066H104.962V66.2145Z" fill="#EBEBEB"/>
<path d="M87.6261 66.2145H90.6125V55.066H87.6261V66.2145Z" fill="#EBEBEB"/>
<path d="M94.7487 65.5678L97.6641 66.2157L100.083 55.3327L97.1674 54.6848L94.7487 65.5678Z" fill="#EBEBEB"/>
<path d="M109.241 66.22H110.737V52.7395H109.241V66.22Z" fill="#EBEBEB"/>
<path d="M91.4706 66.22H92.9666V52.7395H91.4706V66.22Z" fill="#EBEBEB"/>
<path d="M80.8224 56.023H66.2639V66.0715H80.8224V56.023Z" fill="#EBEBEB"/>
<path d="M130.752 60.137H118.558V67.639H130.752V60.137Z" fill="#EBEBEB"/>
<path d="M127.902 53.5425H121.803V61.0445H127.902V53.5425Z" fill="#EBEBEB"/>
<path d="M229.795 43.615H215.292V104.049H229.795V43.615Z" fill="#E0E0E0"/>
<path d="M173.998 104.214H228.239V43.6205L173.998 43.6205V104.214Z" fill="#E0E0E0"/>
<path d="M172.249 104.214H228.525V43.6205L172.249 43.6205V104.214Z" fill="#F0F0F0"/>
<path d="M174.658 101.426H226.215V45.5455L174.658 45.5455V101.426Z" fill="white"/>
<path d="M174.653 101.426H175.61V45.5455H174.653V101.426Z" fill="#E0E0E0"/>
<path d="M175.455 85.734V87.241H226.352V85.734H175.455Z" fill="#E0E0E0"/>
<path d="M174.652 85.7285H227.018V83.1985H174.652V85.7285Z" fill="#F0F0F0"/>
<path d="M137.5 204.908C196.395 204.908 244.14 202.121 244.14 198.682C244.14 195.243 196.395 192.456 137.5 192.456C78.6047 192.456 30.8606 195.243 30.8606 198.682C30.8606 202.121 78.6047 204.908 137.5 204.908Z" fill="#F5F5F5"/>
<path d="M177.073 53.801H78.672C76.4485 53.801 74.646 55.6035 74.646 57.827V173.69C74.646 175.913 76.4485 177.716 78.672 177.716H177.073C179.296 177.716 181.098 175.913 181.098 173.69V57.827C181.098 55.6035 179.296 53.801 177.073 53.801Z" fill="#407BFF"/>
<path opacity="0.6" d="M177.073 53.801H78.672C76.4485 53.801 74.646 55.6035 74.646 57.827V173.69C74.646 175.913 76.4485 177.716 78.672 177.716H177.073C179.296 177.716 181.098 175.913 181.098 173.69V57.827C181.098 55.6035 179.296 53.801 177.073 53.801Z" fill="white"/>
<path d="M163.856 110.632H91.894V122.952H163.856V110.632Z" fill="white"/>
<g opacity="0.4">
<path opacity="0.4" d="M98.329 117.991V118.316H95.832V114.785H98.252V115.104H96.206V116.364H98.032V116.677H96.206V117.991H98.329Z" fill="#263238"/>
<path opacity="0.4" d="M98.8296 116.793H100.155V117.101H98.8296V116.793Z" fill="#263238"/>
<path opacity="0.4" d="M105.331 116.776V118.316H104.973V116.809C104.973 116.259 104.693 115.962 104.214 115.962C104.09 115.956 103.966 115.978 103.851 116.025C103.736 116.072 103.633 116.143 103.549 116.235C103.465 116.326 103.401 116.434 103.363 116.552C103.325 116.671 103.313 116.796 103.329 116.919V118.316H102.966V116.809C102.966 116.259 102.685 115.962 102.201 115.962C102.077 115.956 101.953 115.978 101.838 116.025C101.723 116.072 101.62 116.143 101.536 116.235C101.452 116.326 101.388 116.434 101.35 116.552C101.312 116.671 101.3 116.796 101.316 116.919V118.316H100.953V115.66H101.299V116.144C101.403 115.981 101.547 115.849 101.718 115.76C101.889 115.672 102.08 115.629 102.273 115.637C102.467 115.621 102.662 115.665 102.83 115.764C102.998 115.862 103.132 116.01 103.213 116.187C103.323 116.01 103.478 115.866 103.663 115.769C103.848 115.672 104.055 115.627 104.264 115.637C104.413 115.626 104.563 115.648 104.702 115.703C104.842 115.757 104.968 115.842 105.07 115.951C105.172 116.06 105.249 116.191 105.294 116.334C105.339 116.477 105.352 116.628 105.331 116.776Z" fill="#263238"/>
<path opacity="0.4" d="M108.312 116.666V118.316H107.965V117.898C107.867 118.047 107.73 118.166 107.569 118.244C107.409 118.321 107.23 118.354 107.052 118.338C106.453 118.338 106.084 118.025 106.084 117.568C106.084 117.112 106.348 116.815 107.107 116.815H107.949V116.655C107.949 116.199 107.696 115.951 107.201 115.951C106.878 115.947 106.564 116.058 106.315 116.265L106.156 116.001C106.466 115.751 106.857 115.622 107.256 115.638C107.396 115.62 107.539 115.635 107.673 115.68C107.807 115.726 107.929 115.8 108.03 115.899C108.131 115.998 108.209 116.118 108.258 116.25C108.307 116.383 108.325 116.525 108.312 116.666ZM107.949 117.519V117.084H107.118C106.607 117.084 106.436 117.282 106.436 117.557C106.436 117.832 106.684 118.058 107.107 118.058C107.287 118.069 107.465 118.023 107.617 117.926C107.768 117.829 107.884 117.686 107.949 117.519Z" fill="#263238"/>
<path opacity="0.4" d="M109.203 114.823C109.203 114.79 109.211 114.756 109.224 114.725C109.238 114.694 109.258 114.666 109.282 114.642C109.307 114.619 109.336 114.6 109.367 114.588C109.399 114.576 109.433 114.57 109.467 114.57C109.5 114.57 109.533 114.576 109.564 114.588C109.595 114.6 109.623 114.618 109.647 114.641C109.671 114.664 109.69 114.691 109.704 114.722C109.717 114.752 109.724 114.785 109.725 114.818C109.726 114.852 109.72 114.887 109.707 114.919C109.694 114.951 109.675 114.98 109.651 115.004C109.627 115.029 109.599 115.048 109.567 115.062C109.535 115.075 109.501 115.082 109.467 115.082C109.432 115.083 109.398 115.077 109.366 115.064C109.334 115.051 109.305 115.032 109.28 115.008C109.256 114.984 109.236 114.955 109.223 114.924C109.209 114.892 109.203 114.858 109.203 114.823ZM109.285 115.66H109.643V118.316H109.285V115.66Z" fill="#263238"/>
<path opacity="0.4" d="M110.638 114.57H110.996V118.316H110.638V114.57Z" fill="#263238"/>
</g>
<path d="M163.856 127.462H91.894V139.782H163.856V127.462Z" fill="white"/>
<g opacity="0.4">
<path opacity="0.4" d="M98.593 132.841C98.593 133.595 98.043 134.051 97.152 134.051H96.206V135.151H95.832V131.62H97.152C98.0485 131.631 98.593 132.088 98.593 132.841ZM98.219 132.841C98.219 132.291 97.8505 131.956 97.119 131.956H96.184V133.721H97.119C97.8505 133.721 98.219 133.397 98.219 132.841Z" fill="#263238"/>
<path opacity="0.4" d="M101.305 133.518V135.168H100.958V134.75C100.86 134.899 100.723 135.018 100.562 135.096C100.402 135.173 100.223 135.206 100.045 135.19C99.4456 135.19 99.0771 134.876 99.0771 134.414C99.0771 133.952 99.3411 133.65 100.1 133.65H100.942V133.485C100.942 133.034 100.683 132.786 100.188 132.786C99.8667 132.782 99.5545 132.893 99.3081 133.1L99.1431 132.83C99.4565 132.586 99.8459 132.459 100.243 132.473C100.385 132.455 100.53 132.469 100.666 132.514C100.802 132.56 100.926 132.636 101.028 132.737C101.131 132.838 101.209 132.96 101.257 133.096C101.304 133.231 101.321 133.375 101.305 133.518ZM100.947 134.365V133.93H100.1C99.5886 133.93 99.4237 134.134 99.4237 134.409C99.4237 134.684 99.6657 134.904 100.095 134.904C100.276 134.917 100.456 134.872 100.61 134.775C100.763 134.678 100.882 134.534 100.947 134.365Z" fill="#263238"/>
<path opacity="0.4" d="M101.909 134.86L102.069 134.58C102.346 134.773 102.677 134.877 103.015 134.877C103.515 134.877 103.724 134.706 103.724 134.442C103.724 133.749 102.003 134.294 102.003 133.249C102.003 132.814 102.377 132.49 103.053 132.49C103.383 132.487 103.708 132.572 103.994 132.737L103.834 133.023C103.603 132.87 103.331 132.792 103.053 132.798C102.575 132.798 102.36 132.985 102.36 133.238C102.36 133.953 104.082 133.414 104.082 134.431C104.082 134.893 103.68 135.19 102.982 135.19C102.598 135.2 102.221 135.084 101.909 134.86Z" fill="#263238"/>
<path opacity="0.4" d="M104.374 134.86L104.539 134.579C104.813 134.775 105.142 134.879 105.479 134.877C105.985 134.877 106.189 134.706 106.189 134.442C106.189 133.749 104.473 134.293 104.473 133.248C104.473 132.814 104.847 132.49 105.518 132.49C105.848 132.485 106.173 132.571 106.458 132.737L106.304 133.023C106.07 132.871 105.796 132.792 105.518 132.798C105.039 132.798 104.83 132.984 104.83 133.237C104.83 133.952 106.552 133.414 106.552 134.431C106.552 134.893 106.145 135.19 105.452 135.19C105.066 135.199 104.688 135.083 104.374 134.86Z" fill="#263238"/>
<path opacity="0.4" d="M111.05 132.511L110.049 135.162H109.714L108.9 132.99L108.064 135.162H107.728L106.7 132.511H107.041L107.877 134.766L108.729 132.511H109.037L109.884 134.766L110.726 132.511H111.05Z" fill="#263238"/>
<path opacity="0.4" d="M111.249 133.837C111.249 133.569 111.328 133.308 111.477 133.085C111.625 132.863 111.837 132.689 112.084 132.587C112.331 132.485 112.603 132.458 112.866 132.51C113.128 132.562 113.369 132.691 113.558 132.88C113.748 133.069 113.876 133.311 113.929 133.573C113.981 133.835 113.954 134.108 113.852 134.355C113.749 134.602 113.576 134.813 113.353 134.962C113.131 135.111 112.869 135.19 112.602 135.19C112.422 135.196 112.244 135.165 112.077 135.099C111.91 135.034 111.758 134.934 111.631 134.807C111.504 134.68 111.405 134.529 111.339 134.362C111.273 134.195 111.242 134.016 111.249 133.837ZM113.586 133.837C113.577 133.643 113.512 133.456 113.398 133.299C113.284 133.142 113.126 133.022 112.944 132.954C112.762 132.886 112.565 132.873 112.375 132.916C112.186 132.96 112.014 133.058 111.88 133.198C111.746 133.339 111.657 133.516 111.622 133.707C111.588 133.898 111.611 134.095 111.688 134.273C111.765 134.451 111.892 134.603 112.055 134.709C112.217 134.816 112.407 134.872 112.602 134.871C112.736 134.874 112.869 134.848 112.993 134.797C113.117 134.745 113.229 134.668 113.321 134.571C113.414 134.473 113.485 134.358 113.531 134.232C113.576 134.105 113.595 133.971 113.586 133.837Z" fill="#263238"/>
<path opacity="0.4" d="M116.017 132.489V132.836H115.929C115.803 132.83 115.678 132.852 115.561 132.9C115.445 132.948 115.34 133.021 115.255 133.114C115.17 133.207 115.107 133.317 115.069 133.437C115.032 133.558 115.021 133.685 115.038 133.809V135.162H114.681V132.511H115.022V133.028C115.114 132.849 115.259 132.702 115.436 132.606C115.614 132.51 115.816 132.469 116.017 132.489Z" fill="#263238"/>
<path opacity="0.4" d="M119.059 131.45V135.19H118.718V134.667C118.611 134.841 118.46 134.984 118.28 135.08C118.1 135.177 117.898 135.224 117.695 135.217C117.351 135.196 117.029 135.044 116.794 134.793C116.559 134.542 116.428 134.211 116.428 133.867C116.428 133.523 116.559 133.192 116.794 132.942C117.029 132.691 117.351 132.539 117.695 132.517C117.896 132.513 118.095 132.561 118.271 132.657C118.448 132.754 118.596 132.895 118.701 133.067V131.45H119.059ZM118.707 133.864C118.698 133.671 118.632 133.483 118.518 133.326C118.404 133.169 118.246 133.049 118.065 132.981C117.883 132.913 117.685 132.9 117.496 132.944C117.307 132.987 117.134 133.085 117.001 133.226C116.867 133.366 116.777 133.543 116.743 133.734C116.709 133.925 116.732 134.122 116.808 134.301C116.885 134.479 117.013 134.631 117.175 134.737C117.338 134.843 117.528 134.899 117.722 134.898C117.859 134.901 117.995 134.875 118.121 134.822C118.247 134.769 118.36 134.689 118.453 134.589C118.546 134.489 118.617 134.37 118.66 134.24C118.704 134.111 118.72 133.973 118.707 133.837V133.864Z" fill="#263238"/>
</g>
<path opacity="0.2" d="M163.856 152.35H91.894V164.67H163.856V152.35Z" fill="black"/>
<g opacity="0.5">
<path opacity="0.5" d="M109.395 146.69H108.218L107.965 147.24H107.734L108.696 145.134H108.916L109.879 147.24H109.648L109.395 146.69ZM109.312 146.509L108.806 145.376L108.3 146.509H109.312Z" fill="black"/>
<path opacity="0.5" d="M110.187 145.018H110.402V147.251H110.187V145.018Z" fill="black"/>
<path opacity="0.5" d="M111.799 145.656V145.865H111.744C111.667 145.859 111.589 145.87 111.517 145.897C111.445 145.925 111.381 145.968 111.328 146.024C111.275 146.08 111.235 146.147 111.212 146.221C111.189 146.294 111.182 146.372 111.194 146.448V147.257H110.979V145.673H111.188V145.981C111.243 145.87 111.332 145.779 111.441 145.721C111.551 145.663 111.676 145.64 111.799 145.656Z" fill="black"/>
<path opacity="0.5" d="M113.547 146.525H112.2C112.204 146.603 112.224 146.678 112.257 146.748C112.291 146.817 112.338 146.879 112.396 146.93C112.453 146.982 112.521 147.021 112.594 147.046C112.667 147.071 112.744 147.081 112.821 147.075C112.913 147.079 113.004 147.062 113.088 147.027C113.173 146.992 113.249 146.939 113.311 146.872L113.426 147.009C113.313 147.129 113.166 147.212 113.006 147.248C112.845 147.285 112.677 147.273 112.523 147.214C112.369 147.155 112.236 147.052 112.14 146.918C112.044 146.784 111.991 146.624 111.985 146.459C111.98 146.355 111.996 146.25 112.033 146.152C112.07 146.054 112.126 145.965 112.199 145.89C112.272 145.815 112.359 145.755 112.456 145.715C112.552 145.675 112.656 145.655 112.761 145.656C112.865 145.654 112.97 145.673 113.066 145.713C113.163 145.753 113.25 145.813 113.323 145.888C113.395 145.964 113.451 146.054 113.487 146.152C113.523 146.25 113.538 146.355 113.531 146.459C113.531 146.459 113.547 146.503 113.547 146.525ZM112.222 146.366H113.322C113.322 146.22 113.264 146.08 113.161 145.977C113.058 145.874 112.918 145.816 112.772 145.816C112.626 145.816 112.486 145.874 112.383 145.977C112.28 146.08 112.222 146.22 112.222 146.366Z" fill="black"/>
<path opacity="0.5" d="M115.137 146.3V147.279H114.95V147.031C114.892 147.122 114.809 147.195 114.712 147.241C114.615 147.288 114.507 147.307 114.4 147.295C114.043 147.295 113.85 147.108 113.85 146.833C113.85 146.558 114.004 146.382 114.461 146.382H114.95V146.289C114.95 146.019 114.796 145.871 114.499 145.871C114.299 145.864 114.103 145.93 113.949 146.058L113.856 145.898C114.038 145.753 114.266 145.677 114.499 145.684C114.584 145.669 114.672 145.675 114.754 145.7C114.837 145.726 114.912 145.77 114.974 145.83C115.036 145.89 115.083 145.964 115.112 146.046C115.14 146.127 115.149 146.214 115.137 146.3ZM114.928 146.806V146.542H114.428C114.12 146.542 114.021 146.663 114.021 146.828C114.021 146.993 114.169 147.125 114.422 147.125C114.536 147.134 114.65 147.104 114.745 147.042C114.841 146.979 114.913 146.886 114.95 146.778L114.928 146.806Z" fill="black"/>
<path opacity="0.5" d="M117.15 145.018V147.251H116.946V146.938C116.884 147.043 116.794 147.129 116.687 147.187C116.579 147.245 116.458 147.273 116.336 147.268C116.134 147.251 115.945 147.159 115.808 147.01C115.67 146.861 115.594 146.665 115.594 146.462C115.594 146.259 115.67 146.064 115.808 145.915C115.945 145.765 116.134 145.673 116.336 145.656C116.455 145.653 116.573 145.68 116.679 145.735C116.785 145.79 116.875 145.871 116.941 145.97V145.018H117.15ZM116.941 146.459C116.935 146.344 116.896 146.233 116.829 146.14C116.761 146.047 116.667 145.976 116.559 145.936C116.451 145.895 116.334 145.888 116.222 145.913C116.109 145.939 116.007 145.997 115.927 146.08C115.848 146.164 115.795 146.269 115.774 146.382C115.753 146.495 115.767 146.612 115.812 146.718C115.857 146.824 115.932 146.914 116.028 146.978C116.125 147.041 116.237 147.075 116.352 147.075C116.434 147.08 116.516 147.068 116.593 147.038C116.67 147.009 116.739 146.964 116.797 146.905C116.855 146.847 116.899 146.777 116.928 146.7C116.957 146.623 116.968 146.541 116.963 146.459H116.941Z" fill="black"/>
<path opacity="0.5" d="M119.102 145.667L118.31 147.444C118.178 147.752 118.008 147.851 117.76 147.851C117.619 147.855 117.481 147.804 117.375 147.708L117.474 147.548C117.552 147.626 117.657 147.669 117.766 147.669C117.909 147.669 118.002 147.603 118.096 147.4L118.162 147.251L117.452 145.667H117.7L118.299 147.015L118.893 145.667H119.102Z" fill="black"/>
<path opacity="0.5" d="M121.39 146.3V147.279H121.187V147.031C121.129 147.122 121.046 147.195 120.949 147.241C120.852 147.288 120.744 147.307 120.637 147.295C120.279 147.295 120.087 147.108 120.087 146.833C120.087 146.558 120.241 146.382 120.697 146.382H121.198V146.289C121.198 146.019 121.049 145.871 120.752 145.871C120.552 145.864 120.357 145.93 120.202 146.058L120.103 145.898C120.288 145.753 120.518 145.677 120.752 145.684C120.838 145.669 120.925 145.675 121.007 145.7C121.09 145.726 121.165 145.77 121.227 145.83C121.29 145.89 121.337 145.964 121.365 146.046C121.393 146.127 121.402 146.214 121.39 146.3ZM121.176 146.806V146.542H120.681C120.373 146.542 120.274 146.663 120.274 146.828C120.274 146.993 120.422 147.125 120.675 147.125C120.785 147.129 120.893 147.098 120.984 147.035C121.074 146.973 121.141 146.883 121.176 146.778V146.806Z" fill="black"/>
<path opacity="0.5" d="M125.4 146.333V147.251H125.191V146.355C125.191 146.019 125.021 145.849 124.735 145.849C124.661 145.843 124.587 145.853 124.517 145.879C124.448 145.905 124.385 145.945 124.333 145.997C124.28 146.049 124.24 146.112 124.215 146.182C124.189 146.251 124.179 146.325 124.185 146.399V147.229H123.976V146.355C123.976 146.019 123.805 145.849 123.514 145.849C123.44 145.843 123.366 145.853 123.296 145.879C123.227 145.905 123.164 145.945 123.112 145.997C123.059 146.049 123.019 146.112 122.994 146.182C122.968 146.251 122.958 146.325 122.964 146.399V147.229H122.749V145.645H122.953V145.937C123.013 145.838 123.099 145.758 123.202 145.705C123.305 145.652 123.42 145.627 123.536 145.634C123.651 145.625 123.766 145.653 123.865 145.713C123.964 145.773 124.041 145.863 124.086 145.97C124.15 145.862 124.242 145.774 124.352 145.715C124.463 145.656 124.587 145.628 124.713 145.634C124.808 145.617 124.905 145.624 124.997 145.653C125.089 145.682 125.173 145.734 125.24 145.803C125.308 145.871 125.358 145.956 125.386 146.048C125.414 146.14 125.419 146.238 125.4 146.333Z" fill="black"/>
<path opacity="0.5" d="M127.347 146.525H126.021C126.033 146.681 126.105 146.826 126.222 146.929C126.339 147.032 126.493 147.085 126.648 147.075C126.739 147.079 126.829 147.062 126.913 147.027C126.996 146.992 127.071 146.939 127.132 146.872L127.253 147.009C127.176 147.094 127.082 147.161 126.976 147.205C126.871 147.25 126.757 147.271 126.643 147.268C126.534 147.275 126.425 147.259 126.322 147.221C126.22 147.183 126.126 147.124 126.048 147.048C125.97 146.972 125.908 146.88 125.868 146.779C125.827 146.677 125.808 146.569 125.812 146.459C125.812 146.255 125.893 146.059 126.038 145.915C126.182 145.771 126.378 145.689 126.582 145.689C126.787 145.689 126.982 145.771 127.127 145.915C127.271 146.059 127.352 146.255 127.352 146.459C127.352 146.459 127.347 146.503 127.347 146.525ZM126.021 146.366H127.149C127.149 146.216 127.089 146.073 126.984 145.967C126.878 145.862 126.735 145.802 126.585 145.802C126.436 145.802 126.292 145.862 126.186 145.967C126.081 146.073 126.021 146.216 126.021 146.366Z" fill="black"/>
<path opacity="0.5" d="M130.405 146.333V147.251H130.19V146.355C130.19 146.019 130.025 145.849 129.739 145.849C129.665 145.842 129.591 145.852 129.521 145.877C129.451 145.902 129.388 145.943 129.336 145.995C129.283 146.048 129.243 146.111 129.217 146.181C129.192 146.251 129.183 146.325 129.189 146.399V147.229H128.975V146.355C128.975 146.019 128.81 145.849 128.518 145.849C128.444 145.842 128.37 145.852 128.3 145.877C128.23 145.902 128.167 145.943 128.115 145.995C128.062 146.048 128.022 146.111 127.996 146.181C127.971 146.251 127.962 146.325 127.968 146.399V147.229H127.754V145.645H127.957V145.937C128.018 145.838 128.104 145.757 128.207 145.704C128.309 145.651 128.425 145.627 128.54 145.634C128.656 145.625 128.771 145.653 128.87 145.713C128.968 145.773 129.046 145.863 129.09 145.97C129.154 145.862 129.247 145.774 129.357 145.715C129.468 145.656 129.592 145.628 129.717 145.634C129.812 145.617 129.91 145.624 130.002 145.653C130.094 145.682 130.178 145.734 130.245 145.803C130.313 145.871 130.363 145.956 130.391 146.048C130.419 146.14 130.423 146.238 130.405 146.333Z" fill="black"/>
<path opacity="0.5" d="M132.594 146.459C132.599 146.565 132.583 146.671 132.545 146.77C132.508 146.869 132.45 146.959 132.377 147.035C132.303 147.111 132.214 147.171 132.116 147.211C132.018 147.251 131.913 147.27 131.807 147.268C131.685 147.273 131.564 147.245 131.457 147.187C131.349 147.129 131.259 147.043 131.197 146.938V147.251H130.988V145.018H131.202V145.97C131.268 145.87 131.358 145.789 131.464 145.734C131.57 145.68 131.688 145.653 131.807 145.656C131.913 145.653 132.018 145.672 132.116 145.711C132.214 145.751 132.303 145.81 132.376 145.886C132.45 145.961 132.508 146.051 132.545 146.15C132.583 146.249 132.599 146.354 132.594 146.459ZM132.379 146.459C132.374 146.344 132.335 146.233 132.267 146.14C132.199 146.047 132.105 145.976 131.998 145.936C131.89 145.895 131.772 145.888 131.66 145.913C131.548 145.939 131.445 145.997 131.366 146.08C131.286 146.164 131.233 146.269 131.212 146.382C131.192 146.495 131.205 146.612 131.25 146.718C131.295 146.824 131.371 146.914 131.467 146.978C131.563 147.041 131.676 147.075 131.791 147.075C131.871 147.077 131.95 147.062 132.024 147.031C132.099 147.001 132.165 146.955 132.221 146.897C132.276 146.839 132.319 146.77 132.346 146.695C132.373 146.62 132.385 146.539 132.379 146.459Z" fill="black"/>
<path opacity="0.5" d="M134.414 146.525H133.1C133.104 146.603 133.124 146.678 133.157 146.748C133.191 146.817 133.238 146.879 133.296 146.93C133.353 146.982 133.421 147.021 133.494 147.046C133.567 147.071 133.644 147.081 133.721 147.075C133.813 147.075 133.903 147.055 133.986 147.016C134.069 146.977 134.142 146.92 134.2 146.85L134.321 146.987C134.207 147.107 134.061 147.19 133.9 147.226C133.739 147.263 133.571 147.251 133.417 147.192C133.263 147.133 133.13 147.03 133.035 146.896C132.939 146.762 132.885 146.602 132.88 146.437C132.875 146.333 132.891 146.228 132.928 146.13C132.964 146.032 133.021 145.943 133.093 145.868C133.166 145.793 133.254 145.733 133.35 145.693C133.447 145.653 133.551 145.633 133.655 145.634C133.76 145.632 133.864 145.651 133.96 145.691C134.057 145.731 134.144 145.791 134.216 145.866C134.288 145.942 134.343 146.032 134.378 146.13C134.413 146.229 134.428 146.333 134.42 146.437L134.414 146.525ZM133.089 146.366H134.189C134.189 146.22 134.131 146.08 134.028 145.977C133.925 145.874 133.785 145.816 133.639 145.816C133.493 145.816 133.353 145.874 133.25 145.977C133.147 146.08 133.089 146.22 133.089 146.366Z" fill="black"/>
<path opacity="0.5" d="M135.652 145.656V145.865H135.602C135.526 145.859 135.448 145.87 135.376 145.897C135.304 145.925 135.239 145.968 135.187 146.024C135.134 146.08 135.094 146.147 135.071 146.221C135.048 146.294 135.041 146.372 135.052 146.448V147.257H134.838V145.673H135.041V145.981C135.097 145.87 135.186 145.78 135.295 145.722C135.404 145.664 135.529 145.641 135.652 145.656Z" fill="black"/>
<path opacity="0.5" d="M137.038 145.684C137.038 145.464 136.862 145.315 136.554 145.315C136.446 145.309 136.338 145.328 136.237 145.37C136.137 145.412 136.048 145.476 135.977 145.557L135.817 145.436C135.911 145.331 136.027 145.247 136.158 145.193C136.288 145.139 136.43 145.115 136.571 145.123C136.994 145.123 137.264 145.326 137.264 145.673C137.264 146.184 136.714 146.223 136.714 146.641H136.488C136.488 146.124 137.038 146.074 137.038 145.684ZM136.444 147.108C136.451 147.072 136.47 147.039 136.499 147.015C136.528 146.991 136.564 146.978 136.601 146.978C136.638 146.978 136.674 146.991 136.703 147.015C136.731 147.039 136.751 147.072 136.758 147.108C136.762 147.132 136.761 147.155 136.755 147.178C136.749 147.201 136.739 147.222 136.724 147.24C136.709 147.258 136.69 147.272 136.669 147.282C136.647 147.292 136.624 147.297 136.601 147.297C136.577 147.297 136.554 147.292 136.533 147.282C136.512 147.272 136.493 147.258 136.478 147.24C136.463 147.222 136.452 147.201 136.446 147.178C136.441 147.155 136.44 147.132 136.444 147.108Z" fill="black"/>
<path opacity="0.5" d="M138.528 145.145H139.018V146.85H140.074V147.246H138.528V145.145Z" fill="black"/>
<path opacity="0.5" d="M140.184 146.443C140.173 146.265 140.216 146.087 140.307 145.934C140.398 145.78 140.533 145.658 140.694 145.582C140.856 145.506 141.036 145.48 141.213 145.508C141.389 145.536 141.553 145.616 141.683 145.738C141.813 145.86 141.904 146.019 141.943 146.193C141.982 146.367 141.968 146.549 141.902 146.715C141.837 146.881 141.723 147.024 141.575 147.124C141.428 147.225 141.254 147.279 141.075 147.279C140.961 147.287 140.846 147.27 140.738 147.232C140.63 147.193 140.532 147.133 140.448 147.054C140.364 146.976 140.298 146.881 140.253 146.776C140.207 146.671 140.184 146.558 140.184 146.443ZM141.488 146.443C141.481 146.363 141.452 146.287 141.403 146.223C141.354 146.16 141.287 146.112 141.211 146.086C141.136 146.06 141.054 146.056 140.976 146.076C140.899 146.095 140.828 146.137 140.774 146.196C140.719 146.255 140.683 146.328 140.67 146.407C140.656 146.486 140.666 146.567 140.698 146.641C140.73 146.714 140.783 146.777 140.85 146.821C140.917 146.865 140.995 146.888 141.075 146.888C141.132 146.89 141.189 146.878 141.242 146.856C141.295 146.833 141.342 146.8 141.381 146.758C141.42 146.716 141.45 146.666 141.468 146.612C141.486 146.558 141.493 146.5 141.488 146.443Z" fill="black"/>
<path opacity="0.5" d="M143.951 145.629V146.982C143.966 147.104 143.953 147.227 143.912 147.343C143.872 147.458 143.805 147.563 143.717 147.648C143.629 147.733 143.522 147.797 143.405 147.834C143.289 147.871 143.165 147.881 143.044 147.862C142.761 147.873 142.482 147.794 142.246 147.636L142.433 147.301C142.594 147.416 142.786 147.479 142.983 147.482C143.313 147.482 143.462 147.334 143.462 147.042V146.971C143.396 147.039 143.316 147.093 143.228 147.128C143.14 147.163 143.045 147.179 142.95 147.174C142.842 147.184 142.733 147.17 142.63 147.135C142.527 147.1 142.432 147.043 142.352 146.97C142.272 146.896 142.208 146.806 142.164 146.707C142.121 146.607 142.098 146.5 142.098 146.391C142.098 146.282 142.121 146.174 142.164 146.075C142.208 145.975 142.272 145.885 142.352 145.812C142.432 145.738 142.527 145.682 142.63 145.647C142.733 145.611 142.842 145.598 142.95 145.607C143.054 145.599 143.158 145.615 143.253 145.656C143.349 145.696 143.434 145.758 143.5 145.838V145.629H143.951ZM143.489 146.393C143.491 146.338 143.481 146.284 143.46 146.233C143.439 146.182 143.408 146.136 143.368 146.098C143.328 146.06 143.28 146.031 143.228 146.013C143.176 145.994 143.121 145.987 143.066 145.992C143.01 145.985 142.952 145.991 142.898 146.008C142.844 146.025 142.795 146.053 142.752 146.091C142.71 146.128 142.676 146.175 142.653 146.226C142.629 146.278 142.617 146.334 142.617 146.391C142.617 146.447 142.629 146.503 142.653 146.555C142.676 146.607 142.71 146.653 142.752 146.691C142.795 146.728 142.844 146.757 142.898 146.774C142.952 146.791 143.01 146.796 143.066 146.789C143.12 146.794 143.175 146.787 143.227 146.769C143.278 146.751 143.326 146.723 143.366 146.686C143.406 146.648 143.437 146.603 143.458 146.553C143.48 146.502 143.49 146.448 143.489 146.393Z" fill="black"/>
<path opacity="0.5" d="M145.2 145.145C145.201 145.108 145.209 145.072 145.224 145.038C145.239 145.005 145.261 144.975 145.289 144.95C145.316 144.925 145.348 144.906 145.383 144.894C145.418 144.883 145.455 144.878 145.491 144.881C145.527 144.877 145.564 144.881 145.598 144.892C145.633 144.903 145.665 144.92 145.692 144.944C145.719 144.968 145.742 144.997 145.757 145.03C145.773 145.062 145.782 145.098 145.783 145.134C145.783 145.211 145.752 145.285 145.698 145.34C145.643 145.395 145.569 145.425 145.491 145.425C145.414 145.425 145.34 145.395 145.285 145.34C145.231 145.285 145.2 145.211 145.2 145.134V145.145ZM145.255 145.629H145.722V147.279H145.255V145.629Z" fill="black"/>
<path opacity="0.5" d="M147.807 146.3V147.229H147.339V146.377C147.339 146.113 147.218 145.992 147.009 145.992C146.8 145.992 146.619 146.129 146.619 146.426V147.229H146.151V145.579H146.602V145.772C146.673 145.699 146.759 145.642 146.854 145.605C146.949 145.568 147.051 145.552 147.152 145.557C147.247 145.553 147.342 145.569 147.43 145.606C147.518 145.643 147.596 145.7 147.659 145.771C147.722 145.842 147.768 145.927 147.793 146.019C147.819 146.11 147.824 146.206 147.807 146.3Z" fill="black"/>
</g>
<path d="M163.856 151.596H91.894V163.916H163.856V151.596Z" fill="#407BFF"/>
<path d="M118.58 159.671L117.7 158.4H117.436H116.391V159.682H115.786V155.463H117.436C118.536 155.463 119.191 156.013 119.191 156.937C119.205 157.23 119.122 157.519 118.954 157.759C118.787 158 118.546 158.179 118.267 158.268L119.268 159.682L118.58 159.671ZM118.58 156.921C118.58 156.316 118.179 155.975 117.403 155.975H116.38V157.872H117.403C118.162 157.878 118.564 157.526 118.564 156.926L118.58 156.921Z" fill="white"/>
<path d="M122.936 158.268H120.345C120.386 158.54 120.527 158.787 120.741 158.96C120.955 159.133 121.226 159.22 121.5 159.203C121.673 159.209 121.845 159.178 122.005 159.112C122.164 159.045 122.307 158.945 122.424 158.818L122.743 159.192C122.508 159.431 122.209 159.597 121.881 159.67C121.554 159.743 121.213 159.72 120.898 159.604C120.583 159.488 120.309 159.283 120.107 159.015C119.906 158.747 119.786 158.427 119.762 158.092C119.751 157.876 119.784 157.66 119.86 157.458C119.936 157.255 120.054 157.071 120.204 156.916C120.355 156.761 120.537 156.639 120.737 156.557C120.937 156.476 121.152 156.436 121.368 156.442C121.584 156.436 121.797 156.475 121.996 156.557C122.195 156.639 122.375 156.761 122.524 156.917C122.672 157.072 122.787 157.257 122.86 157.46C122.933 157.662 122.962 157.877 122.947 158.092C122.947 158.141 122.941 158.213 122.936 158.268ZM120.345 157.85H122.391C122.365 157.597 122.246 157.363 122.057 157.192C121.868 157.022 121.623 156.928 121.368 156.928C121.114 156.928 120.869 157.022 120.68 157.192C120.491 157.363 120.372 157.597 120.345 157.85Z" fill="white"/>
<path d="M126.808 156.48V159.23C126.808 160.358 126.231 160.88 125.158 160.88C124.611 160.904 124.072 160.737 123.635 160.407L123.91 159.962C124.262 160.235 124.696 160.381 125.142 160.374C125.895 160.374 126.242 160.028 126.242 159.302V159.049C126.099 159.212 125.922 159.342 125.723 159.427C125.524 159.513 125.309 159.553 125.092 159.544C124.682 159.544 124.289 159.381 123.999 159.091C123.709 158.801 123.547 158.408 123.547 157.998C123.547 157.589 123.709 157.195 123.999 156.906C124.289 156.616 124.682 156.453 125.092 156.453C125.318 156.446 125.543 156.492 125.749 156.588C125.954 156.683 126.134 156.825 126.275 157.003V156.508L126.808 156.48ZM126.258 157.993C126.27 157.773 126.216 157.555 126.103 157.366C125.99 157.178 125.822 157.027 125.623 156.935C125.423 156.842 125.2 156.811 124.983 156.847C124.766 156.882 124.564 156.982 124.404 157.133C124.244 157.284 124.133 157.48 124.086 157.695C124.038 157.91 124.056 158.134 124.137 158.338C124.219 158.543 124.359 158.718 124.541 158.842C124.723 158.966 124.938 159.032 125.158 159.032C125.299 159.041 125.44 159.02 125.572 158.971C125.704 158.923 125.825 158.847 125.927 158.749C126.029 158.652 126.109 158.534 126.163 158.404C126.218 158.274 126.244 158.134 126.242 157.993H126.258Z" fill="white"/>
<path d="M127.809 155.49C127.81 155.44 127.82 155.39 127.84 155.344C127.86 155.297 127.889 155.255 127.926 155.22C127.962 155.185 128.005 155.157 128.052 155.138C128.099 155.12 128.149 155.11 128.2 155.111C128.253 155.105 128.307 155.109 128.358 155.125C128.409 155.141 128.457 155.168 128.497 155.204C128.537 155.239 128.569 155.283 128.591 155.332C128.613 155.381 128.625 155.434 128.625 155.488C128.625 155.541 128.613 155.595 128.591 155.643C128.569 155.692 128.537 155.736 128.497 155.772C128.457 155.807 128.409 155.834 128.358 155.85C128.307 155.866 128.253 155.871 128.2 155.865C128.149 155.866 128.099 155.857 128.052 155.839C128.005 155.821 127.962 155.794 127.926 155.759C127.89 155.724 127.861 155.683 127.841 155.637C127.82 155.59 127.81 155.541 127.809 155.49ZM127.914 156.481H128.491V159.671H127.914V156.481Z" fill="white"/>
<path d="M129.19 159.335L129.432 158.878C129.759 159.091 130.141 159.206 130.532 159.208C131.082 159.208 131.291 159.043 131.291 158.774C131.291 158.059 129.272 158.68 129.272 157.404C129.272 156.854 129.784 156.447 130.603 156.447C131.009 156.441 131.409 156.542 131.764 156.739L131.516 157.195C131.242 157.023 130.922 156.935 130.598 156.942C130.092 156.942 129.844 157.129 129.844 157.382C129.844 158.136 131.868 157.52 131.868 158.763C131.868 159.313 131.318 159.709 130.488 159.709C130.028 159.716 129.576 159.586 129.19 159.335Z" fill="white"/>
<path d="M134.409 159.5C134.209 159.653 133.962 159.733 133.711 159.726C133.575 159.741 133.438 159.726 133.308 159.681C133.179 159.637 133.062 159.564 132.965 159.468C132.868 159.371 132.793 159.255 132.747 159.126C132.701 158.998 132.685 158.86 132.699 158.724V156.97H132.149V156.497H132.699V155.798H133.249V156.497H134.2V156.97H133.282V158.702C133.269 158.773 133.272 158.846 133.292 158.915C133.312 158.984 133.347 159.048 133.396 159.101C133.444 159.155 133.504 159.196 133.571 159.222C133.638 159.248 133.71 159.259 133.782 159.252C133.945 159.254 134.103 159.202 134.233 159.104L134.409 159.5Z" fill="white"/>
<path d="M137.874 158.268H135.3C135.341 158.541 135.483 158.789 135.698 158.962C135.913 159.135 136.185 159.221 136.46 159.203C136.632 159.209 136.804 159.178 136.962 159.112C137.121 159.045 137.263 158.945 137.379 158.818L137.698 159.192C137.463 159.432 137.164 159.598 136.837 159.671C136.51 159.745 136.168 159.722 135.854 159.606C135.539 159.49 135.265 159.285 135.064 159.016C134.864 158.748 134.745 158.427 134.722 158.092C134.711 157.876 134.744 157.66 134.82 157.458C134.896 157.255 135.014 157.071 135.164 156.916C135.315 156.761 135.497 156.639 135.697 156.557C135.897 156.476 136.112 156.436 136.328 156.442C136.543 156.437 136.757 156.477 136.955 156.559C137.154 156.641 137.333 156.763 137.482 156.919C137.63 157.074 137.745 157.259 137.818 157.461C137.891 157.663 137.922 157.878 137.907 158.092C137.901 158.152 137.89 158.21 137.874 158.268ZM135.3 157.85H137.351C137.32 157.6 137.198 157.371 137.009 157.204C136.82 157.038 136.577 156.946 136.326 156.946C136.074 156.946 135.831 157.038 135.642 157.204C135.453 157.371 135.332 157.6 135.3 157.85Z" fill="white"/>
<path d="M140.41 156.448V156.998H140.278C140.135 156.987 139.991 157.01 139.858 157.063C139.725 157.116 139.605 157.199 139.509 157.304C139.412 157.41 139.34 157.536 139.299 157.674C139.258 157.811 139.248 157.956 139.271 158.098V159.687H138.694V156.497H139.244V157.047C139.36 156.846 139.532 156.682 139.738 156.576C139.945 156.469 140.178 156.425 140.41 156.448Z" fill="white"/>
<g opacity="0.6">
<path opacity="0.6" d="M115.275 67.4355L115.522 66.9185C115.949 67.2763 116.489 67.4712 117.046 67.4685C117.843 67.4685 118.184 67.1605 118.184 66.759C118.184 65.659 115.39 66.341 115.39 64.6305C115.39 63.9155 115.94 63.3105 117.156 63.3105C117.679 63.302 118.195 63.4432 118.641 63.7175L118.421 64.2675C118.043 64.0257 117.604 63.896 117.156 63.8935C116.369 63.8935 116.056 64.2235 116.056 64.625C116.056 65.725 118.855 65.043 118.855 66.7425C118.855 67.4465 118.305 68.0515 117.068 68.0515C116.416 68.0652 115.78 67.8469 115.275 67.4355Z" fill="#263238"/>
<path opacity="0.6" d="M119.592 63.382C119.593 63.3266 119.604 63.272 119.626 63.2212C119.648 63.1704 119.68 63.1244 119.72 63.0861C119.76 63.0477 119.807 63.0176 119.859 62.9976C119.911 62.9776 119.966 62.9681 120.021 62.9695C120.076 62.9673 120.13 62.976 120.181 62.995C120.233 63.0141 120.28 63.0431 120.32 63.0805C120.359 63.1179 120.392 63.1628 120.414 63.2127C120.436 63.2625 120.449 63.3164 120.45 63.371C120.45 63.4848 120.405 63.5939 120.324 63.6744C120.244 63.7548 120.135 63.8 120.021 63.8C119.907 63.8 119.798 63.7548 119.718 63.6744C119.637 63.5939 119.592 63.4848 119.592 63.371V63.382ZM119.702 64.482H120.34V67.98H119.702V64.482Z" fill="#263238"/>
<path opacity="0.6" d="M124.889 64.4655V67.485C124.889 68.7225 124.262 69.2835 123.079 69.2835C122.486 69.3023 121.903 69.118 121.429 68.761L121.732 68.2715C122.115 68.5745 122.591 68.7358 123.079 68.728C123.904 68.728 124.278 68.343 124.278 67.551V67.276C124.122 67.4558 123.928 67.5985 123.711 67.6936C123.493 67.7888 123.256 67.834 123.019 67.826C122.788 67.8392 122.558 67.8051 122.341 67.7261C122.125 67.647 121.926 67.5246 121.759 67.3662C121.591 67.2079 121.458 67.017 121.366 66.8053C121.275 66.5935 121.228 66.3653 121.228 66.1348C121.228 65.9042 121.275 65.676 121.366 65.4643C121.458 65.2525 121.591 65.0616 121.759 64.9033C121.926 64.745 122.125 64.6225 122.341 64.5434C122.558 64.4644 122.788 64.4304 123.019 64.4435C123.262 64.4309 123.504 64.4738 123.728 64.5691C123.952 64.6645 124.152 64.8096 124.311 64.9935V64.4435L124.889 64.4655ZM124.273 66.1155C124.285 65.8751 124.224 65.6365 124.1 65.4307C123.975 65.2248 123.791 65.061 123.572 64.9605C123.354 64.86 123.11 64.8274 122.872 64.8668C122.635 64.9062 122.415 65.0159 122.24 65.1817C122.065 65.3474 121.945 65.5617 121.893 65.7969C121.841 66.032 121.861 66.2772 121.951 66.5009C122.04 66.7245 122.194 66.9163 122.393 67.0516C122.592 67.1868 122.827 67.2592 123.068 67.2595C123.225 67.2733 123.384 67.2541 123.533 67.203C123.683 67.1519 123.82 67.0702 123.936 66.963C124.052 66.8558 124.144 66.7255 124.207 66.5805C124.27 66.4355 124.301 66.279 124.3 66.121L124.273 66.1155Z" fill="#263238"/>
<path opacity="0.6" d="M129.421 65.9505V67.9635H128.783V66C128.783 65.3125 128.442 64.977 127.842 64.977C127.69 64.9671 127.537 64.9908 127.395 65.0464C127.253 65.1021 127.125 65.1884 127.02 65.2992C126.915 65.41 126.836 65.5425 126.788 65.6874C126.74 65.8323 126.724 65.986 126.742 66.1375V67.9415H126.11V64.4435H126.72V64.9935C126.87 64.8071 127.063 64.6598 127.282 64.564C127.502 64.4683 127.741 64.4269 127.98 64.4435C128.178 64.4302 128.377 64.4606 128.562 64.5326C128.748 64.6046 128.915 64.7164 129.052 64.8601C129.19 65.0038 129.294 65.176 129.358 65.3644C129.421 65.5528 129.443 65.7529 129.421 65.9505Z" fill="#263238"/>
<path opacity="0.6" d="M135.63 64.4655V67.9635H135.031V67.4135C134.891 67.5935 134.71 67.7374 134.503 67.8331C134.297 67.9288 134.07 67.9735 133.843 67.9635C133.638 67.9846 133.431 67.9595 133.238 67.8901C133.044 67.8208 132.869 67.7089 132.724 67.5627C132.58 67.4165 132.47 67.2398 132.402 67.0455C132.335 66.8512 132.312 66.6443 132.336 66.44V64.427H132.968V66.3685C132.968 67.0505 133.315 67.397 133.914 67.397C134.067 67.408 134.22 67.3849 134.362 67.3296C134.505 67.2743 134.633 67.188 134.739 67.077C134.844 66.966 134.923 66.833 134.971 66.6877C135.018 66.5423 135.033 66.3882 135.014 66.2365V64.427L135.63 64.4655Z" fill="#263238"/>
<path opacity="0.6" d="M140.459 66.2145C140.472 66.4507 140.435 66.6868 140.351 66.9078C140.266 67.1289 140.137 67.3299 139.971 67.4982C139.805 67.6664 139.605 67.7981 139.385 67.8849C139.166 67.9716 138.93 68.0115 138.694 68.002C138.461 68.0111 138.23 67.9661 138.018 67.8707C137.806 67.7752 137.62 67.6319 137.473 67.452V69.256H136.84V64.482H137.445V65.032C137.59 64.8405 137.78 64.687 137.997 64.5845C138.215 64.4821 138.453 64.4337 138.694 64.4435C138.929 64.4333 139.163 64.4722 139.382 64.5577C139.602 64.6432 139.801 64.7733 139.967 64.94C140.133 65.1066 140.262 65.3059 140.347 65.5254C140.432 65.7448 140.47 65.9795 140.459 66.2145ZM139.821 66.2145C139.81 65.9846 139.732 65.7629 139.597 65.5768C139.461 65.3908 139.274 65.2485 139.059 65.1676C138.843 65.0867 138.609 65.0708 138.385 65.1218C138.16 65.1728 137.956 65.2885 137.796 65.4545C137.637 65.6206 137.53 65.8297 137.488 66.056C137.446 66.2824 137.472 66.516 137.561 66.7279C137.651 66.9399 137.801 67.121 137.992 67.2487C138.184 67.3764 138.408 67.4452 138.639 67.4465C138.799 67.4499 138.958 67.4199 139.107 67.3585C139.255 67.2971 139.389 67.2057 139.5 67.0899C139.611 66.9741 139.697 66.8365 139.752 66.6859C139.808 66.5352 139.831 66.3747 139.821 66.2145Z" fill="#263238"/>
</g>
<path d="M163.856 93.797H91.894V106.117H163.856V93.797Z" fill="white"/>
<g opacity="0.4">
<path opacity="0.4" d="M95.832 97.9495H96.206V101.156H98.1805V101.48H95.832V97.9495Z" fill="#263238"/>
<path opacity="0.4" d="M100.738 99.836V101.486H100.397V101.074C100.297 101.221 100.16 101.339 99.9997 101.416C99.8394 101.493 99.6615 101.527 99.4841 101.514C98.8846 101.514 98.5161 101.2 98.5161 100.738C98.5161 100.276 98.7746 99.99 99.5391 99.99H100.381V99.8305C100.381 99.374 100.122 99.1265 99.6271 99.1265C99.3057 99.1222 98.9934 99.2335 98.7471 99.44L98.5821 99.1705C98.8961 98.9272 99.2851 98.8008 99.6821 98.813C99.822 98.7961 99.9639 98.8106 100.097 98.8555C100.231 98.9005 100.353 98.9747 100.454 99.0727C100.555 99.1707 100.633 99.2902 100.682 99.4222C100.732 99.5543 100.751 99.6957 100.738 99.836ZM100.381 100.683V100.249H99.5501C99.0331 100.249 98.8681 100.452 98.8681 100.727C98.8681 101.002 99.1156 101.222 99.5391 101.222C99.7184 101.233 99.8966 101.187 100.048 101.09C100.199 100.993 100.316 100.85 100.381 100.683Z" fill="#263238"/>
<path opacity="0.4" d="M101.343 101.2L101.503 100.92C101.78 101.113 102.11 101.217 102.449 101.216C102.955 101.216 103.158 101.046 103.158 100.782C103.158 100.089 101.442 100.634 101.442 99.5885C101.442 99.154 101.811 98.8295 102.487 98.8295C102.817 98.8252 103.142 98.9107 103.428 99.077L103.268 99.363C103.037 99.2102 102.764 99.1315 102.487 99.1375C102.009 99.1375 101.8 99.3245 101.8 99.5775C101.8 100.293 103.516 99.7535 103.516 100.771C103.516 101.233 103.114 101.53 102.416 101.53C102.032 101.538 101.656 101.423 101.343 101.2Z" fill="#263238"/>
<path opacity="0.4" d="M105.6 101.321C105.444 101.445 105.25 101.511 105.05 101.508C104.946 101.519 104.84 101.507 104.741 101.472C104.641 101.437 104.551 101.38 104.477 101.306C104.402 101.231 104.346 101.141 104.311 101.042C104.276 100.943 104.263 100.837 104.275 100.732V99.132H103.796V98.8295H104.275V98.2465H104.632V98.8295H105.435V99.132H104.632V100.716C104.623 100.779 104.628 100.844 104.647 100.905C104.666 100.966 104.699 101.022 104.743 101.069C104.787 101.115 104.841 101.151 104.901 101.174C104.961 101.197 105.025 101.206 105.089 101.2C105.233 101.204 105.374 101.155 105.485 101.062L105.6 101.321Z" fill="#263238"/>
<path opacity="0.4" d="M110.55 97.9495V101.48H110.242L107.976 98.615V101.48H107.602V97.9495H107.91L110.182 100.815V97.9495H110.55Z" fill="#263238"/>
<path opacity="0.4" d="M113.652 99.836V101.486H113.3V101.073C113.201 101.221 113.064 101.34 112.903 101.418C112.743 101.495 112.565 101.528 112.387 101.513C111.787 101.513 111.419 101.2 111.419 100.738C111.419 100.276 111.683 99.99 112.447 99.99H113.3V99.8305C113.3 99.374 113.041 99.1265 112.546 99.1265C112.225 99.1222 111.913 99.2335 111.666 99.44L111.501 99.1705C111.815 98.926 112.204 98.7994 112.601 98.813C112.741 98.7969 112.882 98.8121 113.015 98.8575C113.148 98.9028 113.269 98.9771 113.37 99.0751C113.47 99.173 113.548 99.2921 113.597 99.4237C113.645 99.5553 113.664 99.6962 113.652 99.836ZM113.294 100.683V100.248H112.458C111.947 100.248 111.782 100.452 111.782 100.727C111.782 101.002 112.029 101.222 112.453 101.222C112.633 101.234 112.813 101.188 112.965 101.092C113.117 100.995 113.235 100.851 113.3 100.683H113.294Z" fill="#263238"/>
<path opacity="0.4" d="M119.003 99.9405V101.48H118.646V99.979C118.646 99.429 118.36 99.132 117.881 99.132C117.757 99.1262 117.634 99.1476 117.519 99.1947C117.404 99.2418 117.301 99.3134 117.216 99.4046C117.132 99.4957 117.068 99.6042 117.03 99.7224C116.992 99.8406 116.981 99.9658 116.996 100.089V101.48H116.638V99.979C116.638 99.429 116.352 99.132 115.868 99.132C115.744 99.1262 115.621 99.1476 115.506 99.1947C115.391 99.2418 115.288 99.3134 115.203 99.4046C115.119 99.4957 115.055 99.6042 115.017 99.7224C114.979 99.8406 114.968 99.9658 114.983 100.089V101.48H114.625V98.8295H114.95V99.3135C115.054 99.1513 115.198 99.0193 115.369 98.9305C115.54 98.8417 115.731 98.7993 115.923 98.8075C116.118 98.7915 116.314 98.8356 116.483 98.9339C116.652 99.0323 116.787 99.1801 116.869 99.3575C116.978 99.1803 117.132 99.0356 117.316 98.9388C117.5 98.842 117.707 98.7967 117.914 98.8075C118.065 98.7928 118.217 98.8124 118.359 98.8648C118.501 98.9172 118.629 99.001 118.734 99.1101C118.838 99.2191 118.917 99.3505 118.964 99.4943C119.011 99.6381 119.024 99.7907 119.003 99.9405Z" fill="#263238"/>
<path opacity="0.4" d="M122.298 100.265H120.098C120.106 100.394 120.139 100.521 120.196 100.637C120.252 100.754 120.332 100.858 120.429 100.944C120.526 101.03 120.639 101.096 120.761 101.138C120.884 101.18 121.014 101.197 121.143 101.189C121.296 101.194 121.448 101.165 121.588 101.106C121.729 101.046 121.855 100.956 121.957 100.842L122.155 101.073C121.964 101.273 121.719 101.411 121.451 101.472C121.182 101.532 120.901 101.512 120.643 101.414C120.386 101.316 120.163 101.145 120.002 100.921C119.842 100.697 119.751 100.43 119.74 100.155C119.731 99.9798 119.758 99.8047 119.82 99.6404C119.881 99.4761 119.976 99.3261 120.097 99.1998C120.219 99.0735 120.365 98.9735 120.527 98.906C120.689 98.8385 120.863 98.805 121.038 98.8075C121.214 98.8041 121.388 98.8371 121.549 98.9044C121.711 98.9717 121.857 99.0719 121.978 99.1985C122.099 99.3252 122.192 99.4756 122.252 99.6403C122.312 99.8049 122.337 99.9802 122.325 100.155C122.303 100.188 122.298 100.226 122.298 100.265ZM120.098 100.001H121.979C121.979 99.7516 121.88 99.5123 121.704 99.336C121.527 99.1596 121.288 99.0605 121.038 99.0605C120.789 99.0605 120.55 99.1596 120.373 99.336C120.197 99.5123 120.098 99.7516 120.098 100.001Z" fill="#263238"/>
</g>
<path d="M163.856 76.967H91.894V89.287H163.856V76.967Z" fill="white"/>
<g opacity="0.4">
<path opacity="0.4" d="M96.206 81.444V82.83H98.032V83.1545H96.206V84.6505H95.832V81.1195H98.252V81.444H96.206Z" fill="#263238"/>
<path opacity="0.4" d="M98.8184 81.158C98.8173 81.1053 98.832 81.0535 98.8606 81.0093C98.8892 80.965 98.9304 80.9304 98.9788 80.9097C99.0273 80.889 99.0808 80.8834 99.1325 80.8934C99.1843 80.9034 99.2318 80.9286 99.269 80.9659C99.3063 81.0031 99.3315 81.0507 99.3416 81.1024C99.3516 81.1541 99.3459 81.2076 99.3252 81.2561C99.3046 81.3046 99.2699 81.3457 99.2256 81.3743C99.1814 81.4029 99.1296 81.4176 99.0769 81.4165C99.0084 81.4165 98.9426 81.3893 98.8941 81.3408C98.8457 81.2923 98.8184 81.2266 98.8184 81.158ZM98.8954 81.9995H99.2529V84.6505H98.8954V81.9995Z" fill="#263238"/>
<path opacity="0.4" d="M101.59 81.9775V82.324H101.502C101.376 82.3178 101.25 82.3397 101.133 82.388C101.016 82.4363 100.911 82.5099 100.826 82.6035C100.741 82.697 100.678 82.8083 100.64 82.9292C100.603 83.0501 100.593 83.1778 100.611 83.303V84.656H100.254V82.005H100.595V82.5C100.69 82.3237 100.836 82.1799 101.013 82.0868C101.19 81.9937 101.391 81.9557 101.59 81.9775Z" fill="#263238"/>
<path opacity="0.4" d="M101.888 84.348L102.047 84.062C102.322 84.2613 102.654 84.3673 102.993 84.3645C103.499 84.3645 103.703 84.1885 103.703 83.93C103.703 83.237 101.987 83.7815 101.987 82.731C101.987 82.302 102.355 81.9775 103.032 81.9775C103.362 81.9703 103.688 82.0561 103.972 82.225L103.813 82.511C103.581 82.3582 103.309 82.2795 103.032 82.2855C102.553 82.2855 102.344 82.4725 102.344 82.7255C102.344 83.4405 104.06 82.9015 104.06 83.919C104.06 84.3755 103.659 84.6725 102.96 84.6725C102.577 84.6825 102.201 84.5687 101.888 84.348Z" fill="#263238"/>
<path opacity="0.4" d="M106.15 84.491C105.992 84.6111 105.798 84.6749 105.6 84.6725C105.496 84.6847 105.39 84.6732 105.291 84.6389C105.191 84.6046 105.101 84.5484 105.027 84.4744C104.952 84.4004 104.895 84.3106 104.86 84.2115C104.825 84.1125 104.813 84.0069 104.824 83.9025V82.302H104.346V81.9995H104.824V81.4H105.182V81.983H105.985V82.2855H105.182V83.864C105.173 83.9276 105.178 83.9924 105.197 84.0537C105.216 84.1151 105.249 84.1713 105.293 84.2183C105.337 84.2653 105.39 84.3018 105.45 84.3252C105.51 84.3486 105.574 84.3583 105.638 84.3535C105.782 84.3554 105.923 84.3067 106.034 84.216L106.15 84.491Z" fill="#263238"/>
<path opacity="0.4" d="M111.1 81.1195V84.6505H110.792L108.526 81.785V84.6505H108.152V81.1195H108.46L110.732 83.985V81.1195H111.1Z" fill="#263238"/>
<path opacity="0.4" d="M114.196 83.006V84.656H113.85V84.2435C113.751 84.3904 113.615 84.5082 113.456 84.5846C113.296 84.661 113.119 84.6933 112.942 84.678C112.337 84.678 111.969 84.37 111.969 83.908C111.969 83.446 112.233 83.16 112.997 83.16H113.85V82.995C113.85 82.544 113.591 82.2965 113.096 82.2965C112.775 82.2922 112.463 82.4035 112.216 82.61L112.051 82.3405C112.365 82.0964 112.754 81.9699 113.151 81.983C113.291 81.9668 113.432 81.9819 113.564 82.0273C113.697 82.0726 113.818 82.1471 113.918 82.2451C114.018 82.3432 114.095 82.4624 114.143 82.594C114.192 82.7257 114.21 82.8664 114.196 83.006ZM113.839 83.853V83.4185H113.003C112.491 83.4185 112.326 83.622 112.326 83.8915C112.326 84.161 112.574 84.392 112.997 84.392C113.178 84.4045 113.359 84.359 113.512 84.2621C113.665 84.1652 113.784 84.0218 113.85 83.853H113.839Z" fill="#263238"/>
<path opacity="0.4" d="M119.548 83.1105V84.6505H119.19V83.149C119.19 82.599 118.904 82.302 118.426 82.302C118.302 82.2962 118.178 82.3176 118.063 82.3647C117.948 82.4118 117.845 82.4834 117.761 82.5746C117.676 82.6657 117.613 82.7742 117.575 82.8924C117.537 83.0107 117.525 83.1358 117.54 83.259V84.6505H117.183V83.149C117.183 82.599 116.897 82.302 116.413 82.302C116.289 82.2962 116.165 82.3176 116.05 82.3647C115.935 82.4118 115.832 82.4834 115.748 82.5746C115.663 82.6657 115.6 82.7742 115.562 82.8924C115.524 83.0107 115.512 83.1358 115.527 83.259V84.6505H115.17V81.9995H115.5V82.5C115.604 82.3378 115.748 82.2057 115.919 82.1169C116.09 82.0282 116.281 81.9858 116.473 81.994C116.668 81.978 116.864 82.0221 117.033 82.1204C117.202 82.2188 117.337 82.3666 117.419 82.544C117.527 82.3659 117.681 82.2206 117.865 82.1237C118.05 82.0268 118.257 81.982 118.464 81.994C118.613 81.9806 118.763 82.0006 118.902 82.0525C119.042 82.1044 119.169 82.1868 119.272 82.2938C119.376 82.4008 119.455 82.5297 119.503 82.671C119.55 82.8123 119.566 82.9624 119.548 83.1105Z" fill="#263238"/>
<path opacity="0.4" d="M122.842 83.435H120.642C120.65 83.5644 120.683 83.691 120.74 83.8075C120.797 83.924 120.876 84.0282 120.973 84.114C121.07 84.1999 121.183 84.2657 121.306 84.3077C121.428 84.3498 121.558 84.3672 121.687 84.359C121.841 84.364 121.993 84.335 122.134 84.2742C122.275 84.2133 122.4 84.1221 122.501 84.007L122.699 84.2435C122.509 84.4425 122.264 84.581 121.995 84.6416C121.726 84.7023 121.445 84.6823 121.188 84.5843C120.93 84.4863 120.707 84.3147 120.547 84.0907C120.386 83.8667 120.295 83.6004 120.285 83.325C120.276 83.1498 120.303 82.9747 120.364 82.8104C120.426 82.6461 120.52 82.4961 120.642 82.3698C120.763 82.2435 120.91 82.1435 121.072 82.076C121.234 82.0085 121.408 81.975 121.583 81.9775C121.758 81.9741 121.932 82.0071 122.094 82.0744C122.255 82.1417 122.401 82.2419 122.522 82.3685C122.643 82.4952 122.737 82.6457 122.797 82.8103C122.856 82.9749 122.881 83.1502 122.87 83.325C122.848 83.3525 122.842 83.391 122.842 83.435ZM120.642 83.1655H122.523C122.523 82.9161 122.424 82.6769 122.248 82.5005C122.072 82.3241 121.832 82.225 121.583 82.225C121.333 82.225 121.094 82.3241 120.918 82.5005C120.741 82.6769 120.642 82.9161 120.642 83.1655Z" fill="#263238"/>
</g>
<path d="M64.8174 181.654H64.2949C64.2949 180.879 64.9384 162.707 68.1009 159.654C71.3514 156.492 75.1739 159.61 75.2069 159.654L74.8769 160.05C74.7339 159.935 71.3734 157.207 68.4584 160.05C65.4499 162.916 64.8229 181.467 64.8174 181.654Z" fill="#407BFF"/>
<path d="M64.5535 185.3L64.0365 185.251C64.0365 185.031 66.0825 163.185 58.168 154.099L58.5585 153.758C66.6215 163.014 64.5755 185.08 64.5535 185.3Z" fill="#407BFF"/>
<path d="M64.8064 182.969C64.7404 181.935 63.2169 157.669 69.2999 152.059L69.6519 152.444C63.7504 157.867 65.3069 182.694 65.3234 182.93L64.8064 182.969Z" fill="#407BFF"/>
<path d="M64.0366 182.952C64.0366 182.787 63.8496 166.452 59.5211 163.993C59.1531 163.751 58.7321 163.6 58.2938 163.554C57.8554 163.508 57.4123 163.568 57.0021 163.729C54.4666 164.78 53.1191 169.62 53.1026 169.669L52.6021 169.532C52.6571 169.323 54.0321 164.4 56.8041 163.251C57.287 163.057 57.8095 162.982 58.3274 163.033C58.8454 163.084 59.3435 163.258 59.7796 163.542C64.3611 166.166 64.5535 182.242 64.559 182.946L64.0366 182.952Z" fill="#407BFF"/>
<path d="M65.8185 182.963C65.7855 182.413 65.12 170.071 68.6235 165.49C69.5585 164.274 70.5925 163.697 71.7145 163.779C74.206 163.95 76.1145 167.327 76.219 167.47L75.768 167.728C75.768 167.695 73.887 164.428 71.676 164.296C70.7465 164.225 69.8555 164.736 69.036 165.809C65.648 170.209 66.33 182.809 66.3355 182.936L65.8185 182.963Z" fill="#407BFF"/>
<path d="M65.1201 184.674L64.6031 184.635C64.6031 184.338 66.8031 154.869 63.1731 149.952L63.5911 149.644C67.3421 154.715 65.2136 183.453 65.1201 184.674Z" fill="#407BFF"/>
<path d="M55.7974 166.182C55.7974 166.182 58.0414 167.013 57.3759 168.965C56.7104 170.918 49.6044 174.135 49.6044 174.135C49.6044 174.135 46.6289 171.413 49.3624 166.985C52.0959 162.558 55.7369 164.785 55.7974 166.182Z" fill="#407BFF"/>
<path opacity="0.2" d="M55.7974 166.182C55.7974 166.182 58.0414 167.013 57.3759 168.965C56.7104 170.918 49.6044 174.135 49.6044 174.135C49.6044 174.135 46.6289 171.413 49.3624 166.985C52.0959 162.558 55.7369 164.785 55.7974 166.182Z" fill="black"/>
<path d="M65.56 162.465C65.56 162.465 63.1675 162.366 63.03 164.423C62.8925 166.48 68.2 172.189 68.2 172.189C68.2 172.189 71.995 170.814 71.181 165.671C70.367 160.529 66.154 161.194 65.56 162.465Z" fill="#407BFF"/>
<path opacity="0.2" d="M65.56 162.465C65.56 162.465 63.1675 162.366 63.03 164.423C62.8925 166.48 68.2 172.189 68.2 172.189C68.2 172.189 71.995 170.814 71.181 165.671C70.367 160.529 66.154 161.194 65.56 162.465Z" fill="black"/>
<path d="M67.584 152.598C67.584 152.598 65.989 152.427 66.1155 151.459C66.242 150.491 72.314 147.989 75.8945 152.009C75.8945 152.009 73.601 155.947 70.29 156.002C66.979 156.057 67.584 152.598 67.584 152.598Z" fill="#407BFF"/>
<path opacity="0.2" d="M67.584 152.598C67.584 152.598 65.989 152.427 66.1155 151.459C66.242 150.491 72.314 147.989 75.8945 152.009C75.8945 152.009 73.601 155.947 70.29 156.002C66.979 156.057 67.584 152.598 67.584 152.598Z" fill="black"/>
<path d="M64.614 150.238C64.614 150.238 66.055 150.937 66.462 150.046C66.869 149.155 63.0355 143.825 57.86 145.36C57.86 145.36 57.7225 149.913 60.5055 151.712C63.2885 153.51 64.614 150.238 64.614 150.238Z" fill="#407BFF"/>
<path opacity="0.2" d="M64.614 150.238C64.614 150.238 66.055 150.937 66.462 150.046C66.869 149.155 63.0355 143.825 57.86 145.36C57.86 145.36 57.7225 149.913 60.5055 151.712C63.2885 153.51 64.614 150.238 64.614 150.238Z" fill="black"/>
<path d="M72.1601 165.401C72.1601 165.401 71.0601 164.51 72.2481 164.076C73.4361 163.641 79.2606 163.768 79.3211 169.537C79.3211 169.537 72.5341 170.665 71.6981 168.465C70.8621 166.265 72.1601 165.401 72.1601 165.401Z" fill="#407BFF"/>
<path opacity="0.2" d="M72.1601 165.401C72.1601 165.401 71.0601 164.51 72.2481 164.076C73.4361 163.641 79.2606 163.768 79.3211 169.537C79.3211 169.537 72.5341 170.665 71.6981 168.465C70.8621 166.265 72.1601 165.401 72.1601 165.401Z" fill="black"/>
<path d="M58.3002 152.455C58.3002 152.455 59.4002 151.564 58.2122 151.135C57.0242 150.706 51.1997 150.821 51.1392 156.591C51.1392 156.591 57.9262 157.724 58.7622 155.524C59.5982 153.324 58.3002 152.455 58.3002 152.455Z" fill="#407BFF"/>
<path opacity="0.2" d="M58.3002 152.455C58.3002 152.455 59.4002 151.564 58.2122 151.135C57.0242 150.706 51.1997 150.821 51.1392 156.591C51.1392 156.591 57.9262 157.724 58.7622 155.524C59.5982 153.324 58.3002 152.455 58.3002 152.455Z" fill="black"/>
<path d="M61.908 157.102C61.908 157.102 62.007 156.002 61.1325 156.448C60.258 156.893 57.2275 160.149 60.3735 163.257C60.3735 163.257 64.614 160.116 63.8495 158.483C63.085 156.849 61.908 157.102 61.908 157.102Z" fill="#407BFF"/>
<path opacity="0.2" d="M61.908 157.102C61.908 157.102 62.007 156.002 61.1325 156.448C60.258 156.893 57.2275 160.149 60.3735 163.257C60.3735 163.257 64.614 160.116 63.8495 158.483C63.085 156.849 61.908 157.102 61.908 157.102Z" fill="black"/>
<path d="M73.1502 158.642C73.1502 158.642 72.4902 157.779 73.4582 157.674C74.4262 157.57 78.7382 158.719 77.7317 163.031C77.7317 163.031 72.4737 162.635 72.2317 160.831C71.9897 159.027 73.1502 158.642 73.1502 158.642Z" fill="#407BFF"/>
<path opacity="0.2" d="M73.1502 158.642C73.1502 158.642 72.4902 157.779 73.4582 157.674C74.4262 157.57 78.7382 158.719 77.7317 163.031C77.7317 163.031 72.4737 162.635 72.2317 160.831C71.9897 159.027 73.1502 158.642 73.1502 158.642Z" fill="black"/>
<path d="M56.188 198.946H73.1885L75.449 182.413H53.9275L56.188 198.946Z" fill="#263238"/>
<path opacity="0.2" d="M56.188 198.946H73.1885L75.449 182.413H53.9275L56.188 198.946Z" fill="white"/>
<path d="M77.583 181.071V182.644C77.583 183.149 77.3825 183.633 77.0256 183.99C76.6687 184.347 76.1847 184.547 75.68 184.547H53.4875C52.9828 184.547 52.4987 184.347 52.1418 183.99C51.785 183.633 51.5845 183.149 51.5845 182.644V181.071H77.583Z" fill="#263238"/>
<path d="M219.241 24.3705H203.439C202.15 24.3705 200.913 24.8827 200.001 25.7945C199.09 26.7063 198.577 27.943 198.577 29.2325V42.9825C198.577 43.6214 198.702 44.2543 198.946 44.8448C199.19 45.4353 199.548 45.9719 200 46.424C200.451 46.876 200.987 47.2347 201.578 47.4794C202.168 47.724 202.8 47.85 203.439 47.85H208.054L206.954 52.1895L211.354 47.85H219.268C220.559 47.85 221.797 47.3372 222.71 46.4243C223.623 45.5115 224.136 44.2734 224.136 42.9825V29.2325C224.136 28.5912 224.009 27.9563 223.763 27.3642C223.516 26.7722 223.155 26.2347 222.7 25.7828C222.245 25.3309 221.705 24.9734 221.112 24.7311C220.518 24.4887 219.882 24.3661 219.241 24.3705Z" fill="#407BFF"/>
<path opacity="0.7" d="M219.241 24.3705H203.439C202.15 24.3705 200.913 24.8827 200.001 25.7945C199.09 26.7063 198.577 27.943 198.577 29.2325V42.9825C198.577 43.6214 198.702 44.2543 198.946 44.8448C199.19 45.4353 199.548 45.9719 200 46.424C200.451 46.876 200.987 47.2347 201.578 47.4794C202.168 47.724 202.8 47.85 203.439 47.85H208.054L206.954 52.1895L211.354 47.85H219.268C220.559 47.85 221.797 47.3372 222.71 46.4243C223.623 45.5115 224.136 44.2734 224.136 42.9825V29.2325C224.136 28.5912 224.009 27.9563 223.763 27.3642C223.516 26.7722 223.155 26.2347 222.7 25.7828C222.245 25.3309 221.705 24.9734 221.112 24.7311C220.518 24.4887 219.882 24.3661 219.241 24.3705Z" fill="white"/>
<path d="M211.343 42.185C214.73 42.185 217.475 39.4394 217.475 36.0525C217.475 32.6656 214.73 29.92 211.343 29.92C207.956 29.92 205.21 32.6656 205.21 36.0525C205.21 39.4394 207.956 42.185 211.343 42.185Z" fill="white"/>
<path d="M211.343 28.2095C209.792 28.2095 208.275 28.6695 206.986 29.5313C205.696 30.3931 204.691 31.618 204.097 33.0511C203.503 34.4842 203.348 36.0612 203.651 37.5826C203.953 39.104 204.7 40.5015 205.797 41.5983C206.894 42.6952 208.292 43.4421 209.813 43.7448C211.334 44.0474 212.911 43.8921 214.344 43.2985C215.778 42.7048 217.002 41.6996 217.864 40.4098C218.726 39.12 219.186 37.6037 219.186 36.0525C219.187 35.0223 218.984 34.0021 218.59 33.0502C218.197 32.0983 217.619 31.2335 216.89 30.505C216.162 29.7766 215.297 29.1989 214.345 28.805C213.393 28.4111 212.373 28.2088 211.343 28.2095ZM215.793 33.7095L211.068 39.2755C211.001 39.3559 210.917 39.4203 210.822 39.4641C210.726 39.5079 210.623 39.5299 210.518 39.5285C210.413 39.5291 210.31 39.5068 210.215 39.4631C210.12 39.4193 210.036 39.3553 209.968 39.2755L206.894 35.651C206.829 35.5793 206.779 35.4953 206.747 35.4039C206.715 35.3126 206.702 35.2158 206.708 35.1193C206.715 35.0228 206.741 34.9285 206.784 34.8422C206.828 34.7559 206.888 34.6792 206.962 34.6168C207.036 34.5543 207.122 34.5074 207.214 34.4788C207.307 34.4502 207.404 34.4405 207.5 34.4503C207.596 34.46 207.69 34.4891 207.774 34.5357C207.859 34.5823 207.934 34.6455 207.994 34.7215L210.518 37.697L214.693 32.78C214.818 32.6416 214.992 32.5573 215.179 32.545C215.365 32.5326 215.549 32.593 215.691 32.7135C215.834 32.8341 215.924 33.0053 215.943 33.1911C215.962 33.3769 215.908 33.5627 215.793 33.7095Z" fill="#407BFF"/>
<path d="M216.502 109.208C216.502 109.208 206.926 107.998 192.417 111.958C192.417 111.958 190.085 86.031 190.36 82.467C190.635 78.903 212.762 79.948 212.762 79.948C212.762 79.948 213.312 90.3265 214.753 96.5855C216.194 102.844 217.25 108.003 216.502 109.208Z" fill="#407BFF"/>
<path opacity="0.2" d="M216.502 109.208C216.502 109.208 206.926 107.998 192.417 111.958C192.417 111.958 190.085 86.031 190.36 82.467C190.635 78.903 212.762 79.948 212.762 79.948C212.762 79.948 213.312 90.3265 214.753 96.5855C216.194 102.844 217.25 108.003 216.502 109.208Z" fill="black"/>
<path d="M185.422 195.041L189.327 196.147L190.256 190.069L190.757 186.819L186.852 185.713L186.186 190.069L185.422 195.041Z" fill="#E4897B"/>
<path d="M207.873 195.36L211.899 195.894L211.937 190.069L211.965 186.45L207.933 185.922L207.906 190.069L207.873 195.36Z" fill="#E4897B"/>
<path opacity="0.2" d="M207.933 185.922L207.906 190.069H211.937L211.965 186.45L207.933 185.922Z" fill="black"/>
<path opacity="0.2" d="M186.186 190.069H190.256L190.757 186.819L186.852 185.713L186.186 190.069Z" fill="black"/>
<path d="M168.086 84.5955L164.208 83.4515L164.918 87.879C164.918 87.879 168.438 88.6875 168.768 86.856L168.086 84.5955Z" fill="#E4897B"/>
<path d="M160.336 84.48L162.239 88.077L164.918 87.879L164.208 83.4515L160.336 84.48Z" fill="#E4897B"/>
<path d="M173.437 85.7285L167.068 84.304L166.491 87.395L172.271 88.803L173.437 85.7285Z" fill="#E4897B"/>
<path d="M192.704 82.9345L192.33 83.38C191.527 84.3205 189.58 86.592 187.55 88.55C185.9 90.145 184.25 91.5365 183.15 91.817C180.032 92.62 168.696 89.2815 168.696 89.2815L169.868 84.6835C169.868 84.6835 180.428 86.086 181.247 86.086C181.869 86.086 188.293 76.78 189.849 76.0155L192.704 82.9345Z" fill="#407BFF"/>
<path opacity="0.2" d="M192.33 83.38C191.527 84.3205 189.58 86.592 187.55 88.55C187.957 85.327 189.14 82.368 190.696 80.498C190.841 80.3175 191.007 80.155 191.191 80.014L192.33 83.38Z" fill="black"/>
<path d="M185.471 194.431L189.904 194.315C189.984 194.312 190.063 194.337 190.127 194.385C190.191 194.433 190.236 194.502 190.256 194.579L191.191 198.148C191.214 198.234 191.216 198.323 191.199 198.41C191.183 198.497 191.146 198.579 191.093 198.649C191.041 198.72 190.973 198.778 190.894 198.819C190.816 198.86 190.729 198.883 190.641 198.885C189.041 198.885 186.725 198.885 184.718 198.924C182.364 198.99 180.868 198.874 178.118 198.924C176.468 198.968 175.918 197.307 176.622 197.136C179.773 196.355 181.836 196.51 184.52 194.75C184.803 194.561 185.131 194.451 185.471 194.431Z" fill="#263238"/>
<path d="M185.086 195.003C184.437 195.146 183.282 195.338 182.82 194.959C182.753 194.903 182.7 194.832 182.665 194.751C182.631 194.671 182.616 194.584 182.622 194.497C182.622 194.444 182.636 194.393 182.662 194.347C182.688 194.302 182.725 194.264 182.771 194.238C183.26 193.947 184.916 194.733 185.108 194.821C185.125 194.83 185.139 194.844 185.149 194.86C185.158 194.877 185.163 194.895 185.163 194.915C185.162 194.936 185.154 194.956 185.14 194.972C185.126 194.988 185.107 194.999 185.086 195.003ZM182.886 194.392H182.853C182.835 194.403 182.82 194.418 182.809 194.436C182.798 194.455 182.793 194.475 182.793 194.497C182.788 194.553 182.797 194.611 182.819 194.663C182.841 194.716 182.875 194.762 182.919 194.799C183.178 195.014 183.849 195.036 184.74 194.86C184.096 194.59 183.2 194.277 182.897 194.392H182.886Z" fill="#407BFF"/>
<path d="M185.086 195.003H185.02C184.52 194.794 183.519 193.947 183.574 193.49C183.574 193.38 183.662 193.243 183.926 193.21C184.023 193.197 184.121 193.203 184.216 193.229C184.31 193.254 184.398 193.298 184.476 193.358C185.026 193.771 185.152 194.854 185.163 194.898C185.165 194.915 185.162 194.932 185.155 194.947C185.149 194.962 185.138 194.976 185.125 194.986L185.086 195.003ZM183.854 193.424C183.772 193.452 183.766 193.496 183.766 193.512C183.733 193.787 184.415 194.458 184.927 194.744C184.868 194.282 184.664 193.851 184.344 193.512C184.289 193.466 184.226 193.433 184.158 193.414C184.089 193.395 184.018 193.391 183.948 193.402C183.916 193.405 183.884 193.412 183.854 193.424Z" fill="#407BFF"/>
<path d="M208.032 194.431L212.465 194.315C212.546 194.312 212.625 194.337 212.69 194.385C212.755 194.433 212.802 194.501 212.823 194.579L213.752 198.149C213.776 198.234 213.779 198.324 213.763 198.411C213.746 198.498 213.71 198.58 213.657 198.651C213.604 198.722 213.536 198.78 213.457 198.821C213.378 198.862 213.291 198.884 213.202 198.886C211.602 198.886 209.286 198.886 207.273 198.924C204.925 198.99 203.423 198.875 200.673 198.924C199.023 198.968 198.473 197.307 199.177 197.137C202.329 196.356 204.386 196.51 207.07 194.75C207.356 194.559 207.688 194.449 208.032 194.431Z" fill="#263238"/>
<path d="M207.653 195.003C207.004 195.146 205.843 195.338 205.387 194.959C205.319 194.903 205.266 194.832 205.232 194.751C205.197 194.671 205.183 194.584 205.189 194.497C205.188 194.444 205.202 194.393 205.228 194.347C205.254 194.302 205.292 194.264 205.337 194.238C205.821 193.947 207.482 194.733 207.669 194.821C207.687 194.828 207.703 194.841 207.713 194.858C207.723 194.875 207.727 194.895 207.724 194.915C207.723 194.935 207.715 194.954 207.702 194.97C207.689 194.986 207.672 194.997 207.653 195.003ZM205.453 194.392H205.42C205.401 194.402 205.387 194.418 205.377 194.436C205.367 194.455 205.363 194.476 205.365 194.497C205.359 194.553 205.368 194.611 205.39 194.664C205.412 194.716 205.447 194.763 205.491 194.799C205.75 195.014 206.415 195.036 207.312 194.86C206.657 194.59 205.761 194.277 205.458 194.392H205.453Z" fill="#407BFF"/>
<path d="M207.653 195.003H207.581C207.086 194.794 206.08 193.947 206.14 193.49C206.14 193.38 206.223 193.243 206.487 193.21C206.584 193.196 206.682 193.203 206.777 193.228C206.871 193.254 206.959 193.298 207.037 193.358C207.421 193.787 207.662 194.325 207.724 194.898C207.727 194.915 207.725 194.932 207.718 194.948C207.711 194.963 207.7 194.977 207.686 194.986L207.653 195.003ZM206.415 193.424C206.338 193.452 206.333 193.496 206.333 193.512C206.294 193.787 206.982 194.458 207.493 194.744C207.43 194.283 207.227 193.853 206.91 193.512C206.856 193.467 206.792 193.433 206.724 193.415C206.656 193.396 206.584 193.391 206.514 193.402L206.415 193.424Z" fill="#407BFF"/>
<path d="M216.178 106.843C218.312 116.088 214.649 188.826 214.649 188.826H207.576L204.551 128.21L193.413 188.826L185.851 188.276C190.801 141.317 195.162 113.283 195.162 113.283V109.741L216.178 106.843Z" fill="#263238"/>
<path opacity="0.4" d="M185.851 188.276L193.413 188.826L202.18 141.108L204.551 128.21L207.576 188.826H214.649C214.649 188.826 218.312 116.088 216.178 106.843L195.151 109.741V113.283C195.151 113.283 190.795 141.317 185.851 188.276Z" fill="white"/>
<path d="M212.366 72.6C212.149 77.0206 212.261 81.4511 212.702 85.855C212.999 88.935 213.406 91.8445 213.84 94.468C214.858 100.623 216.013 105.237 216.178 106.849L195.151 109.747C187.484 88.297 190.372 75.834 190.372 75.834C191.944 75.1849 193.555 74.6338 195.195 74.184C195.542 74.0905 195.894 74.0025 196.257 73.92C199.21 73.3389 202.194 72.9276 205.194 72.688C205.744 72.6385 206.344 72.6 206.905 72.5725C209.776 72.4295 212.366 72.6 212.366 72.6Z" fill="#263238"/>
<path d="M201.113 62.9475C201.267 65.89 201.58 71.412 204.028 72.8145C204.028 72.8145 202.504 75.713 199.21 76.01C196.718 76.23 196.883 73.7715 196.883 73.7715C198.324 72.699 197.983 70.8785 196.883 68.8215L201.113 62.9475Z" fill="#E4897B"/>
<path opacity="0.2" d="M199.386 65.3455L196.9 68.8215C197.162 69.2969 197.382 69.7937 197.56 70.3065C198.715 69.8445 200.04 68.1065 199.848 66.847C199.788 66.3223 199.631 65.8133 199.386 65.3455Z" fill="black"/>
<path d="M190.388 57.024C189.909 58.553 190.173 61.688 192.302 60.6705C194.43 59.653 191.213 54.4005 190.388 57.024Z" fill="#263238"/>
<path d="M201.388 59.092C201.625 63.0135 201.938 65.296 200.228 67.518C197.626 70.8565 192.588 69.6135 191.18 65.8295C189.915 62.4195 189.745 56.5785 193.38 54.5985C194.186 54.1601 195.09 53.9332 196.007 53.9392C196.925 53.9452 197.826 54.1838 198.626 54.6328C199.426 55.0817 200.099 55.7263 200.582 56.5062C201.065 57.286 201.342 58.1757 201.388 59.092Z" fill="#E4897B"/>
<path d="M198.638 56.958V52.558C198.638 52.558 203.302 52.2115 203.093 54.5985C205.678 55.88 204.457 59.9005 200.987 61.8695C199.084 60.346 199.304 56.683 199.304 56.683C199.1 56.7875 198.869 56.8755 198.638 56.958Z" fill="#263238"/>
<path d="M203.285 62.15C203.196 62.6297 203.011 63.0866 202.741 63.4937C202.472 63.9009 202.124 64.25 201.718 64.5205C200.618 65.241 199.666 64.3555 199.628 63.118C199.595 62.018 200.117 60.28 201.382 60.06C201.659 60.0169 201.942 60.043 202.206 60.1361C202.47 60.2291 202.707 60.3862 202.896 60.5933C203.084 60.8004 203.219 61.0509 203.287 61.3226C203.355 61.5943 203.354 61.8786 203.285 62.15Z" fill="#E4897B"/>
<path d="M195.597 60.841C195.635 61.16 195.498 61.435 195.289 61.457C195.08 61.479 194.882 61.2425 194.843 60.907C194.805 60.5715 194.942 60.313 195.146 60.291C195.349 60.269 195.558 60.5 195.597 60.841Z" fill="#263238"/>
<path d="M191.999 61.2425C192.038 61.5615 191.9 61.8365 191.691 61.8585C191.482 61.8805 191.284 61.644 191.246 61.3085C191.207 60.973 191.345 60.7145 191.554 60.6925C191.763 60.6705 191.95 60.9235 191.999 61.2425Z" fill="#263238"/>
<path d="M193.16 61.27C192.882 62.2535 192.469 63.1937 191.934 64.064C192.171 64.1859 192.431 64.2563 192.698 64.2705C192.964 64.2847 193.23 64.2425 193.479 64.1465L193.16 61.27Z" fill="#DE5753"/>
<path d="M195.333 65.1695C195.197 65.2041 195.059 65.2298 194.92 65.2465C194.895 65.2465 194.872 65.2367 194.854 65.2191C194.837 65.2016 194.827 65.1778 194.827 65.153C194.827 65.1282 194.837 65.1044 194.854 65.0869C194.872 65.0694 194.895 65.0595 194.92 65.0595C195.315 65.0237 195.696 64.8955 196.032 64.6853C196.369 64.4751 196.651 64.1888 196.856 63.8495C196.861 63.8384 196.868 63.8284 196.877 63.8201C196.885 63.8117 196.896 63.8053 196.907 63.8012C196.918 63.7971 196.931 63.7953 196.943 63.7961C196.955 63.7968 196.966 63.8 196.977 63.8055C196.988 63.8108 196.999 63.8183 197.007 63.8276C197.015 63.8368 197.022 63.8477 197.026 63.8595C197.03 63.8713 197.032 63.8838 197.031 63.8962C197.03 63.9087 197.027 63.9208 197.021 63.932C196.841 64.2444 196.598 64.5158 196.307 64.7289C196.017 64.942 195.685 65.0921 195.333 65.1695Z" fill="#263238"/>
<path d="M196.565 59.5595C196.531 59.5672 196.497 59.5662 196.464 59.5566C196.431 59.547 196.401 59.529 196.378 59.5045C196.218 59.33 196.021 59.1949 195.8 59.1099C195.58 59.025 195.342 58.9925 195.107 59.015C195.083 59.0206 195.058 59.0211 195.033 59.0166C195.009 59.012 194.985 59.0025 194.965 58.9886C194.944 58.9746 194.927 58.9566 194.913 58.9356C194.9 58.9146 194.891 58.8911 194.887 58.8665C194.882 58.8423 194.882 58.8174 194.887 58.7932C194.892 58.769 194.902 58.746 194.916 58.7256C194.929 58.7051 194.947 58.6876 194.968 58.674C194.988 58.6605 195.011 58.6511 195.036 58.6465C195.333 58.6111 195.634 58.6471 195.914 58.7513C196.194 58.8556 196.445 59.0252 196.647 59.246C196.665 59.263 196.679 59.2834 196.689 59.3061C196.699 59.3288 196.704 59.3533 196.704 59.378C196.704 59.4027 196.699 59.4272 196.689 59.4499C196.679 59.4726 196.665 59.493 196.647 59.51C196.624 59.5324 196.595 59.5493 196.565 59.5595Z" fill="#263238"/>
<path d="M190.3 60.181C190.265 60.1945 190.225 60.1945 190.19 60.181C190.144 60.1647 190.105 60.1308 190.084 60.0865C190.062 60.0422 190.059 59.9912 190.075 59.9445C190.165 59.6614 190.323 59.4045 190.535 59.1957C190.747 58.9869 191.006 58.8324 191.29 58.7455C191.338 58.7331 191.389 58.7403 191.432 58.7656C191.475 58.7909 191.506 58.8321 191.518 58.8802C191.531 58.9284 191.523 58.9795 191.498 59.0223C191.473 59.0651 191.432 59.0961 191.384 59.1085C191.159 59.1778 190.954 59.3013 190.788 59.4682C190.622 59.6351 190.5 59.8402 190.432 60.0655C190.422 60.0943 190.404 60.12 190.381 60.1402C190.358 60.1604 190.33 60.1745 190.3 60.181Z" fill="#263238"/>
<path d="M200.706 58.586C200.706 58.586 197.956 57.5795 196.702 55.9845C196.702 55.9845 194.205 56.639 193.694 57.6345C193.46 57.4346 193.309 57.1554 193.27 56.8507C193.23 56.546 193.305 56.2374 193.479 55.9845C193.479 55.9845 191.609 56.3805 191.241 57.6345C190.937 57.4898 190.687 57.2515 190.529 56.9545C190.37 56.6575 190.311 56.3175 190.361 55.9845C190.361 55.9845 189.53 56.298 189.261 57.6345C189.261 57.6345 187.198 53.3335 194.013 52.1015C193.497 51.9265 192.957 51.8355 192.412 51.832C192.412 51.832 197.17 49.9125 200.937 51.667C204.705 53.4215 204.05 56.8205 200.706 58.586Z" fill="#263238"/>
<path d="M217.8 110.55L211.2 111.43C211.2 111.43 208.478 92.4055 207.279 86.262V73.15L210.727 72.2425L213.4 73.15C214.133 75.788 214.697 78.4702 215.089 81.18C215.413 83.237 215.705 85.437 215.963 87.6645C216.321 90.7005 216.618 93.7915 216.871 96.6845C217.267 101.354 217.531 105.485 217.674 108.009C217.756 109.593 217.8 110.55 217.8 110.55Z" fill="#407BFF"/>
<path d="M207.284 86.251C207.284 86.251 207.834 76.9945 210.733 72.2205C210.733 72.2205 210.661 70.8565 210.084 70.6365C209.506 70.4165 207.284 71.7365 207.284 71.7365C207.284 71.7365 205.904 70.7905 205.601 71.2305C205.299 71.6705 204.562 74.5965 207.284 86.251Z" fill="#407BFF"/>
<path opacity="0.7" d="M207.284 86.251C207.284 86.251 207.834 76.9945 210.733 72.2205C210.733 72.2205 210.661 70.8565 210.084 70.6365C209.506 70.4165 207.284 71.7365 207.284 71.7365C207.284 71.7365 205.904 70.7905 205.601 71.2305C205.299 71.6705 204.562 74.5965 207.284 86.251Z" fill="white"/>
<path d="M192.28 113.086L193.034 113.636C193.034 113.636 191.934 107.503 192.385 91.993C192.385 91.245 192.434 90.5245 192.462 89.837C193.012 76.714 195.058 74.327 195.212 74.184L193.309 74.833L189.86 76.021C188.821 87.2135 192.28 113.086 192.28 113.086Z" fill="#407BFF"/>
<path d="M192.577 87.5765C192.577 87.5765 190.674 78.5785 191.241 75.4765C191.807 72.3745 193.837 73.755 193.837 73.755C193.837 73.755 195.701 72.248 196.257 73.909C196.257 73.909 193.694 75.713 192.577 87.5765Z" fill="#407BFF"/>
<path opacity="0.7" d="M192.577 87.5765C192.577 87.5765 190.674 78.5785 191.241 75.4765C191.807 72.3745 193.837 73.755 193.837 73.755C193.837 73.755 195.701 72.248 196.257 73.909C196.257 73.909 193.694 75.713 192.577 87.5765Z" fill="white"/>
<path opacity="0.2" d="M215.952 87.6425C213.136 86.064 212.762 81.9445 212.762 81.9445C212.933 81.8785 213.978 81.521 215.078 81.158C215.402 83.215 215.694 85.415 215.952 87.6425Z" fill="black"/>
<path opacity="0.2" d="M202.18 141.108L204.551 128.21L204.094 121.385C204.094 121.385 200.844 133.221 202.18 141.108Z" fill="black"/>
<path opacity="0.2" d="M217.663 107.987C215.892 107.866 214.363 107.751 214.363 107.751L214.027 100.551C214.579 100.206 215.242 100.084 215.881 100.21C216.316 99.0598 216.645 97.8724 216.865 96.6625C217.25 101.332 217.52 105.468 217.663 107.987Z" fill="black"/>
<path d="M218.268 96.657L214.819 102.196L217.547 103.763L220.787 98.7745L218.268 96.657Z" fill="#E4897B"/>
<path d="M213.251 73.062C215.572 73.315 225.439 86.856 225.874 90.937C226.308 95.018 220.077 102.064 220.077 102.064L215.919 99.616C215.919 99.616 220.143 93.1205 220.363 91.366C220.583 89.6115 212.635 82.522 212.635 82.522C212.035 80.8888 211.704 79.1686 211.656 77.429C211.546 74.448 213.251 73.062 213.251 73.062Z" fill="#407BFF"/>
<path d="M214.021 100.557C214.021 100.557 217.569 101.316 218.999 103.549C218.999 103.549 217.514 108.196 216.452 108.702C215.391 109.208 212.762 109.208 212.762 109.208C212.762 109.208 212.591 104.038 214.021 100.557Z" fill="#407BFF"/>
</svg>
