<svg width="300" height="300" viewBox="0 0 300 300" fill="none" xmlns="http://www.w3.org/2000/svg">
<path d="M149.88 285C228.813 285 292.8 248.063 292.8 202.5C292.8 156.937 228.813 120 149.88 120C70.9475 120 6.96002 156.937 6.96002 202.5C6.96002 248.063 70.9475 285 149.88 285Z" fill="#F5F5F5"/>
<path d="M252.9 217.14C252.9 217.08 252.84 217.02 252.84 216.96C252.84 216.9 252.78 216.9 252.78 216.84C252.78 216.78 252.72 216.78 252.72 216.72L252.6 216.6C252.48 216.48 252.36 216.42 252.24 216.3L118.56 139.26C117.18 138.6 115.62 138.6 114.24 139.26L44.7 179.34C44.64 179.4 44.52 179.46 44.46 179.52C44.46 179.52 44.4 179.58 44.34 179.58C44.22 179.7 44.1 179.82 43.98 180C43.98 180.06 43.92 180.06 43.92 180.12C43.86 180.18 43.86 180.24 43.86 180.3C43.86 180.36 43.86 180.36 43.8 180.42C43.8 180.48 43.8 180.54 43.8 180.66C43.8 180.72 43.8 180.78 43.8 180.78C43.8 180.84 43.8 180.9 43.86 180.96C43.86 181.02 43.92 181.08 43.92 181.14C44.1 181.44 44.34 181.74 44.64 181.86L178.26 258.96C178.68 259.2 179.1 259.32 179.52 259.38C179.82 259.44 180.12 259.44 180.42 259.44C180.72 259.44 181.02 259.44 181.26 259.38C181.38 259.38 181.44 259.38 181.56 259.32C181.8 259.26 182.1 259.14 182.34 259.08C182.4 259.02 182.52 259.02 182.58 258.96L252.12 218.94C252.96 218.46 253.2 217.74 252.9 217.14Z" fill="#E0E0E0"/>
<path d="M244.38 196.5C260.783 196.5 274.08 188.817 274.08 179.34C274.08 169.863 260.783 162.18 244.38 162.18C227.977 162.18 214.68 169.863 214.68 179.34C214.68 188.817 227.977 196.5 244.38 196.5Z" fill="#E0E0E0"/>
<path d="M88.08 268.26C86.88 268.26 85.68 267.96 84.6 267.42L25.08 233.04L25.02 232.98C23.94 232.38 23.22 231.24 23.22 230.04C23.28 228.78 24 227.64 25.14 227.04L64.38 204.36C66.54 203.22 69.12 203.22 71.28 204.36L130.68 238.68C131.82 239.28 132.54 240.42 132.6 241.68C132.54 242.88 131.88 243.96 130.86 244.56C130.8 244.62 130.68 244.68 130.62 244.74L100.92 261.9L91.38 267.42C90.48 267.96 89.28 268.26 88.08 268.26Z" fill="#E0E0E0"/>
<path d="M247.14 208.32C247.14 208.26 247.08 208.2 247.02 208.14C247.02 208.08 246.96 208.08 246.96 208.02C246.96 207.96 246.9 207.96 246.84 207.9L246.72 207.78C246.6 207.66 246.48 207.6 246.36 207.48L116.4 132.54C115.02 131.88 113.46 131.88 112.08 132.54L48.36 169.32L48.12 169.5L48.06 169.56C47.94 169.68 47.82 169.8 47.7 169.98C47.64 170.04 47.58 170.16 47.58 170.28C47.58 170.34 47.58 170.34 47.58 170.4C47.58 170.46 47.58 170.52 47.58 170.64C47.58 170.7 47.58 170.76 47.58 170.76C47.58 170.82 47.58 170.88 47.64 170.94C47.64 171 47.7 171.06 47.7 171.12C47.88 171.42 48.12 171.72 48.48 171.84L178.44 246.9C178.86 247.14 179.28 247.26 179.7 247.32C180 247.38 180.3 247.38 180.6 247.38C180.9 247.38 181.2 247.38 181.44 247.32C181.56 247.32 181.62 247.32 181.74 247.26C181.98 247.2 182.28 247.14 182.52 247.02C182.58 246.96 182.7 246.96 182.76 246.9L246.48 210.12C247.2 209.58 247.44 208.92 247.14 208.32ZM233.1 205.68L229.02 208.02L174.72 239.34C174.6 239.4 174.42 239.52 174.3 239.58C173.4 239.94 172.38 239.94 171.48 239.58C171.3 239.52 171.18 239.46 171.06 239.34L67.98 179.82L63 176.94C62.82 176.82 62.64 176.7 62.52 176.58C61.98 176.04 62.16 175.32 63 174.84L121.32 141.18C121.98 140.7 122.76 140.52 123.6 140.52C123.78 140.52 123.96 140.58 124.14 140.64C124.26 140.7 124.32 140.7 124.44 140.76L233.1 203.52C233.7 203.88 233.88 204.6 233.52 205.2C233.46 205.38 233.28 205.56 233.1 205.68Z" fill="#455A64"/>
<path d="M48.12 169.5C46.98 170.34 46.32 171.66 46.2 173.1V175.92C46.26 177.42 47.1 178.8 48.36 179.64L178.32 254.7C178.8 254.94 179.34 255.12 179.88 255.18C180.06 255.18 180.24 255.18 180.48 255.24V247.38C180.18 247.38 179.88 247.38 179.58 247.32C179.1 247.26 178.68 247.08 178.32 246.9L48.36 171.84C47.28 171.18 47.16 170.16 48.12 169.5Z" fill="#37474F"/>
<path d="M212.7 223.62C210.3 222.42 207.42 222.42 205.02 223.62C204.54 223.86 204.18 224.22 203.88 224.7C203.22 225.9 204.48 226.8 205.02 227.16C207.42 228.36 210.3 228.36 212.7 227.16C213.18 226.92 213.54 226.56 213.84 226.08C214.56 224.82 213.24 223.92 212.7 223.62Z" fill="#0761FD"/>
<path d="M85.44 154.32C85.8 154.2 85.92 153.84 85.8 153.48C85.74 153.3 85.62 153.18 85.44 153.12C84.78 152.76 84 152.76 83.34 153.12C82.98 153.24 82.86 153.6 82.98 153.96C83.04 154.14 83.16 154.26 83.34 154.32C84 154.62 84.78 154.62 85.44 154.32Z" fill="#263238"/>
<path d="M82.14 160.08C82.44 159.96 82.56 159.6 82.44 159.3C82.38 159.18 82.26 159.06 82.14 159C81.54 158.7 80.88 158.7 80.28 159C79.98 159.12 79.86 159.48 79.98 159.78C80.04 159.9 80.16 160.02 80.28 160.08C80.82 160.38 81.54 160.38 82.14 160.08Z" fill="#263238"/>
<path d="M85.26 158.28L95.7 152.22C96.3 151.86 96.3 151.38 95.76 151.08C95.1 150.78 94.38 150.78 93.72 151.14L83.28 157.2C82.74 157.56 82.68 158.04 83.22 158.34C83.88 158.64 84.66 158.64 85.26 158.28Z" fill="#263238"/>
<path d="M246.66 207.78C247.56 208.44 247.44 209.46 246.36 210.06L182.64 246.84C181.98 247.2 181.26 247.38 180.48 247.38V255.18C181.2 255.18 181.98 255 182.64 254.64L246.36 217.86C247.62 217.02 248.46 215.64 248.52 214.14V211.26C248.4 209.94 247.74 208.62 246.66 207.78Z" fill="#263238"/>
<path d="M78.72 191.58C79.38 192 79.8 192.66 79.86 193.44C79.86 193.68 79.74 193.92 79.56 194.1C79.44 194.16 78.9 194.46 78.78 194.58C78.54 194.7 78.18 194.64 78 194.52L63.48 186.12C62.82 185.7 62.4 185.04 62.4 184.26C62.4 184.02 62.46 183.78 62.7 183.6L63.48 183.12C63.72 183 64.08 183.06 64.26 183.18L78.72 191.58Z" fill="#455A64"/>
<path d="M77.94 192L63.42 183.66C62.82 183.3 62.34 183.54 62.34 184.2C62.4 184.98 62.82 185.64 63.42 186.06L77.94 194.46C78.54 194.82 79.08 194.58 79.08 193.92C79.02 193.14 78.6 192.42 77.94 192Z" fill="#263238"/>
<path d="M59.34 180.36C60 180.78 60.42 181.44 60.48 182.22C60.48 182.46 60.36 182.7 60.18 182.88C60.06 182.94 59.52 183.24 59.4 183.36C59.16 183.48 58.8 183.42 58.62 183.24L51.78 179.28C51.12 178.86 50.7 178.2 50.7 177.42C50.7 177.18 50.76 176.94 51 176.76C51.12 176.7 51.66 176.4 51.78 176.28C52.02 176.16 52.38 176.22 52.56 176.34L59.34 180.36Z" fill="#455A64"/>
<path d="M58.56 180.84L51.72 176.88C51.12 176.52 50.64 176.76 50.64 177.42C50.7 178.2 51.12 178.86 51.72 179.28L58.56 183.24C59.16 183.6 59.64 183.36 59.64 182.7C59.64 181.92 59.22 181.2 58.56 180.84Z" fill="#263238"/>
<path d="M233.1 205.62L229.02 207.96L174.72 239.28C174.6 239.34 174.42 239.46 174.3 239.52C173.4 239.88 172.38 239.88 171.48 239.52C171.3 239.46 171.18 239.4 171.06 239.28L67.98 179.76L63 176.88C62.82 176.76 62.64 176.64 62.52 176.52C61.98 175.98 62.16 175.26 63 174.72L121.32 141.06C121.98 140.64 122.76 140.4 123.6 140.46C123.78 140.46 123.96 140.52 124.14 140.58C124.26 140.64 124.32 140.64 124.44 140.7L233.1 203.46C233.7 203.82 233.88 204.6 233.52 205.14C233.4 205.38 233.28 205.5 233.1 205.62Z" fill="#0761FD"/>
<path opacity="0.8" d="M233.1 205.62L229.02 207.96L174.72 239.28C174.6 239.34 174.42 239.46 174.3 239.52C173.4 239.88 172.38 239.88 171.48 239.52C171.3 239.46 171.18 239.4 171.06 239.28L67.98 179.76L63 176.88C62.82 176.76 62.64 176.64 62.52 176.52C61.98 175.98 62.16 175.26 63 174.72L121.32 141.06C121.98 140.64 122.76 140.4 123.6 140.46C123.78 140.46 123.96 140.52 124.14 140.58C124.26 140.64 124.32 140.64 124.44 140.7L233.1 203.46C233.7 203.82 233.88 204.6 233.52 205.14C233.4 205.38 233.28 205.5 233.1 205.62Z" fill="white"/>
<path d="M75.3 172.5H75.24L74.94 172.32L74.22 172.74C74.16 172.74 74.16 172.74 74.1 172.74L73.98 172.68L73.92 172.62C73.92 172.62 73.92 172.62 73.92 172.56L73.62 171.54C73.62 171.54 73.62 171.54 73.62 171.48C73.62 171.48 73.62 171.48 73.68 171.42L73.8 171.36C73.8 171.36 73.86 171.36 73.92 171.36C73.98 171.36 73.98 171.36 74.04 171.36L75.06 171.96L75.24 171.9H75.3C75.36 171.9 75.36 171.9 75.42 171.9L75.48 171.96C75.54 171.96 75.54 172.02 75.54 172.02C75.54 172.02 75.54 172.02 75.48 172.08L75.36 172.14L75.66 172.32C75.66 172.32 75.72 172.32 75.72 172.38C75.72 172.38 75.72 172.38 75.66 172.44L75.54 172.5C75.42 172.56 75.36 172.56 75.3 172.5ZM74.7 172.14L73.98 171.72L74.16 172.44L74.7 172.14Z" fill="#455A64"/>
<path d="M75.96 171.9C75.66 171.9 75.36 171.78 75.12 171.66C74.82 171.48 74.7 171.36 74.64 171.18C74.58 171 74.76 170.88 75 170.7C75.12 170.64 75.18 170.58 75.3 170.58C75.42 170.52 75.54 170.52 75.6 170.52H75.66L75.72 170.64H75.66C75.48 170.64 75.36 170.7 75.18 170.76C75 170.88 74.94 170.94 74.94 171.06C74.94 171.18 75.06 171.3 75.3 171.42C75.48 171.54 75.66 171.6 75.9 171.66C76.08 171.66 76.26 171.6 76.44 171.54L76.62 171.42C76.68 171.42 76.68 171.36 76.74 171.3L76.26 171L75.96 171.18H75.9C75.84 171.18 75.84 171.18 75.84 171.18L75.78 171.12L75.72 171.06C75.72 171.06 75.72 171.06 75.78 171L76.26 170.76C76.32 170.76 76.32 170.76 76.38 170.76C76.44 170.76 76.44 170.76 76.5 170.82L77.16 171.18C77.16 171.18 77.22 171.18 77.22 171.24C77.22 171.24 77.22 171.24 77.22 171.3C77.16 171.48 76.98 171.6 76.8 171.72C76.5 171.84 76.26 171.9 75.96 171.9Z" fill="#455A64"/>
<path d="M81.66 168.54C81.9 168.66 81.9 168.9 81.66 169.02C81.42 169.14 81.12 169.14 80.88 169.02C80.64 168.9 80.64 168.72 80.88 168.54C81.12 168.36 81.42 168.36 81.66 168.54Z" fill="#455A64"/>
<path d="M80.22 168.12C79.8 168.36 79.68 168.72 79.86 168.96C79.92 169.02 79.98 169.08 80.1 169.02C80.22 169.02 80.34 168.96 80.28 168.84C80.16 168.6 80.28 168.42 80.52 168.24C80.82 168.06 81.24 168 81.6 168.12C81.72 168.12 81.84 168.12 81.9 168C81.9 167.94 81.84 167.88 81.72 167.88C81.18 167.82 80.7 167.88 80.22 168.12Z" fill="#455A64"/>
<path d="M79.56 167.76C78.96 168.12 78.72 168.6 78.9 169.02C78.9 169.08 79.02 169.14 79.14 169.14C79.26 169.14 79.38 169.08 79.32 168.96C79.2 168.6 79.38 168.18 79.86 167.94C80.4 167.64 81.06 167.52 81.66 167.64C81.78 167.64 81.9 167.64 81.9 167.52C81.9 167.46 81.84 167.4 81.72 167.4C81 167.28 80.28 167.4 79.56 167.76Z" fill="#455A64"/>
<path d="M91.38 162.06H91.32C91.32 162.06 91.32 162.06 91.32 162L91.44 161.4C91.44 161.4 91.44 161.4 91.44 161.34L91.5 161.28L91.74 161.16H91.8H91.86L93.6 162.12C93.6 162.12 93.6 162.12 93.6 162.18C93.6 162.18 93.6 162.18 93.6 162.24L93.36 162.36H93.3H93.24L91.92 161.58L91.8 162C91.8 162 91.8 162 91.74 162.06H91.68H91.38Z" fill="#455A64"/>
<path d="M92.76 161.28H92.7C92.7 161.28 92.7 161.28 92.7 161.22L92.82 160.62C92.82 160.62 92.82 160.62 92.82 160.56L92.88 160.5L93.12 160.38H93.18H93.24L94.98 161.34C94.98 161.34 94.98 161.34 94.98 161.4C94.98 161.4 94.98 161.4 94.98 161.46L94.74 161.58H94.68H94.62L93.3 160.8L93.24 161.16C93.24 161.16 93.24 161.16 93.18 161.22H93.12L92.76 161.28Z" fill="#455A64"/>
<path d="M94.44 160.2H94.5H94.56L94.8 160.32C94.8 160.32 94.8 160.32 94.8 160.38C94.8 160.38 94.8 160.38 94.8 160.44L94.56 160.56H94.5H94.44L94.2 160.44C94.2 160.44 94.2 160.44 94.2 160.38C94.2 160.38 94.2 160.38 94.2 160.32L94.44 160.2ZM95.34 160.74C95.4 160.74 95.46 160.74 95.46 160.74L95.7 160.86C95.7 160.86 95.76 160.86 95.76 160.92C95.76 160.92 95.76 160.98 95.7 160.98L95.46 161.1C95.4 161.1 95.34 161.1 95.34 161.1L95.1 160.98C95.1 160.98 95.04 160.98 95.04 160.92C95.04 160.92 95.04 160.86 95.1 160.86L95.34 160.74Z" fill="#455A64"/>
<path d="M97.14 160.2C97.08 160.2 97.02 160.2 97.02 160.2L96.72 160.02L95.88 160.5H95.82H95.76L95.58 160.38C95.52 160.38 95.52 160.38 95.52 160.32V160.26L95.34 159.18C95.34 159.12 95.34 159.12 95.4 159.06L95.58 158.94H95.64H95.7L96.78 159.54L97.02 159.42H97.08H97.14L97.32 159.54C97.32 159.54 97.32 159.54 97.38 159.6C97.38 159.6 97.38 159.6 97.32 159.66L97.08 159.78L97.38 159.96C97.38 159.96 97.44 159.96 97.38 160.02C97.38 160.02 97.38 160.02 97.38 160.08L97.14 160.2ZM96.36 159.84L95.82 159.54L95.94 160.14L96.36 159.84Z" fill="#455A64"/>
<path d="M96.42 158.52C96.42 158.46 96.42 158.46 96.42 158.46L97.44 157.86C97.5 157.86 97.56 157.86 97.56 157.86L97.74 157.98C97.74 157.98 97.8 157.98 97.8 158.04C97.8 158.1 97.8 158.04 97.74 158.1L97.02 158.52L97.32 158.76C97.32 158.7 97.38 158.7 97.44 158.64L97.56 158.58C97.68 158.52 97.74 158.46 97.86 158.46C97.98 158.4 98.1 158.4 98.22 158.4C98.34 158.4 98.46 158.4 98.58 158.4C98.7 158.4 98.82 158.46 98.88 158.52C99 158.58 99.06 158.64 99.12 158.7C99.18 158.76 99.18 158.82 99.18 158.88C99.18 158.94 99.12 159 99.06 159.06C99 159.12 98.88 159.18 98.82 159.24C98.7 159.3 98.58 159.36 98.46 159.42C98.34 159.48 98.22 159.48 98.1 159.48C97.98 159.48 97.92 159.48 97.8 159.48C97.74 159.48 97.62 159.42 97.56 159.42C97.56 159.42 97.5 159.42 97.5 159.36C97.5 159.3 97.5 159.36 97.56 159.3L97.8 159.18H97.86H97.92C97.98 159.18 98.04 159.18 98.04 159.18H98.16L98.28 159.12L98.4 159.06C98.52 159 98.58 158.94 98.58 158.88C98.58 158.82 98.52 158.76 98.46 158.7C98.4 158.64 98.28 158.64 98.16 158.64C98.04 158.64 97.92 158.7 97.8 158.7C97.74 158.7 97.74 158.76 97.68 158.76L97.62 158.82V158.88C97.62 158.88 97.62 158.94 97.56 158.94L97.32 159.06H97.26H97.2L96.42 158.52Z" fill="#455A64"/>
<path d="M67.92 177L67.38 176.7L68.1 176.28L68.64 176.58L67.92 177Z" fill="#455A64"/>
<path d="M69 176.4L67.92 175.74L68.64 175.32L69.78 175.98L69 176.4Z" fill="#455A64"/>
<path d="M70.14 175.74L68.46 174.78L69.18 174.36L70.86 175.32L70.14 175.74Z" fill="#455A64"/>
<path d="M71.22 175.14L69 173.82L69.78 173.4L71.94 174.66L71.22 175.14Z" fill="#455A64"/>
<path d="M121.14 144.24C121.02 144.24 120.84 144.24 120.72 144.3L117.96 145.86C117.78 145.98 117.84 146.16 118.08 146.28L119.1 146.88C119.22 146.94 119.4 147 119.58 147C119.64 147 119.7 147 119.82 147C119.88 147 119.94 147 120.06 146.94L122.82 145.38C123 145.26 122.94 145.08 122.7 144.96L121.68 144.36C121.5 144.3 121.32 144.24 121.14 144.24ZM119.52 146.94C119.46 146.94 119.4 146.88 119.34 146.88L118.32 146.28C118.14 146.16 118.08 146.04 118.26 145.92L121.02 144.36C121.08 144.36 121.08 144.3 121.14 144.3H121.2C121.26 144.3 121.32 144.36 121.44 144.36L122.46 144.96C122.64 145.08 122.7 145.2 122.52 145.26L119.76 146.82C119.64 146.94 119.58 146.94 119.52 146.94Z" fill="#455A64"/>
<path d="M118.92 145.74L120.12 146.4L119.7 146.64C119.64 146.64 119.58 146.64 119.58 146.64L118.68 146.1C118.56 146.04 118.5 145.92 118.62 145.86L118.92 145.74Z" fill="#455A64"/>
<path d="M119.16 145.62L119.64 145.32L120.84 146.04L120.3 146.34L119.16 145.62Z" fill="#455A64"/>
<path d="M119.88 145.2L120.36 144.9L121.56 145.62L121.02 145.92L119.88 145.2Z" fill="#455A64"/>
<path d="M121.14 144.54L121.98 145.02C122.16 145.08 122.1 145.26 121.92 145.38L121.74 145.5L120.54 144.84L120.96 144.6C121.02 144.54 121.08 144.54 121.14 144.54Z" fill="#455A64"/>
<path d="M121.74 144.3C121.92 144.3 122.1 144.36 122.28 144.42L122.46 144.54C122.64 144.66 122.76 144.78 122.7 144.84L122.58 144.9L121.62 144.36L121.74 144.3Z" fill="#455A64"/>
<path d="M114.12 148.86L116.28 147L117.36 148.62L115.92 148.2L114.12 148.86Z" fill="#455A64"/>
<path d="M159.6 226.8V227.34C159.66 228.24 160.14 229.14 160.92 229.62L171.24 235.56C172.08 235.98 173.04 235.98 173.88 235.56L224.64 206.22C225.42 205.74 225.9 204.84 225.96 203.94V203.4C225.9 202.5 225.42 201.6 224.64 201.12L214.32 195.18C213.48 194.76 212.52 194.76 211.68 195.18L160.92 224.52C160.14 225.06 159.66 225.9 159.6 226.8Z" fill="#0761FD"/>
<path opacity="0.15" d="M224.7 201.3C225.24 201.72 225.18 202.32 224.52 202.68L173.76 232.02C173.34 232.26 172.92 232.32 172.44 232.32V235.86C172.92 235.86 173.34 235.74 173.76 235.56L224.52 206.22C225.3 205.74 225.78 204.84 225.84 203.94V203.4C225.84 202.62 225.42 201.84 224.7 201.3Z" fill="black"/>
<path opacity="0.3" d="M160.68 224.7C160.02 225.24 159.6 226.02 159.54 226.86V227.4C159.6 228.3 160.08 229.2 160.86 229.68L171.12 235.62C171.54 235.86 171.96 235.92 172.44 235.92V232.38C171.96 232.38 171.54 232.26 171.12 232.08L160.8 226.14C160.26 225.72 160.2 225.12 160.68 224.7Z" fill="black"/>
<path d="M175.92 220.92C175.98 220.86 176.1 220.86 176.16 220.86C176.22 220.86 176.34 220.86 176.4 220.86L181.8 222.36L181.92 222.42C181.98 222.42 181.98 222.48 181.98 222.48C181.98 222.48 181.98 222.54 181.92 222.54L181.14 223.02C181.08 223.08 180.96 223.08 180.9 223.08C180.84 223.08 180.78 223.08 180.72 223.08L180 222.9L178.32 223.86L178.68 224.28C178.68 224.28 178.74 224.34 178.74 224.4C178.74 224.46 178.68 224.46 178.62 224.52L177.84 225C177.78 225 177.78 225.06 177.72 225.06C177.66 225.06 177.6 225.06 177.6 225L177.54 224.94L174.9 221.82C174.9 221.76 174.84 221.76 174.84 221.7C174.84 221.64 174.9 221.58 174.96 221.58L175.92 220.92ZM177.66 223.14L178.68 222.54L176.64 221.94L177.66 223.14Z" fill="white"/>
<path d="M180 218.58C180.3 218.4 180.6 218.28 180.96 218.22C181.26 218.16 181.62 218.1 181.92 218.1C182.22 218.1 182.58 218.1 182.88 218.16C183.18 218.22 183.48 218.34 183.78 218.46L184.02 218.58L184.26 218.7L184.5 218.82L184.74 218.94C184.98 219.06 185.16 219.24 185.28 219.48C185.4 219.66 185.46 219.84 185.46 220.02C185.46 220.26 185.34 220.44 185.22 220.62C185.04 220.86 184.8 221.04 184.56 221.16L182.82 222.12C182.76 222.18 182.7 222.18 182.64 222.18C182.58 222.18 182.52 222.18 182.46 222.12L178.32 219.72C178.26 219.72 178.26 219.66 178.26 219.6C178.26 219.54 178.32 219.54 178.32 219.48L180 218.58ZM182.58 219.12C182.1 218.88 181.44 218.88 180.96 219.18L180.3 219.54L182.7 220.92L183.36 220.5C183.9 220.2 183.96 219.9 183.48 219.6L183.24 219.48L183 219.36L182.76 219.24L182.58 219.12Z" fill="white"/>
<path d="M184.62 215.94C184.92 215.76 185.22 215.64 185.58 215.58C185.88 215.52 186.24 215.46 186.6 215.46C186.9 215.46 187.26 215.46 187.56 215.52C187.86 215.58 188.16 215.7 188.46 215.82L188.7 215.94L188.94 216.06L189.18 216.18L189.42 216.3C189.66 216.42 189.84 216.6 189.96 216.84C190.08 217.02 190.14 217.2 190.14 217.38C190.14 217.62 190.02 217.8 189.9 217.98C189.72 218.22 189.48 218.4 189.24 218.52L187.5 219.48C187.44 219.48 187.38 219.54 187.32 219.54C187.26 219.54 187.2 219.54 187.14 219.48L183 217.08C182.94 217.08 182.94 217.02 182.94 216.96C182.94 216.9 183 216.9 183 216.84L184.62 215.94ZM187.2 216.48C186.72 216.24 186.06 216.24 185.58 216.54L184.92 216.9L187.32 218.28L187.98 217.86C188.52 217.56 188.52 217.26 188.1 216.96L187.86 216.84C187.8 216.78 187.68 216.78 187.62 216.72L187.38 216.6L187.2 216.48Z" fill="white"/>
<path d="M191.82 211.8C191.88 211.8 191.94 211.74 192 211.74C192.06 211.74 192.12 211.74 192.18 211.8L192.84 212.16C192.9 212.16 192.9 212.22 192.9 212.28C192.9 212.34 192.9 212.34 192.84 212.4L191.7 213L194.94 214.86C195 214.86 195 214.92 195 214.98C195 215.04 194.94 215.04 194.94 215.1L194.1 215.58C194.04 215.64 193.98 215.64 193.92 215.64C193.86 215.64 193.8 215.64 193.74 215.58L190.5 213.72L189.36 214.38C189.3 214.38 189.24 214.44 189.18 214.44C189.12 214.44 189.06 214.44 189 214.38L188.34 214.02C188.28 214.02 188.28 213.96 188.28 213.9C188.28 213.84 188.34 213.84 188.34 213.78L191.82 211.8Z" fill="white"/>
<path d="M193.98 212.46C193.8 212.34 193.62 212.16 193.44 211.98C193.32 211.8 193.26 211.62 193.26 211.44C193.26 211.26 193.38 211.02 193.5 210.84C193.68 210.6 193.92 210.42 194.16 210.3C194.46 210.12 194.76 210 195.12 209.88C195.42 209.82 195.78 209.76 196.08 209.76C196.38 209.76 196.68 209.76 197.04 209.88C197.34 209.94 197.58 210.06 197.88 210.18L198.48 210.48L199.02 210.78C199.2 210.9 199.38 211.08 199.56 211.26C199.68 211.44 199.74 211.62 199.74 211.8C199.74 212.04 199.62 212.22 199.5 212.4C199.32 212.64 199.08 212.82 198.84 212.94C198.54 213.12 198.24 213.24 197.88 213.36C197.58 213.42 197.22 213.48 196.92 213.48C196.62 213.48 196.32 213.48 195.96 213.36C195.66 213.3 195.42 213.18 195.12 213.06C194.94 212.94 194.76 212.88 194.52 212.76L193.98 212.46ZM197.88 211.44L197.64 211.26L197.34 211.08L197.04 210.9L196.8 210.78C196.68 210.72 196.56 210.66 196.44 210.66C196.32 210.6 196.2 210.6 196.08 210.6C195.96 210.6 195.78 210.6 195.66 210.66C195.54 210.72 195.36 210.78 195.24 210.84C195.12 210.9 195.06 210.96 194.94 211.08C194.88 211.14 194.88 211.2 194.88 211.32C194.88 211.38 194.88 211.5 194.94 211.56C195 211.62 195.06 211.74 195.18 211.74C195.24 211.8 195.3 211.86 195.42 211.86C195.48 211.92 195.6 211.98 195.72 212.04L196.02 212.22C196.08 212.28 196.2 212.34 196.32 212.34C196.56 212.46 196.8 212.52 197.04 212.52C197.34 212.52 197.58 212.46 197.82 212.28C198.06 212.16 198.18 211.98 198.18 211.8C198.18 211.68 198.06 211.56 197.88 211.44Z" fill="white"/>
<path d="M201.12 208.38L201.36 208.5L201.66 208.68L201.96 208.86L202.2 208.98C202.32 209.04 202.44 209.1 202.56 209.1C202.68 209.16 202.8 209.16 202.92 209.16C203.04 209.16 203.22 209.16 203.34 209.1C203.52 209.04 203.64 208.98 203.76 208.92C203.88 208.86 204 208.8 204.06 208.68C204.12 208.62 204.12 208.56 204.18 208.5C204.18 208.44 204.18 208.38 204.18 208.32C204.18 208.26 204.12 208.2 204.06 208.2C204 208.14 204 208.14 204 208.08C204 208.08 204.06 208.02 204.12 207.96L204.96 207.48C205.02 207.42 205.14 207.42 205.26 207.48C205.44 207.6 205.62 207.72 205.74 207.9C205.8 208.08 205.86 208.26 205.8 208.44C205.74 208.62 205.62 208.86 205.5 208.98C205.32 209.22 205.08 209.34 204.84 209.52C204.54 209.7 204.24 209.82 203.88 209.88C203.58 209.94 203.22 210 202.92 210C202.62 210 202.26 210 201.96 209.88C201.66 209.82 201.42 209.7 201.12 209.58C200.94 209.52 200.76 209.4 200.52 209.28C200.28 209.16 200.16 209.04 199.98 208.92C199.8 208.8 199.62 208.62 199.44 208.44C199.32 208.26 199.26 208.08 199.26 207.9C199.26 207.72 199.38 207.48 199.5 207.3C199.68 207.06 199.92 206.88 200.16 206.76C200.46 206.58 200.76 206.46 201.06 206.4C201.36 206.34 201.72 206.28 202.02 206.22C202.32 206.22 202.62 206.22 202.92 206.28C203.16 206.34 203.46 206.4 203.7 206.52C203.76 206.52 203.76 206.58 203.76 206.58C203.76 206.64 203.76 206.64 203.7 206.64L202.86 207.12C202.8 207.18 202.74 207.18 202.68 207.18C202.62 207.18 202.56 207.18 202.44 207.12C202.38 207.12 202.26 207.06 202.2 207.06C202.08 207.06 202.02 207.06 201.9 207.06C201.78 207.06 201.66 207.06 201.54 207.12C201.42 207.18 201.24 207.24 201.12 207.3C201 207.36 200.88 207.42 200.82 207.54C200.76 207.6 200.76 207.66 200.76 207.78C200.76 207.84 200.82 207.96 200.88 208.02C201 208.26 201.06 208.32 201.12 208.38Z" fill="white"/>
<path d="M205.14 204.06C205.2 204 205.32 204 205.38 204C205.44 204 205.56 204 205.62 204L211.02 205.5L211.14 205.56C211.2 205.56 211.2 205.62 211.2 205.62C211.2 205.62 211.2 205.68 211.14 205.68L210.36 206.16C210.3 206.22 210.18 206.22 210.12 206.22C210.06 206.22 210 206.22 209.94 206.22L209.22 206.04L207.54 207L207.9 207.42C207.9 207.42 207.96 207.48 207.96 207.54C207.96 207.6 207.9 207.6 207.84 207.66L207.06 208.14C207 208.2 206.88 208.2 206.76 208.14L206.7 208.08L204.06 204.96C204 204.9 204 204.9 204 204.84C204 204.78 204.06 204.72 204.12 204.66L205.14 204.06ZM206.94 206.28L207.96 205.68L205.92 205.08L206.94 206.28Z" fill="white"/>
<path d="M209.28 201.72C209.52 201.54 209.82 201.42 210.12 201.36C210.36 201.24 210.66 201.24 210.96 201.18C211.26 201.18 211.5 201.18 211.8 201.24C212.04 201.3 212.34 201.42 212.58 201.54C212.82 201.66 213.06 201.9 213.18 202.14C213.24 202.32 213.24 202.56 213.12 202.74L215.4 203.16C215.46 203.16 215.46 203.16 215.46 203.16C215.52 203.16 215.52 203.22 215.52 203.22C215.52 203.22 215.52 203.28 215.46 203.28L214.62 203.76C214.56 203.82 214.44 203.82 214.38 203.82H214.2L212.1 203.46L211.5 203.82L212.88 204.6C212.94 204.6 212.94 204.66 212.94 204.72C212.94 204.78 212.88 204.78 212.88 204.84L212.04 205.32C211.98 205.32 211.92 205.38 211.86 205.38C211.8 205.38 211.74 205.38 211.68 205.32L207.54 202.92C207.48 202.92 207.48 202.86 207.48 202.8C207.48 202.74 207.48 202.74 207.54 202.68L209.28 201.72ZM210.48 203.22L211.2 202.8C211.32 202.74 211.44 202.62 211.56 202.5C211.62 202.38 211.56 202.26 211.38 202.2C211.2 202.08 211.02 202.08 210.84 202.08C210.66 202.08 210.48 202.2 210.3 202.26L209.58 202.68L210.48 203.22Z" fill="white"/>
<path d="M215.04 198.36C215.16 198.3 215.28 198.3 215.4 198.36L216.06 198.72C216.12 198.72 216.12 198.78 216.12 198.84C216.12 198.9 216.12 198.9 216.06 198.96L214.92 199.62L218.22 201.48C218.28 201.48 218.28 201.54 218.28 201.6C218.28 201.66 218.28 201.66 218.22 201.72L217.38 202.2C217.26 202.26 217.14 202.26 217.02 202.2L213.78 200.34L212.64 201C212.58 201 212.52 201.06 212.46 201.06C212.4 201.06 212.34 201.06 212.28 201L211.62 200.64C211.56 200.64 211.56 200.58 211.56 200.52C211.56 200.46 211.56 200.46 211.62 200.4L215.04 198.36Z" fill="white"/>
<path d="M168 224.4C166.38 225.3 166.38 226.86 168 227.76C169.86 228.66 172.02 228.66 173.82 227.76C175.44 226.86 175.44 225.36 173.82 224.4C172.02 223.5 169.86 223.5 168 224.4ZM172.8 225.48L171.72 226.08L172.8 226.68C172.92 226.74 172.98 226.86 172.92 226.92C172.92 226.98 172.86 227.04 172.8 227.04C172.56 227.16 172.32 227.16 172.08 227.04L171 226.44L169.92 227.04C169.68 227.16 169.44 227.16 169.2 227.04C169.08 226.98 169.02 226.86 169.08 226.8C169.08 226.74 169.14 226.68 169.2 226.68L170.28 226.08L169.2 225.48C169.08 225.42 169.02 225.3 169.08 225.24C169.08 225.18 169.14 225.12 169.2 225.12C169.44 225 169.68 225 169.92 225.12L171 225.72L172.08 225.12C172.32 225 172.56 225 172.8 225.12C172.92 225.12 172.98 225.24 172.98 225.36C172.98 225.48 172.86 225.54 172.8 225.48Z" fill="white"/>
<path d="M178.92 185.16C178.8 182.34 177.3 179.7 174.9 178.14C173.76 177.48 172.68 177.42 171.96 177.9L169.26 179.46L174.96 189.36L177.66 187.8C178.44 187.38 178.92 186.48 178.92 185.16Z" fill="#37474F"/>
<path d="M172.08 179.76C174.48 181.32 175.92 183.96 176.1 186.78C176.1 189.36 174.24 190.38 172.02 189.12C169.62 187.56 168.18 184.92 168 182.1C168.06 179.52 169.86 178.44 172.08 179.76Z" fill="#455A64"/>
<path d="M170.7 183.66C170.7 182.64 171.3 182.16 172.08 182.64C172.92 183.24 173.4 184.2 173.4 185.28C173.4 186.3 172.8 186.72 172.02 186.3C171.18 185.64 170.7 184.68 170.7 183.66Z" fill="#263238"/>
<path opacity="0.15" d="M176.1 186.78C176.1 185.88 175.92 184.92 175.56 184.08L168.66 180.06C168.24 180.66 168.06 181.38 168.12 182.1C168.12 182.1 168.12 182.16 168.12 182.22L176.1 186.78C176.1 186.84 176.1 186.78 176.1 186.78Z" fill="black"/>
<path d="M150.18 207.12C148.74 207.24 147.24 206.94 145.92 206.34L108.12 184.56C105.84 183.42 103.26 180.42 103.08 177.6L101.94 150.66L104.04 150.54L105.18 177.48C105.3 179.4 107.28 181.8 109.02 182.7L146.88 204.48C148.92 205.32 151.26 205.2 153.24 204.12L178.44 189.6C179.04 189.18 179.4 188.7 179.34 188.34C179.28 187.98 178.92 187.56 178.32 187.2L137.82 163.68C135.54 162.54 132.96 159.54 132.84 156.72L132.3 141.78L134.4 141.66L134.94 156.6C135.06 158.52 137.04 160.92 138.78 161.82L179.28 185.34C180.6 186 181.38 187.02 181.5 188.22C181.62 189.42 180.9 190.56 179.64 191.4L154.44 205.92C153.12 206.64 151.68 207.06 150.18 207.12Z" fill="#455A64"/>
<path d="M143.4 206.52C143.28 203.7 141.78 201.06 139.38 199.5C138.24 198.84 137.16 198.78 136.44 199.26L133.68 200.82L139.44 210.72L142.14 209.16C142.92 208.74 143.4 207.84 143.4 206.52Z" fill="#37474F"/>
<path d="M136.56 201.12C138.96 202.68 140.4 205.32 140.58 208.14C140.58 210.72 138.72 211.74 136.5 210.42C134.1 208.86 132.66 206.22 132.54 203.4C132.54 200.88 134.34 199.8 136.56 201.12Z" fill="#455A64"/>
<path d="M135.18 204.96C135.18 203.94 135.78 203.46 136.56 203.94C137.4 204.54 137.88 205.5 137.88 206.58C137.88 207.6 137.28 208.02 136.5 207.6C135.66 207 135.18 206.04 135.18 204.96Z" fill="#263238"/>
<path d="M115.44 190.44C115.32 187.62 113.82 184.98 111.48 183.42C110.34 182.76 109.26 182.7 108.54 183.18L105.78 184.68L111.48 194.58L114.18 193.02C114.96 192.66 115.44 191.7 115.44 190.44Z" fill="#37474F"/>
<path d="M108.66 184.98C111 186.54 112.5 189.12 112.62 192C112.62 194.58 110.76 195.6 108.54 194.28C106.14 192.72 104.7 190.08 104.58 187.26C104.58 184.74 106.44 183.66 108.66 184.98Z" fill="#455A64"/>
<path d="M107.22 188.88C107.22 187.86 107.82 187.44 108.6 187.86C109.44 188.46 109.92 189.42 109.92 190.5C109.92 191.52 109.32 191.94 108.54 191.52C107.76 190.86 107.22 189.9 107.22 188.88Z" fill="#263238"/>
<path d="M97.44 118.02C96.72 115.2 97.8 112.26 100.14 110.52L125.28 96.3C127.56 94.8 130.08 95.82 130.86 98.46L132.6 104.1L130.86 105.12L129 99.42C128.76 98.4 127.74 97.8 126.72 98.04C126.48 98.1 126.24 98.22 126 98.4L101.52 112.2C100.02 113.28 99.3 115.2 99.78 117L101.28 122.46L99.24 123.66L97.44 118.02Z" fill="#455A64"/>
<path d="M136.32 145.26L102.54 164.76L151.92 193.26L185.7 173.76L136.32 145.26Z" fill="#0761FD"/>
<path opacity="0.5" d="M136.32 145.26L102.54 164.76L151.92 193.26L185.7 173.76L136.32 145.26Z" fill="black"/>
<path d="M99.18 123.66L132.6 104.16L136.32 145.26L102.54 164.76L99.18 123.66Z" fill="#0761FD"/>
<path opacity="0.35" d="M99.18 123.66L132.6 104.16L136.32 145.26L102.54 164.76L99.18 123.66Z" fill="black"/>
<path d="M132.6 104.16L136.32 145.32L185.7 173.82L193.5 139.32L132.6 104.16ZM149.88 143.7C148.38 144.18 146.82 143.34 146.34 141.84L138.18 120.66C137.46 119.34 137.94 117.72 139.26 117.06C140.58 116.34 142.2 116.82 142.86 118.14C142.98 118.32 143.04 118.56 143.1 118.8L151.26 139.98C151.86 141.36 151.26 143.04 149.88 143.7ZM165.3 150.96C163.8 151.44 162.24 150.6 161.76 149.1L153.6 127.92C152.88 126.6 153.36 124.98 154.68 124.32C156 123.6 157.62 124.08 158.28 125.4C158.4 125.58 158.46 125.82 158.52 126L166.68 147.18C167.34 148.62 166.68 150.3 165.3 150.96ZM180.66 158.16C179.16 158.64 177.6 157.8 177.12 156.36L168.96 135.18C168.3 133.86 168.78 132.3 170.1 131.58C171.42 130.86 172.98 131.4 173.7 132.72C173.82 132.9 173.88 133.08 173.94 133.32L182.1 154.5C182.7 155.88 182.1 157.56 180.66 158.16Z" fill="#0761FD"/>
<path opacity="0.23" d="M132.6 104.16L136.32 145.32L185.7 173.82L193.5 139.32L132.6 104.16ZM149.88 143.7C148.38 144.18 146.82 143.34 146.34 141.84L138.18 120.66C137.46 119.34 137.94 117.72 139.26 117.06C140.58 116.34 142.2 116.82 142.86 118.14C142.98 118.32 143.04 118.56 143.1 118.8L151.26 139.98C151.86 141.36 151.26 143.04 149.88 143.7ZM165.3 150.96C163.8 151.44 162.24 150.6 161.76 149.1L153.6 127.92C152.88 126.6 153.36 124.98 154.68 124.32C156 123.6 157.62 124.08 158.28 125.4C158.4 125.58 158.46 125.82 158.52 126L166.68 147.18C167.34 148.62 166.68 150.3 165.3 150.96ZM180.66 158.16C179.16 158.64 177.6 157.8 177.12 156.36L168.96 135.18C168.3 133.86 168.78 132.3 170.1 131.58C171.42 130.86 172.98 131.4 173.7 132.72C173.82 132.9 173.88 133.08 173.94 133.32L182.1 154.5C182.7 155.88 182.1 157.56 180.66 158.16Z" fill="black"/>
<path d="M99.18 123.66L102.54 164.76L151.92 193.26L159.72 158.76L99.18 123.66ZM118.68 164.16C117.18 164.64 115.62 163.8 115.14 162.3L106.98 141.12C106.32 139.8 106.8 138.24 108.06 137.52C109.38 136.86 110.94 137.34 111.66 138.6C111.78 138.78 111.84 138.96 111.9 139.2L120.06 160.38C120.72 161.82 120.06 163.5 118.68 164.16ZM134.1 171.36C132.6 171.84 131.04 171 130.56 169.56L122.4 148.38C121.68 147.06 122.16 145.44 123.48 144.78C124.8 144.06 126.42 144.54 127.08 145.86C127.2 146.04 127.26 146.28 127.32 146.46L135.48 167.64C136.14 169.08 135.48 170.76 134.1 171.36ZM149.46 178.62C147.96 179.1 146.4 178.26 145.92 176.82L137.76 155.64C137.04 154.32 137.52 152.7 138.84 152.04C140.16 151.32 141.78 151.8 142.44 153.12C142.56 153.3 142.62 153.54 142.68 153.72L150.84 174.9C151.5 176.34 150.9 177.96 149.46 178.62Z" fill="#0761FD"/>
<g opacity="0.15">
<path opacity="0.15" d="M99.18 123.66L102.54 164.76L151.92 193.26L159.72 158.76L99.18 123.66ZM118.68 164.16C117.18 164.64 115.62 163.8 115.14 162.3L106.98 141.12C106.32 139.8 106.8 138.24 108.06 137.52C109.38 136.86 110.94 137.34 111.66 138.6C111.78 138.78 111.84 138.96 111.9 139.2L120.06 160.38C120.72 161.82 120.06 163.5 118.68 164.16ZM134.1 171.36C132.6 171.84 131.04 171 130.56 169.56L122.4 148.38C121.68 147.06 122.16 145.44 123.48 144.78C124.8 144.06 126.42 144.54 127.08 145.86C127.2 146.04 127.26 146.28 127.32 146.46L135.48 167.64C136.14 169.08 135.48 170.76 134.1 171.36ZM149.46 178.62C147.96 179.1 146.4 178.26 145.92 176.82L137.76 155.64C137.04 154.32 137.52 152.7 138.84 152.04C140.16 151.32 141.78 151.8 142.44 153.12C142.56 153.3 142.62 153.54 142.68 153.72L150.84 174.9C151.5 176.34 150.9 177.96 149.46 178.62Z" fill="black"/>
</g>
<path d="M159.66 158.76L193.5 139.26L185.7 173.76L151.92 193.26L159.66 158.76Z" fill="#0761FD"/>
<path opacity="0.4" d="M159.66 158.76L193.5 139.26L185.7 173.76L151.92 193.26L159.66 158.76Z" fill="black"/>
<path d="M171.84 84.3L167.94 86.58L168 74.76L165.6 73.38L154.92 79.56L154.86 94.14L148.62 97.68L162.6 106.74L174.24 85.68L171.84 84.3Z" fill="#04998B"/>
<path d="M157.26 80.94V95.52L151.02 99.06L162.6 106.74L174.24 85.68L167.94 89.34L168 74.76L157.26 80.94Z" fill="#0BD3C4"/>
<path d="M154.92 79.56L157.26 80.94V95.52L154.86 94.14L154.92 79.56Z" fill="#037C70"/>
<path d="M106.56 93.48L140.34 73.92L137.52 33.24L106.56 51.12V93.48Z" fill="#F15A24"/>
<path opacity="0.6" d="M106.56 93.48L140.34 73.92L137.52 33.24L106.56 51.12V93.48Z" fill="white"/>
<path d="M106.56 51.12V47.88L98.1 46.26L129.06 28.38L131.94 33.24H137.52L106.56 51.12Z" fill="#F15A24"/>
<path opacity="0.3" d="M106.56 51.12V47.88L98.1 46.26L129.06 28.38L131.94 33.24H137.52L106.56 51.12Z" fill="white"/>
<path d="M129.06 28.38V38.1L131.94 36.48V33.24L129.06 28.38Z" fill="#F15A24"/>
<path opacity="0.1" d="M129.06 28.38V38.1L131.94 36.48V33.24L129.06 28.38Z" fill="black"/>
<path d="M137.52 33.24H131.94V36.48L137.52 33.24Z" fill="#F15A24"/>
<path opacity="0.2" d="M137.52 33.24H131.94V36.48L137.52 33.24Z" fill="black"/>
<path d="M98.1 46.26L95.28 86.94L106.56 93.48V51.12V47.88L98.1 46.26Z" fill="#F15A24"/>
<path opacity="0.1" d="M98.1 46.26L95.28 86.94L106.56 93.48V51.12V47.88L98.1 46.26Z" fill="black"/>
<path d="M106.56 47.88L100.92 90.18L106.56 93.48V47.88Z" fill="#F15A24"/>
<path opacity="0.2" d="M106.56 47.88L100.92 90.18L106.56 93.48V47.88Z" fill="black"/>
<path d="M106.56 93.48L101.34 86.7L95.28 86.94L106.56 93.48Z" fill="#F15A24"/>
<path d="M107.22 45.84C107.22 46.38 107.58 46.62 108.06 46.32C108.6 45.96 108.9 45.42 108.9 44.82C108.9 44.28 108.54 44.04 108.06 44.34C107.58 44.64 107.28 45.24 107.22 45.84Z" fill="#37474F"/>
<path d="M118.74 39.3C118.74 39.84 119.1 40.08 119.58 39.78C120.12 39.42 120.42 38.88 120.42 38.28C120.42 37.74 120.06 37.5 119.58 37.8C119.1 38.16 118.8 38.7 118.74 39.3Z" fill="#37474F"/>
<path d="M108.06 45.18C107.88 45.18 107.76 45.06 107.76 44.88V37.8C107.76 34.68 110.4 30.66 113.7 28.74C115.5 27.66 117.24 27.48 118.44 28.2C119.4 28.74 119.94 29.82 119.94 31.2V38.4C119.94 38.58 119.82 38.7 119.64 38.7C119.46 38.7 119.34 38.58 119.34 38.4V31.2C119.34 30 118.92 29.16 118.14 28.68C117.12 28.08 115.62 28.32 114 29.22C110.88 31.02 108.36 34.86 108.36 37.74V44.88C108.36 45.06 108.24 45.18 108.06 45.18Z" fill="#37474F"/>
<path d="M115.8 50.7C115.8 51.24 116.16 51.48 116.64 51.18C117.18 50.82 117.48 50.28 117.48 49.68C117.48 49.14 117.12 48.9 116.64 49.2C116.16 49.56 115.86 50.1 115.8 50.7Z" fill="#455A64"/>
<path d="M127.38 44.22C127.38 44.76 127.74 45 128.22 44.7C128.76 44.34 129.06 43.8 129.06 43.2C129.06 42.66 128.7 42.42 128.22 42.72C127.74 43.02 127.38 43.56 127.38 44.22Z" fill="#455A64"/>
<path d="M116.7 50.1C116.52 50.1 116.4 49.98 116.4 49.8V42.66C116.4 39.54 119.04 35.52 122.34 33.66C124.14 32.58 125.88 32.4 127.08 33.12C128.04 33.66 128.52 34.74 128.52 36.12V43.32C128.52 43.5 128.4 43.62 128.22 43.62C128.04 43.62 127.92 43.5 127.92 43.32V36.12C127.92 34.92 127.5 34.08 126.72 33.6C125.7 33 124.2 33.24 122.58 34.14C119.46 35.94 116.94 39.78 116.94 42.66V49.8C116.94 49.98 116.82 50.1 116.7 50.1Z" fill="#455A64"/>
<path d="M90.66 265.32L129.9 242.64C130.56 242.34 130.92 241.74 130.98 241.02C130.98 240.42 130.98 238.26 130.98 238.26L129.9 239.76L100.2 256.92L90.66 262.44C89.04 263.28 87.12 263.28 85.5 262.44L26.04 228.12L25.02 226.92C25.02 226.92 24.96 228.96 25.02 229.68C25.08 230.28 25.5 230.82 26.04 231.06L85.5 265.38C87.12 266.16 89.04 266.16 90.66 265.32Z" fill="#F1C400"/>
<path opacity="0.15" d="M90.66 265.32L129.9 242.64C130.56 242.34 130.92 241.74 130.98 241.02C130.98 240.42 130.98 238.26 130.98 238.26L129.9 239.76L100.2 256.92L90.66 262.44C89.04 263.28 87.12 263.28 85.5 262.44L26.04 228.12L25.02 226.92C25.02 226.92 24.96 228.96 25.02 229.68C25.08 230.28 25.5 230.82 26.04 231.06L85.5 265.38C87.12 266.16 89.04 266.16 90.66 265.32Z" fill="black"/>
<path d="M118.62 246.3V249.18L129.96 242.64C130.62 242.34 130.98 241.74 131.04 241.02C131.04 240.42 131.04 238.26 131.04 238.26L129.96 239.76L118.62 246.3Z" fill="#37474F"/>
<path d="M129.96 239.76C129.96 239.76 129.96 239.7 129.96 239.76C131.4 238.92 131.34 237.6 129.96 236.76L70.5 202.44C68.88 201.6 66.96 201.6 65.34 202.44L26.1 225.12C24.66 225.96 24.66 227.22 26.04 228.06L26.1 228.12L85.56 262.44C87.18 263.28 89.1 263.28 90.72 262.44L100.26 256.92L129.96 239.76Z" fill="#F1C400"/>
<path d="M118.62 246.3L129.96 239.76C129.96 239.76 130.02 239.76 130.02 239.7C131.4 238.86 131.34 237.6 129.96 236.76L70.5 202.44C68.88 201.6 66.96 201.6 65.34 202.44L54 208.98L118.62 246.3Z" fill="#455A64"/>
<path opacity="0.15" d="M25.02 226.92C25.02 226.92 24.96 228.96 25.02 229.68C25.14 230.28 25.5 230.82 26.04 231.06L85.5 265.38C86.52 265.92 87.66 266.1 88.8 265.98V263.1C87.66 263.22 86.52 263.04 85.5 262.5L26.04 228.18C26.04 228.06 25.02 226.92 25.02 226.92Z" fill="black"/>
<path d="M44.28 223.02L43.14 222.36C43.08 222.36 43.08 222.3 43.08 222.24C43.08 222.18 43.08 222.18 43.14 222.12C43.2 222.12 43.26 222.06 43.32 222.06C43.38 222.06 43.44 222.06 43.5 222.12L43.86 222.36L45.54 221.4C45.6 221.34 45.66 221.28 45.66 221.22C45.66 221.16 45.6 221.1 45.48 220.98C45.42 220.98 45.42 220.92 45.36 220.86C45.36 220.8 45.36 220.8 45.42 220.74C45.48 220.74 45.54 220.74 45.6 220.74C45.66 220.74 45.72 220.74 45.78 220.8C45.96 220.86 46.08 221.04 46.14 221.22C46.14 221.4 46.08 221.58 45.9 221.64L44.22 222.54L44.58 222.78C44.64 222.78 44.64 222.84 44.64 222.9C44.64 222.96 44.64 222.96 44.58 223.02C44.52 223.02 44.46 223.02 44.4 223.02C44.4 223.02 44.34 223.02 44.28 223.02Z" fill="white"/>
<path d="M47.76 223.86L46.98 223.44C46.86 223.38 46.74 223.32 46.62 223.32C46.5 223.32 46.38 223.32 46.26 223.38L46.02 223.5C46.02 223.5 45.96 223.5 46.02 223.56C46.08 223.62 46.02 223.62 46.08 223.62L47.7 224.58C47.76 224.58 47.76 224.64 47.76 224.7C47.76 224.76 47.76 224.76 47.7 224.82C47.64 224.82 47.58 224.88 47.52 224.88C47.46 224.88 47.4 224.88 47.34 224.82L45.42 223.74C45.36 223.74 45.36 223.68 45.3 223.62C45.3 223.56 45.3 223.56 45.36 223.5L45.84 223.2C46.08 223.08 46.32 223.02 46.56 223.08C46.8 223.08 47.1 223.14 47.28 223.26L48.06 223.68C48.18 223.74 48.3 223.8 48.42 223.8C48.54 223.8 48.66 223.8 48.78 223.74L49.14 223.56C49.2 223.5 49.26 223.44 49.26 223.38C49.26 223.26 49.14 223.2 49.08 223.14L48.3 222.72C48.18 222.66 48.06 222.6 47.94 222.6C47.82 222.6 47.7 222.6 47.58 222.66C47.52 222.66 47.46 222.72 47.4 222.72C47.34 222.72 47.28 222.72 47.22 222.66C47.16 222.66 47.16 222.6 47.1 222.54C47.1 222.48 47.1 222.48 47.16 222.42C47.4 222.3 47.64 222.24 47.88 222.3C48.12 222.3 48.42 222.36 48.6 222.48L49.38 222.9C49.56 222.96 49.68 223.14 49.74 223.32C49.74 223.5 49.68 223.68 49.5 223.74L49.14 223.92C48.9 224.04 48.66 224.1 48.42 224.04C48.24 224.1 48 224.04 47.76 223.86Z" fill="white"/>
<path d="M51.42 226.2L51.24 226.32C51 226.44 50.76 226.5 50.52 226.44C50.28 226.44 49.98 226.32 49.8 226.2L49.02 225.78C48.84 225.72 48.72 225.54 48.66 225.36C48.66 225.18 48.72 225 48.9 224.94C48.96 224.94 49.02 224.88 49.08 224.94C49.14 224.94 49.2 224.94 49.26 225C49.32 225 49.32 225.06 49.32 225.12C49.32 225.18 49.32 225.18 49.26 225.24C49.2 225.3 49.14 225.36 49.14 225.42C49.14 225.54 49.2 225.6 49.32 225.66L50.1 226.08C50.22 226.14 50.34 226.2 50.46 226.2C50.58 226.2 50.7 226.2 50.82 226.14L51 226.02C51.06 225.96 51.12 225.9 51.12 225.84C51.12 225.72 51.06 225.66 50.94 225.6L50.76 225.48C50.7 225.42 50.7 225.42 50.64 225.36C50.58 225.3 50.64 225.3 50.7 225.24C50.82 225.18 50.94 225.18 51.06 225.24L51.24 225.36C51.36 225.42 51.48 225.48 51.6 225.48C51.72 225.48 51.84 225.48 51.96 225.42L52.14 225.3C52.2 225.24 52.26 225.18 52.26 225.12C52.26 225 52.2 224.94 52.08 224.88L51.3 224.46C51.18 224.4 51.06 224.34 50.94 224.34C50.82 224.34 50.7 224.34 50.58 224.4C50.52 224.4 50.46 224.46 50.4 224.4C50.34 224.4 50.28 224.4 50.22 224.34C50.16 224.34 50.16 224.28 50.16 224.22C50.16 224.16 50.16 224.16 50.22 224.1C50.46 223.98 50.7 223.92 50.94 223.98C51.18 223.98 51.48 224.04 51.66 224.16L52.44 224.58C52.62 224.64 52.74 224.82 52.8 225C52.8 225.18 52.74 225.36 52.56 225.42L52.38 225.54C52.26 225.6 52.14 225.66 52.02 225.66C51.9 225.66 51.72 225.66 51.6 225.66C51.6 225.72 51.6 225.84 51.6 225.9C51.6 226.02 51.48 226.14 51.42 226.2Z" fill="white"/>
<path d="M53.64 228.36C53.58 228.36 53.52 228.36 53.46 228.3C53.4 228.3 53.4 228.24 53.4 228.18C53.4 228.12 53.4 228.12 53.46 228.06L54.36 227.52C54.18 227.52 54.06 227.46 53.88 227.34L53.1 226.92C52.92 226.86 52.8 226.68 52.74 226.5C52.74 226.32 52.8 226.14 52.98 226.08L53.82 225.6C53.88 225.6 53.94 225.54 54 225.54C54.06 225.54 54.12 225.54 54.18 225.6C54.24 225.6 54.24 225.66 54.24 225.72C54.24 225.78 54.24 225.78 54.18 225.84L53.34 226.32C53.28 226.38 53.22 226.44 53.22 226.5C53.22 226.62 53.28 226.68 53.4 226.74L54.18 227.16C54.3 227.22 54.42 227.28 54.54 227.28C54.66 227.28 54.78 227.28 54.9 227.22L55.74 226.74C55.8 226.74 55.86 226.68 55.92 226.68C55.98 226.68 56.04 226.68 56.1 226.74C56.16 226.74 56.16 226.8 56.16 226.86C56.16 226.92 56.16 226.92 56.1 226.98L53.76 228.3C53.76 228.36 53.7 228.36 53.64 228.36Z" fill="white"/>
<path d="M59.58 229.86C59.58 229.92 59.58 229.98 59.64 229.98L60.72 230.58C60.9 230.64 61.02 230.82 61.08 231C61.08 231.18 61.02 231.36 60.84 231.42L60.48 231.6C60.24 231.72 60 231.78 59.76 231.72C59.52 231.72 59.28 231.66 59.04 231.54L58.26 231.12C58.08 231.06 57.96 230.88 57.9 230.7C57.9 230.52 57.96 230.34 58.14 230.28C58.2 230.28 58.26 230.22 58.32 230.22C58.38 230.22 58.44 230.22 58.5 230.28C58.56 230.28 58.56 230.34 58.56 230.4C58.56 230.46 58.56 230.46 58.5 230.52C58.44 230.58 58.38 230.64 58.38 230.7C58.38 230.82 58.44 230.88 58.56 230.94L59.34 231.36C59.46 231.42 59.58 231.48 59.7 231.48C59.82 231.48 59.94 231.48 60.06 231.42L60.42 231.24C60.48 231.18 60.54 231.12 60.54 231.06C60.54 230.94 60.48 230.88 60.36 230.82L59.22 230.16C59.16 230.1 59.04 230.04 59.04 229.92C59.04 229.86 59.1 229.74 59.16 229.74L60 229.26C60.06 229.2 60.12 229.2 60.18 229.2C60.24 229.2 60.3 229.2 60.36 229.26L62.28 230.34C62.34 230.34 62.34 230.4 62.34 230.46C62.34 230.52 62.34 230.52 62.28 230.58C62.22 230.58 62.16 230.64 62.1 230.64C62.04 230.64 61.98 230.64 61.92 230.58L60.3 229.62H60.18C60.18 229.62 60.12 229.62 60.06 229.62L59.58 229.86Z" fill="white"/>
<path d="M62.94 231.9L63.72 232.32C63.9 232.38 64.02 232.56 64.08 232.74C64.08 232.92 64.02 233.1 63.84 233.16L63.48 233.34C63.24 233.46 63 233.52 62.76 233.46C62.52 233.46 62.22 233.4 62.04 233.28L61.26 232.86C61.08 232.8 60.96 232.62 60.9 232.44C60.9 232.26 60.96 232.08 61.14 232.02L62.46 231.24C62.7 231.12 62.94 231.06 63.18 231.12C63.42 231.12 63.72 231.18 63.9 231.3L64.68 231.72C64.86 231.78 64.98 231.96 65.04 232.14C65.04 232.32 64.98 232.5 64.8 232.56C64.74 232.62 64.68 232.62 64.62 232.62C64.56 232.62 64.5 232.62 64.44 232.56C64.38 232.56 64.38 232.5 64.32 232.44C64.32 232.38 64.32 232.38 64.38 232.32C64.44 232.26 64.5 232.2 64.5 232.14C64.5 232.02 64.44 231.96 64.32 231.9L63.54 231.48C63.42 231.42 63.3 231.36 63.18 231.36C63.06 231.36 62.94 231.36 62.82 231.42L62.4 231.66C62.64 231.78 62.82 231.84 62.94 231.9ZM61.56 232.26C61.5 232.32 61.44 232.38 61.44 232.44C61.44 232.56 61.5 232.62 61.62 232.68L62.4 233.1C62.52 233.16 62.64 233.22 62.76 233.22C62.88 233.22 63 233.22 63.12 233.16L63.48 232.98C63.54 232.92 63.6 232.86 63.6 232.8C63.6 232.68 63.54 232.62 63.42 232.56L62.64 232.14C62.52 232.08 62.4 232.02 62.28 232.02C62.16 232.02 62.04 232.02 61.92 232.08L61.56 232.26Z" fill="white"/>
<path d="M67.38 234.54L65.1 234.84H64.8H64.74C64.68 234.84 64.68 234.78 64.62 234.72C64.62 234.66 64.62 234.66 64.68 234.6C64.74 234.6 64.86 234.54 64.92 234.54C65.64 234.42 66.36 234.3 67.02 234.24C67.08 234.24 67.14 234.24 67.2 234.18L67.38 234.12H67.44C67.5 234.06 67.56 234 67.56 233.94C67.56 233.82 67.5 233.76 67.38 233.7L67.02 233.46L66.84 233.34L66.06 232.92C66 232.92 66 232.86 65.94 232.8C65.94 232.74 65.94 232.74 66 232.68C66.06 232.62 66.12 232.62 66.18 232.62C66.24 232.62 66.3 232.62 66.36 232.68L67.14 233.1L67.32 233.22L67.68 233.46C67.86 233.52 67.98 233.7 68.04 233.88C68.04 234.06 67.98 234.24 67.8 234.3C67.74 234.36 67.62 234.36 67.56 234.42C67.56 234.54 67.44 234.54 67.38 234.54Z" fill="white"/>
<path d="M69.78 236.82L69.6 236.94C69.36 237.06 69.12 237.12 68.88 237.06C68.64 237.06 68.34 237 68.16 236.88L67.38 236.46C67.2 236.4 67.08 236.22 67.02 236.04C67.02 235.86 67.08 235.68 67.26 235.62L67.44 235.5C67.56 235.44 67.68 235.38 67.8 235.38C67.92 235.38 68.1 235.38 68.22 235.38C68.22 235.32 68.22 235.2 68.22 235.14C68.28 235.08 68.34 234.96 68.4 234.96L68.58 234.84C68.82 234.72 69.06 234.66 69.3 234.72C69.54 234.72 69.84 234.78 70.02 234.9L70.8 235.32C70.98 235.38 71.1 235.56 71.16 235.74C71.16 235.92 71.1 236.1 70.92 236.16L70.74 236.28C70.62 236.34 70.5 236.4 70.38 236.4C70.26 236.4 70.08 236.4 69.96 236.4C69.96 236.46 69.96 236.58 69.96 236.64C69.96 236.7 69.9 236.76 69.78 236.82ZM70.56 235.92C70.62 235.86 70.68 235.8 70.68 235.74C70.68 235.62 70.62 235.56 70.5 235.5L69.72 235.08C69.6 235.02 69.48 234.96 69.36 234.96C69.24 234.96 69.12 234.96 69 235.02L68.82 235.14C68.76 235.2 68.7 235.26 68.7 235.32C68.7 235.44 68.76 235.5 68.88 235.56L69.66 235.98C69.78 236.04 69.9 236.1 70.02 236.1C70.14 236.1 70.26 236.1 70.38 236.04L70.56 235.92ZM69.42 236.58C69.48 236.52 69.54 236.46 69.54 236.4C69.54 236.28 69.48 236.22 69.36 236.16L68.58 235.74C68.46 235.68 68.34 235.62 68.22 235.62C68.1 235.62 67.98 235.62 67.86 235.68L67.68 235.8C67.62 235.86 67.56 235.92 67.56 235.98C67.56 236.1 67.62 236.16 67.74 236.22L68.52 236.64C68.64 236.7 68.76 236.76 68.88 236.76C69 236.76 69.12 236.76 69.24 236.7L69.42 236.58Z" fill="white"/>
<path d="M74.34 240.36L73.56 239.94C73.38 239.88 73.26 239.7 73.2 239.52C73.2 239.34 73.26 239.16 73.44 239.1C73.5 239.1 73.56 239.04 73.62 239.04C73.68 239.04 73.74 239.04 73.8 239.1C73.86 239.1 73.86 239.16 73.86 239.22C73.86 239.28 73.86 239.28 73.8 239.34C73.74 239.4 73.68 239.46 73.68 239.52C73.68 239.64 73.74 239.7 73.86 239.76L74.64 240.18C74.76 240.24 74.88 240.3 75 240.3C75.12 240.3 75.24 240.3 75.36 240.24L75.78 240C75.6 239.94 75.42 239.94 75.3 239.82L74.52 239.4C74.34 239.34 74.22 239.16 74.16 238.98C74.16 238.8 74.22 238.62 74.4 238.56L74.76 238.38C75 238.26 75.24 238.2 75.48 238.26C75.72 238.26 75.96 238.32 76.2 238.44L76.98 238.86C77.16 238.92 77.28 239.1 77.34 239.28C77.34 239.46 77.28 239.64 77.1 239.7L75.78 240.48C75.54 240.6 75.3 240.66 75.06 240.6C74.82 240.6 74.58 240.48 74.34 240.36ZM76.74 239.46C76.8 239.4 76.86 239.34 76.86 239.28C76.86 239.16 76.8 239.1 76.68 239.04L75.9 238.62C75.78 238.56 75.66 238.5 75.54 238.5C75.42 238.5 75.3 238.5 75.18 238.56L74.82 238.74C74.76 238.8 74.7 238.86 74.7 238.92C74.7 239.04 74.76 239.1 74.88 239.16L75.66 239.58C75.78 239.64 75.9 239.7 76.02 239.7C76.14 239.7 76.26 239.7 76.38 239.64L76.74 239.46Z" fill="white"/>
<path d="M77.22 242.04L76.08 241.38C76.02 241.38 76.02 241.32 75.96 241.26C75.96 241.2 75.96 241.2 76.02 241.14C76.08 241.08 76.14 241.08 76.2 241.08C76.26 241.08 76.32 241.08 76.38 241.14L76.74 241.38L78.42 240.42C78.48 240.36 78.54 240.3 78.54 240.24C78.54 240.12 78.48 240.06 78.36 240C78.3 240 78.3 239.94 78.3 239.88C78.3 239.82 78.3 239.82 78.36 239.76C78.42 239.76 78.48 239.7 78.54 239.7C78.6 239.7 78.66 239.7 78.72 239.76C78.9 239.82 79.02 240 79.08 240.18C79.08 240.36 79.02 240.54 78.84 240.6L77.16 241.56L77.52 241.8C77.58 241.8 77.58 241.86 77.58 241.92C77.58 241.98 77.58 241.98 77.52 242.04C77.46 242.04 77.4 242.1 77.34 242.1C77.34 242.1 77.28 242.1 77.22 242.04Z" fill="white"/>
<path d="M79.68 243.48L78.9 243.06C78.72 243 78.6 242.82 78.54 242.64C78.54 242.46 78.6 242.28 78.78 242.22L80.1 241.44C80.34 241.32 80.58 241.26 80.82 241.32C81.06 241.32 81.3 241.38 81.54 241.5L82.32 241.92C82.5 241.98 82.62 242.16 82.68 242.34C82.68 242.52 82.62 242.7 82.44 242.76L81.12 243.54C80.88 243.66 80.64 243.72 80.4 243.66C80.16 243.66 79.92 243.6 79.68 243.48ZM79.26 242.82L80.04 243.24C80.1 243.3 80.16 243.3 80.28 243.3L80.52 241.62L79.2 242.4C79.14 242.46 79.08 242.52 79.08 242.58C79.08 242.7 79.14 242.82 79.26 242.82ZM82.02 242.16L81.24 241.74C81.18 241.68 81.12 241.68 81 241.68L80.76 243.36L82.08 242.64C82.14 242.58 82.2 242.52 82.2 242.46C82.2 242.28 82.08 242.16 82.02 242.16Z" fill="white"/>
<path d="M82.56 245.16L81.42 244.5C81.36 244.5 81.36 244.44 81.36 244.38C81.36 244.32 81.36 244.32 81.42 244.26C81.48 244.2 81.54 244.2 81.6 244.2C81.66 244.2 81.72 244.2 81.78 244.26L82.14 244.5L83.82 243.54C83.88 243.48 83.94 243.42 83.94 243.36C83.94 243.24 83.88 243.18 83.76 243.12C83.7 243.12 83.7 243.06 83.7 243C83.7 242.94 83.7 242.94 83.76 242.88C83.88 242.82 84 242.82 84.12 242.88C84.3 242.94 84.42 243.12 84.48 243.3C84.48 243.48 84.42 243.66 84.24 243.72L82.56 244.68L82.92 244.92C82.98 244.92 82.98 244.98 82.98 245.04C82.98 245.1 82.98 245.1 82.92 245.16C82.86 245.16 82.8 245.22 82.74 245.22C82.68 245.16 82.62 245.16 82.56 245.16Z" fill="white"/>
<path d="M87.96 248.22L86.82 247.56C86.76 247.56 86.76 247.5 86.76 247.44C86.76 247.38 86.76 247.38 86.82 247.32C86.88 247.32 86.94 247.26 87 247.26C87.06 247.26 87.12 247.26 87.18 247.32L87.54 247.56L89.22 246.6C89.28 246.54 89.34 246.48 89.34 246.42C89.34 246.3 89.28 246.24 89.16 246.18C89.1 246.12 89.1 246.12 89.1 246.06C89.1 246 89.1 246 89.16 245.94C89.22 245.94 89.28 245.88 89.34 245.88C89.4 245.88 89.46 245.88 89.52 245.94C89.7 246 89.82 246.18 89.88 246.36C89.88 246.54 89.82 246.66 89.64 246.78L87.96 247.74L88.32 247.98C88.38 247.98 88.38 248.04 88.38 248.1C88.38 248.16 88.38 248.16 88.32 248.22C88.26 248.28 88.2 248.28 88.14 248.28C88.08 248.28 87.96 248.28 87.96 248.22Z" fill="white"/>
<path d="M91.44 249.12L90.66 248.7C90.54 248.64 90.42 248.58 90.3 248.58C90.18 248.58 90.06 248.58 89.94 248.64L89.7 248.76V248.82C89.7 248.82 89.7 248.88 89.76 248.88L91.38 249.84C91.44 249.84 91.44 249.9 91.44 249.96C91.44 250.02 91.44 250.02 91.38 250.08C91.32 250.08 91.26 250.14 91.2 250.14C91.14 250.14 91.08 250.14 91.02 250.08L89.1 249C89.04 249 89.04 248.94 89.04 248.88C89.04 248.82 89.04 248.82 89.1 248.76L89.58 248.46C89.82 248.34 90.06 248.28 90.24 248.34C90.48 248.34 90.78 248.4 90.96 248.52L91.74 248.94C91.86 249 91.98 249.06 92.1 249.06C92.22 249.06 92.34 249.06 92.46 249L92.82 248.82C92.88 248.76 92.94 248.7 92.94 248.64C92.94 248.52 92.8801 248.46 92.7601 248.4L91.98 247.98C91.86 247.92 91.74 247.86 91.62 247.86C91.5 247.86 91.38 247.86 91.26 247.92C91.2 247.92 91.14 247.92 91.08 247.92C91.02 247.92 90.96 247.92 90.9 247.86C90.84 247.86 90.84 247.8 90.84 247.74C90.84 247.68 90.84 247.68 90.9 247.62C91.14 247.5 91.38 247.44 91.62 247.5C91.86 247.5 92.1 247.56 92.34 247.68L93.12 248.1C93.3 248.16 93.42 248.34 93.48 248.52C93.48 248.7 93.42 248.88 93.24 248.94L92.88 249.12C92.64 249.24 92.4 249.3 92.22 249.24C91.92 249.3 91.68 249.24 91.44 249.12Z" fill="white"/>
<path d="M93.3 251.34L92.16 250.68C92.1 250.68 92.1 250.62 92.1 250.56C92.1 250.5 92.1 250.5 92.16 250.44C92.22 250.44 92.28 250.38 92.34 250.38C92.4 250.38 92.46 250.38 92.52 250.44L92.88 250.68L94.56 249.72C94.62 249.66 94.68 249.6 94.68 249.54C94.68 249.42 94.62 249.36 94.5 249.3C94.44 249.3 94.44 249.24 94.44 249.18C94.44 249.12 94.44 249.12 94.5 249.06C94.56 249 94.62 249 94.68 249C94.74 249 94.8 249 94.86 249.06C95.04 249.12 95.16 249.3 95.22 249.48C95.22 249.66 95.16 249.84 94.98 249.9L93.3 250.86L93.66 251.1C93.72 251.1 93.72 251.16 93.72 251.22C93.72 251.28 93.72 251.28 93.66 251.34C93.6 251.4 93.54 251.4 93.48 251.4C93.42 251.4 93.36 251.34 93.3 251.34Z" fill="white"/>
<path d="M97.38 252.72L97.2 252.84C96.96 252.96 96.72 253.02 96.48 252.96C96.24 252.96 96 252.9 95.76 252.78L94.98 252.36C94.8 252.3 94.68 252.12 94.62 251.94C94.62 251.76 94.68 251.58 94.86 251.52C94.92 251.52 94.98 251.46 95.04 251.52C95.1 251.52 95.16 251.52 95.22 251.58C95.28 251.58 95.28 251.64 95.28 251.7C95.28 251.76 95.28 251.76 95.22 251.82C95.16 251.88 95.1 251.94 95.1 252C95.1 252.12 95.16 252.18 95.28 252.24L96.06 252.66C96.18 252.72 96.3 252.78 96.42 252.78C96.54 252.78 96.66 252.78 96.78 252.72L96.96 252.6C97.02 252.54 97.08 252.48 97.08 252.42C97.08 252.3 97.02 252.24 96.9 252.18L96.72 252.06C96.66 252.06 96.66 252 96.66 251.94C96.66 251.88 96.66 251.88 96.72 251.82C96.78 251.82 96.84 251.76 96.9 251.76C96.96 251.76 97.02 251.76 97.08 251.82L97.26 251.94C97.38 252 97.5 252.06 97.62 252.06C97.74 252.06 97.86 252.06 97.98 252L98.16 251.88C98.22 251.82 98.28 251.76 98.28 251.7C98.28 251.58 98.22 251.52 98.1 251.46L97.32 251.04C97.2 250.98 97.08 250.92 96.96 250.92C96.84 250.92 96.72 250.92 96.6 250.98C96.54 250.98 96.48 251.04 96.42 251.04C96.36 251.04 96.3 251.04 96.24 250.98C96.18 250.98 96.18 250.92 96.18 250.86C96.18 250.8 96.18 250.8 96.24 250.74C96.48 250.62 96.72 250.56 96.9 250.62C97.14 250.62 97.44 250.68 97.62 250.8L98.4 251.22C98.58 251.28 98.7 251.46 98.76 251.64C98.76 251.82 98.7 252 98.52 252.06L98.34 252.18C98.22 252.24 98.1 252.3 97.98 252.3C97.86 252.3 97.68 252.3 97.56 252.3C97.56 252.36 97.56 252.48 97.56 252.54C97.56 252.6 97.5 252.66 97.38 252.72Z" fill="white"/>
<path d="M84.84 252.6L84.18 252.24L84.12 252.18V252.12C84.18 252.12 84.18 252.12 84.24 252.12C84.3 252.12 84.3 252.12 84.36 252.12L84.6 252.24L85.56 251.7C85.62 251.7 85.62 251.64 85.62 251.58C85.62 251.52 85.56 251.46 85.5 251.46L85.44 251.4C85.44 251.4 85.44 251.34 85.5 251.34C85.56 251.34 85.56 251.34 85.62 251.34C85.68 251.34 85.68 251.34 85.74 251.34C85.86 251.4 85.92 251.46 85.92 251.58C85.92 251.7 85.86 251.76 85.8 251.82L84.84 252.36L85.08 252.48L85.14 252.54C85.14 252.54 85.14 252.6 85.08 252.6C85.02 252.6 85.02 252.6 84.96 252.6C84.9 252.66 84.9 252.6 84.84 252.6Z" fill="white"/>
<path d="M86.88 253.14L86.46 252.9C86.4 252.84 86.34 252.84 86.22 252.84C86.16 252.84 86.1 252.84 86.04 252.9L85.92 252.96L86.88 253.5C86.94 253.5 86.94 253.56 86.94 253.56C86.94 253.56 86.94 253.62 86.88 253.62C86.82 253.62 86.82 253.62 86.76 253.62C86.7 253.62 86.7 253.62 86.64 253.62L85.5 252.96L85.44 252.9C85.44 252.9 85.44 252.84 85.5 252.84L85.8 252.66C85.92 252.6 86.04 252.54 86.22 252.6C86.4 252.6 86.52 252.66 86.64 252.72L87.12 252.96C87.18 253.02 87.24 253.02 87.36 253.02C87.42 253.02 87.48 253.02 87.54 252.96L87.72 252.84C87.78 252.84 87.78 252.78 87.78 252.72C87.78 252.66 87.72 252.66 87.66 252.6L87.24 252.36C87.18 252.3 87.12 252.3 87 252.3C86.94 252.3 86.88 252.3 86.82 252.36C86.76 252.36 86.76 252.36 86.7 252.36C86.64 252.36 86.64 252.36 86.58 252.36L86.52 252.3C86.52 252.3 86.52 252.24 86.58 252.24C86.7 252.18 86.82 252.12 87 252.18C87.12 252.18 87.3 252.24 87.42 252.3L87.9 252.54C88.02 252.6 88.08 252.66 88.08 252.78C88.08 252.9 88.02 252.96 87.96 253.02L87.78 253.14C87.66 253.2 87.54 253.26 87.36 253.2C87.18 253.2 87 253.2 86.88 253.14Z" fill="white"/>
<path d="M89.58 254.64L89.1 254.4C89.04 254.34 88.98 254.34 88.86 254.34C88.8 254.34 88.74 254.34 88.68 254.4L88.56 254.46C88.56 254.46 88.56 254.46 88.62 254.46L89.58 255L89.64 255.06C89.64 255.06 89.64 255.12 89.58 255.12C89.52 255.12 89.52 255.12 89.46 255.12C89.4 255.12 89.4 255.12 89.34 255.12L88.2 254.52C88.14 254.52 88.14 254.46 88.14 254.46C88.14 254.46 88.14 254.4 88.2 254.4L88.5 254.22C88.62 254.16 88.74 254.1 88.92 254.16C89.04 254.16 89.22 254.22 89.34 254.28L89.82 254.52C89.88 254.58 89.94 254.58 90.06 254.58C90.12 254.58 90.18 254.58 90.24 254.52L90.42 254.4C90.48 254.4 90.48 254.34 90.48 254.28C90.48 254.22 90.42 254.16 90.36 254.16L89.88 253.92C89.82 253.86 89.76 253.86 89.64 253.86C89.58 253.86 89.52 253.86 89.46 253.92C89.4 253.92 89.4 253.92 89.34 253.92C89.28 253.92 89.28 253.92 89.22 253.92L89.16 253.86C89.16 253.86 89.16 253.8 89.22 253.8C89.34 253.74 89.46 253.68 89.64 253.74C89.82 253.74 89.94 253.8 90.06 253.86L90.48 254.1C90.6 254.16 90.66 254.22 90.66 254.34C90.66 254.46 90.6 254.52 90.54 254.58L90.36 254.7C90.24 254.76 90.12 254.82 89.94 254.76C89.82 254.76 89.7 254.76 89.58 254.64Z" fill="white"/>
<path d="M91.68 256.02L91.56 256.08C91.44 256.14 91.32 256.2 91.14 256.14C90.96 256.14 90.84 256.08 90.72 256.02L90.3 255.78C90.18 255.72 90.12 255.66 90.12 255.54C90.12 255.42 90.18 255.36 90.24 255.3C90.3 255.3 90.3 255.3 90.36 255.3C90.42 255.3 90.42 255.3 90.48 255.3L90.54 255.36C90.54 255.36 90.54 255.42 90.48 255.42C90.42 255.42 90.42 255.48 90.42 255.54C90.42 255.6 90.48 255.66 90.54 255.66L90.96 255.9C91.02 255.96 91.08 255.96 91.2 255.96C91.26 255.96 91.32 255.96 91.38 255.9L91.5 255.84C91.56 255.84 91.56 255.78 91.56 255.72C91.56 255.66 91.5 255.6 91.44 255.6L91.32 255.54L91.26 255.48C91.26 255.48 91.26 255.42 91.32 255.42C91.38 255.42 91.38 255.42 91.44 255.42C91.5 255.42 91.5 255.42 91.56 255.42L91.68 255.48C91.74 255.54 91.8 255.54 91.92 255.54C91.98 255.54 92.04 255.54 92.1 255.48L92.22 255.42C92.28 255.42 92.28 255.36 92.28 255.3C92.28 255.24 92.22 255.18 92.16 255.18L91.74 254.94C91.68 254.88 91.62 254.88 91.5 254.88C91.44 254.88 91.38 254.88 91.32 254.94C91.26 254.94 91.26 254.94 91.2 254.94C91.14 254.94 91.14 254.94 91.08 254.94L91.02 254.88C91.02 254.88 91.02 254.82 91.08 254.82C91.2 254.76 91.32 254.76 91.5 254.76C91.68 254.76 91.8 254.82 91.92 254.88L92.34 255.12C92.46 255.18 92.52 255.24 92.52 255.36C92.52 255.48 92.46 255.54 92.4 255.6L92.28 255.66C92.22 255.72 92.16 255.72 92.1 255.72C92.04 255.72 91.92 255.72 91.86 255.72C91.86 255.78 91.86 255.84 91.86 255.84C91.8 255.96 91.74 255.96 91.68 256.02Z" fill="white"/>
<path d="M87.06 254.16C87.06 254.1 87.06 254.1 87.12 254.04L89.04 253.2C89.1 253.2 89.1 253.2 89.16 253.26C89.16 253.32 89.16 253.32 89.1 253.38L87.18 254.22C87.12 254.22 87.06 254.16 87.06 254.16Z" fill="white"/>
<path d="M110.28 245.1L103.8 248.88C103.26 249.18 102.6 249.18 102.06 248.88L94.14 244.38C93.84 244.26 93.72 243.96 93.78 243.72C93.84 243.54 93.96 243.42 94.14 243.36L100.62 239.58C101.16 239.28 101.82 239.28 102.36 239.58C104.52 240.84 108.12 242.88 110.28 244.08C110.58 244.2 110.7 244.5 110.64 244.74C110.58 244.92 110.46 245.04 110.28 245.1Z" fill="#F1C400"/>
<path opacity="0.8" d="M110.28 245.1L103.8 248.88C103.26 249.18 102.6 249.18 102.06 248.88L94.14 244.38C93.84 244.26 93.72 243.96 93.78 243.72C93.84 243.54 93.96 243.42 94.14 243.36L100.62 239.58C101.16 239.28 101.82 239.28 102.36 239.58C104.52 240.84 108.12 242.88 110.28 244.08C110.58 244.2 110.7 244.5 110.64 244.74C110.58 244.92 110.46 245.04 110.28 245.1Z" fill="white"/>
<path d="M110.04 247.02L110.64 246.9L97.68 239.46L97.08 239.58L110.04 247.02Z" fill="#F1C400"/>
<path d="M101.76 246L102.36 246.06L105.72 244.2L105.12 244.08L101.76 246Z" fill="#F1C400"/>
<path d="M98.7 244.26L99.3 244.38L102.6 242.46L102 242.34L98.7 244.26Z" fill="#F1C400"/>
<path d="M106.74 248.94L107.34 248.82L94.32 241.38L93.72 241.5L106.74 248.94Z" fill="#F1C400"/>
<path d="M68.82 244.26L37.74 226.32C37.14 226.02 36.42 226.02 35.76 226.32L35.64 226.38C35.34 226.5 35.16 226.86 35.28 227.16C35.34 227.34 35.46 227.46 35.64 227.52L66.72 245.46C67.32 245.76 68.04 245.76 68.7 245.46L68.82 245.4C69.54 245.4 70.08 245.52 70.08 244.86C70.08 244.14 69.54 243.6 68.82 244.26Z" fill="#455A64"/>
<path d="M65.94 209.88C66 209.88 66.06 209.88 66.12 209.88C66.18 209.88 66.24 209.88 66.3 209.94L66.78 210.24C66.84 210.24 66.84 210.3 66.84 210.36C66.84 210.42 66.84 210.42 66.78 210.48C66.6 210.6 66.36 210.66 66.18 210.72C65.94 210.78 65.64 210.78 65.4 210.78C65.1 210.78 64.8 210.72 64.5 210.66C64.2 210.6 63.84 210.42 63.54 210.3C63.3 210.18 63.12 210 62.94 209.82C62.82 209.7 62.76 209.52 62.76 209.28C62.76 209.1 62.82 208.92 62.94 208.8C63.06 208.62 63.24 208.44 63.48 208.32L63.96 208.02L64.5 207.72C64.74 207.6 65.04 207.48 65.34 207.42C65.64 207.36 65.94 207.3 66.24 207.3C66.54 207.3 66.84 207.36 67.14 207.42C67.44 207.48 67.74 207.6 67.98 207.78C68.22 207.9 68.46 208.08 68.64 208.32C68.76 208.44 68.82 208.62 68.88 208.86C68.88 209.04 68.82 209.16 68.76 209.28C68.64 209.4 68.52 209.52 68.4 209.64C68.34 209.64 68.28 209.7 68.22 209.7C68.16 209.7 68.1 209.7 68.04 209.64L67.56 209.34C67.5 209.34 67.5 209.28 67.5 209.28C67.5 209.22 67.5 209.22 67.56 209.16C67.62 209.1 67.68 209.04 67.68 208.98C67.68 208.92 67.68 208.86 67.68 208.74C67.68 208.62 67.62 208.56 67.56 208.5C67.44 208.38 67.32 208.32 67.2 208.2C67.02 208.14 66.9 208.02 66.72 208.02C66.54 207.96 66.42 207.96 66.24 207.96C66.06 207.96 65.94 207.96 65.76 208.02C65.58 208.08 65.46 208.14 65.34 208.2L64.8 208.5L64.32 208.8C64.2 208.86 64.14 208.98 64.02 209.04C63.96 209.1 63.9 209.22 63.9 209.34C63.9 209.46 63.96 209.52 64.02 209.64C64.14 209.76 64.2 209.88 64.38 209.94C64.5 210 64.68 210.12 64.86 210.12C64.98 210.18 65.16 210.18 65.28 210.18C65.4 210.18 65.52 210.18 65.7 210.18C65.7 209.94 65.82 209.94 65.94 209.88Z" fill="#F1C400"/>
<path d="M72.06 210.06C72.54 210.36 72.84 210.66 72.84 210.96C72.84 211.26 72.66 211.5 72.24 211.74C71.94 211.92 71.64 212.04 71.28 212.04C70.92 212.1 70.56 212.04 70.2 211.98L69.54 213.3L69.48 213.36C69.42 213.36 69.36 213.42 69.36 213.36C69.3 213.36 69.24 213.36 69.24 213.36L68.7 213.06C68.64 213 68.58 213 68.58 212.94C68.58 212.88 68.58 212.88 68.58 212.82L69.18 211.56L68.4 211.08L67.02 211.92C66.96 211.92 66.9 211.98 66.84 211.98C66.78 211.98 66.72 211.98 66.66 211.92L66.18 211.62C66.12 211.62 66.12 211.56 66.12 211.5C66.12 211.44 66.12 211.44 66.18 211.38L70.08 209.1C70.14 209.1 70.2 209.04 70.26 209.04C70.32 209.04 70.38 209.04 70.44 209.1L72.06 210.06ZM69.24 210.66L70.14 211.2C70.32 211.32 70.56 211.38 70.8 211.44C71.04 211.44 71.28 211.44 71.46 211.32C71.7 211.2 71.76 211.08 71.7 210.96C71.58 210.78 71.46 210.66 71.28 210.6L70.38 210.12L69.24 210.66Z" fill="#F1C400"/>
<path d="M73.74 215.04C73.8 215.04 73.8 215.1 73.8 215.16C73.8 215.22 73.74 215.22 73.74 215.22L73.32 215.46C73.2 215.52 73.08 215.52 73.02 215.46L70.38 213.9C70.32 213.9 70.32 213.84 70.32 213.78C70.32 213.72 70.32 213.72 70.38 213.66L74.28 211.38C74.34 211.38 74.4 211.32 74.46 211.32C74.52 211.32 74.58 211.32 74.64 211.38L77.28 212.88C77.34 212.88 77.34 212.94 77.34 213C77.34 213.06 77.34 213.06 77.28 213.12L76.86 213.36C76.74 213.42 76.62 213.42 76.56 213.36L74.58 212.22L73.62 212.76L75.42 213.84C75.48 213.84 75.48 213.9 75.48 213.96C75.48 214.02 75.48 214.02 75.42 214.02L75 214.26C74.94 214.26 74.88 214.32 74.82 214.32C74.76 214.32 74.7 214.32 74.64 214.26L72.84 213.18L71.82 213.78L73.74 215.04Z" fill="#F1C400"/>
<path d="M79.8 214.56C80.04 214.68 80.28 214.86 80.46 215.1C80.58 215.22 80.64 215.4 80.7 215.64C80.7 215.82 80.64 216 80.52 216.12C80.34 216.3 80.16 216.48 79.98 216.6C79.68 216.78 79.38 216.96 79.08 217.14C78.84 217.26 78.54 217.38 78.24 217.44C77.94 217.5 77.64 217.56 77.4 217.56C77.1 217.56 76.8 217.5 76.5 217.44C76.2 217.38 75.9 217.2 75.6 217.08L74.1 216.18C74.04 216.18 74.04 216.12 74.04 216.06C74.04 216 74.1 216 74.1 216L78 213.72C78.06 213.72 78.12 213.66 78.18 213.66C78.24 213.66 78.3 213.66 78.36 213.72L79.8 214.56ZM79.14 216.06C79.26 216 79.32 215.88 79.44 215.82C79.5 215.76 79.56 215.64 79.56 215.52C79.56 215.4 79.5 215.28 79.44 215.22C79.32 215.1 79.2 214.98 79.08 214.92L78.24 214.44L75.54 216L76.38 216.48C76.68 216.66 77.04 216.78 77.4 216.78C77.58 216.78 77.7 216.78 77.88 216.72C78.06 216.66 78.18 216.6 78.3 216.54C78.54 216.42 78.84 216.24 79.14 216.06Z" fill="#F1C400"/>
<path d="M78.3601 218.58C78.3001 218.58 78.3 218.52 78.3 218.52C78.3 218.46 78.3001 218.46 78.3601 218.4L82.26 216.12C82.32 216.12 82.38 216.06 82.44 216.06C82.5 216.06 82.56 216.06 82.62 216.12L83.1 216.42C83.16 216.42 83.16 216.48 83.16 216.54C83.16 216.6 83.1 216.6 83.1 216.6L79.2 218.88C79.14 218.88 79.08 218.94 79.02 218.94C78.96 218.94 78.9 218.94 78.84 218.88L78.3601 218.58Z" fill="#F1C400"/>
<path d="M87 218.7C87.06 218.7 87.06 218.76 87.06 218.82C87.06 218.88 87.06 218.88 87 218.88L86.58 219.12C86.52 219.12 86.46 219.18 86.4 219.18C86.34 219.18 86.28 219.18 86.22 219.12L85.14 218.52L81.84 220.44C81.78 220.44 81.72 220.5 81.66 220.5C81.6 220.5 81.54 220.5 81.48 220.44L81 220.14C80.94 220.14 80.94 220.08 80.94 220.02C80.94 219.96 81 219.96 81 219.96L84.3 218.04L83.22 217.44C83.16 217.44 83.16 217.38 83.16 217.38C83.16 217.32 83.16 217.32 83.22 217.26L83.64 217.02C83.7 217.02 83.76 216.96 83.82 216.96C83.88 216.96 83.94 216.96 84 217.02L87 218.7Z" fill="#F1C400"/>
<path d="M88.68 223.02C88.74 223.02 88.8 222.96 88.86 223.02C88.92 223.02 88.98 223.02 88.98 223.08L89.46 223.38C89.52 223.38 89.52 223.44 89.52 223.5C89.52 223.56 89.52 223.56 89.46 223.56C89.28 223.68 89.04 223.74 88.86 223.8C88.62 223.86 88.32 223.86 88.08 223.86C87.78 223.86 87.48 223.8 87.18 223.74C86.88 223.68 86.52 223.5 86.22 223.32C85.98 223.2 85.8 223.02 85.62 222.84C85.5 222.72 85.44 222.54 85.44 222.3C85.44 222.12 85.5 221.94 85.62 221.76C85.74 221.58 85.92 221.4 86.16 221.28L86.64 220.98C86.82 220.86 87 220.8 87.18 220.68C87.42 220.56 87.72 220.44 88.02 220.38C88.32 220.32 88.62 220.26 88.92 220.26C89.22 220.26 89.52 220.32 89.82 220.38C90.12 220.44 90.42 220.56 90.66 220.74C90.9 220.86 91.14 221.04 91.32 221.28C91.44 221.4 91.5 221.58 91.56 221.76C91.56 221.94 91.5 222.06 91.44 222.24C91.32 222.36 91.2 222.48 91.08 222.6C91.02 222.66 90.96 222.66 90.9 222.66C90.84 222.66 90.78 222.66 90.72 222.6L90.24 222.3C90.18 222.3 90.18 222.24 90.18 222.24C90.18 222.18 90.18 222.18 90.24 222.12C90.3 222.06 90.36 222 90.42 221.94C90.42 221.88 90.42 221.76 90.42 221.7C90.42 221.58 90.36 221.52 90.3 221.46C90.18 221.34 90.06 221.28 89.94 221.16C89.76 221.1 89.64 220.98 89.46 220.98C89.28 220.92 89.16 220.92 88.98 220.92C88.8 220.92 88.68 220.92 88.5 220.98C88.38 221.04 88.2 221.1 88.08 221.16L87.54 221.46L87.06 221.76C86.94 221.82 86.88 221.94 86.76 222C86.7 222.06 86.64 222.18 86.64 222.3C86.64 222.42 86.7 222.48 86.76 222.6C86.88 222.72 87 222.84 87.12 222.9C87.24 222.96 87.42 223.08 87.6 223.08C87.72 223.14 87.9 223.14 88.02 223.14C88.14 223.14 88.26 223.14 88.44 223.14C88.5 223.08 88.62 223.08 88.68 223.02Z" fill="#F1C400"/>
<path d="M95.1 223.38C95.16 223.44 95.22 223.44 95.16 223.5C95.16 223.56 95.16 223.62 95.1 223.62L92.76 226.68C92.76 226.68 92.76 226.68 92.7 226.68C92.58 226.74 92.46 226.74 92.4 226.68L91.98 226.44C91.92 226.38 91.86 226.38 91.86 226.32C91.86 226.26 91.86 226.26 91.92 226.2L92.34 225.66L90.42 224.58L89.46 224.82C89.4 224.82 89.34 224.82 89.28 224.82C89.22 224.82 89.1 224.82 89.04 224.76L88.62 224.52C88.56 224.52 88.56 224.46 88.56 224.4C88.56 224.34 88.56 224.34 88.62 224.34H88.68L94.02 223.02C94.08 223.02 94.2 222.96 94.26 222.96C94.32 222.96 94.38 222.96 94.44 223.02L95.1 223.38ZM92.76 225.06L93.84 223.68L91.44 224.28L92.76 225.06Z" fill="#F1C400"/>
<path d="M99.06 225.66C99.54 225.96 99.84 226.26 99.84 226.5C99.84 226.74 99.66 227.04 99.24 227.28C98.94 227.46 98.64 227.58 98.28 227.58C97.92 227.64 97.56 227.58 97.2 227.52L96.54 228.84C96.54 228.84 96.54 228.9 96.48 228.9C96.42 228.9 96.42 228.96 96.36 228.96C96.3 228.96 96.24 228.96 96.24 228.9L95.7 228.6C95.64 228.54 95.58 228.48 95.58 228.48C95.58 228.42 95.58 228.42 95.58 228.36L96.18 227.1L95.4 226.62L93.96 227.46C93.9 227.52 93.84 227.52 93.78 227.52C93.72 227.52 93.66 227.52 93.6 227.46L93.12 227.16C93.06 227.16 93.06 227.1 93.06 227.04C93.06 226.98 93.06 226.98 93.12 226.98L97.08 224.7C97.2 224.64 97.32 224.64 97.38 224.7L99.06 225.66ZM96.24 226.26L97.14 226.74C97.32 226.86 97.56 226.92 97.8 226.98C98.04 226.98 98.28 226.98 98.46 226.86C98.7 226.74 98.76 226.62 98.7 226.5C98.58 226.32 98.46 226.2 98.28 226.14L97.38 225.6L96.24 226.26Z" fill="#F1C400"/>
<path d="M103.14 228C103.38 228.12 103.62 228.3 103.8 228.54C103.92 228.66 103.98 228.84 104.04 229.08C104.04 229.26 103.98 229.44 103.86 229.56C103.68 229.74 103.5 229.92 103.32 230.04C103.02 230.22 102.72 230.4 102.42 230.58C102.18 230.7 101.88 230.82 101.58 230.88C101.28 230.94 101.04 231 100.74 231C100.44 231 100.14 230.94 99.84 230.88C99.54 230.82 99.24 230.7 98.94 230.52L97.44 229.62C97.38 229.62 97.38 229.56 97.38 229.5C97.38 229.44 97.38 229.44 97.44 229.38L101.34 227.1C101.4 227.1 101.46 227.04 101.52 227.04C101.58 227.04 101.64 227.04 101.7 227.1L103.14 228ZM102.48 229.56C102.6 229.5 102.66 229.38 102.78 229.32C102.84 229.26 102.9 229.14 102.9 229.02C102.9 228.9 102.84 228.78 102.78 228.72C102.66 228.6 102.54 228.48 102.42 228.42L101.58 227.94L98.88 229.5L99.72 229.98C99.9 230.1 100.02 230.16 100.2 230.16C100.38 230.22 100.5 230.22 100.68 230.22C100.86 230.22 100.98 230.22 101.16 230.16C101.34 230.1 101.46 230.04 101.58 229.98C101.88 229.92 102.18 229.74 102.48 229.56Z" fill="#F1C400"/>
<path d="M232.32 73.26C230.58 77.04 227.58 83.22 225.96 86.7L219.54 79.14H214.14C214.14 79.14 220.62 92.94 224.46 96.18C225.66 97.32 227.64 97.26 228.78 96.06C228.84 96 228.84 96 228.9 95.94C230.46 94.02 231.9 92.04 233.22 89.94C236.28 85.2 237.66 83.16 237.66 83.16L241.5 66.96C238.2 66.66 234.78 68.04 232.32 73.26Z" fill="#FFA8A7"/>
<path d="M242.16 66.9C240.12 66.84 237.84 66.54 235.92 68.28C234.06 69.9 232.56 72 231.66 74.28C230.34 77.4 228.3 81.36 228.3 81.36C229.38 82.92 230.64 84.24 232.14 85.38C233.46 86.4 235.08 87.06 236.76 87.3L242.16 66.9Z" fill="#00FFE6"/>
<path opacity="0.45" d="M242.16 66.9C240.12 66.84 237.84 66.54 235.92 68.28C234.06 69.9 232.56 72 231.66 74.28C230.34 77.4 228.3 81.36 228.3 81.36C229.38 82.92 230.64 84.24 232.14 85.38C233.46 86.4 235.08 87.06 236.76 87.3L242.16 66.9Z" fill="black"/>
<path d="M225.96 86.7C226.68 87.54 227.34 88.44 227.94 89.4C227.94 89.4 227.28 86.88 226.32 85.98L225.96 86.7Z" fill="#F28F8F"/>
<path d="M212.58 69.12L213.12 68.58C213.3 68.46 213.48 68.4 213.72 68.46L219.9 69.54C220.56 69.66 221.1 70.08 221.4 70.68L226.98 82.8C227.1 82.98 227.1 83.28 226.98 83.46L226.44 84C226.26 84.12 226.02 84.18 225.84 84.12L219.66 83.04C219 82.92 218.46 82.5 218.16 81.9L212.58 69.78C212.4 69.48 212.4 69.24 212.58 69.12Z" fill="#455A64"/>
<path d="M226.38 83.34L220.8 71.22C220.5 70.62 219.96 70.26 219.3 70.08L213.12 69.06C212.52 68.94 212.28 69.3 212.52 69.84L218.1 81.96C218.4 82.56 218.94 82.98 219.6 83.1L225.78 84.18C226.38 84.18 226.62 83.82 226.38 83.34Z" fill="#263238"/>
<path d="M220.02 70.32C220.38 70.5 220.62 70.8 220.8 71.16L226.38 83.28C226.5 83.46 226.5 83.7 226.38 83.94L226.86 83.4C226.98 83.22 226.98 82.92 226.86 82.74L221.28 70.62C221.1 70.26 220.86 70.02 220.56 69.84L220.02 70.32Z" fill="#37474F"/>
<path d="M215.52 81.12C212.94 78.18 213 74.46 214.2 73.44L214.98 75.12C214.98 75.12 218.88 76.02 220.8 75.84C222.72 75.66 224.22 75.24 224.76 75.6C225.84 76.38 226.2 79.68 223.02 80.88C220.32 81.9 215.52 81.12 215.52 81.12Z" fill="#FFA8A7"/>
<path d="M260.64 177.9C258.96 178.8 256.98 178.74 255 177.9L254.16 167.16L260.64 168V177.9Z" fill="#FFA8A7"/>
<path d="M240.78 171.48C239.4 174.48 236.88 173.64 234 171.72L234.48 160.92H241.38L240.78 171.48Z" fill="#FFA8A7"/>
<path d="M248.52 188.1C248.34 188.64 248.4 189.24 248.58 189.78C248.82 190.14 250.02 191.16 252.3 191.34C254.46 191.52 256.38 191.22 257.64 190.44C258.9 189.66 259.5 188.76 259.62 187.56C259.74 186.36 259.62 185.16 260.16 184.2C260.7 183.24 261.54 182.34 261.72 181.86C261.96 181.02 261.96 180.18 261.72 179.4L248.52 188.1Z" fill="#263238"/>
<path d="M254.4 177.42C254.34 177.9 254.28 178.32 254.16 178.8C253.8 179.76 253.38 180.66 252.84 181.5C252.54 181.92 252.3 182.34 251.94 182.76C251.28 183.54 250.5 184.14 249.78 184.92C249.06 185.64 248.58 186.54 248.46 187.56C248.4 189.24 250.2 189.84 251.58 190.08C253.08 190.32 254.64 190.26 256.14 189.84C257.76 189.42 258.96 188.1 259.2 186.48C259.26 186 259.26 185.52 259.32 185.04C259.5 183.96 259.98 182.94 260.64 182.1C261.06 181.62 261.36 181.08 261.66 180.48C262.08 179.46 261.72 178.26 261.48 177.24C261.24 176.34 260.94 175.32 260.64 175.44C260.64 175.62 260.64 175.8 260.58 175.98C260.46 176.16 260.4 176.34 260.34 176.52C260.28 176.76 260.22 177 260.1 177.18C259.92 177.54 259.68 177.84 259.38 178.02C259.38 177.42 259.32 176.76 259.32 176.1C259.32 175.92 259.26 175.68 259.2 175.56C259.08 175.44 258.84 175.32 258.66 175.32C257.46 175.02 256.26 174.96 255.06 175.02C254.88 175.02 254.7 175.08 254.58 175.26C254.52 175.38 254.46 175.56 254.52 175.68C254.46 176.28 254.46 176.82 254.4 177.42Z" fill="#37474F"/>
<path d="M252.6 181.8C253.2 181.32 254.64 181.32 255.42 181.44C256.2 181.5 256.92 181.74 257.58 182.22C257.76 182.34 258.06 182.34 258.24 182.16C258.42 181.98 258.42 181.68 258.24 181.5L258.18 181.44C257.46 180.9 256.62 180.6 255.72 180.54C253.86 180.42 253.26 180.72 253.26 180.72C253.26 180.72 252.42 181.26 252.6 181.8Z" fill="#F5F5F5"/>
<path d="M251.16 183.54C251.94 183.06 253.5 183.12 254.28 183.24C255.06 183.3 255.78 183.6 256.38 184.08C256.56 184.2 256.86 184.2 257.04 184.02C257.22 183.84 257.22 183.54 257.04 183.36L256.98 183.3C256.26 182.76 255.36 182.4 254.46 182.34C252.6 182.22 252.06 182.58 252.06 182.58C251.64 182.7 251.28 183.12 251.16 183.54Z" fill="#F5F5F5"/>
<path d="M256.5 178.74C255.72 178.62 254.88 178.68 254.1 178.92C253.8 179.1 253.56 179.64 253.74 179.76C254.4 179.52 255.12 179.4 255.84 179.46C256.56 179.52 257.22 179.7 257.88 180C258.06 180.06 258.24 180.18 258.42 180.24C258.66 180.36 258.9 180.24 259.02 180.06C259.14 179.88 259.02 179.64 258.84 179.52C258.12 179.1 257.34 178.86 256.5 178.74Z" fill="#F5F5F5"/>
<path d="M222.78 178.38C222.6 178.86 222.66 179.4 222.84 179.88C223.08 180.3 225.36 181.62 228.42 181.38C230.7 181.2 232.92 180.48 234.78 179.16C235.98 178.38 237.18 178.26 238.68 178.14C240.18 178.02 242.22 177.3 242.52 176.58C242.7 175.92 242.7 175.26 242.46 174.66L222.78 178.38Z" fill="#263238"/>
<path d="M235.14 168.9L234.36 168.6C234.24 168.54 234.06 168.54 233.88 168.54C233.7 168.6 233.58 168.84 233.58 169.08C233.52 169.56 233.4 169.98 233.22 170.4C232.98 170.76 232.68 171.06 232.38 171.3C231.6 171.9 230.76 172.44 229.92 172.86C228.9 173.4 227.94 173.82 226.86 174.3C225.78 174.78 224.4 175.08 223.56 175.62C222.36 176.46 222.18 178.5 223.56 179.28C224.76 180 227.88 180.72 231.18 179.82C232.98 179.34 234.96 177.42 237.3 177.24C238.8 177.12 241.62 176.7 242.58 175.56C242.94 175.08 242.46 173.46 242.1 172.08C241.68 170.58 241.5 168.24 241.02 168.36C240.96 168.84 240.54 169.14 240.3 169.56C240.12 169.92 239.94 170.34 239.76 170.76C239.64 171.18 239.34 171.54 238.98 171.78C238.62 172.02 238.14 172.02 237.78 171.72C237.36 171.24 237.6 170.46 237.3 169.92C237.06 169.56 236.64 169.32 236.22 169.26L235.14 168.9Z" fill="#37474F"/>
<path d="M231.3 172.08C231.54 171.66 231.96 171.36 232.38 171.36C233.04 171.24 234.24 171.72 235.02 172.32C235.26 172.5 235.32 172.86 235.08 173.1C235.02 173.16 234.96 173.22 234.9 173.22C234.72 173.34 234.42 173.28 234.24 173.16C233.46 172.44 232.38 172.08 231.3 172.08Z" fill="#F5F5F5"/>
<path d="M229.2 173.28C229.5 172.86 229.98 172.62 230.52 172.62C231.54 172.68 232.56 173.04 233.4 173.7C233.64 173.88 233.64 174.24 233.46 174.48C233.4 174.54 233.34 174.6 233.28 174.6C233.1 174.72 232.86 174.66 232.68 174.54C231.78 173.58 230.52 173.16 229.2 173.28Z" fill="#F5F5F5"/>
<path d="M226.86 174.36C227.22 174 227.7 173.76 228.24 173.76C229.26 173.82 230.22 174.18 231 174.84C231.24 175.02 231.24 175.38 231.06 175.62C231 175.68 230.94 175.74 230.88 175.74C230.7 175.86 230.46 175.8 230.28 175.68C229.44 174.72 228.18 174.18 226.86 174.36Z" fill="#F5F5F5"/>
<path d="M259.8 96.96C260.16 108.72 260.16 137.16 260.16 137.16C260.28 138.6 260.88 141.6 261.36 147.48C262.02 155.1 260.64 171.84 260.64 171.84C258.66 172.68 256.44 172.68 254.52 171.9C254.52 171.9 250.86 148.02 249.72 140.52C248.7 133.92 246.66 119.04 246.66 119.04L244.32 138.36C244.62 141.6 244.56 144.84 244.08 148.02C243.54 151.5 241.14 165.72 241.14 165.72C238.86 166.26 236.52 166.2 234.3 165.48C234.3 165.48 234.06 140.76 234 137.58C233.94 133.92 235.62 94.08 235.62 94.08L259.8 96.96Z" fill="#37474F"/>
<path d="M246.6 119.04L244.86 109.38C244.86 109.38 240.06 108.96 237.36 106.26C237.36 106.26 237.84 108.9 243.9 110.46L245.64 120.24L244.26 138.36L246.6 119.04Z" fill="#263238"/>
<path d="M236.22 75.96C236.76 72.18 237.24 67.14 243.06 66.9L250.62 67.26C252.48 67.74 259.68 68.58 259.68 68.58L259.8 84.9C259.8 84.9 260.28 96.66 260.1 102.96C254.7 106.38 243 107.52 235.62 101.88C235.44 96.78 235.74 79.68 236.22 75.96Z" fill="#FAFAFA"/>
<path d="M237.24 47.52C235.2 51.12 236.46 55.68 240.06 57.66C240.24 57.78 240.36 57.84 240.54 57.9L239.16 58.86L252.72 60.06L252.54 63.3C253.14 63.12 253.68 62.76 253.98 62.22C254.46 61.38 255.78 56.04 255.78 56.04C257.04 53.1 257.7 50.1 256.74 49.14C256.38 48.72 255.9 48.48 255.42 48.36L257.22 47.46C256.92 46.74 256.02 46.38 255.3 46.74H255.24C255.06 46.8 254.94 46.92 254.82 47.04C254.88 46.86 254.88 46.62 254.88 46.44C254.94 45.84 254.82 45.24 254.46 44.76C254.22 44.4 253.86 44.16 253.5 43.92C252 42.96 250.2 42.6 248.46 42C247.5 41.64 246.6 41.22 245.64 40.86C245.04 40.56 244.32 40.44 243.66 40.5C242.94 40.62 242.46 41.28 242.58 42C241.8 41.28 240.72 41.16 239.76 41.58C238.86 41.94 238.32 42.84 238.38 43.8C237.78 43.62 237.12 43.74 236.52 43.98C235.92 44.28 235.56 44.88 235.62 45.48C235.98 46.32 236.52 47.04 237.24 47.52Z" fill="#37474F"/>
<path d="M246.72 49.44C247.98 49.32 249.18 49.08 250.44 48.9C250.56 48.84 250.68 48.9 250.74 48.96C250.8 49.02 250.8 49.08 250.86 49.14C251.7 51.54 251.64 54.06 252.3 56.52C252.36 56.76 252.48 57.12 252.78 57.12C253.26 57.18 253.62 56.76 253.8 56.4L254.28 55.56C254.4 55.38 254.52 55.26 254.64 55.14C255.24 54.6 256.92 53.94 257.76 55.8C258.6 57.66 256.86 60.12 255.48 60.48C253.08 61.14 252.78 59.64 252.78 59.64L252.3 68.16C250.2 70.38 243.24 69.6 244.62 67.68L244.68 65.1C243.6 65.22 242.58 65.28 241.5 65.16C239.76 64.86 238.74 63.42 238.26 61.56C237.54 58.5 237.6 54.78 238.2 50.16C238.26 49.62 238.44 49.08 238.62 48.54C241.02 49.8 243.96 49.74 246.72 49.44Z" fill="#FFA8A7"/>
<path d="M244.68 64.98C244.68 64.98 248.58 64.32 249.96 63.66C250.8 63.24 251.46 62.64 251.88 61.86C251.64 62.64 251.28 63.36 250.74 64.02C249.72 65.28 244.62 66 244.62 66L244.68 64.98Z" fill="#F28F8F"/>
<path d="M245.22 55.38C245.22 55.86 245.58 56.22 246.06 56.22C246.54 56.22 246.9 55.86 246.9 55.38C246.9 54.96 246.54 54.54 246.12 54.54C245.64 54.54 245.28 54.9 245.22 55.38Z" fill="#263238"/>
<path d="M246.42 51.96L248.16 52.68C248.34 52.2 248.16 51.6 247.62 51.42C247.14 51.18 246.6 51.42 246.42 51.96C246.42 51.9 246.42 51.9 246.42 51.96Z" fill="#263238"/>
<path d="M246.24 59.94L243.48 60.9C243.72 61.68 244.5 62.1 245.22 61.86H245.28C246.06 61.56 246.48 60.72 246.24 59.94Z" fill="#B16668"/>
<path d="M245.34 61.8C245.82 61.62 246.18 61.26 246.3 60.78C245.7 60.48 244.98 60.72 244.68 61.32C244.62 61.5 244.56 61.68 244.56 61.8C244.8 61.92 245.1 61.86 245.34 61.8Z" fill="#F28F8F"/>
<path d="M238.32 52.62L240.06 51.96C239.88 51.48 239.4 51.24 238.92 51.42H238.86C238.38 51.6 238.14 52.14 238.32 52.62Z" fill="#263238"/>
<path d="M238.92 55.38C238.92 55.86 239.28 56.22 239.76 56.22C240.24 56.22 240.6 55.86 240.6 55.38C240.6 54.9 240.24 54.54 239.76 54.54C239.34 54.54 238.92 54.9 238.92 55.38Z" fill="#263238"/>
<path d="M243 55.14L242.88 59.76L240.3 59.04L242.7 55.14C242.82 55.08 242.88 55.08 243 55.14Z" fill="#F28F8F"/>
<path d="M235.32 80.64C235.5 75.9 235.92 71.64 237.66 69.42C239.4 67.2 240.36 66.78 244.62 66.84V67.14C244.14 67.2 243.72 67.44 243.42 67.86C241.98 70.08 240.84 72.48 240.18 75.06C238.98 79.68 238.74 90.06 238.68 95.64C238.62 101.22 238.68 105.72 238.68 105.72C238.68 105.72 235.86 105.06 235.02 103.68C234.96 103.56 235.14 85.44 235.32 80.64Z" fill="#00FFE6"/>
<path opacity="0.35" d="M235.32 80.64C235.5 75.9 235.92 71.64 237.66 69.42C239.4 67.2 240.36 66.78 244.62 66.84V67.14C244.14 67.2 243.72 67.44 243.42 67.86C241.98 70.08 240.84 72.48 240.18 75.06C238.98 79.68 238.74 90.06 238.68 95.64C238.62 101.22 238.68 105.72 238.68 105.72C238.68 105.72 235.86 105.06 235.02 103.68C234.96 103.56 235.14 85.44 235.32 80.64Z" fill="black"/>
<path d="M249.9 73.08C250.5 70.56 251.76 68.88 252.3 67.56L257.58 68.28C259.5 69.18 262.02 71.28 261.84 73.44L260.46 89.1L260.82 103.92C257.82 108.6 248.82 107.76 248.82 107.76C248.82 107.76 248.58 101.1 248.82 88.26C249.06 80.94 249.12 76.32 249.9 73.08Z" fill="#00FFE6"/>
<path opacity="0.35" d="M249.9 73.08C250.5 70.56 251.76 68.88 252.3 67.56L257.58 68.28C259.5 69.18 262.02 71.28 261.84 73.44L260.46 89.1L260.82 103.92C257.82 108.6 248.82 107.76 248.82 107.76C248.82 107.76 248.58 101.1 248.82 88.26C249.06 80.94 249.12 76.32 249.9 73.08Z" fill="black"/>
<path d="M249.66 74.28C250.02 72.66 250.2 69.6 250.5 69C250.8 68.4 252.36 67.2 252.42 66.36V65.82C252.9 65.94 253.38 66.18 253.74 66.48C254.22 66.9 255.66 67.92 255.66 67.92C255.54 68.94 255.12 69.9 254.58 70.74C253.74 72 252.54 72.78 252.3 72.48C252.06 72.18 252.12 71.7 251.82 70.98C251.4 70.08 251.34 69.66 250.92 70.56C250.62 71.34 249.66 74.28 249.66 74.28Z" fill="#37474F"/>
<path d="M240.66 73.44C240.24 74.82 241.38 68.7 242.1 67.62C242.82 66.54 244.68 66.12 244.68 66.12L244.62 67.44C244.14 67.56 243.72 67.86 243.42 68.28C242.28 69.84 241.32 71.58 240.66 73.44Z" fill="#37474F"/>
<path d="M249.48 75.6C253.5 76.02 257.52 76.62 261.48 77.46L261.42 77.88C257.46 77.04 253.44 76.38 249.42 76.02C249.42 75.9 249.42 75.78 249.48 75.6Z" fill="#00FFE6"/>
<path d="M235.68 75.54C237 75.36 238.5 75.24 240.12 75.18L240 75.66C238.38 75.72 236.88 75.9 235.62 76.02C235.68 75.84 235.68 75.66 235.68 75.54Z" fill="#00FFE6"/>
<path d="M271.68 89.34C266.04 75.06 264.84 70.62 260.88 68.94C259.86 68.52 258.72 68.28 257.58 68.22C256.62 70.02 255.18 76.92 259.86 81.72C259.86 81.72 263.28 90.12 264.96 94.08C264.9 98.1 265.2 101.4 264 106.8C263.76 107.52 263.28 108.18 262.62 108.6C261.18 109.38 260.94 110.28 259.92 111.3C259.08 112.08 258.36 112.26 258.48 112.56C258.84 113.16 259.62 113.4 260.28 113.22C261.06 112.92 261.78 112.5 262.5 112.08C262.62 112.26 261.3 114.36 259.92 115.92C257.88 118.2 257.34 119.88 261.48 120C264.06 120.12 266.82 117.96 268.56 112.86C268.92 111.84 269.28 110.4 269.64 108.96C269.88 108.36 271.8 98.7 272.16 95.76C272.7 92.16 272.58 91.68 271.68 89.34Z" fill="#FFA8A7"/>
<path d="M256.86 68.28C258.6 68.04 260.34 68.34 261.84 69.18C264.06 70.5 264.84 71.7 267.54 77.94C270.24 84.18 270.78 85.38 270.78 85.38C270.78 85.38 269.58 88.92 262.44 89.34L259.2 82.02C259.2 82.02 256.56 78.72 256.26 74.58C255.96 70.44 256.86 68.28 256.86 68.28Z" fill="#00FFE6"/>
<path opacity="0.45" d="M256.86 68.28C258.6 68.04 260.34 68.34 261.84 69.18C264.06 70.5 264.84 71.7 267.54 77.94C270.24 84.18 270.78 85.38 270.78 85.38C270.78 85.38 269.58 88.92 262.44 89.34L259.2 82.02C259.2 82.02 256.56 78.72 256.26 74.58C255.96 70.44 256.86 68.28 256.86 68.28Z" fill="black"/>
</svg>
