<svg width="12" height="11" viewBox="0 0 12 11" fill="none" xmlns="http://www.w3.org/2000/svg">
<path d="M11.2123 4.56563C11.1654 4.41796 11.0749 4.28792 10.9528 4.19256C10.8307 4.09721 10.6826 4.04098 10.528 4.03125L7.74358 3.83906L6.71233 1.2375C6.65602 1.09425 6.55801 0.971205 6.43098 0.884289C6.30395 0.797374 6.15375 0.750592 5.99983 0.75C5.84592 0.750592 5.69572 0.797374 5.56869 0.884289C5.44166 0.971205 5.34364 1.09425 5.28733 1.2375L4.23733 3.85312L1.47171 4.03125C1.31726 4.04161 1.16947 4.09807 1.04746 4.19334C0.925449 4.28861 0.834833 4.4183 0.787334 4.56563C0.738556 4.71521 0.735706 4.87598 0.779151 5.02721C0.822597 5.17843 0.910346 5.31317 1.03108 5.41406L3.15921 7.21406L2.5264 9.70312C2.48261 9.87151 2.49049 10.0492 2.54901 10.213C2.60753 10.3769 2.71398 10.5193 2.85452 10.6219C2.99094 10.7198 3.15348 10.7748 3.32132 10.7798C3.48917 10.7848 3.65469 10.7396 3.79671 10.65L5.99515 9.25781H6.00452L8.37171 10.7531C8.49314 10.832 8.63471 10.8743 8.77952 10.875C8.89776 10.8741 9.01422 10.846 9.11993 10.7931C9.22565 10.7401 9.31781 10.6636 9.38934 10.5694C9.46086 10.4753 9.50985 10.366 9.53252 10.2499C9.5552 10.1339 9.55097 10.0142 9.52015 9.9L8.84983 7.17656L10.9686 5.41406C11.0893 5.31317 11.1771 5.17843 11.2205 5.02721C11.264 4.87598 11.2611 4.71521 11.2123 4.56563Z" fill="#F1C400"/>
</svg>
