<svg width="15" height="14" viewBox="0 0 15 14" fill="none" xmlns="http://www.w3.org/2000/svg">
<path d="M4.16662 13.4871C3.25599 13.4172 2.39073 13.0614 1.69439 12.4704C0.998057 11.8794 0.506249 11.0835 0.289194 10.1964C0.0721389 9.30922 0.140935 8.37617 0.48576 7.53046C0.830584 6.68474 1.43381 5.96959 2.20929 5.48714C2.3743 4.20053 3.00249 3.01814 3.9763 2.16124C4.95012 1.30434 6.20281 0.831665 7.49996 0.831665C8.7971 0.831665 10.0498 1.30434 11.0236 2.16124C11.9974 3.01814 12.6256 4.20053 12.7906 5.48714C13.5661 5.96959 14.1693 6.68474 14.5142 7.53046C14.859 8.37617 14.9278 9.30922 14.7107 10.1964C14.4937 11.0835 14.0019 11.8794 13.3055 12.4704C12.6092 13.0614 11.7439 13.4172 10.8333 13.4871V13.4998H4.16662V13.4871ZM8.16662 8.16647H10.1666L7.49996 4.83314L4.83329 8.16647H6.83329V10.8331H8.16662V8.16647Z" fill="white"/>
</svg>
