<svg width="248" height="67" viewBox="0 0 248 67" fill="none" xmlns="http://www.w3.org/2000/svg">
<path d="M10 10.625C11.3807 10.625 12.5 9.50571 12.5 8.125C12.5 6.74429 11.3807 5.625 10 5.625C8.61929 5.625 7.5 6.74429 7.5 8.125C7.5 9.50571 8.61929 10.625 10 10.625Z" stroke="#3A4662" stroke-width="1.5" stroke-linecap="round" stroke-linejoin="round"/>
<path d="M16.25 8.125C16.25 13.75 10 18.125 10 18.125C10 18.125 3.75 13.75 3.75 8.125C3.75 6.4674 4.40848 4.87769 5.58058 3.70558C6.75269 2.53348 8.3424 1.875 10 1.875C11.6576 1.875 13.2473 2.53348 14.4194 3.70558C15.5915 4.87769 16.25 6.4674 16.25 8.125V8.125Z" stroke="#3A4662" stroke-width="1.5" stroke-linecap="round" stroke-linejoin="round"/>
<path d="M32.8123 7.48C32.8123 7.3 32.7756 7.13 32.7023 6.97C32.6356 6.81 32.5423 6.67333 32.4223 6.56C32.309 6.44 32.1723 6.34667 32.0123 6.28C31.8523 6.20667 31.6823 6.17 31.5023 6.17C31.3223 6.17 31.1523 6.20667 30.9923 6.28C30.8323 6.34667 30.6923 6.44 30.5723 6.56C30.459 6.67333 30.3656 6.81 30.2923 6.97C30.2256 7.13 30.1923 7.3 30.1923 7.48C30.1923 7.66 30.2256 7.83 30.2923 7.99C30.3656 8.15 30.459 8.29 30.5723 8.41C30.6923 8.52333 30.8323 8.61667 30.9923 8.69C31.1523 8.75667 31.3223 8.79 31.5023 8.79C31.6823 8.79 31.8523 8.75667 32.0123 8.69C32.1723 8.61667 32.309 8.52333 32.4223 8.41C32.5423 8.29 32.6356 8.15 32.7023 7.99C32.7756 7.83 32.8123 7.66 32.8123 7.48ZM45.14 9.61L40.73 4H39.99V11H40.76V5.26L45.28 11H45.91V4H45.14V9.61ZM50.8704 4H47.8904V11H51.0004C51.3804 11 51.7271 10.9567 52.0404 10.87C52.3537 10.7833 52.6204 10.66 52.8404 10.5C53.0671 10.3333 53.2404 10.13 53.3604 9.89C53.4804 9.65 53.5404 9.38 53.5404 9.08C53.5404 8.84 53.5004 8.62667 53.4204 8.44C53.3404 8.25333 53.2337 8.09333 53.1004 7.96C52.9671 7.82667 52.8071 7.71333 52.6204 7.62C52.4404 7.52 52.2471 7.44 52.0404 7.38C52.1804 7.32 52.3137 7.24667 52.4404 7.16C52.5737 7.06667 52.6937 6.95333 52.8004 6.82C52.9071 6.68667 52.9904 6.53333 53.0504 6.36C53.1171 6.18667 53.1504 5.98333 53.1504 5.75C53.1504 5.48333 53.0971 5.24333 52.9904 5.03C52.8837 4.81 52.7304 4.62667 52.5304 4.48C52.3304 4.32667 52.0904 4.21 51.8104 4.13C51.5304 4.04333 51.2171 4 50.8704 4ZM50.7404 7.12H48.6704V4.71H50.8004C51.3004 4.71 51.6837 4.81333 51.9504 5.02C52.2171 5.22667 52.3504 5.50667 52.3504 5.86C52.3504 6.27333 52.2004 6.58667 51.9004 6.8C51.6004 7.01333 51.2137 7.12 50.7404 7.12ZM51.0204 10.29H48.6704V7.82H50.8804C51.4937 7.82 51.9571 7.92667 52.2704 8.14C52.5837 8.34667 52.7404 8.64333 52.7404 9.03C52.7404 9.43 52.5871 9.74 52.2804 9.96C51.9737 10.18 51.5537 10.29 51.0204 10.29ZM58.0872 4H55.1072V11H58.2172C58.5972 11 58.9439 10.9567 59.2572 10.87C59.5705 10.7833 59.8372 10.66 60.0572 10.5C60.2839 10.3333 60.4572 10.13 60.5772 9.89C60.6972 9.65 60.7572 9.38 60.7572 9.08C60.7572 8.84 60.7172 8.62667 60.6372 8.44C60.5572 8.25333 60.4505 8.09333 60.3172 7.96C60.1839 7.82667 60.0239 7.71333 59.8372 7.62C59.6572 7.52 59.4639 7.44 59.2572 7.38C59.3972 7.32 59.5305 7.24667 59.6572 7.16C59.7905 7.06667 59.9105 6.95333 60.0172 6.82C60.1239 6.68667 60.2072 6.53333 60.2672 6.36C60.3339 6.18667 60.3672 5.98333 60.3672 5.75C60.3672 5.48333 60.3139 5.24333 60.2072 5.03C60.1005 4.81 59.9472 4.62667 59.7472 4.48C59.5472 4.32667 59.3072 4.21 59.0272 4.13C58.7472 4.04333 58.4339 4 58.0872 4ZM57.9572 7.12H55.8872V4.71H58.0172C58.5172 4.71 58.9005 4.81333 59.1672 5.02C59.4339 5.22667 59.5672 5.50667 59.5672 5.86C59.5672 6.27333 59.4172 6.58667 59.1172 6.8C58.8172 7.01333 58.4305 7.12 57.9572 7.12ZM58.2372 10.29H55.8872V7.82H58.0972C58.7105 7.82 59.1739 7.92667 59.4872 8.14C59.8005 8.34667 59.9572 8.64333 59.9572 9.03C59.9572 9.43 59.8039 9.74 59.4972 9.96C59.1905 10.18 58.7705 10.29 58.2372 10.29ZM67.972 4.73H70.322V4H64.822V4.73H67.172V11H67.972V4.73ZM75.4769 8.41C75.4769 8.04333 75.4102 7.69667 75.2769 7.37C75.1435 7.04333 74.9569 6.76 74.7169 6.52C74.4769 6.27333 74.1902 6.08 73.8569 5.94C73.5302 5.79333 73.1735 5.72 72.7869 5.72C72.3935 5.72 72.0302 5.79333 71.6969 5.94C71.3702 6.08 71.0869 6.27333 70.8469 6.52C70.6069 6.76667 70.4202 7.05667 70.2869 7.39C70.1535 7.71667 70.0869 8.06333 70.0869 8.43C70.0869 8.79667 70.1535 9.14333 70.2869 9.47C70.4202 9.79667 70.6069 10.0833 70.8469 10.33C71.0869 10.57 71.3702 10.7633 71.6969 10.91C72.0235 11.05 72.3802 11.12 72.7669 11.12C73.1535 11.12 73.5135 11.05 73.8469 10.91C74.1802 10.7633 74.4669 10.5667 74.7069 10.32C74.9469 10.0733 75.1335 9.78667 75.2669 9.46C75.4069 9.12667 75.4769 8.77667 75.4769 8.41ZM74.6869 8.43C74.6869 8.71 74.6402 8.97333 74.5469 9.22C74.4535 9.46 74.3235 9.67 74.1569 9.85C73.9902 10.03 73.7902 10.1733 73.5569 10.28C73.3235 10.38 73.0669 10.43 72.7869 10.43C72.5135 10.43 72.2602 10.3767 72.0269 10.27C71.7935 10.1633 71.5902 10.02 71.4169 9.84C71.2502 9.66 71.1169 9.44667 71.0169 9.2C70.9235 8.95333 70.8769 8.69 70.8769 8.41C70.8769 8.13 70.9235 7.87 71.0169 7.63C71.1102 7.38333 71.2369 7.17 71.3969 6.99C71.5635 6.80333 71.7635 6.66 71.9969 6.56C72.2302 6.45333 72.4869 6.4 72.7669 6.4C73.0402 6.4 73.2935 6.45333 73.5269 6.56C73.7602 6.66667 73.9635 6.81333 74.1369 7C74.3102 7.18 74.4435 7.39333 74.5369 7.64C74.6369 7.88667 74.6869 8.15 74.6869 8.43ZM80.3878 5.81H79.7478L78.3578 9.98L76.9978 5.83H76.1778L77.9878 11.04H78.6678L80.0678 6.96L81.4578 11.04H82.1278L83.9478 5.83H83.1478L81.7878 9.98L80.3878 5.81ZM85.4372 8.7H89.5372C89.5439 8.65333 89.5472 8.61 89.5472 8.57C89.5472 8.53 89.5472 8.49333 89.5472 8.46C89.5472 8.08 89.4939 7.72333 89.3872 7.39C89.2805 7.05667 89.1239 6.76667 88.9172 6.52C88.7105 6.27333 88.4572 6.08 88.1572 5.94C87.8572 5.79333 87.5172 5.72 87.1372 5.72C86.7772 5.72 86.4439 5.79 86.1372 5.93C85.8372 6.07 85.5772 6.26333 85.3572 6.51C85.1372 6.75 84.9639 7.03667 84.8372 7.37C84.7172 7.69667 84.6572 8.04667 84.6572 8.42C84.6572 8.82 84.7239 9.18667 84.8572 9.52C84.9972 9.85333 85.1839 10.14 85.4172 10.38C85.6505 10.6133 85.9239 10.7967 86.2372 10.93C86.5505 11.0567 86.8839 11.12 87.2372 11.12C87.7305 11.12 88.1439 11.0333 88.4772 10.86C88.8105 10.68 89.1072 10.4433 89.3672 10.15L88.8872 9.72C88.6739 9.94 88.4372 10.1167 88.1772 10.25C87.9239 10.3833 87.6172 10.45 87.2572 10.45C87.0305 10.45 86.8139 10.4133 86.6072 10.34C86.4005 10.26 86.2139 10.1467 86.0472 10C85.8805 9.84667 85.7439 9.66333 85.6372 9.45C85.5305 9.23 85.4639 8.98 85.4372 8.7ZM85.4372 8.13C85.4639 7.87667 85.5239 7.64333 85.6172 7.43C85.7105 7.21667 85.8305 7.03333 85.9772 6.88C86.1239 6.72 86.2939 6.59667 86.4872 6.51C86.6805 6.41667 86.8905 6.37 87.1172 6.37C87.3772 6.37 87.6039 6.42 87.7972 6.52C87.9972 6.61333 88.1639 6.74 88.2972 6.9C88.4372 7.06 88.5439 7.24667 88.6172 7.46C88.6972 7.67333 88.7472 7.89667 88.7672 8.13H85.4372ZM91.6652 8.94C91.6652 8.55333 91.7185 8.21333 91.8252 7.92C91.9318 7.62 92.0785 7.37 92.2652 7.17C92.4518 6.97 92.6685 6.82 92.9152 6.72C93.1685 6.62 93.4352 6.57 93.7152 6.57H93.7752V5.74C93.5285 5.73333 93.2985 5.76333 93.0852 5.83C92.8718 5.89667 92.6752 5.99667 92.4952 6.13C92.3152 6.25667 92.1552 6.41 92.0152 6.59C91.8752 6.77 91.7585 6.96667 91.6652 7.18V5.83H90.8952V11H91.6652V8.94ZM97.3659 4.54L97.5559 5.18L98.8759 4.77V11H99.6559V3.95H99.0759L97.3659 4.54ZM101.66 7.41L102.19 7.76C102.397 7.64667 102.617 7.55333 102.85 7.48C103.09 7.4 103.36 7.36 103.66 7.36C103.92 7.36 104.157 7.39667 104.37 7.47C104.583 7.54333 104.767 7.64667 104.92 7.78C105.073 7.90667 105.19 8.06 105.27 8.24C105.357 8.42 105.4 8.62 105.4 8.84C105.4 9.06667 105.357 9.27667 105.27 9.47C105.19 9.65667 105.077 9.82 104.93 9.96C104.783 10.1 104.603 10.21 104.39 10.29C104.183 10.3633 103.957 10.4 103.71 10.4C103.35 10.4 103.003 10.3167 102.67 10.15C102.343 9.97667 102.027 9.74 101.72 9.44L101.2 10.01C101.52 10.33 101.89 10.5967 102.31 10.81C102.737 11.0167 103.2 11.12 103.7 11.12C104.067 11.12 104.403 11.0667 104.71 10.96C105.017 10.8467 105.28 10.69 105.5 10.49C105.72 10.2833 105.89 10.04 106.01 9.76C106.137 9.47333 106.2 9.15667 106.2 8.81C106.2 8.47667 106.137 8.17667 106.01 7.91C105.89 7.64333 105.72 7.42 105.5 7.24C105.28 7.05333 105.023 6.91 104.73 6.81C104.437 6.71 104.12 6.66 103.78 6.66C103.487 6.66 103.233 6.69 103.02 6.75C102.813 6.80333 102.607 6.87667 102.4 6.97L102.55 4.73H105.89V4H101.86L101.66 7.41ZM108.693 6.51H110.333V5.83H108.693V4.27H107.923V5.83H107.203V6.51H107.923V9.63C107.923 9.89 107.96 10.1133 108.033 10.3C108.106 10.4867 108.206 10.64 108.333 10.76C108.466 10.8733 108.623 10.9567 108.803 11.01C108.983 11.0633 109.176 11.09 109.383 11.09C109.57 11.09 109.736 11.07 109.883 11.03C110.036 10.9967 110.18 10.9433 110.313 10.87V10.21C110.18 10.2767 110.053 10.3233 109.933 10.35C109.82 10.3767 109.696 10.39 109.563 10.39C109.303 10.39 109.093 10.3267 108.933 10.2C108.773 10.0733 108.693 9.85 108.693 9.53V6.51ZM112.466 8.04C112.466 7.8 112.503 7.58 112.576 7.38C112.656 7.18 112.766 7.01 112.906 6.87C113.046 6.72333 113.209 6.61333 113.396 6.54C113.589 6.46 113.796 6.42 114.016 6.42C114.476 6.42 114.829 6.56 115.076 6.84C115.323 7.12 115.446 7.5 115.446 7.98V11H116.216V7.79C116.216 7.48333 116.169 7.20333 116.076 6.95C115.989 6.69667 115.859 6.48 115.686 6.3C115.519 6.11333 115.313 5.97 115.066 5.87C114.826 5.77 114.549 5.72 114.236 5.72C113.789 5.72 113.426 5.82 113.146 6.02C112.866 6.21333 112.639 6.45 112.466 6.73V3.7H111.696V11H112.466V8.04ZM121.906 5.85V5.43C121.906 4.69667 122.206 4.33 122.806 4.33C122.939 4.33 123.063 4.34333 123.176 4.37C123.289 4.39 123.416 4.42 123.556 4.46V3.79C123.429 3.74333 123.299 3.71 123.166 3.69C123.039 3.67 122.886 3.66 122.706 3.66C122.206 3.66 121.819 3.80667 121.546 4.1C121.279 4.39333 121.146 4.82333 121.146 5.39V5.84H120.436V6.51H121.146V11H121.916V6.51H123.546V5.85H121.906ZM125.368 11V3.7H124.598V11H125.368ZM132.225 8.41C132.225 8.04333 132.158 7.69667 132.025 7.37C131.892 7.04333 131.705 6.76 131.465 6.52C131.225 6.27333 130.938 6.08 130.605 5.94C130.278 5.79333 129.922 5.72 129.535 5.72C129.142 5.72 128.778 5.79333 128.445 5.94C128.118 6.08 127.835 6.27333 127.595 6.52C127.355 6.76667 127.168 7.05667 127.035 7.39C126.902 7.71667 126.835 8.06333 126.835 8.43C126.835 8.79667 126.902 9.14333 127.035 9.47C127.168 9.79667 127.355 10.0833 127.595 10.33C127.835 10.57 128.118 10.7633 128.445 10.91C128.772 11.05 129.128 11.12 129.515 11.12C129.902 11.12 130.262 11.05 130.595 10.91C130.928 10.7633 131.215 10.5667 131.455 10.32C131.695 10.0733 131.882 9.78667 132.015 9.46C132.155 9.12667 132.225 8.77667 132.225 8.41ZM131.435 8.43C131.435 8.71 131.388 8.97333 131.295 9.22C131.202 9.46 131.072 9.67 130.905 9.85C130.738 10.03 130.538 10.1733 130.305 10.28C130.072 10.38 129.815 10.43 129.535 10.43C129.262 10.43 129.008 10.3767 128.775 10.27C128.542 10.1633 128.338 10.02 128.165 9.84C127.998 9.66 127.865 9.44667 127.765 9.2C127.672 8.95333 127.625 8.69 127.625 8.41C127.625 8.13 127.672 7.87 127.765 7.63C127.858 7.38333 127.985 7.17 128.145 6.99C128.312 6.80333 128.512 6.66 128.745 6.56C128.978 6.45333 129.235 6.4 129.515 6.4C129.788 6.4 130.042 6.45333 130.275 6.56C130.508 6.66667 130.712 6.81333 130.885 7C131.058 7.18 131.192 7.39333 131.285 7.64C131.385 7.88667 131.435 8.15 131.435 8.43ZM138.69 8.41C138.69 8.04333 138.623 7.69667 138.49 7.37C138.356 7.04333 138.17 6.76 137.93 6.52C137.69 6.27333 137.403 6.08 137.07 5.94C136.743 5.79333 136.386 5.72 136 5.72C135.606 5.72 135.243 5.79333 134.91 5.94C134.583 6.08 134.3 6.27333 134.06 6.52C133.82 6.76667 133.633 7.05667 133.5 7.39C133.366 7.71667 133.3 8.06333 133.3 8.43C133.3 8.79667 133.366 9.14333 133.5 9.47C133.633 9.79667 133.82 10.0833 134.06 10.33C134.3 10.57 134.583 10.7633 134.91 10.91C135.236 11.05 135.593 11.12 135.98 11.12C136.366 11.12 136.726 11.05 137.06 10.91C137.393 10.7633 137.68 10.5667 137.92 10.32C138.16 10.0733 138.346 9.78667 138.48 9.46C138.62 9.12667 138.69 8.77667 138.69 8.41ZM137.9 8.43C137.9 8.71 137.853 8.97333 137.76 9.22C137.666 9.46 137.536 9.67 137.37 9.85C137.203 10.03 137.003 10.1733 136.77 10.28C136.536 10.38 136.28 10.43 136 10.43C135.726 10.43 135.473 10.3767 135.24 10.27C135.006 10.1633 134.803 10.02 134.63 9.84C134.463 9.66 134.33 9.44667 134.23 9.2C134.136 8.95333 134.09 8.69 134.09 8.41C134.09 8.13 134.136 7.87 134.23 7.63C134.323 7.38333 134.45 7.17 134.61 6.99C134.776 6.80333 134.976 6.66 135.21 6.56C135.443 6.45333 135.7 6.4 135.98 6.4C136.253 6.4 136.506 6.45333 136.74 6.56C136.973 6.66667 137.176 6.81333 137.35 7C137.523 7.18 137.656 7.39333 137.75 7.64C137.85 7.88667 137.9 8.15 137.9 8.43ZM140.855 8.94C140.855 8.55333 140.908 8.21333 141.015 7.92C141.121 7.62 141.268 7.37 141.455 7.17C141.641 6.97 141.858 6.82 142.105 6.72C142.358 6.62 142.625 6.57 142.905 6.57H142.965V5.74C142.718 5.73333 142.488 5.76333 142.275 5.83C142.061 5.89667 141.865 5.99667 141.685 6.13C141.505 6.25667 141.345 6.41 141.205 6.59C141.065 6.77 140.948 6.96667 140.855 7.18V5.83H140.085V11H140.855V8.94ZM142.839 11.87L142.959 12.22C143.339 12.1333 143.619 11.9833 143.799 11.77C143.979 11.5633 144.069 11.2567 144.069 10.85V9.95H143.149V11H143.509C143.529 11.2133 143.486 11.3867 143.379 11.52C143.272 11.66 143.092 11.7767 142.839 11.87ZM155.648 7.49C155.648 7.00333 155.561 6.54333 155.388 6.11C155.221 5.67 154.981 5.28667 154.668 4.96C154.355 4.62667 153.978 4.36333 153.538 4.17C153.105 3.97667 152.621 3.88 152.088 3.88C151.555 3.88 151.068 3.98 150.628 4.18C150.188 4.37333 149.811 4.63667 149.498 4.97C149.185 5.30333 148.941 5.69 148.768 6.13C148.595 6.56333 148.508 7.02333 148.508 7.51C148.508 7.99667 148.591 8.46 148.758 8.9C148.931 9.33333 149.175 9.71667 149.488 10.05C149.801 10.3767 150.175 10.6367 150.608 10.83C151.048 11.0233 151.535 11.12 152.068 11.12C152.601 11.12 153.088 11.0233 153.528 10.83C153.968 10.63 154.345 10.3633 154.658 10.03C154.971 9.69667 155.215 9.31333 155.388 8.88C155.561 8.44 155.648 7.97667 155.648 7.49ZM154.828 7.51C154.828 7.91 154.758 8.28667 154.618 8.64C154.485 8.98667 154.298 9.29 154.058 9.55C153.818 9.81 153.528 10.0167 153.188 10.17C152.855 10.3167 152.488 10.39 152.088 10.39C151.688 10.39 151.318 10.3133 150.978 10.16C150.645 10.0067 150.355 9.8 150.108 9.54C149.861 9.28 149.668 8.97333 149.528 8.62C149.395 8.26667 149.328 7.89 149.328 7.49C149.328 7.09 149.395 6.71667 149.528 6.37C149.668 6.01667 149.858 5.71 150.098 5.45C150.338 5.19 150.625 4.98667 150.958 4.84C151.298 4.68667 151.668 4.61 152.068 4.61C152.468 4.61 152.835 4.68667 153.168 4.84C153.508 4.99333 153.801 5.2 154.048 5.46C154.295 5.72 154.485 6.02667 154.618 6.38C154.758 6.73333 154.828 7.11 154.828 7.51ZM158.234 5.85V5.43C158.234 4.69667 158.534 4.33 159.134 4.33C159.268 4.33 159.391 4.34333 159.504 4.37C159.618 4.39 159.744 4.42 159.884 4.46V3.79C159.758 3.74333 159.628 3.71 159.494 3.69C159.368 3.67 159.214 3.66 159.034 3.66C158.534 3.66 158.148 3.80667 157.874 4.1C157.608 4.39333 157.474 4.82333 157.474 5.39V5.84H156.764V6.51H157.474V11H158.244V6.51H159.874V5.85H158.234ZM161.906 5.85V5.43C161.906 4.69667 162.206 4.33 162.806 4.33C162.939 4.33 163.063 4.34333 163.176 4.37C163.289 4.39 163.416 4.42 163.556 4.46V3.79C163.429 3.74333 163.299 3.71 163.166 3.69C163.039 3.67 162.886 3.66 162.706 3.66C162.206 3.66 161.819 3.80667 161.546 4.1C161.279 4.39333 161.146 4.82333 161.146 5.39V5.84H160.436V6.51H161.146V11H161.916V6.51H163.546V5.85H161.906ZM165.428 4.7V3.85H164.548V4.7H165.428ZM165.368 11V5.83H164.598V11H165.368ZM171.595 10.12L171.105 9.66C170.898 9.88 170.665 10.0633 170.405 10.21C170.152 10.3567 169.858 10.43 169.525 10.43C169.252 10.43 168.998 10.38 168.765 10.28C168.538 10.1733 168.338 10.03 168.165 9.85C167.998 9.66333 167.865 9.44667 167.765 9.2C167.672 8.95333 167.625 8.69 167.625 8.41C167.625 8.13 167.672 7.87 167.765 7.63C167.858 7.38333 167.988 7.17 168.155 6.99C168.322 6.80333 168.518 6.66 168.745 6.56C168.972 6.45333 169.215 6.4 169.475 6.4C169.828 6.4 170.125 6.47667 170.365 6.63C170.612 6.78333 170.838 6.96667 171.045 7.18L171.555 6.64C171.435 6.51333 171.305 6.39333 171.165 6.28C171.025 6.16667 170.872 6.07 170.705 5.99C170.538 5.90333 170.355 5.83667 170.155 5.79C169.955 5.74333 169.732 5.72 169.485 5.72C169.105 5.72 168.752 5.79333 168.425 5.94C168.105 6.08 167.825 6.27333 167.585 6.52C167.352 6.76667 167.168 7.05667 167.035 7.39C166.902 7.71667 166.835 8.06333 166.835 8.43C166.835 8.79667 166.902 9.14333 167.035 9.47C167.168 9.79667 167.352 10.0833 167.585 10.33C167.825 10.57 168.105 10.7633 168.425 10.91C168.752 11.05 169.105 11.12 169.485 11.12C169.972 11.12 170.378 11.0267 170.705 10.84C171.038 10.6533 171.335 10.4133 171.595 10.12ZM173.181 8.7H177.281C177.288 8.65333 177.291 8.61 177.291 8.57C177.291 8.53 177.291 8.49333 177.291 8.46C177.291 8.08 177.238 7.72333 177.131 7.39C177.025 7.05667 176.868 6.76667 176.661 6.52C176.455 6.27333 176.201 6.08 175.901 5.94C175.601 5.79333 175.261 5.72 174.881 5.72C174.521 5.72 174.188 5.79 173.881 5.93C173.581 6.07 173.321 6.26333 173.101 6.51C172.881 6.75 172.708 7.03667 172.581 7.37C172.461 7.69667 172.401 8.04667 172.401 8.42C172.401 8.82 172.468 9.18667 172.601 9.52C172.741 9.85333 172.928 10.14 173.161 10.38C173.395 10.6133 173.668 10.7967 173.981 10.93C174.295 11.0567 174.628 11.12 174.981 11.12C175.475 11.12 175.888 11.0333 176.221 10.86C176.555 10.68 176.851 10.4433 177.111 10.15L176.631 9.72C176.418 9.94 176.181 10.1167 175.921 10.25C175.668 10.3833 175.361 10.45 175.001 10.45C174.775 10.45 174.558 10.4133 174.351 10.34C174.145 10.26 173.958 10.1467 173.791 10C173.625 9.84667 173.488 9.66333 173.381 9.45C173.275 9.23 173.208 8.98 173.181 8.7ZM173.181 8.13C173.208 7.87667 173.268 7.64333 173.361 7.43C173.455 7.21667 173.575 7.03333 173.721 6.88C173.868 6.72 174.038 6.59667 174.231 6.51C174.425 6.41667 174.635 6.37 174.861 6.37C175.121 6.37 175.348 6.42 175.541 6.52C175.741 6.61333 175.908 6.74 176.041 6.9C176.181 7.06 176.288 7.24667 176.361 7.46C176.441 7.67333 176.491 7.89667 176.511 8.13H173.181ZM182.407 8.04C182.407 7.8 182.444 7.58 182.517 7.38C182.597 7.18 182.707 7.01 182.847 6.87C182.987 6.72333 183.151 6.61333 183.337 6.54C183.531 6.46 183.737 6.42 183.957 6.42C184.417 6.42 184.771 6.56 185.017 6.84C185.264 7.12 185.387 7.5 185.387 7.98V11H186.157V7.79C186.157 7.48333 186.111 7.20333 186.017 6.95C185.931 6.69667 185.801 6.48 185.627 6.3C185.461 6.11333 185.254 5.97 185.007 5.87C184.767 5.77 184.491 5.72 184.177 5.72C183.731 5.72 183.367 5.82 183.087 6.02C182.807 6.21333 182.581 6.45 182.407 6.73V5.83H181.637V11H182.407V8.04ZM192.869 8.41C192.869 8.04333 192.803 7.69667 192.669 7.37C192.536 7.04333 192.349 6.76 192.109 6.52C191.869 6.27333 191.583 6.08 191.249 5.94C190.923 5.79333 190.566 5.72 190.179 5.72C189.786 5.72 189.423 5.79333 189.089 5.94C188.763 6.08 188.479 6.27333 188.239 6.52C187.999 6.76667 187.813 7.05667 187.679 7.39C187.546 7.71667 187.479 8.06333 187.479 8.43C187.479 8.79667 187.546 9.14333 187.679 9.47C187.813 9.79667 187.999 10.0833 188.239 10.33C188.479 10.57 188.763 10.7633 189.089 10.91C189.416 11.05 189.773 11.12 190.159 11.12C190.546 11.12 190.906 11.05 191.239 10.91C191.573 10.7633 191.859 10.5667 192.099 10.32C192.339 10.0733 192.526 9.78667 192.659 9.46C192.799 9.12667 192.869 8.77667 192.869 8.41ZM192.079 8.43C192.079 8.71 192.033 8.97333 191.939 9.22C191.846 9.46 191.716 9.67 191.549 9.85C191.383 10.03 191.183 10.1733 190.949 10.28C190.716 10.38 190.459 10.43 190.179 10.43C189.906 10.43 189.653 10.3767 189.419 10.27C189.186 10.1633 188.983 10.02 188.809 9.84C188.643 9.66 188.509 9.44667 188.409 9.2C188.316 8.95333 188.269 8.69 188.269 8.41C188.269 8.13 188.316 7.87 188.409 7.63C188.503 7.38333 188.629 7.17 188.789 6.99C188.956 6.80333 189.156 6.66 189.389 6.56C189.623 6.45333 189.879 6.4 190.159 6.4C190.433 6.4 190.686 6.45333 190.919 6.56C191.153 6.66667 191.356 6.81333 191.529 7C191.703 7.18 191.836 7.39333 191.929 7.64C192.029 7.88667 192.079 8.15 192.079 8.43ZM194.899 11V9.95H193.979V11H194.899ZM198.938 4.54L199.128 5.18L200.448 4.77V11H201.228V3.95H200.648L198.938 4.54ZM203.232 7.41L203.762 7.76C203.969 7.64667 204.189 7.55333 204.422 7.48C204.662 7.4 204.932 7.36 205.232 7.36C205.492 7.36 205.729 7.39667 205.942 7.47C206.156 7.54333 206.339 7.64667 206.492 7.78C206.646 7.90667 206.762 8.06 206.842 8.24C206.929 8.42 206.972 8.62 206.972 8.84C206.972 9.06667 206.929 9.27667 206.842 9.47C206.762 9.65667 206.649 9.82 206.502 9.96C206.356 10.1 206.176 10.21 205.962 10.29C205.756 10.3633 205.529 10.4 205.282 10.4C204.922 10.4 204.576 10.3167 204.242 10.15C203.916 9.97667 203.599 9.74 203.292 9.44L202.772 10.01C203.092 10.33 203.462 10.5967 203.882 10.81C204.309 11.0167 204.772 11.12 205.272 11.12C205.639 11.12 205.976 11.0667 206.282 10.96C206.589 10.8467 206.852 10.69 207.072 10.49C207.292 10.2833 207.462 10.04 207.582 9.76C207.709 9.47333 207.772 9.15667 207.772 8.81C207.772 8.47667 207.709 8.17667 207.582 7.91C207.462 7.64333 207.292 7.42 207.072 7.24C206.852 7.05333 206.596 6.91 206.302 6.81C206.009 6.71 205.692 6.66 205.352 6.66C205.059 6.66 204.806 6.69 204.592 6.75C204.386 6.80333 204.179 6.87667 203.972 6.97L204.122 4.73H207.462V4H203.432L203.232 7.41ZM208.825 11.87L208.945 12.22C209.325 12.1333 209.605 11.9833 209.785 11.77C209.965 11.5633 210.055 11.2567 210.055 10.85V9.95H209.135V11H209.495C209.515 11.2133 209.472 11.3867 209.365 11.52C209.259 11.66 209.079 11.7767 208.825 11.87ZM42.97 17H39.99V24H43.1C43.48 24 43.8267 23.9567 44.14 23.87C44.4533 23.7833 44.72 23.66 44.94 23.5C45.1667 23.3333 45.34 23.13 45.46 22.89C45.58 22.65 45.64 22.38 45.64 22.08C45.64 21.84 45.6 21.6267 45.52 21.44C45.44 21.2533 45.3333 21.0933 45.2 20.96C45.0667 20.8267 44.9067 20.7133 44.72 20.62C44.54 20.52 44.3467 20.44 44.14 20.38C44.28 20.32 44.4133 20.2467 44.54 20.16C44.6733 20.0667 44.7933 19.9533 44.9 19.82C45.0067 19.6867 45.09 19.5333 45.15 19.36C45.2167 19.1867 45.25 18.9833 45.25 18.75C45.25 18.4833 45.1967 18.2433 45.09 18.03C44.9833 17.81 44.83 17.6267 44.63 17.48C44.43 17.3267 44.19 17.21 43.91 17.13C43.63 17.0433 43.3167 17 42.97 17ZM42.84 20.12H40.77V17.71H42.9C43.4 17.71 43.7833 17.8133 44.05 18.02C44.3167 18.2267 44.45 18.5067 44.45 18.86C44.45 19.2733 44.3 19.5867 44 19.8C43.7 20.0133 43.3133 20.12 42.84 20.12ZM43.12 23.29H40.77V20.82H42.98C43.5933 20.82 44.0567 20.9267 44.37 21.14C44.6833 21.3467 44.84 21.6433 44.84 22.03C44.84 22.43 44.6867 22.74 44.38 22.96C44.0733 23.18 43.6533 23.29 43.12 23.29ZM50.7468 21.79C50.7468 22.03 50.7068 22.25 50.6268 22.45C50.5468 22.65 50.4368 22.8233 50.2968 22.97C50.1635 23.11 50.0001 23.22 49.8068 23.3C49.6201 23.3733 49.4168 23.41 49.1968 23.41C48.7368 23.41 48.3835 23.27 48.1368 22.99C47.8901 22.71 47.7668 22.33 47.7668 21.85V18.83H46.9968V22.04C46.9968 22.3467 47.0401 22.6267 47.1268 22.88C47.2201 23.1333 47.3501 23.3533 47.5168 23.54C47.6901 23.72 47.8968 23.86 48.1368 23.96C48.3835 24.06 48.6635 24.11 48.9768 24.11C49.4235 24.11 49.7868 24.0133 50.0668 23.82C50.3468 23.62 50.5735 23.38 50.7468 23.1V24H51.5068V18.83H50.7468V21.79ZM54.1389 17.7V16.85H53.2589V17.7H54.1389ZM54.0789 24V18.83H53.3089V24H54.0789ZM56.7059 24V16.7H55.9359V24H56.7059ZM63.4128 24V16.7H62.6428V19.82C62.5428 19.6733 62.4261 19.5333 62.2928 19.4C62.1661 19.2667 62.0228 19.15 61.8628 19.05C61.7028 18.95 61.5228 18.87 61.3228 18.81C61.1228 18.75 60.9028 18.72 60.6628 18.72C60.3495 18.72 60.0461 18.7833 59.7528 18.91C59.4595 19.03 59.1961 19.2067 58.9628 19.44C58.7295 19.6667 58.5428 19.9467 58.4028 20.28C58.2628 20.6133 58.1928 20.9933 58.1928 21.42C58.1928 21.8467 58.2628 22.2267 58.4028 22.56C58.5428 22.8933 58.7295 23.1767 58.9628 23.41C59.1961 23.6367 59.4595 23.81 59.7528 23.93C60.0461 24.05 60.3495 24.11 60.6628 24.11C60.9028 24.11 61.1195 24.08 61.3128 24.02C61.5128 23.96 61.6928 23.8767 61.8528 23.77C62.0128 23.6633 62.1561 23.54 62.2828 23.4C62.4161 23.26 62.5361 23.1133 62.6428 22.96V24H63.4128ZM62.6728 21.41C62.6728 21.71 62.6195 21.9867 62.5128 22.24C62.4128 22.4867 62.2728 22.6967 62.0928 22.87C61.9195 23.0433 61.7195 23.18 61.4928 23.28C61.2728 23.3733 61.0428 23.42 60.8028 23.42C60.5561 23.42 60.3228 23.3733 60.1028 23.28C59.8828 23.1867 59.6895 23.0533 59.5228 22.88C59.3561 22.7 59.2228 22.4867 59.1228 22.24C59.0295 21.9933 58.9828 21.7167 58.9828 21.41C58.9828 21.0967 59.0295 20.8167 59.1228 20.57C59.2228 20.3167 59.3528 20.1067 59.5128 19.94C59.6795 19.7667 59.8728 19.6367 60.0928 19.55C60.3128 19.4567 60.5495 19.41 60.8028 19.41C61.0428 19.41 61.2728 19.46 61.4928 19.56C61.7195 19.6533 61.9195 19.7867 62.0928 19.96C62.2728 20.1333 62.4128 20.3433 62.5128 20.59C62.6195 20.8367 62.6728 21.11 62.6728 21.41ZM66.0334 17.7V16.85H65.1534V17.7H66.0334ZM65.9734 24V18.83H65.2034V24H65.9734ZM68.5304 21.04C68.5304 20.8 68.5671 20.58 68.6404 20.38C68.7204 20.18 68.8304 20.01 68.9704 19.87C69.1104 19.7233 69.2737 19.6133 69.4604 19.54C69.6537 19.46 69.8604 19.42 70.0804 19.42C70.5404 19.42 70.8937 19.56 71.1404 19.84C71.3871 20.12 71.5104 20.5 71.5104 20.98V24H72.2804V20.79C72.2804 20.4833 72.2337 20.2033 72.1404 19.95C72.0537 19.6967 71.9237 19.48 71.7504 19.3C71.5837 19.1133 71.3771 18.97 71.1304 18.87C70.8904 18.77 70.6137 18.72 70.3004 18.72C69.8537 18.72 69.4904 18.82 69.2104 19.02C68.9304 19.2133 68.7037 19.45 68.5304 19.73V18.83H67.7604V24H68.5304V21.04ZM78.8425 23.1V18.83H78.0725V19.76C77.9658 19.62 77.8458 19.4867 77.7125 19.36C77.5792 19.2333 77.4292 19.1233 77.2625 19.03C77.1025 18.9367 76.9192 18.8633 76.7125 18.81C76.5125 18.75 76.2925 18.72 76.0525 18.72C75.7458 18.72 75.4458 18.7767 75.1525 18.89C74.8592 19.0033 74.5992 19.1667 74.3725 19.38C74.1458 19.5867 73.9625 19.8433 73.8225 20.15C73.6892 20.45 73.6225 20.79 73.6225 21.17C73.6225 21.55 73.6892 21.89 73.8225 22.19C73.9625 22.49 74.1458 22.7467 74.3725 22.96C74.5992 23.1667 74.8558 23.3267 75.1425 23.44C75.4358 23.5467 75.7392 23.6 76.0525 23.6C76.5258 23.6 76.9258 23.4933 77.2525 23.28C77.5792 23.0667 77.8558 22.81 78.0825 22.51V23.12C78.0825 23.7267 77.9125 24.1833 77.5725 24.49C77.2325 24.8033 76.7758 24.96 76.2025 24.96C75.8292 24.96 75.4792 24.9033 75.1525 24.79C74.8258 24.6767 74.5125 24.5133 74.2125 24.3L73.8625 24.9C74.2092 25.14 74.5792 25.32 74.9725 25.44C75.3658 25.56 75.7792 25.62 76.2125 25.62C76.6125 25.62 76.9725 25.5667 77.2925 25.46C77.6192 25.3533 77.8958 25.1933 78.1225 24.98C78.3558 24.7733 78.5325 24.5133 78.6525 24.2C78.7792 23.8867 78.8425 23.52 78.8425 23.1ZM78.1025 21.16C78.1025 21.4267 78.0492 21.67 77.9425 21.89C77.8358 22.1033 77.6925 22.2867 77.5125 22.44C77.3392 22.5933 77.1392 22.7133 76.9125 22.8C76.6858 22.88 76.4492 22.92 76.2025 22.92C75.9625 22.92 75.7325 22.88 75.5125 22.8C75.2992 22.7133 75.1092 22.5933 74.9425 22.44C74.7825 22.28 74.6525 22.0933 74.5525 21.88C74.4592 21.66 74.4125 21.4167 74.4125 21.15C74.4125 20.8833 74.4592 20.6433 74.5525 20.43C74.6458 20.21 74.7725 20.0233 74.9325 19.87C75.0992 19.7167 75.2892 19.6 75.5025 19.52C75.7225 19.44 75.9558 19.4 76.2025 19.4C76.4492 19.4 76.6858 19.4433 76.9125 19.53C77.1392 19.61 77.3392 19.7267 77.5125 19.88C77.6925 20.0333 77.8358 20.22 77.9425 20.44C78.0492 20.6533 78.1025 20.8933 78.1025 21.16ZM82.9812 17.54L83.1712 18.18L84.4912 17.77V24H85.2712V16.95H84.6912L82.9812 17.54ZM86.5652 17.54L86.7552 18.18L88.0752 17.77V24H88.8552V16.95H88.2752L86.5652 17.54ZM94.1591 17.71L91.9491 20.2L92.1091 20.67H92.5591C93.1391 20.67 93.6091 20.7867 93.9691 21.02C94.3358 21.2533 94.5191 21.59 94.5191 22.03C94.5191 22.2367 94.4791 22.4267 94.3991 22.6C94.3191 22.7667 94.2091 22.91 94.0691 23.03C93.9358 23.15 93.7758 23.2433 93.5891 23.31C93.4025 23.37 93.2025 23.4 92.9891 23.4C92.5558 23.4 92.1725 23.31 91.8391 23.13C91.5125 22.95 91.2125 22.6933 90.9391 22.36L90.3691 22.87C90.6558 23.2433 91.0158 23.5467 91.4491 23.78C91.8825 24.0067 92.3925 24.12 92.9791 24.12C93.3058 24.12 93.6091 24.07 93.8891 23.97C94.1758 23.8633 94.4225 23.7167 94.6291 23.53C94.8425 23.3433 95.0091 23.12 95.1291 22.86C95.2558 22.6 95.3191 22.3133 95.3191 22C95.3191 21.68 95.2558 21.4 95.1291 21.16C95.0025 20.92 94.8325 20.72 94.6191 20.56C94.4125 20.4 94.1691 20.2767 93.8891 20.19C93.6091 20.1033 93.3158 20.0467 93.0091 20.02L95.2091 17.58V17H90.7391V17.71H94.1591ZM32.8123 33.48C32.8123 33.3 32.7756 33.13 32.7023 32.97C32.6356 32.81 32.5423 32.6733 32.4223 32.56C32.309 32.44 32.1723 32.3467 32.0123 32.28C31.8523 32.2067 31.6823 32.17 31.5023 32.17C31.3223 32.17 31.1523 32.2067 30.9923 32.28C30.8323 32.3467 30.6923 32.44 30.5723 32.56C30.459 32.6733 30.3656 32.81 30.2923 32.97C30.2256 33.13 30.1923 33.3 30.1923 33.48C30.1923 33.66 30.2256 33.83 30.2923 33.99C30.3656 34.15 30.459 34.29 30.5723 34.41C30.6923 34.5233 30.8323 34.6167 30.9923 34.69C31.1523 34.7567 31.3223 34.79 31.5023 34.79C31.6823 34.79 31.8523 34.7567 32.0123 34.69C32.1723 34.6167 32.309 34.5233 32.4223 34.41C32.5423 34.29 32.6356 34.15 32.7023 33.99C32.7756 33.83 32.8123 33.66 32.8123 33.48ZM45.78 37L43.63 34.14C43.9033 34.0933 44.1567 34.0133 44.39 33.9C44.6233 33.7867 44.8233 33.6467 44.99 33.48C45.1633 33.3067 45.2967 33.1067 45.39 32.88C45.4833 32.6467 45.53 32.3833 45.53 32.09C45.53 31.7767 45.47 31.4933 45.35 31.24C45.23 30.98 45.06 30.76 44.84 30.58C44.62 30.3933 44.3533 30.25 44.04 30.15C43.7333 30.05 43.3867 30 43 30H39.99V37H40.78V34.28H42.78L44.81 37H45.78ZM44.73 32.12C44.73 32.3467 44.6833 32.55 44.59 32.73C44.5033 32.91 44.38 33.0633 44.22 33.19C44.06 33.31 43.87 33.4033 43.65 33.47C43.43 33.5367 43.19 33.57 42.93 33.57H40.78V30.73H42.94C43.5067 30.73 43.9467 30.8533 44.26 31.1C44.5733 31.34 44.73 31.68 44.73 32.12ZM52.0589 34.41C52.0589 34.0433 51.9922 33.6967 51.8589 33.37C51.7256 33.0433 51.5389 32.76 51.2989 32.52C51.0589 32.2733 50.7722 32.08 50.4389 31.94C50.1122 31.7933 49.7556 31.72 49.3689 31.72C48.9756 31.72 48.6122 31.7933 48.2789 31.94C47.9522 32.08 47.6689 32.2733 47.4289 32.52C47.1889 32.7667 47.0022 33.0567 46.8689 33.39C46.7356 33.7167 46.6689 34.0633 46.6689 34.43C46.6689 34.7967 46.7356 35.1433 46.8689 35.47C47.0022 35.7967 47.1889 36.0833 47.4289 36.33C47.6689 36.57 47.9522 36.7633 48.2789 36.91C48.6056 37.05 48.9622 37.12 49.3489 37.12C49.7356 37.12 50.0956 37.05 50.4289 36.91C50.7622 36.7633 51.0489 36.5667 51.2889 36.32C51.5289 36.0733 51.7156 35.7867 51.8489 35.46C51.9889 35.1267 52.0589 34.7767 52.0589 34.41ZM51.2689 34.43C51.2689 34.71 51.2222 34.9733 51.1289 35.22C51.0356 35.46 50.9056 35.67 50.7389 35.85C50.5722 36.03 50.3722 36.1733 50.1389 36.28C49.9056 36.38 49.6489 36.43 49.3689 36.43C49.0956 36.43 48.8422 36.3767 48.6089 36.27C48.3756 36.1633 48.1722 36.02 47.9989 35.84C47.8322 35.66 47.6989 35.4467 47.5989 35.2C47.5056 34.9533 47.4589 34.69 47.4589 34.41C47.4589 34.13 47.5056 33.87 47.5989 33.63C47.6922 33.3833 47.8189 33.17 47.9789 32.99C48.1456 32.8033 48.3456 32.66 48.5789 32.56C48.8122 32.4533 49.0689 32.4 49.3489 32.4C49.6222 32.4 49.8756 32.4533 50.1089 32.56C50.3422 32.6667 50.5456 32.8133 50.7189 33C50.8922 33.18 51.0256 33.3933 51.1189 33.64C51.2189 33.8867 51.2689 34.15 51.2689 34.43ZM55.3238 32.44C55.8104 32.44 56.1871 32.56 56.4538 32.8C56.7271 33.0333 56.8638 33.3833 56.8638 33.85V34.03C56.6304 33.9633 56.3904 33.91 56.1438 33.87C55.8971 33.83 55.6071 33.81 55.2738 33.81C54.9471 33.81 54.6471 33.8467 54.3738 33.92C54.1071 33.9933 53.8738 34.1 53.6738 34.24C53.4804 34.38 53.3304 34.5567 53.2238 34.77C53.1171 34.9767 53.0638 35.2167 53.0638 35.49C53.0638 35.7633 53.1171 36 53.2238 36.2C53.3371 36.4 53.4838 36.57 53.6638 36.71C53.8504 36.8433 54.0571 36.9433 54.2838 37.01C54.5171 37.0767 54.7538 37.11 54.9938 37.11C55.4538 37.11 55.8338 37.02 56.1338 36.84C56.4404 36.66 56.6838 36.4533 56.8638 36.22V37H57.6038V33.84C57.6038 33.1533 57.4138 32.6367 57.0338 32.29C56.6538 31.9367 56.1104 31.76 55.4038 31.76C55.0238 31.76 54.6871 31.8 54.3938 31.88C54.1004 31.9533 53.8104 32.0567 53.5238 32.19L53.7538 32.82C53.9938 32.7067 54.2371 32.6167 54.4838 32.55C54.7371 32.4767 55.0171 32.44 55.3238 32.44ZM55.3538 34.38C55.6738 34.38 55.9571 34.4033 56.2038 34.45C56.4571 34.4967 56.6804 34.5467 56.8738 34.6V35.1C56.8738 35.3067 56.8271 35.4967 56.7338 35.67C56.6471 35.8367 56.5238 35.9833 56.3638 36.11C56.2104 36.23 56.0271 36.3267 55.8138 36.4C55.6071 36.4667 55.3838 36.5 55.1438 36.5C54.9704 36.5 54.8038 36.4767 54.6438 36.43C54.4904 36.3833 54.3538 36.3167 54.2338 36.23C54.1138 36.1367 54.0171 36.0267 53.9438 35.9C53.8771 35.7733 53.8438 35.6267 53.8438 35.46C53.8438 35.1267 53.9738 34.8633 54.2338 34.67C54.4938 34.4767 54.8671 34.38 55.3538 34.38ZM64.1648 37V29.7H63.3948V32.82C63.2948 32.6733 63.1781 32.5333 63.0448 32.4C62.9181 32.2667 62.7748 32.15 62.6148 32.05C62.4548 31.95 62.2748 31.87 62.0748 31.81C61.8748 31.75 61.6548 31.72 61.4148 31.72C61.1014 31.72 60.7981 31.7833 60.5048 31.91C60.2114 32.03 59.9481 32.2067 59.7148 32.44C59.4814 32.6667 59.2948 32.9467 59.1548 33.28C59.0148 33.6133 58.9448 33.9933 58.9448 34.42C58.9448 34.8467 59.0148 35.2267 59.1548 35.56C59.2948 35.8933 59.4814 36.1767 59.7148 36.41C59.9481 36.6367 60.2114 36.81 60.5048 36.93C60.7981 37.05 61.1014 37.11 61.4148 37.11C61.6548 37.11 61.8714 37.08 62.0648 37.02C62.2648 36.96 62.4448 36.8767 62.6048 36.77C62.7648 36.6633 62.9081 36.54 63.0348 36.4C63.1681 36.26 63.2881 36.1133 63.3948 35.96V37H64.1648ZM63.4248 34.41C63.4248 34.71 63.3714 34.9867 63.2648 35.24C63.1648 35.4867 63.0248 35.6967 62.8448 35.87C62.6714 36.0433 62.4714 36.18 62.2448 36.28C62.0248 36.3733 61.7948 36.42 61.5548 36.42C61.3081 36.42 61.0748 36.3733 60.8548 36.28C60.6348 36.1867 60.4414 36.0533 60.2748 35.88C60.1081 35.7 59.9748 35.4867 59.8748 35.24C59.7814 34.9933 59.7348 34.7167 59.7348 34.41C59.7348 34.0967 59.7814 33.8167 59.8748 33.57C59.9748 33.3167 60.1048 33.1067 60.2648 32.94C60.4314 32.7667 60.6248 32.6367 60.8448 32.55C61.0648 32.4567 61.3014 32.41 61.5548 32.41C61.7948 32.41 62.0248 32.46 62.2448 32.56C62.4714 32.6533 62.6714 32.7867 62.8448 32.96C63.0248 33.1333 63.1648 33.3433 63.2648 33.59C63.3714 33.8367 63.4248 34.11 63.4248 34.41ZM73.8034 35.1C73.8034 34.68 73.6668 34.3267 73.3934 34.04C73.1268 33.7533 72.7834 33.5333 72.3634 33.38C72.5234 33.3067 72.6768 33.22 72.8234 33.12C72.9701 33.0133 73.0968 32.8967 73.2034 32.77C73.3168 32.6367 73.4034 32.4867 73.4634 32.32C73.5301 32.1533 73.5634 31.9667 73.5634 31.76C73.5634 31.4867 73.4968 31.2367 73.3634 31.01C73.2368 30.7833 73.0634 30.5867 72.8434 30.42C72.6301 30.2533 72.3768 30.1267 72.0834 30.04C71.7968 29.9467 71.4934 29.9 71.1734 29.9C70.8534 29.9 70.5468 29.9467 70.2534 30.04C69.9668 30.1267 69.7134 30.2533 69.4934 30.42C69.2801 30.5867 69.1068 30.7833 68.9734 31.01C68.8468 31.2367 68.7834 31.4867 68.7834 31.76C68.7834 31.9667 68.8134 32.1533 68.8734 32.32C68.9401 32.4867 69.0268 32.6367 69.1334 32.77C69.2468 32.8967 69.3768 33.0133 69.5234 33.12C69.6701 33.22 69.8234 33.3067 69.9834 33.38C69.5634 33.5333 69.2168 33.7567 68.9434 34.05C68.6768 34.3367 68.5434 34.69 68.5434 35.11C68.5434 35.4033 68.6101 35.6733 68.7434 35.92C68.8768 36.1667 69.0601 36.3767 69.2934 36.55C69.5334 36.7233 69.8134 36.86 70.1334 36.96C70.4534 37.0533 70.8001 37.1 71.1734 37.1C71.5468 37.1 71.8934 37.0533 72.2134 36.96C72.5334 36.86 72.8101 36.7233 73.0434 36.55C73.2834 36.3767 73.4701 36.1667 73.6034 35.92C73.7368 35.6733 73.8034 35.4 73.8034 35.1ZM72.7734 31.81C72.7734 32.0033 72.7301 32.18 72.6434 32.34C72.5634 32.4933 72.4501 32.6267 72.3034 32.74C72.1634 32.8533 71.9934 32.9433 71.7934 33.01C71.6001 33.07 71.3934 33.1 71.1734 33.1C70.9534 33.1 70.7434 33.07 70.5434 33.01C70.3501 32.9433 70.1801 32.8533 70.0334 32.74C69.8934 32.6267 69.7801 32.4933 69.6934 32.34C69.6134 32.18 69.5734 32.0033 69.5734 31.81C69.5734 31.63 69.6134 31.4667 69.6934 31.32C69.7734 31.1733 69.8834 31.0467 70.0234 30.94C70.1701 30.8267 70.3401 30.74 70.5334 30.68C70.7334 30.62 70.9468 30.59 71.1734 30.59C71.4001 30.59 71.6101 30.62 71.8034 30.68C72.0034 30.74 72.1734 30.8267 72.3134 30.94C72.4601 31.0467 72.5734 31.1767 72.6534 31.33C72.7334 31.4767 72.7734 31.6367 72.7734 31.81ZM73.0034 35.09C73.0034 35.27 72.9601 35.44 72.8734 35.6C72.7934 35.76 72.6734 35.9 72.5134 36.02C72.3601 36.14 72.1701 36.2367 71.9434 36.31C71.7168 36.3767 71.4601 36.41 71.1734 36.41C70.8868 36.41 70.6301 36.3767 70.4034 36.31C70.1768 36.2367 69.9834 36.14 69.8234 36.02C69.6701 35.9 69.5501 35.76 69.4634 35.6C69.3834 35.44 69.3434 35.27 69.3434 35.09C69.3434 34.89 69.3901 34.71 69.4834 34.55C69.5768 34.3833 69.7068 34.2433 69.8734 34.13C70.0401 34.01 70.2334 33.9167 70.4534 33.85C70.6801 33.7833 70.9201 33.75 71.1734 33.75C71.4268 33.75 71.6634 33.7833 71.8834 33.85C72.1101 33.9167 72.3034 34.01 72.4634 34.13C72.6301 34.2433 72.7601 34.3833 72.8534 34.55C72.9534 34.71 73.0034 34.89 73.0034 35.09ZM78.6123 30.71L76.4023 33.2L76.5623 33.67H77.0123C77.5923 33.67 78.0623 33.7867 78.4223 34.02C78.7889 34.2533 78.9723 34.59 78.9723 35.03C78.9723 35.2367 78.9323 35.4267 78.8523 35.6C78.7723 35.7667 78.6623 35.91 78.5223 36.03C78.3889 36.15 78.2289 36.2433 78.0423 36.31C77.8556 36.37 77.6556 36.4 77.4423 36.4C77.0089 36.4 76.6256 36.31 76.2923 36.13C75.9656 35.95 75.6656 35.6933 75.3923 35.36L74.8223 35.87C75.1089 36.2433 75.4689 36.5467 75.9023 36.78C76.3356 37.0067 76.8456 37.12 77.4323 37.12C77.7589 37.12 78.0623 37.07 78.3423 36.97C78.6289 36.8633 78.8756 36.7167 79.0823 36.53C79.2956 36.3433 79.4623 36.12 79.5823 35.86C79.7089 35.6 79.7723 35.3133 79.7723 35C79.7723 34.68 79.7089 34.4 79.5823 34.16C79.4556 33.92 79.2856 33.72 79.0723 33.56C78.8656 33.4 78.6223 33.2767 78.3423 33.19C78.0623 33.1033 77.7689 33.0467 77.4623 33.02L79.6623 30.58V30H75.1923V30.71H78.6123ZM86.2351 35.1C86.2351 34.68 86.0984 34.3267 85.8251 34.04C85.5584 33.7533 85.2151 33.5333 84.7951 33.38C84.9551 33.3067 85.1084 33.22 85.2551 33.12C85.4017 33.0133 85.5284 32.8967 85.6351 32.77C85.7484 32.6367 85.8351 32.4867 85.8951 32.32C85.9617 32.1533 85.9951 31.9667 85.9951 31.76C85.9951 31.4867 85.9284 31.2367 85.7951 31.01C85.6684 30.7833 85.4951 30.5867 85.2751 30.42C85.0617 30.2533 84.8084 30.1267 84.5151 30.04C84.2284 29.9467 83.9251 29.9 83.6051 29.9C83.2851 29.9 82.9784 29.9467 82.6851 30.04C82.3984 30.1267 82.1451 30.2533 81.9251 30.42C81.7117 30.5867 81.5384 30.7833 81.4051 31.01C81.2784 31.2367 81.2151 31.4867 81.2151 31.76C81.2151 31.9667 81.2451 32.1533 81.3051 32.32C81.3717 32.4867 81.4584 32.6367 81.5651 32.77C81.6784 32.8967 81.8084 33.0133 81.9551 33.12C82.1017 33.22 82.2551 33.3067 82.4151 33.38C81.9951 33.5333 81.6484 33.7567 81.3751 34.05C81.1084 34.3367 80.9751 34.69 80.9751 35.11C80.9751 35.4033 81.0417 35.6733 81.1751 35.92C81.3084 36.1667 81.4917 36.3767 81.7251 36.55C81.9651 36.7233 82.2451 36.86 82.5651 36.96C82.8851 37.0533 83.2317 37.1 83.6051 37.1C83.9784 37.1 84.3251 37.0533 84.6451 36.96C84.9651 36.86 85.2417 36.7233 85.4751 36.55C85.7151 36.3767 85.9017 36.1667 86.0351 35.92C86.1684 35.6733 86.2351 35.4 86.2351 35.1ZM85.2051 31.81C85.2051 32.0033 85.1617 32.18 85.0751 32.34C84.9951 32.4933 84.8817 32.6267 84.7351 32.74C84.5951 32.8533 84.4251 32.9433 84.2251 33.01C84.0317 33.07 83.8251 33.1 83.6051 33.1C83.3851 33.1 83.1751 33.07 82.9751 33.01C82.7817 32.9433 82.6117 32.8533 82.4651 32.74C82.3251 32.6267 82.2117 32.4933 82.1251 32.34C82.0451 32.18 82.0051 32.0033 82.0051 31.81C82.0051 31.63 82.0451 31.4667 82.1251 31.32C82.2051 31.1733 82.3151 31.0467 82.4551 30.94C82.6017 30.8267 82.7717 30.74 82.9651 30.68C83.1651 30.62 83.3784 30.59 83.6051 30.59C83.8317 30.59 84.0417 30.62 84.2351 30.68C84.4351 30.74 84.6051 30.8267 84.7451 30.94C84.8917 31.0467 85.0051 31.1767 85.0851 31.33C85.1651 31.4767 85.2051 31.6367 85.2051 31.81ZM85.4351 35.09C85.4351 35.27 85.3917 35.44 85.3051 35.6C85.2251 35.76 85.1051 35.9 84.9451 36.02C84.7917 36.14 84.6017 36.2367 84.3751 36.31C84.1484 36.3767 83.8917 36.41 83.6051 36.41C83.3184 36.41 83.0617 36.3767 82.8351 36.31C82.6084 36.2367 82.4151 36.14 82.2551 36.02C82.1017 35.9 81.9817 35.76 81.8951 35.6C81.8151 35.44 81.7751 35.27 81.7751 35.09C81.7751 34.89 81.8217 34.71 81.9151 34.55C82.0084 34.3833 82.1384 34.2433 82.3051 34.13C82.4717 34.01 82.6651 33.9167 82.8851 33.85C83.1117 33.7833 83.3517 33.75 83.6051 33.75C83.8584 33.75 84.0951 33.7833 84.3151 33.85C84.5417 33.9167 84.7351 34.01 84.8951 34.13C85.0617 34.2433 85.1917 34.3833 85.2851 34.55C85.3851 34.71 85.4351 34.89 85.4351 35.09ZM87.2139 37.87L87.3339 38.22C87.7139 38.1333 87.9939 37.9833 88.1739 37.77C88.3539 37.5633 88.4439 37.2567 88.4439 36.85V35.95H87.5239V37H87.8839C87.9039 37.2133 87.8606 37.3867 87.7539 37.52C87.6472 37.66 87.4672 37.7767 87.2139 37.87ZM96.1731 30H93.1931V37H96.3031C96.6831 37 97.0298 36.9567 97.3431 36.87C97.6565 36.7833 97.9231 36.66 98.1431 36.5C98.3698 36.3333 98.5431 36.13 98.6631 35.89C98.7831 35.65 98.8431 35.38 98.8431 35.08C98.8431 34.84 98.8031 34.6267 98.7231 34.44C98.6431 34.2533 98.5365 34.0933 98.4031 33.96C98.2698 33.8267 98.1098 33.7133 97.9231 33.62C97.7431 33.52 97.5498 33.44 97.3431 33.38C97.4831 33.32 97.6165 33.2467 97.7431 33.16C97.8765 33.0667 97.9965 32.9533 98.1031 32.82C98.2098 32.6867 98.2931 32.5333 98.3531 32.36C98.4198 32.1867 98.4531 31.9833 98.4531 31.75C98.4531 31.4833 98.3998 31.2433 98.2931 31.03C98.1865 30.81 98.0331 30.6267 97.8331 30.48C97.6331 30.3267 97.3931 30.21 97.1131 30.13C96.8331 30.0433 96.5198 30 96.1731 30ZM96.0431 33.12H93.9731V30.71H96.1031C96.6031 30.71 96.9865 30.8133 97.2531 31.02C97.5198 31.2267 97.6531 31.5067 97.6531 31.86C97.6531 32.2733 97.5031 32.5867 97.2031 32.8C96.9031 33.0133 96.5165 33.12 96.0431 33.12ZM96.3231 36.29H93.9731V33.82H96.1831C96.7965 33.82 97.2598 33.9267 97.5731 34.14C97.8865 34.3467 98.0431 34.6433 98.0431 35.03C98.0431 35.43 97.8898 35.74 97.5831 35.96C97.2765 36.18 96.8565 36.29 96.3231 36.29ZM101.12 37V29.7H100.35V37H101.12ZM107.977 34.41C107.977 34.0433 107.91 33.6967 107.777 33.37C107.644 33.0433 107.457 32.76 107.217 32.52C106.977 32.2733 106.69 32.08 106.357 31.94C106.03 31.7933 105.674 31.72 105.287 31.72C104.894 31.72 104.53 31.7933 104.197 31.94C103.87 32.08 103.587 32.2733 103.347 32.52C103.107 32.7667 102.92 33.0567 102.787 33.39C102.654 33.7167 102.587 34.0633 102.587 34.43C102.587 34.7967 102.654 35.1433 102.787 35.47C102.92 35.7967 103.107 36.0833 103.347 36.33C103.587 36.57 103.87 36.7633 104.197 36.91C104.524 37.05 104.88 37.12 105.267 37.12C105.654 37.12 106.014 37.05 106.347 36.91C106.68 36.7633 106.967 36.5667 107.207 36.32C107.447 36.0733 107.634 35.7867 107.767 35.46C107.907 35.1267 107.977 34.7767 107.977 34.41ZM107.187 34.43C107.187 34.71 107.14 34.9733 107.047 35.22C106.954 35.46 106.824 35.67 106.657 35.85C106.49 36.03 106.29 36.1733 106.057 36.28C105.824 36.38 105.567 36.43 105.287 36.43C105.014 36.43 104.76 36.3767 104.527 36.27C104.294 36.1633 104.09 36.02 103.917 35.84C103.75 35.66 103.617 35.4467 103.517 35.2C103.424 34.9533 103.377 34.69 103.377 34.41C103.377 34.13 103.424 33.87 103.517 33.63C103.61 33.3833 103.737 33.17 103.897 32.99C104.064 32.8033 104.264 32.66 104.497 32.56C104.73 32.4533 104.987 32.4 105.267 32.4C105.54 32.4 105.794 32.4533 106.027 32.56C106.26 32.6667 106.464 32.8133 106.637 33C106.81 33.18 106.944 33.3933 107.037 33.64C107.137 33.8867 107.187 34.15 107.187 34.43ZM113.812 36.12L113.322 35.66C113.115 35.88 112.882 36.0633 112.622 36.21C112.368 36.3567 112.075 36.43 111.742 36.43C111.468 36.43 111.215 36.38 110.982 36.28C110.755 36.1733 110.555 36.03 110.382 35.85C110.215 35.6633 110.082 35.4467 109.982 35.2C109.888 34.9533 109.842 34.69 109.842 34.41C109.842 34.13 109.888 33.87 109.982 33.63C110.075 33.3833 110.205 33.17 110.372 32.99C110.538 32.8033 110.735 32.66 110.962 32.56C111.188 32.4533 111.432 32.4 111.692 32.4C112.045 32.4 112.342 32.4767 112.582 32.63C112.828 32.7833 113.055 32.9667 113.262 33.18L113.772 32.64C113.652 32.5133 113.522 32.3933 113.382 32.28C113.242 32.1667 113.088 32.07 112.922 31.99C112.755 31.9033 112.572 31.8367 112.372 31.79C112.172 31.7433 111.948 31.72 111.702 31.72C111.322 31.72 110.968 31.7933 110.642 31.94C110.322 32.08 110.042 32.2733 109.802 32.52C109.568 32.7667 109.385 33.0567 109.252 33.39C109.118 33.7167 109.052 34.0633 109.052 34.43C109.052 34.7967 109.118 35.1433 109.252 35.47C109.385 35.7967 109.568 36.0833 109.802 36.33C110.042 36.57 110.322 36.7633 110.642 36.91C110.968 37.05 111.322 37.12 111.702 37.12C112.188 37.12 112.595 37.0267 112.922 36.84C113.255 36.6533 113.552 36.4133 113.812 36.12ZM117.435 34.05L119.605 31.83H118.645L115.855 34.74V29.7H115.085V37H115.855V35.65L116.905 34.59L118.755 37H119.675L117.435 34.05ZM127.206 30.71L124.996 33.2L125.156 33.67H125.606C126.186 33.67 126.656 33.7867 127.016 34.02C127.383 34.2533 127.566 34.59 127.566 35.03C127.566 35.2367 127.526 35.4267 127.446 35.6C127.366 35.7667 127.256 35.91 127.116 36.03C126.983 36.15 126.823 36.2433 126.636 36.31C126.449 36.37 126.249 36.4 126.036 36.4C125.603 36.4 125.219 36.31 124.886 36.13C124.559 35.95 124.259 35.6933 123.986 35.36L123.416 35.87C123.703 36.2433 124.063 36.5467 124.496 36.78C124.929 37.0067 125.439 37.12 126.026 37.12C126.353 37.12 126.656 37.07 126.936 36.97C127.223 36.8633 127.469 36.7167 127.676 36.53C127.889 36.3433 128.056 36.12 128.176 35.86C128.303 35.6 128.366 35.3133 128.366 35C128.366 34.68 128.303 34.4 128.176 34.16C128.049 33.92 127.879 33.72 127.666 33.56C127.459 33.4 127.216 33.2767 126.936 33.19C126.656 33.1033 126.363 33.0467 126.056 33.02L128.256 30.58V30H123.786V30.71H127.206ZM129.329 30.54L129.519 31.18L130.839 30.77V37H131.619V29.95H131.039L129.329 30.54ZM138.223 30.68C137.916 30.4267 137.599 30.23 137.273 30.09C136.946 29.95 136.573 29.88 136.153 29.88C135.693 29.88 135.283 29.98 134.923 30.18C134.563 30.3733 134.256 30.6433 134.003 30.99C133.756 31.33 133.566 31.7333 133.433 32.2C133.306 32.66 133.243 33.1567 133.243 33.69C133.243 34.05 133.263 34.37 133.303 34.65C133.343 34.9233 133.399 35.1667 133.473 35.38C133.546 35.5933 133.636 35.7833 133.743 35.95C133.856 36.1167 133.983 36.27 134.123 36.41C134.343 36.63 134.606 36.8033 134.913 36.93C135.226 37.0567 135.576 37.12 135.963 37.12C136.316 37.12 136.646 37.0633 136.953 36.95C137.259 36.83 137.523 36.6667 137.743 36.46C137.969 36.2533 138.146 36.0067 138.273 35.72C138.406 35.4333 138.473 35.12 138.473 34.78C138.473 34.4533 138.406 34.1567 138.273 33.89C138.146 33.6233 137.973 33.3967 137.753 33.21C137.533 33.0167 137.276 32.87 136.983 32.77C136.689 32.67 136.379 32.62 136.053 32.62C135.799 32.62 135.569 32.65 135.363 32.71C135.163 32.77 134.979 32.85 134.813 32.95C134.653 33.0433 134.509 33.1567 134.383 33.29C134.263 33.4167 134.156 33.55 134.063 33.69C134.063 33.2367 134.109 32.8233 134.203 32.45C134.296 32.07 134.429 31.7433 134.603 31.47C134.783 31.1967 134.999 30.9833 135.253 30.83C135.506 30.6767 135.793 30.6 136.113 30.6C136.433 30.6 136.723 30.66 136.983 30.78C137.243 30.9 137.503 31.07 137.763 31.29L138.223 30.68ZM137.663 34.81C137.663 35.0367 137.623 35.25 137.543 35.45C137.463 35.6433 137.349 35.8133 137.203 35.96C137.056 36.1 136.879 36.2133 136.673 36.3C136.466 36.38 136.233 36.42 135.973 36.42C135.713 36.42 135.473 36.38 135.253 36.3C135.039 36.22 134.853 36.11 134.693 35.97C134.539 35.83 134.419 35.6633 134.333 35.47C134.246 35.2767 134.203 35.0667 134.203 34.84C134.203 34.64 134.243 34.45 134.323 34.27C134.409 34.0833 134.529 33.92 134.683 33.78C134.836 33.6333 135.019 33.5167 135.233 33.43C135.453 33.3433 135.693 33.3 135.953 33.3C136.206 33.3 136.436 33.34 136.643 33.42C136.856 33.4933 137.036 33.5967 137.183 33.73C137.336 33.8633 137.453 34.0233 137.533 34.21C137.619 34.39 137.663 34.59 137.663 34.81ZM32.8123 46.48C32.8123 46.3 32.7756 46.13 32.7023 45.97C32.6356 45.81 32.5423 45.6733 32.4223 45.56C32.309 45.44 32.1723 45.3467 32.0123 45.28C31.8523 45.2067 31.6823 45.17 31.5023 45.17C31.3223 45.17 31.1523 45.2067 30.9923 45.28C30.8323 45.3467 30.6923 45.44 30.5723 45.56C30.459 45.6733 30.3656 45.81 30.2923 45.97C30.2256 46.13 30.1923 46.3 30.1923 46.48C30.1923 46.66 30.2256 46.83 30.2923 46.99C30.3656 47.15 30.459 47.29 30.5723 47.41C30.6923 47.5233 30.8323 47.6167 30.9923 47.69C31.1523 47.7567 31.3223 47.79 31.5023 47.79C31.6823 47.79 31.8523 47.7567 32.0123 47.69C32.1723 47.6167 32.309 47.5233 32.4223 47.41C32.5423 47.29 32.6356 47.15 32.7023 46.99C32.7756 46.83 32.8123 46.66 32.8123 46.48ZM45.9 44.33V50H46.69V43H45.89L43.34 46.82L40.79 43H39.99V50H40.76V44.34L43.31 48.08H43.35L45.9 44.33ZM50.4116 45.44C50.8983 45.44 51.275 45.56 51.5416 45.8C51.815 46.0333 51.9516 46.3833 51.9516 46.85V47.03C51.7183 46.9633 51.4783 46.91 51.2316 46.87C50.985 46.83 50.695 46.81 50.3616 46.81C50.035 46.81 49.735 46.8467 49.4616 46.92C49.195 46.9933 48.9616 47.1 48.7616 47.24C48.5683 47.38 48.4183 47.5567 48.3116 47.77C48.205 47.9767 48.1516 48.2167 48.1516 48.49C48.1516 48.7633 48.205 49 48.3116 49.2C48.425 49.4 48.5716 49.57 48.7516 49.71C48.9383 49.8433 49.145 49.9433 49.3716 50.01C49.605 50.0767 49.8416 50.11 50.0816 50.11C50.5416 50.11 50.9216 50.02 51.2216 49.84C51.5283 49.66 51.7716 49.4533 51.9516 49.22V50H52.6916V46.84C52.6916 46.1533 52.5016 45.6367 52.1216 45.29C51.7416 44.9367 51.1983 44.76 50.4916 44.76C50.1116 44.76 49.775 44.8 49.4816 44.88C49.1883 44.9533 48.8983 45.0567 48.6116 45.19L48.8416 45.82C49.0816 45.7067 49.325 45.6167 49.5716 45.55C49.825 45.4767 50.105 45.44 50.4116 45.44ZM50.4416 47.38C50.7616 47.38 51.045 47.4033 51.2916 47.45C51.545 47.4967 51.7683 47.5467 51.9616 47.6V48.1C51.9616 48.3067 51.915 48.4967 51.8216 48.67C51.735 48.8367 51.6116 48.9833 51.4516 49.11C51.2983 49.23 51.115 49.3267 50.9016 49.4C50.695 49.4667 50.4716 49.5 50.2316 49.5C50.0583 49.5 49.8916 49.4767 49.7316 49.43C49.5783 49.3833 49.4416 49.3167 49.3216 49.23C49.2016 49.1367 49.105 49.0267 49.0316 48.9C48.965 48.7733 48.9316 48.6267 48.9316 48.46C48.9316 48.1267 49.0616 47.8633 49.3216 47.67C49.5816 47.4767 49.955 47.38 50.4416 47.38ZM55.1027 47.04C55.1027 46.8 55.1393 46.58 55.2127 46.38C55.2927 46.18 55.4027 46.01 55.5427 45.87C55.6827 45.7233 55.846 45.6133 56.0327 45.54C56.226 45.46 56.4327 45.42 56.6527 45.42C57.1127 45.42 57.466 45.56 57.7127 45.84C57.9593 46.12 58.0827 46.5 58.0827 46.98V50H58.8527V46.79C58.8527 46.4833 58.806 46.2033 58.7127 45.95C58.626 45.6967 58.496 45.48 58.3227 45.3C58.156 45.1133 57.9493 44.97 57.7027 44.87C57.4627 44.77 57.186 44.72 56.8727 44.72C56.426 44.72 56.0627 44.82 55.7827 45.02C55.5027 45.2133 55.276 45.45 55.1027 45.73V44.83H54.3327V50H55.1027V47.04ZM62.3648 45.44C62.8514 45.44 63.2281 45.56 63.4948 45.8C63.7681 46.0333 63.9048 46.3833 63.9048 46.85V47.03C63.6714 46.9633 63.4314 46.91 63.1848 46.87C62.9381 46.83 62.6481 46.81 62.3148 46.81C61.9881 46.81 61.6881 46.8467 61.4148 46.92C61.1481 46.9933 60.9148 47.1 60.7148 47.24C60.5214 47.38 60.3714 47.5567 60.2648 47.77C60.1581 47.9767 60.1048 48.2167 60.1048 48.49C60.1048 48.7633 60.1581 49 60.2648 49.2C60.3781 49.4 60.5248 49.57 60.7048 49.71C60.8914 49.8433 61.0981 49.9433 61.3248 50.01C61.5581 50.0767 61.7948 50.11 62.0348 50.11C62.4948 50.11 62.8748 50.02 63.1748 49.84C63.4814 49.66 63.7248 49.4533 63.9048 49.22V50H64.6448V46.84C64.6448 46.1533 64.4548 45.6367 64.0748 45.29C63.6948 44.9367 63.1514 44.76 62.4448 44.76C62.0648 44.76 61.7281 44.8 61.4348 44.88C61.1414 44.9533 60.8514 45.0567 60.5648 45.19L60.7948 45.82C61.0348 45.7067 61.2781 45.6167 61.5248 45.55C61.7781 45.4767 62.0581 45.44 62.3648 45.44ZM62.3948 47.38C62.7148 47.38 62.9981 47.4033 63.2448 47.45C63.4981 47.4967 63.7214 47.5467 63.9148 47.6V48.1C63.9148 48.3067 63.8681 48.4967 63.7748 48.67C63.6881 48.8367 63.5648 48.9833 63.4048 49.11C63.2514 49.23 63.0681 49.3267 62.8548 49.4C62.6481 49.4667 62.4248 49.5 62.1848 49.5C62.0114 49.5 61.8448 49.4767 61.6848 49.43C61.5314 49.3833 61.3948 49.3167 61.2748 49.23C61.1548 49.1367 61.0581 49.0267 60.9848 48.9C60.9181 48.7733 60.8848 48.6267 60.8848 48.46C60.8848 48.1267 61.0148 47.8633 61.2748 47.67C61.5348 47.4767 61.9081 47.38 62.3948 47.38ZM70.3858 45.75C70.2458 45.4567 70.0391 45.2133 69.7658 45.02C69.4924 44.82 69.1458 44.72 68.7258 44.72C68.5058 44.72 68.3124 44.7467 68.1458 44.8C67.9791 44.8533 67.8291 44.9267 67.6958 45.02C67.5624 45.1067 67.4424 45.21 67.3358 45.33C67.2358 45.45 67.1424 45.5733 67.0558 45.7V44.83H66.2858V50H67.0558V47.05C67.0558 46.81 67.0924 46.5933 67.1658 46.4C67.2391 46.2 67.3391 46.0267 67.4658 45.88C67.5991 45.7333 67.7524 45.62 67.9258 45.54C68.0991 45.46 68.2891 45.42 68.4958 45.42C68.9091 45.42 69.2324 45.5567 69.4658 45.83C69.7058 46.0967 69.8258 46.4733 69.8258 46.96V50H70.5858V47.02C70.5858 46.7667 70.6224 46.54 70.6958 46.34C70.7758 46.14 70.8791 45.9733 71.0058 45.84C71.1391 45.7 71.2924 45.5967 71.4658 45.53C71.6391 45.4567 71.8224 45.42 72.0158 45.42C72.4358 45.42 72.7624 45.5567 72.9958 45.83C73.2358 46.0967 73.3558 46.48 73.3558 46.98V50H74.1258V46.8C74.1258 46.1533 73.9558 45.6467 73.6158 45.28C73.2758 44.9067 72.8058 44.72 72.2058 44.72C71.9791 44.72 71.7724 44.7467 71.5858 44.8C71.4058 44.8533 71.2424 44.9267 71.0958 45.02C70.9491 45.1133 70.8158 45.2233 70.6958 45.35C70.5824 45.4767 70.4791 45.61 70.3858 45.75ZM77.6675 45.44C78.1542 45.44 78.5308 45.56 78.7975 45.8C79.0708 46.0333 79.2075 46.3833 79.2075 46.85V47.03C78.9742 46.9633 78.7342 46.91 78.4875 46.87C78.2408 46.83 77.9508 46.81 77.6175 46.81C77.2908 46.81 76.9908 46.8467 76.7175 46.92C76.4508 46.9933 76.2175 47.1 76.0175 47.24C75.8242 47.38 75.6742 47.5567 75.5675 47.77C75.4608 47.9767 75.4075 48.2167 75.4075 48.49C75.4075 48.7633 75.4608 49 75.5675 49.2C75.6808 49.4 75.8275 49.57 76.0075 49.71C76.1942 49.8433 76.4008 49.9433 76.6275 50.01C76.8608 50.0767 77.0975 50.11 77.3375 50.11C77.7975 50.11 78.1775 50.02 78.4775 49.84C78.7842 49.66 79.0275 49.4533 79.2075 49.22V50H79.9475V46.84C79.9475 46.1533 79.7575 45.6367 79.3775 45.29C78.9975 44.9367 78.4542 44.76 77.7475 44.76C77.3675 44.76 77.0308 44.8 76.7375 44.88C76.4442 44.9533 76.1542 45.0567 75.8675 45.19L76.0975 45.82C76.3375 45.7067 76.5808 45.6167 76.8275 45.55C77.0808 45.4767 77.3608 45.44 77.6675 45.44ZM77.6975 47.38C78.0175 47.38 78.3008 47.4033 78.5475 47.45C78.8008 47.4967 79.0242 47.5467 79.2175 47.6V48.1C79.2175 48.3067 79.1708 48.4967 79.0775 48.67C78.9908 48.8367 78.8675 48.9833 78.7075 49.11C78.5542 49.23 78.3708 49.3267 78.1575 49.4C77.9508 49.4667 77.7275 49.5 77.4875 49.5C77.3142 49.5 77.1475 49.4767 76.9875 49.43C76.8342 49.3833 76.6975 49.3167 76.5775 49.23C76.4575 49.1367 76.3608 49.0267 76.2875 48.9C76.2208 48.7733 76.1875 48.6267 76.1875 48.46C76.1875 48.1267 76.3175 47.8633 76.5775 47.67C76.8375 47.4767 77.2108 47.38 77.6975 47.38ZM81.1885 50.87L81.3085 51.22C81.6885 51.1333 81.9685 50.9833 82.1485 50.77C82.3285 50.5633 82.4185 50.2567 82.4185 49.85V48.95H81.4985V50H81.8585C81.8785 50.2133 81.8352 50.3867 81.7285 50.52C81.6218 50.66 81.4418 50.7767 81.1885 50.87ZM93.1677 48.89L92.6477 48.38C92.3144 48.7 91.9744 48.95 91.6277 49.13C91.2811 49.3033 90.8677 49.39 90.3877 49.39C90.0011 49.39 89.6411 49.3167 89.3077 49.17C88.9811 49.0167 88.6944 48.81 88.4477 48.55C88.2077 48.29 88.0177 47.9833 87.8777 47.63C87.7444 47.2767 87.6777 46.8967 87.6777 46.49C87.6777 46.0833 87.7444 45.7067 87.8777 45.36C88.0177 45.0067 88.2077 44.7 88.4477 44.44C88.6944 44.18 88.9811 43.9767 89.3077 43.83C89.6411 43.6833 90.0011 43.61 90.3877 43.61C90.8677 43.61 91.2777 43.7 91.6177 43.88C91.9644 44.06 92.2877 44.29 92.5877 44.57L93.1277 43.99C92.9544 43.8233 92.7744 43.6733 92.5877 43.54C92.4011 43.4 92.1977 43.2833 91.9777 43.19C91.7577 43.09 91.5177 43.0133 91.2577 42.96C91.0044 42.9067 90.7177 42.88 90.3977 42.88C89.8844 42.88 89.4111 42.9767 88.9777 43.17C88.5444 43.3567 88.1711 43.6167 87.8577 43.95C87.5444 44.2767 87.2977 44.66 87.1177 45.1C86.9444 45.54 86.8577 46.01 86.8577 46.51C86.8577 47.0167 86.9444 47.49 87.1177 47.93C87.2977 48.37 87.5444 48.7533 87.8577 49.08C88.1711 49.4 88.5411 49.6533 88.9677 49.84C89.3944 50.0267 89.8611 50.12 90.3677 50.12C90.6877 50.12 90.9777 50.09 91.2377 50.03C91.4977 49.97 91.7411 49.8867 91.9677 49.78C92.1944 49.6733 92.4044 49.5467 92.5977 49.4C92.7977 49.2467 92.9877 49.0767 93.1677 48.89ZM96.2905 45.44C96.7772 45.44 97.1539 45.56 97.4205 45.8C97.6939 46.0333 97.8305 46.3833 97.8305 46.85V47.03C97.5972 46.9633 97.3572 46.91 97.1105 46.87C96.8639 46.83 96.5739 46.81 96.2405 46.81C95.9139 46.81 95.6139 46.8467 95.3405 46.92C95.0739 46.9933 94.8405 47.1 94.6405 47.24C94.4472 47.38 94.2972 47.5567 94.1905 47.77C94.0839 47.9767 94.0305 48.2167 94.0305 48.49C94.0305 48.7633 94.0839 49 94.1905 49.2C94.3039 49.4 94.4505 49.57 94.6305 49.71C94.8172 49.8433 95.0239 49.9433 95.2505 50.01C95.4839 50.0767 95.7205 50.11 95.9605 50.11C96.4205 50.11 96.8005 50.02 97.1005 49.84C97.4072 49.66 97.6505 49.4533 97.8305 49.22V50H98.5705V46.84C98.5705 46.1533 98.3805 45.6367 98.0005 45.29C97.6205 44.9367 97.0772 44.76 96.3705 44.76C95.9905 44.76 95.6539 44.8 95.3605 44.88C95.0672 44.9533 94.7772 45.0567 94.4905 45.19L94.7205 45.82C94.9605 45.7067 95.2039 45.6167 95.4505 45.55C95.7039 45.4767 95.9839 45.44 96.2905 45.44ZM96.3205 47.38C96.6405 47.38 96.9239 47.4033 97.1705 47.45C97.4239 47.4967 97.6472 47.5467 97.8405 47.6V48.1C97.8405 48.3067 97.7939 48.4967 97.7005 48.67C97.6139 48.8367 97.4905 48.9833 97.3305 49.11C97.1772 49.23 96.9939 49.3267 96.7805 49.4C96.5739 49.4667 96.3505 49.5 96.1105 49.5C95.9372 49.5 95.7705 49.4767 95.6105 49.43C95.4572 49.3833 95.3205 49.3167 95.2005 49.23C95.0805 49.1367 94.9839 49.0267 94.9105 48.9C94.8439 48.7733 94.8105 48.6267 94.8105 48.46C94.8105 48.1267 94.9405 47.8633 95.2005 47.67C95.4605 47.4767 95.8339 47.38 96.3205 47.38ZM105.432 47.41C105.432 46.9833 105.362 46.6033 105.222 46.27C105.082 45.9367 104.895 45.6567 104.662 45.43C104.428 45.1967 104.162 45.02 103.862 44.9C103.568 44.78 103.268 44.72 102.962 44.72C102.722 44.72 102.502 44.7533 102.302 44.82C102.108 44.88 101.932 44.9633 101.772 45.07C101.612 45.17 101.465 45.29 101.332 45.43C101.205 45.57 101.088 45.7167 100.982 45.87V44.83H100.212V51.6H100.982V49.01C101.082 49.1567 101.195 49.2967 101.322 49.43C101.455 49.5633 101.602 49.68 101.762 49.78C101.922 49.88 102.102 49.96 102.302 50.02C102.502 50.08 102.722 50.11 102.962 50.11C103.275 50.11 103.578 50.05 103.872 49.93C104.172 49.8033 104.435 49.6267 104.662 49.4C104.895 49.1667 105.082 48.8833 105.222 48.55C105.362 48.2167 105.432 47.8367 105.432 47.41ZM104.642 47.42C104.642 47.7333 104.592 48.0167 104.492 48.27C104.398 48.5167 104.268 48.7267 104.102 48.9C103.942 49.0667 103.748 49.1967 103.522 49.29C103.302 49.3767 103.068 49.42 102.822 49.42C102.582 49.42 102.348 49.3733 102.122 49.28C101.902 49.18 101.702 49.0433 101.522 48.87C101.348 48.6967 101.208 48.4867 101.102 48.24C101.002 47.9867 100.952 47.71 100.952 47.41C100.952 47.11 101.002 46.8367 101.102 46.59C101.208 46.3433 101.348 46.1333 101.522 45.96C101.702 45.7867 101.902 45.6533 102.122 45.56C102.348 45.46 102.582 45.41 102.822 45.41C103.068 45.41 103.302 45.4567 103.522 45.55C103.742 45.6433 103.935 45.78 104.102 45.96C104.268 46.1333 104.398 46.3433 104.492 46.59C104.592 46.8367 104.642 47.1133 104.642 47.42ZM107.752 43.7V42.85H106.872V43.7H107.752ZM107.692 50V44.83H106.922V50H107.692ZM110.519 45.51H112.159V44.83H110.519V43.27H109.749V44.83H109.029V45.51H109.749V48.63C109.749 48.89 109.786 49.1133 109.859 49.3C109.932 49.4867 110.032 49.64 110.159 49.76C110.292 49.8733 110.449 49.9567 110.629 50.01C110.809 50.0633 111.002 50.09 111.209 50.09C111.396 50.09 111.562 50.07 111.709 50.03C111.862 49.9967 112.006 49.9433 112.139 49.87V49.21C112.006 49.2767 111.879 49.3233 111.759 49.35C111.646 49.3767 111.522 49.39 111.389 49.39C111.129 49.39 110.919 49.3267 110.759 49.2C110.599 49.0733 110.519 48.85 110.519 48.53V45.51ZM115.392 45.44C115.879 45.44 116.255 45.56 116.522 45.8C116.795 46.0333 116.932 46.3833 116.932 46.85V47.03C116.699 46.9633 116.459 46.91 116.212 46.87C115.965 46.83 115.675 46.81 115.342 46.81C115.015 46.81 114.715 46.8467 114.442 46.92C114.175 46.9933 113.942 47.1 113.742 47.24C113.549 47.38 113.399 47.5567 113.292 47.77C113.185 47.9767 113.132 48.2167 113.132 48.49C113.132 48.7633 113.185 49 113.292 49.2C113.405 49.4 113.552 49.57 113.732 49.71C113.919 49.8433 114.125 49.9433 114.352 50.01C114.585 50.0767 114.822 50.11 115.062 50.11C115.522 50.11 115.902 50.02 116.202 49.84C116.509 49.66 116.752 49.4533 116.932 49.22V50H117.672V46.84C117.672 46.1533 117.482 45.6367 117.102 45.29C116.722 44.9367 116.179 44.76 115.472 44.76C115.092 44.76 114.755 44.8 114.462 44.88C114.169 44.9533 113.879 45.0567 113.592 45.19L113.822 45.82C114.062 45.7067 114.305 45.6167 114.552 45.55C114.805 45.4767 115.085 45.44 115.392 45.44ZM115.422 47.38C115.742 47.38 116.025 47.4033 116.272 47.45C116.525 47.4967 116.749 47.5467 116.942 47.6V48.1C116.942 48.3067 116.895 48.4967 116.802 48.67C116.715 48.8367 116.592 48.9833 116.432 49.11C116.279 49.23 116.095 49.3267 115.882 49.4C115.675 49.4667 115.452 49.5 115.212 49.5C115.039 49.5 114.872 49.4767 114.712 49.43C114.559 49.3833 114.422 49.3167 114.302 49.23C114.182 49.1367 114.085 49.0267 114.012 48.9C113.945 48.7733 113.912 48.6267 113.912 48.46C113.912 48.1267 114.042 47.8633 114.302 47.67C114.562 47.4767 114.935 47.38 115.422 47.38ZM120.153 50V42.7H119.383V50H120.153ZM131.128 49.05V46.26H128.238V46.97H130.368V48.71C130.128 48.9033 129.831 49.07 129.478 49.21C129.125 49.3433 128.748 49.41 128.348 49.41C127.921 49.41 127.538 49.3367 127.198 49.19C126.858 49.0433 126.568 48.84 126.328 48.58C126.088 48.32 125.901 48.0133 125.768 47.66C125.641 47.3 125.578 46.91 125.578 46.49C125.578 46.0967 125.645 45.7267 125.778 45.38C125.911 45.0267 126.095 44.72 126.328 44.46C126.561 44.2 126.841 43.9933 127.168 43.84C127.495 43.6867 127.851 43.61 128.238 43.61C128.485 43.61 128.708 43.63 128.908 43.67C129.115 43.71 129.301 43.7667 129.468 43.84C129.641 43.9067 129.801 43.99 129.948 44.09C130.095 44.1833 130.235 44.29 130.368 44.41L130.878 43.81C130.705 43.6633 130.525 43.5333 130.338 43.42C130.158 43.3 129.961 43.2 129.748 43.12C129.541 43.04 129.315 42.98 129.068 42.94C128.828 42.9 128.561 42.88 128.268 42.88C127.741 42.88 127.261 42.98 126.828 43.18C126.401 43.3733 126.035 43.6367 125.728 43.97C125.421 44.3033 125.181 44.69 125.008 45.13C124.841 45.57 124.758 46.03 124.758 46.51C124.758 47.01 124.838 47.48 124.998 47.92C125.165 48.36 125.401 48.7433 125.708 49.07C126.021 49.3967 126.395 49.6533 126.828 49.84C127.268 50.0267 127.765 50.12 128.318 50.12C128.911 50.12 129.445 50.0167 129.918 49.81C130.398 49.5967 130.801 49.3433 131.128 49.05ZM137.85 47.41C137.85 47.0433 137.783 46.6967 137.65 46.37C137.517 46.0433 137.33 45.76 137.09 45.52C136.85 45.2733 136.563 45.08 136.23 44.94C135.903 44.7933 135.547 44.72 135.16 44.72C134.767 44.72 134.403 44.7933 134.07 44.94C133.743 45.08 133.46 45.2733 133.22 45.52C132.98 45.7667 132.793 46.0567 132.66 46.39C132.527 46.7167 132.46 47.0633 132.46 47.43C132.46 47.7967 132.527 48.1433 132.66 48.47C132.793 48.7967 132.98 49.0833 133.22 49.33C133.46 49.57 133.743 49.7633 134.07 49.91C134.397 50.05 134.753 50.12 135.14 50.12C135.527 50.12 135.887 50.05 136.22 49.91C136.553 49.7633 136.84 49.5667 137.08 49.32C137.32 49.0733 137.507 48.7867 137.64 48.46C137.78 48.1267 137.85 47.7767 137.85 47.41ZM137.06 47.43C137.06 47.71 137.013 47.9733 136.92 48.22C136.827 48.46 136.697 48.67 136.53 48.85C136.363 49.03 136.163 49.1733 135.93 49.28C135.697 49.38 135.44 49.43 135.16 49.43C134.887 49.43 134.633 49.3767 134.4 49.27C134.167 49.1633 133.963 49.02 133.79 48.84C133.623 48.66 133.49 48.4467 133.39 48.2C133.297 47.9533 133.25 47.69 133.25 47.41C133.25 47.13 133.297 46.87 133.39 46.63C133.483 46.3833 133.61 46.17 133.77 45.99C133.937 45.8033 134.137 45.66 134.37 45.56C134.603 45.4533 134.86 45.4 135.14 45.4C135.413 45.4 135.667 45.4533 135.9 45.56C136.133 45.6667 136.337 45.8133 136.51 46C136.683 46.18 136.817 46.3933 136.91 46.64C137.01 46.8867 137.06 47.15 137.06 47.43ZM141.022 49.12L139.282 44.83H138.432L140.672 50.04H141.352L143.602 44.83H142.772L141.022 49.12ZM144.968 47.7H149.068C149.075 47.6533 149.078 47.61 149.078 47.57C149.078 47.53 149.078 47.4933 149.078 47.46C149.078 47.08 149.025 46.7233 148.918 46.39C148.812 46.0567 148.655 45.7667 148.448 45.52C148.242 45.2733 147.988 45.08 147.688 44.94C147.388 44.7933 147.048 44.72 146.668 44.72C146.308 44.72 145.975 44.79 145.668 44.93C145.368 45.07 145.108 45.2633 144.888 45.51C144.668 45.75 144.495 46.0367 144.368 46.37C144.248 46.6967 144.188 47.0467 144.188 47.42C144.188 47.82 144.255 48.1867 144.388 48.52C144.528 48.8533 144.715 49.14 144.948 49.38C145.182 49.6133 145.455 49.7967 145.768 49.93C146.082 50.0567 146.415 50.12 146.768 50.12C147.262 50.12 147.675 50.0333 148.008 49.86C148.342 49.68 148.638 49.4433 148.898 49.15L148.418 48.72C148.205 48.94 147.968 49.1167 147.708 49.25C147.455 49.3833 147.148 49.45 146.788 49.45C146.562 49.45 146.345 49.4133 146.138 49.34C145.932 49.26 145.745 49.1467 145.578 49C145.412 48.8467 145.275 48.6633 145.168 48.45C145.062 48.23 144.995 47.98 144.968 47.7ZM144.968 47.13C144.995 46.8767 145.055 46.6433 145.148 46.43C145.242 46.2167 145.362 46.0333 145.508 45.88C145.655 45.72 145.825 45.5967 146.018 45.51C146.212 45.4167 146.422 45.37 146.648 45.37C146.908 45.37 147.135 45.42 147.328 45.52C147.528 45.6133 147.695 45.74 147.828 45.9C147.968 46.06 148.075 46.2467 148.148 46.46C148.228 46.6733 148.278 46.8967 148.298 47.13H144.968ZM151.196 47.94C151.196 47.5533 151.25 47.2133 151.356 46.92C151.463 46.62 151.61 46.37 151.796 46.17C151.983 45.97 152.2 45.82 152.446 45.72C152.7 45.62 152.966 45.57 153.246 45.57H153.306V44.74C153.06 44.7333 152.83 44.7633 152.616 44.83C152.403 44.8967 152.206 44.9967 152.026 45.13C151.846 45.2567 151.686 45.41 151.546 45.59C151.406 45.77 151.29 45.9667 151.196 46.18V44.83H150.426V50H151.196V47.94ZM155.249 47.04C155.249 46.8 155.286 46.58 155.359 46.38C155.439 46.18 155.549 46.01 155.689 45.87C155.829 45.7233 155.992 45.6133 156.179 45.54C156.372 45.46 156.579 45.42 156.799 45.42C157.259 45.42 157.612 45.56 157.859 45.84C158.106 46.12 158.229 46.5 158.229 46.98V50H158.999V46.79C158.999 46.4833 158.952 46.2033 158.859 45.95C158.772 45.6967 158.642 45.48 158.469 45.3C158.302 45.1133 158.096 44.97 157.849 44.87C157.609 44.77 157.332 44.72 157.019 44.72C156.572 44.72 156.209 44.82 155.929 45.02C155.649 45.2133 155.422 45.45 155.249 45.73V44.83H154.479V50H155.249V47.04ZM165.711 47.41C165.711 47.0433 165.645 46.6967 165.511 46.37C165.378 46.0433 165.191 45.76 164.951 45.52C164.711 45.2733 164.425 45.08 164.091 44.94C163.765 44.7933 163.408 44.72 163.021 44.72C162.628 44.72 162.265 44.7933 161.931 44.94C161.605 45.08 161.321 45.2733 161.081 45.52C160.841 45.7667 160.655 46.0567 160.521 46.39C160.388 46.7167 160.321 47.0633 160.321 47.43C160.321 47.7967 160.388 48.1433 160.521 48.47C160.655 48.7967 160.841 49.0833 161.081 49.33C161.321 49.57 161.605 49.7633 161.931 49.91C162.258 50.05 162.615 50.12 163.001 50.12C163.388 50.12 163.748 50.05 164.081 49.91C164.415 49.7633 164.701 49.5667 164.941 49.32C165.181 49.0733 165.368 48.7867 165.501 48.46C165.641 48.1267 165.711 47.7767 165.711 47.41ZM164.921 47.43C164.921 47.71 164.875 47.9733 164.781 48.22C164.688 48.46 164.558 48.67 164.391 48.85C164.225 49.03 164.025 49.1733 163.791 49.28C163.558 49.38 163.301 49.43 163.021 49.43C162.748 49.43 162.495 49.3767 162.261 49.27C162.028 49.1633 161.825 49.02 161.651 48.84C161.485 48.66 161.351 48.4467 161.251 48.2C161.158 47.9533 161.111 47.69 161.111 47.41C161.111 47.13 161.158 46.87 161.251 46.63C161.345 46.3833 161.471 46.17 161.631 45.99C161.798 45.8033 161.998 45.66 162.231 45.56C162.465 45.4533 162.721 45.4 163.001 45.4C163.275 45.4 163.528 45.4533 163.761 45.56C163.995 45.6667 164.198 45.8133 164.371 46C164.545 46.18 164.678 46.3933 164.771 46.64C164.871 46.8867 164.921 47.15 164.921 47.43ZM167.876 47.94C167.876 47.5533 167.929 47.2133 168.036 46.92C168.143 46.62 168.289 46.37 168.476 46.17C168.663 45.97 168.879 45.82 169.126 45.72C169.379 45.62 169.646 45.57 169.926 45.57H169.986V44.74C169.739 44.7333 169.509 44.7633 169.296 44.83C169.083 44.8967 168.886 44.9967 168.706 45.13C168.526 45.2567 168.366 45.41 168.226 45.59C168.086 45.77 167.969 45.9667 167.876 46.18V44.83H167.106V50H167.876V47.94ZM172.775 45.44C173.262 45.44 173.638 45.56 173.905 45.8C174.178 46.0333 174.315 46.3833 174.315 46.85V47.03C174.082 46.9633 173.842 46.91 173.595 46.87C173.348 46.83 173.058 46.81 172.725 46.81C172.398 46.81 172.098 46.8467 171.825 46.92C171.558 46.9933 171.325 47.1 171.125 47.24C170.932 47.38 170.782 47.5567 170.675 47.77C170.568 47.9767 170.515 48.2167 170.515 48.49C170.515 48.7633 170.568 49 170.675 49.2C170.788 49.4 170.935 49.57 171.115 49.71C171.302 49.8433 171.508 49.9433 171.735 50.01C171.968 50.0767 172.205 50.11 172.445 50.11C172.905 50.11 173.285 50.02 173.585 49.84C173.892 49.66 174.135 49.4533 174.315 49.22V50H175.055V46.84C175.055 46.1533 174.865 45.6367 174.485 45.29C174.105 44.9367 173.562 44.76 172.855 44.76C172.475 44.76 172.138 44.8 171.845 44.88C171.552 44.9533 171.262 45.0567 170.975 45.19L171.205 45.82C171.445 45.7067 171.688 45.6167 171.935 45.55C172.188 45.4767 172.468 45.44 172.775 45.44ZM172.805 47.38C173.125 47.38 173.408 47.4033 173.655 47.45C173.908 47.4967 174.132 47.5467 174.325 47.6V48.1C174.325 48.3067 174.278 48.4967 174.185 48.67C174.098 48.8367 173.975 48.9833 173.815 49.11C173.662 49.23 173.478 49.3267 173.265 49.4C173.058 49.4667 172.835 49.5 172.595 49.5C172.422 49.5 172.255 49.4767 172.095 49.43C171.942 49.3833 171.805 49.3167 171.685 49.23C171.565 49.1367 171.468 49.0267 171.395 48.9C171.328 48.7733 171.295 48.6267 171.295 48.46C171.295 48.1267 171.425 47.8633 171.685 47.67C171.945 47.4767 172.318 47.38 172.805 47.38ZM177.687 45.51H179.327V44.83H177.687V43.27H176.917V44.83H176.197V45.51H176.917V48.63C176.917 48.89 176.954 49.1133 177.027 49.3C177.1 49.4867 177.2 49.64 177.327 49.76C177.46 49.8733 177.617 49.9567 177.797 50.01C177.977 50.0633 178.17 50.09 178.377 50.09C178.564 50.09 178.73 50.07 178.877 50.03C179.03 49.9967 179.174 49.9433 179.307 49.87V49.21C179.174 49.2767 179.047 49.3233 178.927 49.35C178.814 49.3767 178.69 49.39 178.557 49.39C178.297 49.39 178.087 49.3267 177.927 49.2C177.767 49.0733 177.687 48.85 177.687 48.53V45.51ZM181.004 47.7H185.104C185.11 47.6533 185.114 47.61 185.114 47.57C185.114 47.53 185.114 47.4933 185.114 47.46C185.114 47.08 185.06 46.7233 184.954 46.39C184.847 46.0567 184.69 45.7667 184.484 45.52C184.277 45.2733 184.024 45.08 183.724 44.94C183.424 44.7933 183.084 44.72 182.704 44.72C182.344 44.72 182.01 44.79 181.704 44.93C181.404 45.07 181.144 45.2633 180.924 45.51C180.704 45.75 180.53 46.0367 180.404 46.37C180.284 46.6967 180.224 47.0467 180.224 47.42C180.224 47.82 180.29 48.1867 180.424 48.52C180.564 48.8533 180.75 49.14 180.984 49.38C181.217 49.6133 181.49 49.7967 181.804 49.93C182.117 50.0567 182.45 50.12 182.804 50.12C183.297 50.12 183.71 50.0333 184.044 49.86C184.377 49.68 184.674 49.4433 184.934 49.15L184.454 48.72C184.24 48.94 184.004 49.1167 183.744 49.25C183.49 49.3833 183.184 49.45 182.824 49.45C182.597 49.45 182.38 49.4133 182.174 49.34C181.967 49.26 181.78 49.1467 181.614 49C181.447 48.8467 181.31 48.6633 181.204 48.45C181.097 48.23 181.03 47.98 181.004 47.7ZM181.004 47.13C181.03 46.8767 181.09 46.6433 181.184 46.43C181.277 46.2167 181.397 46.0333 181.544 45.88C181.69 45.72 181.86 45.5967 182.054 45.51C182.247 45.4167 182.457 45.37 182.684 45.37C182.944 45.37 183.17 45.42 183.364 45.52C183.564 45.6133 183.73 45.74 183.864 45.9C184.004 46.06 184.11 46.2467 184.184 46.46C184.264 46.6733 184.314 46.8967 184.334 47.13H181.004ZM32.8123 59.48C32.8123 59.3 32.7756 59.13 32.7023 58.97C32.6356 58.81 32.5423 58.6733 32.4223 58.56C32.309 58.44 32.1723 58.3467 32.0123 58.28C31.8523 58.2067 31.6823 58.17 31.5023 58.17C31.3223 58.17 31.1523 58.2067 30.9923 58.28C30.8323 58.3467 30.6923 58.44 30.5723 58.56C30.459 58.6733 30.3656 58.81 30.2923 58.97C30.2256 59.13 30.1923 59.3 30.1923 59.48C30.1923 59.66 30.2256 59.83 30.2923 59.99C30.3656 60.15 30.459 60.29 30.5723 60.41C30.6923 60.5233 30.8323 60.6167 30.9923 60.69C31.1523 60.7567 31.3223 60.79 31.5023 60.79C31.6823 60.79 31.8523 60.7567 32.0123 60.69C32.1723 60.6167 32.309 60.5233 32.4223 60.41C32.5423 60.29 32.6356 60.15 32.7023 59.99C32.7756 59.83 32.8123 59.66 32.8123 59.48ZM42.82 59.06L45.82 56H44.8L40.78 60.18V56H39.99V63H40.78V61.12L42.27 59.61L44.96 63H45.95L42.82 59.06ZM47.9475 56.7V55.85H47.0675V56.7H47.9475ZM47.8875 63V57.83H47.1175V63H47.8875ZM50.4445 60.04C50.4445 59.8 50.4811 59.58 50.5545 59.38C50.6345 59.18 50.7445 59.01 50.8845 58.87C51.0245 58.7233 51.1878 58.6133 51.3745 58.54C51.5678 58.46 51.7745 58.42 51.9945 58.42C52.4545 58.42 52.8078 58.56 53.0545 58.84C53.3011 59.12 53.4245 59.5 53.4245 59.98V63H54.1945V59.79C54.1945 59.4833 54.1478 59.2033 54.0545 58.95C53.9678 58.6967 53.8378 58.48 53.6645 58.3C53.4978 58.1133 53.2911 57.97 53.0445 57.87C52.8045 57.77 52.5278 57.72 52.2145 57.72C51.7678 57.72 51.4045 57.82 51.1245 58.02C50.8445 58.2133 50.6178 58.45 50.4445 58.73V57.83H49.6745V63H50.4445V60.04ZM60.7566 62.1V57.83H59.9866V58.76C59.8799 58.62 59.7599 58.4867 59.6266 58.36C59.4932 58.2333 59.3432 58.1233 59.1766 58.03C59.0166 57.9367 58.8332 57.8633 58.6266 57.81C58.4266 57.75 58.2066 57.72 57.9666 57.72C57.6599 57.72 57.3599 57.7767 57.0666 57.89C56.7732 58.0033 56.5132 58.1667 56.2866 58.38C56.0599 58.5867 55.8766 58.8433 55.7366 59.15C55.6032 59.45 55.5366 59.79 55.5366 60.17C55.5366 60.55 55.6032 60.89 55.7366 61.19C55.8766 61.49 56.0599 61.7467 56.2866 61.96C56.5132 62.1667 56.7699 62.3267 57.0566 62.44C57.3499 62.5467 57.6532 62.6 57.9666 62.6C58.4399 62.6 58.8399 62.4933 59.1666 62.28C59.4932 62.0667 59.7699 61.81 59.9966 61.51V62.12C59.9966 62.7267 59.8266 63.1833 59.4866 63.49C59.1466 63.8033 58.6899 63.96 58.1166 63.96C57.7432 63.96 57.3932 63.9033 57.0666 63.79C56.7399 63.6767 56.4266 63.5133 56.1266 63.3L55.7766 63.9C56.1232 64.14 56.4932 64.32 56.8866 64.44C57.2799 64.56 57.6932 64.62 58.1266 64.62C58.5266 64.62 58.8866 64.5667 59.2066 64.46C59.5332 64.3533 59.8099 64.1933 60.0366 63.98C60.2699 63.7733 60.4466 63.5133 60.5666 63.2C60.6932 62.8867 60.7566 62.52 60.7566 62.1ZM60.0166 60.16C60.0166 60.4267 59.9632 60.67 59.8566 60.89C59.7499 61.1033 59.6066 61.2867 59.4266 61.44C59.2532 61.5933 59.0532 61.7133 58.8266 61.8C58.5999 61.88 58.3632 61.92 58.1166 61.92C57.8766 61.92 57.6466 61.88 57.4266 61.8C57.2132 61.7133 57.0232 61.5933 56.8566 61.44C56.6966 61.28 56.5666 61.0933 56.4666 60.88C56.3732 60.66 56.3266 60.4167 56.3266 60.15C56.3266 59.8833 56.3732 59.6433 56.4666 59.43C56.5599 59.21 56.6866 59.0233 56.8466 58.87C57.0132 58.7167 57.2032 58.6 57.4166 58.52C57.6366 58.44 57.8699 58.4 58.1166 58.4C58.3632 58.4 58.5999 58.4433 58.8266 58.53C59.0532 58.61 59.2532 58.7267 59.4266 58.88C59.6066 59.0333 59.7499 59.22 59.8566 59.44C59.9632 59.6533 60.0166 59.8933 60.0166 60.16ZM67.3972 63V55.7H66.6272V58.82C66.5272 58.6733 66.4105 58.5333 66.2772 58.4C66.1505 58.2667 66.0072 58.15 65.8472 58.05C65.6872 57.95 65.5072 57.87 65.3072 57.81C65.1072 57.75 64.8872 57.72 64.6472 57.72C64.3339 57.72 64.0305 57.7833 63.7372 57.91C63.4439 58.03 63.1805 58.2067 62.9472 58.44C62.7139 58.6667 62.5272 58.9467 62.3872 59.28C62.2472 59.6133 62.1772 59.9933 62.1772 60.42C62.1772 60.8467 62.2472 61.2267 62.3872 61.56C62.5272 61.8933 62.7139 62.1767 62.9472 62.41C63.1805 62.6367 63.4439 62.81 63.7372 62.93C64.0305 63.05 64.3339 63.11 64.6472 63.11C64.8872 63.11 65.1039 63.08 65.2972 63.02C65.4972 62.96 65.6772 62.8767 65.8372 62.77C65.9972 62.6633 66.1405 62.54 66.2672 62.4C66.4005 62.26 66.5205 62.1133 66.6272 61.96V63H67.3972ZM66.6572 60.41C66.6572 60.71 66.6039 60.9867 66.4972 61.24C66.3972 61.4867 66.2572 61.6967 66.0772 61.87C65.9039 62.0433 65.7039 62.18 65.4772 62.28C65.2572 62.3733 65.0272 62.42 64.7872 62.42C64.5405 62.42 64.3072 62.3733 64.0872 62.28C63.8672 62.1867 63.6739 62.0533 63.5072 61.88C63.3405 61.7 63.2072 61.4867 63.1072 61.24C63.0139 60.9933 62.9672 60.7167 62.9672 60.41C62.9672 60.0967 63.0139 59.8167 63.1072 59.57C63.2072 59.3167 63.3372 59.1067 63.4972 58.94C63.6639 58.7667 63.8572 58.6367 64.0772 58.55C64.2972 58.4567 64.5339 58.41 64.7872 58.41C65.0272 58.41 65.2572 58.46 65.4772 58.56C65.7039 58.6533 65.9039 58.7867 66.0772 58.96C66.2572 59.1333 66.3972 59.3433 66.4972 59.59C66.6039 59.8367 66.6572 60.11 66.6572 60.41ZM74.1878 60.41C74.1878 60.0433 74.1211 59.6967 73.9878 59.37C73.8545 59.0433 73.6678 58.76 73.4278 58.52C73.1878 58.2733 72.9011 58.08 72.5678 57.94C72.2411 57.7933 71.8845 57.72 71.4978 57.72C71.1045 57.72 70.7411 57.7933 70.4078 57.94C70.0811 58.08 69.7978 58.2733 69.5578 58.52C69.3178 58.7667 69.1311 59.0567 68.9978 59.39C68.8645 59.7167 68.7978 60.0633 68.7978 60.43C68.7978 60.7967 68.8645 61.1433 68.9978 61.47C69.1311 61.7967 69.3178 62.0833 69.5578 62.33C69.7978 62.57 70.0811 62.7633 70.4078 62.91C70.7345 63.05 71.0911 63.12 71.4778 63.12C71.8645 63.12 72.2245 63.05 72.5578 62.91C72.8911 62.7633 73.1778 62.5667 73.4178 62.32C73.6578 62.0733 73.8445 61.7867 73.9778 61.46C74.1178 61.1267 74.1878 60.7767 74.1878 60.41ZM73.3978 60.43C73.3978 60.71 73.3511 60.9733 73.2578 61.22C73.1645 61.46 73.0345 61.67 72.8678 61.85C72.7011 62.03 72.5011 62.1733 72.2678 62.28C72.0345 62.38 71.7778 62.43 71.4978 62.43C71.2245 62.43 70.9711 62.3767 70.7378 62.27C70.5045 62.1633 70.3011 62.02 70.1278 61.84C69.9611 61.66 69.8278 61.4467 69.7278 61.2C69.6345 60.9533 69.5878 60.69 69.5878 60.41C69.5878 60.13 69.6345 59.87 69.7278 59.63C69.8211 59.3833 69.9478 59.17 70.1078 58.99C70.2745 58.8033 70.4745 58.66 70.7078 58.56C70.9411 58.4533 71.1978 58.4 71.4778 58.4C71.7511 58.4 72.0045 58.4533 72.2378 58.56C72.4711 58.6667 72.6745 58.8133 72.8478 59C73.0211 59.18 73.1545 59.3933 73.2478 59.64C73.3478 59.8867 73.3978 60.15 73.3978 60.43ZM79.6827 58.75C79.5427 58.4567 79.336 58.2133 79.0627 58.02C78.7893 57.82 78.4427 57.72 78.0227 57.72C77.8027 57.72 77.6093 57.7467 77.4427 57.8C77.276 57.8533 77.126 57.9267 76.9927 58.02C76.8593 58.1067 76.7393 58.21 76.6327 58.33C76.5327 58.45 76.4393 58.5733 76.3527 58.7V57.83H75.5827V63H76.3527V60.05C76.3527 59.81 76.3893 59.5933 76.4627 59.4C76.536 59.2 76.636 59.0267 76.7627 58.88C76.896 58.7333 77.0493 58.62 77.2227 58.54C77.396 58.46 77.586 58.42 77.7927 58.42C78.206 58.42 78.5293 58.5567 78.7627 58.83C79.0027 59.0967 79.1227 59.4733 79.1227 59.96V63H79.8827V60.02C79.8827 59.7667 79.9193 59.54 79.9927 59.34C80.0727 59.14 80.176 58.9733 80.3027 58.84C80.436 58.7 80.5893 58.5967 80.7627 58.53C80.936 58.4567 81.1193 58.42 81.3127 58.42C81.7327 58.42 82.0593 58.5567 82.2927 58.83C82.5327 59.0967 82.6527 59.48 82.6527 59.98V63H83.4227V59.8C83.4227 59.1533 83.2527 58.6467 82.9127 58.28C82.5727 57.9067 82.1027 57.72 81.5027 57.72C81.276 57.72 81.0693 57.7467 80.8827 57.8C80.7027 57.8533 80.5393 57.9267 80.3927 58.02C80.246 58.1133 80.1127 58.2233 79.9927 58.35C79.8793 58.4767 79.776 58.61 79.6827 58.75ZM93.1624 60.41C93.1624 60.0433 93.0958 59.6967 92.9624 59.37C92.8291 59.0433 92.6424 58.76 92.4024 58.52C92.1624 58.2733 91.8758 58.08 91.5424 57.94C91.2158 57.7933 90.8591 57.72 90.4724 57.72C90.0791 57.72 89.7158 57.7933 89.3824 57.94C89.0558 58.08 88.7724 58.2733 88.5324 58.52C88.2924 58.7667 88.1058 59.0567 87.9724 59.39C87.8391 59.7167 87.7724 60.0633 87.7724 60.43C87.7724 60.7967 87.8391 61.1433 87.9724 61.47C88.1058 61.7967 88.2924 62.0833 88.5324 62.33C88.7724 62.57 89.0558 62.7633 89.3824 62.91C89.7091 63.05 90.0658 63.12 90.4524 63.12C90.8391 63.12 91.1991 63.05 91.5324 62.91C91.8658 62.7633 92.1524 62.5667 92.3924 62.32C92.6324 62.0733 92.8191 61.7867 92.9524 61.46C93.0924 61.1267 93.1624 60.7767 93.1624 60.41ZM92.3724 60.43C92.3724 60.71 92.3258 60.9733 92.2324 61.22C92.1391 61.46 92.0091 61.67 91.8424 61.85C91.6758 62.03 91.4758 62.1733 91.2424 62.28C91.0091 62.38 90.7524 62.43 90.4724 62.43C90.1991 62.43 89.9458 62.3767 89.7124 62.27C89.4791 62.1633 89.2758 62.02 89.1024 61.84C88.9358 61.66 88.8024 61.4467 88.7024 61.2C88.6091 60.9533 88.5624 60.69 88.5624 60.41C88.5624 60.13 88.6091 59.87 88.7024 59.63C88.7958 59.3833 88.9224 59.17 89.0824 58.99C89.2491 58.8033 89.4491 58.66 89.6824 58.56C89.9158 58.4533 90.1724 58.4 90.4524 58.4C90.7258 58.4 90.9791 58.4533 91.2124 58.56C91.4458 58.6667 91.6491 58.8133 91.8224 59C91.9958 59.18 92.1291 59.3933 92.2224 59.64C92.3224 59.8867 92.3724 60.15 92.3724 60.43ZM95.6073 57.85V57.43C95.6073 56.6967 95.9073 56.33 96.5073 56.33C96.6406 56.33 96.7639 56.3433 96.8773 56.37C96.9906 56.39 97.1173 56.42 97.2573 56.46V55.79C97.1306 55.7433 97.0006 55.71 96.8673 55.69C96.7406 55.67 96.5873 55.66 96.4073 55.66C95.9073 55.66 95.5206 55.8067 95.2473 56.1C94.9806 56.3933 94.8473 56.8233 94.8473 57.39V57.84H94.1373V58.51H94.8473V63H95.6173V58.51H97.2473V57.85H95.6073ZM104.337 56H101.357V63H104.467C104.847 63 105.194 62.9567 105.507 62.87C105.821 62.7833 106.087 62.66 106.307 62.5C106.534 62.3333 106.707 62.13 106.827 61.89C106.947 61.65 107.007 61.38 107.007 61.08C107.007 60.84 106.967 60.6267 106.887 60.44C106.807 60.2533 106.701 60.0933 106.567 59.96C106.434 59.8267 106.274 59.7133 106.087 59.62C105.907 59.52 105.714 59.44 105.507 59.38C105.647 59.32 105.781 59.2467 105.907 59.16C106.041 59.0667 106.161 58.9533 106.267 58.82C106.374 58.6867 106.457 58.5333 106.517 58.36C106.584 58.1867 106.617 57.9833 106.617 57.75C106.617 57.4833 106.564 57.2433 106.457 57.03C106.351 56.81 106.197 56.6267 105.997 56.48C105.797 56.3267 105.557 56.21 105.277 56.13C104.997 56.0433 104.684 56 104.337 56ZM104.207 59.12H102.137V56.71H104.267C104.767 56.71 105.151 56.8133 105.417 57.02C105.684 57.2267 105.817 57.5067 105.817 57.86C105.817 58.2733 105.667 58.5867 105.367 58.8C105.067 59.0133 104.681 59.12 104.207 59.12ZM104.487 62.29H102.137V59.82H104.347C104.961 59.82 105.424 59.9267 105.737 60.14C106.051 60.3467 106.207 60.6433 106.207 61.03C106.207 61.43 106.054 61.74 105.747 61.96C105.441 62.18 105.021 62.29 104.487 62.29ZM110.314 58.44C110.801 58.44 111.177 58.56 111.444 58.8C111.717 59.0333 111.854 59.3833 111.854 59.85V60.03C111.621 59.9633 111.381 59.91 111.134 59.87C110.887 59.83 110.597 59.81 110.264 59.81C109.937 59.81 109.637 59.8467 109.364 59.92C109.097 59.9933 108.864 60.1 108.664 60.24C108.471 60.38 108.321 60.5567 108.214 60.77C108.107 60.9767 108.054 61.2167 108.054 61.49C108.054 61.7633 108.107 62 108.214 62.2C108.327 62.4 108.474 62.57 108.654 62.71C108.841 62.8433 109.047 62.9433 109.274 63.01C109.507 63.0767 109.744 63.11 109.984 63.11C110.444 63.11 110.824 63.02 111.124 62.84C111.431 62.66 111.674 62.4533 111.854 62.22V63H112.594V59.84C112.594 59.1533 112.404 58.6367 112.024 58.29C111.644 57.9367 111.101 57.76 110.394 57.76C110.014 57.76 109.677 57.8 109.384 57.88C109.091 57.9533 108.801 58.0567 108.514 58.19L108.744 58.82C108.984 58.7067 109.227 58.6167 109.474 58.55C109.727 58.4767 110.007 58.44 110.314 58.44ZM110.344 60.38C110.664 60.38 110.947 60.4033 111.194 60.45C111.447 60.4967 111.671 60.5467 111.864 60.6V61.1C111.864 61.3067 111.817 61.4967 111.724 61.67C111.637 61.8367 111.514 61.9833 111.354 62.11C111.201 62.23 111.017 62.3267 110.804 62.4C110.597 62.4667 110.374 62.5 110.134 62.5C109.961 62.5 109.794 62.4767 109.634 62.43C109.481 62.3833 109.344 62.3167 109.224 62.23C109.104 62.1367 109.007 62.0267 108.934 61.9C108.867 61.7733 108.834 61.6267 108.834 61.46C108.834 61.1267 108.964 60.8633 109.224 60.67C109.484 60.4767 109.857 60.38 110.344 60.38ZM115.005 60.04C115.005 59.8 115.042 59.58 115.115 59.38C115.195 59.18 115.305 59.01 115.445 58.87C115.585 58.7233 115.748 58.6133 115.935 58.54C116.128 58.46 116.335 58.42 116.555 58.42C117.015 58.42 117.368 58.56 117.615 58.84C117.862 59.12 117.985 59.5 117.985 59.98V63H118.755V59.79C118.755 59.4833 118.708 59.2033 118.615 58.95C118.528 58.6967 118.398 58.48 118.225 58.3C118.058 58.1133 117.852 57.97 117.605 57.87C117.365 57.77 117.088 57.72 116.775 57.72C116.328 57.72 115.965 57.82 115.685 58.02C115.405 58.2133 115.178 58.45 115.005 58.73V55.7H114.235V63H115.005V60.04ZM121.167 60.94C121.167 60.5533 121.22 60.2133 121.327 59.92C121.434 59.62 121.58 59.37 121.767 59.17C121.954 58.97 122.17 58.82 122.417 58.72C122.67 58.62 122.937 58.57 123.217 58.57H123.277V57.74C123.03 57.7333 122.8 57.7633 122.587 57.83C122.374 57.8967 122.177 57.9967 121.997 58.13C121.817 58.2567 121.657 58.41 121.517 58.59C121.377 58.77 121.26 58.9667 121.167 59.18V57.83H120.397V63H121.167V60.94ZM126.066 58.44C126.553 58.44 126.929 58.56 127.196 58.8C127.469 59.0333 127.606 59.3833 127.606 59.85V60.03C127.373 59.9633 127.133 59.91 126.886 59.87C126.639 59.83 126.349 59.81 126.016 59.81C125.689 59.81 125.389 59.8467 125.116 59.92C124.849 59.9933 124.616 60.1 124.416 60.24C124.223 60.38 124.073 60.5567 123.966 60.77C123.859 60.9767 123.806 61.2167 123.806 61.49C123.806 61.7633 123.859 62 123.966 62.2C124.079 62.4 124.226 62.57 124.406 62.71C124.593 62.8433 124.799 62.9433 125.026 63.01C125.259 63.0767 125.496 63.11 125.736 63.11C126.196 63.11 126.576 63.02 126.876 62.84C127.183 62.66 127.426 62.4533 127.606 62.22V63H128.346V59.84C128.346 59.1533 128.156 58.6367 127.776 58.29C127.396 57.9367 126.853 57.76 126.146 57.76C125.766 57.76 125.429 57.8 125.136 57.88C124.843 57.9533 124.553 58.0567 124.266 58.19L124.496 58.82C124.736 58.7067 124.979 58.6167 125.226 58.55C125.479 58.4767 125.759 58.44 126.066 58.44ZM126.096 60.38C126.416 60.38 126.699 60.4033 126.946 60.45C127.199 60.4967 127.423 60.5467 127.616 60.6V61.1C127.616 61.3067 127.569 61.4967 127.476 61.67C127.389 61.8367 127.266 61.9833 127.106 62.11C126.953 62.23 126.769 62.3267 126.556 62.4C126.349 62.4667 126.126 62.5 125.886 62.5C125.713 62.5 125.546 62.4767 125.386 62.43C125.233 62.3833 125.096 62.3167 124.976 62.23C124.856 62.1367 124.759 62.0267 124.686 61.9C124.619 61.7733 124.586 61.6267 124.586 61.46C124.586 61.1267 124.716 60.8633 124.976 60.67C125.236 60.4767 125.609 60.38 126.096 60.38ZM130.887 56.7V55.85H130.007V56.7H130.887ZM130.827 63V57.83H130.057V63H130.827ZM133.384 60.04C133.384 59.8 133.421 59.58 133.494 59.38C133.574 59.18 133.684 59.01 133.824 58.87C133.964 58.7233 134.127 58.6133 134.314 58.54C134.507 58.46 134.714 58.42 134.934 58.42C135.394 58.42 135.747 58.56 135.994 58.84C136.241 59.12 136.364 59.5 136.364 59.98V63H137.134V59.79C137.134 59.4833 137.087 59.2033 136.994 58.95C136.907 58.6967 136.777 58.48 136.604 58.3C136.437 58.1133 136.231 57.97 135.984 57.87C135.744 57.77 135.467 57.72 135.154 57.72C134.707 57.72 134.344 57.82 134.064 58.02C133.784 58.2133 133.557 58.45 133.384 58.73V57.83H132.614V63H133.384V60.04Z" fill="#525C76"/>
</svg>
