<svg width="12" height="12" viewBox="0 0 12 12" fill="none" xmlns="http://www.w3.org/2000/svg">
<path d="M10.5 8.311V3.68912C10.4996 3.62236 10.4817 3.55687 10.4479 3.49927C10.4142 3.44166 10.3659 3.39396 10.3078 3.361L6.18281 1.04068C6.12723 1.00859 6.06418 0.991699 6 0.991699C5.93582 0.991699 5.87277 1.00859 5.81719 1.04068L1.69219 3.361C1.63413 3.39396 1.5858 3.44166 1.55206 3.49927C1.51831 3.55687 1.50036 3.62236 1.5 3.68912V8.311C1.50036 8.37776 1.51831 8.44324 1.55206 8.50085C1.5858 8.55846 1.63413 8.60615 1.69219 8.63912L5.81719 10.9594C5.87277 10.9915 5.93582 11.0084 6 11.0084C6.06418 11.0084 6.12723 10.9915 6.18281 10.9594L10.3078 8.63912C10.3659 8.60615 10.4142 8.55846 10.4479 8.50085C10.4817 8.44324 10.4996 8.37776 10.5 8.311V8.311Z" stroke="#3981FE" stroke-linecap="round" stroke-linejoin="round"/>
<path d="M8.29688 7.14844V4.71094L3.75 2.20312" stroke="#3981FE" stroke-linecap="round" stroke-linejoin="round"/>
<path d="M10.4477 3.49683L6.04141 5.99995L1.55078 3.49683" stroke="#3981FE" stroke-linecap="round" stroke-linejoin="round"/>
<path d="M6.04219 6L6 11.0063" stroke="#3981FE" stroke-linecap="round" stroke-linejoin="round"/>
</svg>
