<svg width="12" height="12" viewBox="0 0 12 12" fill="none" xmlns="http://www.w3.org/2000/svg">
<path d="M6.43329 1.49998L11.1963 9.74998C11.2402 9.82599 11.2633 9.91221 11.2633 9.99998C11.2633 10.0877 11.2402 10.174 11.1963 10.25C11.1524 10.326 11.0893 10.3891 11.0133 10.433C10.9373 10.4769 10.8511 10.5 10.7633 10.5H1.23729C1.14952 10.5 1.0633 10.4769 0.987296 10.433C0.911289 10.3891 0.848171 10.326 0.804289 10.25C0.760406 10.174 0.737304 10.0877 0.737305 9.99998C0.737305 9.91221 0.760408 9.82599 0.804292 9.74998L5.56729 1.49998C5.61118 1.42397 5.6743 1.36086 5.7503 1.31698C5.82631 1.2731 5.91253 1.25 6.00029 1.25C6.08806 1.25 6.17427 1.2731 6.25028 1.31698C6.32629 1.36086 6.38941 1.42397 6.43329 1.49998ZM5.50029 7.99998V8.99998H6.50029V7.99998H5.50029ZM5.50029 4.49998V6.99998H6.50029V4.49998H5.50029Z" fill="#FFAD0D"/>
</svg>
