<svg width="12" height="12" viewBox="0 0 12 12" fill="none" xmlns="http://www.w3.org/2000/svg">
<path d="M10.125 10.125V5.41404C10.1242 5.36214 10.113 5.31094 10.092 5.26344C10.0711 5.21594 10.0409 5.17312 10.0031 5.13748L6.25313 1.72967C6.184 1.66642 6.0937 1.63135 6.00001 1.63135C5.90631 1.63135 5.81601 1.66642 5.74688 1.72967L1.99688 5.13748C1.95826 5.17242 1.92745 5.2151 1.90644 5.26276C1.88544 5.31042 1.87473 5.36196 1.87501 5.41404V10.125" stroke="#F5D032" stroke-linecap="round" stroke-linejoin="round"/>
<path d="M0.75 10.125H11.25" stroke="#F5D032" stroke-linecap="round" stroke-linejoin="round"/>
<path d="M7.125 10.125V7.5C7.125 7.40054 7.08549 7.30516 7.01517 7.23483C6.94484 7.16451 6.84946 7.125 6.75 7.125H5.25C5.15054 7.125 5.05516 7.16451 4.98484 7.23483C4.91451 7.30516 4.875 7.40054 4.875 7.5V10.125" stroke="#F5D032" stroke-linecap="round" stroke-linejoin="round"/>
</svg>
