<svg width="19" height="18" viewBox="0 0 19 18" fill="none" xmlns="http://www.w3.org/2000/svg">
<path d="M9.67993 11.25C10.4566 11.25 11.0862 10.6204 11.0862 9.84375C11.0862 9.0671 10.4566 8.4375 9.67993 8.4375C8.90328 8.4375 8.27368 9.0671 8.27368 9.84375C8.27368 10.6204 8.90328 11.25 9.67993 11.25Z" stroke="#525C76" stroke-width="1.5" stroke-linecap="round" stroke-linejoin="round"/>
<path d="M9.67993 11.25V12.9375" stroke="#525C76" stroke-width="1.5" stroke-linecap="round" stroke-linejoin="round"/>
<path d="M15.3049 6.1875H4.05493C3.74427 6.1875 3.49243 6.43934 3.49243 6.75V14.625C3.49243 14.9357 3.74427 15.1875 4.05493 15.1875H15.3049C15.6156 15.1875 15.8674 14.9357 15.8674 14.625V6.75C15.8674 6.43934 15.6156 6.1875 15.3049 6.1875Z" stroke="#525C76" stroke-width="1.5" stroke-linecap="round" stroke-linejoin="round"/>
<path d="M7.14868 6.1875V3.65625C7.14868 2.98492 7.41537 2.34109 7.89007 1.86639C8.36477 1.39168 9.0086 1.125 9.67993 1.125C10.3513 1.125 10.9951 1.39168 11.4698 1.86639C11.9445 2.34109 12.2112 2.98492 12.2112 3.65625" stroke="#525C76" stroke-width="1.5" stroke-linecap="round" stroke-linejoin="round"/>
</svg>
