<svg width="19" height="18" viewBox="0 0 19 18" fill="none" xmlns="http://www.w3.org/2000/svg">
<path d="M9.67993 15.75C13.4079 15.75 16.4299 12.7279 16.4299 9C16.4299 5.27208 13.4079 2.25 9.67993 2.25C5.95201 2.25 2.92993 5.27208 2.92993 9C2.92993 12.7279 5.95201 15.75 9.67993 15.75Z" stroke="#525C76" stroke-width="1.5" stroke-linecap="round" stroke-linejoin="round"/>
<path d="M4.16699 12.8953L4.98965 12.3961C5.07123 12.3458 5.1386 12.2754 5.18537 12.1917C5.23213 12.1081 5.25673 12.0138 5.25684 11.918L5.2709 9.37967C5.27202 9.27445 5.30378 9.17182 5.3623 9.08436L6.75449 6.89764C6.79627 6.83304 6.8507 6.77757 6.91451 6.73457C6.97831 6.69158 7.05017 6.66197 7.12573 6.64751C7.2013 6.63306 7.27901 6.63406 7.35418 6.65046C7.42935 6.66687 7.50041 6.69833 7.56309 6.74296L8.94121 7.74139C9.06011 7.82429 9.20484 7.86172 9.34902 7.84686L11.5639 7.54452C11.6982 7.52602 11.821 7.45838 11.9084 7.35468L13.4693 5.55468C13.5619 5.44495 13.6096 5.30432 13.6029 5.16093L13.5256 3.45233" stroke="#525C76" stroke-width="1.5" stroke-linecap="round" stroke-linejoin="round"/>
<path d="M13.8354 14.3227L13.0761 13.5633C13.0058 13.4931 12.9186 13.4422 12.8229 13.4156L11.3112 13.0219C11.1785 12.9855 11.0636 12.9018 10.9885 12.7865C10.9133 12.6711 10.883 12.5322 10.9034 12.3961L11.0651 11.257C11.0812 11.1612 11.1212 11.071 11.1814 10.9948C11.2416 10.9186 11.3202 10.8589 11.4097 10.8211L13.5472 9.92814C13.6464 9.88673 13.7555 9.87466 13.8614 9.89336C13.9674 9.91205 14.0657 9.96072 14.1448 10.0336L15.8956 11.6367" stroke="#525C76" stroke-width="1.5" stroke-linecap="round" stroke-linejoin="round"/>
</svg>
