<svg width="24" height="24" viewBox="0 0 24 24" fill="none" xmlns="http://www.w3.org/2000/svg">
<path d="M4.2565 16.5937C3.13983 14.7097 2.74924 12.4829 3.15804 10.3314C3.56684 8.1798 4.74693 6.25143 6.47677 4.90829C8.2066 3.56514 10.3672 2.89958 12.553 3.03657C14.7388 3.17355 16.7994 4.10365 18.348 5.65226C19.8966 7.20086 20.8267 9.26148 20.9637 11.4472C21.1007 13.633 20.4351 15.7936 19.0919 17.5235C17.7488 19.2533 15.8204 20.4334 13.6689 20.8422C11.5173 21.251 9.29049 20.8604 7.4065 19.7437V19.7437L4.294 20.625C4.16648 20.6623 4.03128 20.6646 3.90256 20.6317C3.77384 20.5987 3.65635 20.5318 3.5624 20.4378C3.46845 20.3439 3.4015 20.2264 3.36858 20.0977C3.33565 19.969 3.33796 19.8338 3.37525 19.7062L4.2565 16.5937Z" stroke="#0761FD" stroke-width="1.5" stroke-linecap="round" stroke-linejoin="round"/>
<path d="M9 10.5H15" stroke="#0761FD" stroke-width="1.5" stroke-linecap="round" stroke-linejoin="round"/>
<path d="M9 13.5H15" stroke="#0761FD" stroke-width="1.5" stroke-linecap="round" stroke-linejoin="round"/>
</svg>
