<svg width="18" height="18" viewBox="0 0 18 18" fill="none" xmlns="http://www.w3.org/2000/svg">
<path d="M2.8125 4.5V13.5C2.8125 13.7984 2.93103 14.0845 3.142 14.2955C3.35298 14.5065 3.63913 14.625 3.9375 14.625H15.1875C15.3367 14.625 15.4798 14.5657 15.5852 14.4602C15.6907 14.3548 15.75 14.2117 15.75 14.0625V6.1875C15.75 6.03832 15.6907 5.89524 15.5852 5.78975C15.4798 5.68426 15.3367 5.625 15.1875 5.625H3.9375C3.63913 5.625 3.35298 5.50647 3.142 5.29549C2.93103 5.08452 2.8125 4.79837 2.8125 4.5ZM2.8125 4.5C2.8125 4.20163 2.93103 3.91548 3.142 3.7045C3.35298 3.49353 3.63913 3.375 3.9375 3.375H13.5" stroke="#525C76" stroke-width="1.5" stroke-linecap="round" stroke-linejoin="round"/>
<path d="M12.6562 10.8281C13.0446 10.8281 13.3594 10.5133 13.3594 10.125C13.3594 9.73667 13.0446 9.42188 12.6562 9.42188C12.2679 9.42188 11.9531 9.73667 11.9531 10.125C11.9531 10.5133 12.2679 10.8281 12.6562 10.8281Z" fill="#525C76"/>
</svg>
