<svg width="30" height="30" viewBox="0 0 30 30" fill="none" xmlns="http://www.w3.org/2000/svg">
<path d="M14.0332 1.8809C10.4004 2.22074 7.22461 4.55277 5.77148 7.94535C5.26758 9.12309 5.05078 10.1016 4.99805 11.461C4.93359 13.1895 5.26758 14.8243 5.98242 16.2481L6.2168 16.711L6.07617 16.9278C6 17.045 5.02148 18.4454 3.90234 20.0391C1.91602 22.875 1.875 22.9395 1.875 23.2207C1.875 23.5371 2.0332 23.7539 2.32031 23.8243C2.43164 23.8536 3.30469 23.7246 4.83398 23.4551C6.12305 23.2266 7.18359 23.045 7.18359 23.0508C7.18945 23.0508 7.38281 24.1231 7.61133 25.4297C8.02148 27.7676 8.0332 27.8028 8.20312 27.961C8.42578 28.1661 8.8125 28.1895 9.03516 28.0137C9.11133 27.9493 10.1367 26.5254 11.3086 24.8496L13.4473 21.7969L13.916 21.8379C14.5254 21.8965 15.4922 21.8965 16.084 21.8379L16.5527 21.7911L18.6914 24.8496C19.8633 26.5254 20.8887 27.9493 20.9648 28.0137C21.1875 28.1895 21.5742 28.1661 21.7969 27.961C21.9668 27.8028 21.9785 27.7676 22.3887 25.4297C22.6172 24.1231 22.8105 23.0508 22.8164 23.0508C22.8164 23.045 23.877 23.2266 25.166 23.4551C26.6953 23.7246 27.5684 23.8536 27.6797 23.8243C27.9668 23.7539 28.125 23.5371 28.125 23.2207C28.125 22.9395 28.084 22.875 26.0977 20.0391C24.9785 18.4454 24 17.045 23.9238 16.9278L23.7832 16.711L24.0176 16.2481C24.7207 14.8418 25.0664 13.2012 25.002 11.4903C24.9668 10.5293 24.8789 9.92582 24.627 9.05277C23.6426 5.60746 20.7305 2.85942 17.2266 2.08598C16.1133 1.84574 15.1289 1.78129 14.0332 1.8809ZM16.7285 3.32817C20.291 4.1016 22.8867 6.77348 23.5898 10.4004C23.7305 11.1153 23.7305 12.5918 23.5898 13.3594C23.373 14.5371 22.8926 15.7149 22.2012 16.7637C21.7148 17.4961 20.6074 18.6036 19.8691 19.0957C17.2617 20.8301 14.0098 21.0645 11.2324 19.7227C10.3477 19.295 9.65039 18.7911 8.87109 18.0176C7.81641 16.9688 7.19531 15.9668 6.73828 14.5957C6.41016 13.6055 6.30469 12.9727 6.30469 11.8653C6.30469 10.8282 6.38672 10.2657 6.68555 9.29301C7.65234 6.14066 10.3711 3.79106 13.6934 3.25199C14.4141 3.13481 16.0195 3.17582 16.7285 3.32817ZM8.02148 19.043C9.01172 20.0215 10.1836 20.7715 11.4668 21.2579L12.0527 21.4805L10.5527 23.625C9.72656 24.8028 9.04102 25.7579 9.02344 25.7403C9.01172 25.7286 8.84766 24.8731 8.66602 23.8418C8.30273 21.7969 8.27344 21.7207 7.88672 21.6446C7.78125 21.627 6.94922 21.7442 5.86523 21.9375C4.85156 22.1192 4.01367 22.2539 4.00195 22.2481C3.99609 22.2364 4.66406 21.2579 5.49023 20.0743L7.00195 17.9239L7.20117 18.1758C7.3125 18.3164 7.68164 18.7032 8.02148 19.043ZM24.5273 20.1036C25.3418 21.2754 26.0039 22.2364 25.998 22.2481C25.9863 22.2539 25.1484 22.1192 24.1348 21.9375C23.0566 21.75 22.2188 21.627 22.1133 21.6504C21.7266 21.7207 21.6973 21.7969 21.3457 23.8008C21.1699 24.8086 21.0117 25.67 21 25.7168C20.9883 25.7579 20.291 24.8262 19.459 23.6368L17.9473 21.4805L18.5098 21.2637C20.127 20.6543 21.6621 19.5645 22.6875 18.2989C22.8516 18.0996 22.998 17.9414 23.0156 17.9532C23.0273 17.9707 23.707 18.9375 24.5273 20.1036Z" fill="#3A4662"/>
<path d="M14.5953 6.36921C14.5074 6.4278 14.2145 6.961 13.8102 7.78718C13.4586 8.51374 13.1598 9.12311 13.1481 9.13483C13.1364 9.14655 12.4567 9.25788 11.6422 9.37507C10.8278 9.49225 10.1071 9.62116 10.0368 9.65632C9.9723 9.69147 9.87269 9.81452 9.81995 9.93171C9.63245 10.3184 9.69691 10.418 10.8922 11.6309L11.9938 12.7442L11.736 14.1798C11.4547 15.7676 11.4547 15.9551 11.7594 16.1602C12.0875 16.3712 12.2985 16.3067 13.6989 15.5684L14.9996 14.877L16.3063 15.5684C17.7008 16.3067 17.9117 16.3712 18.2399 16.1602C18.5446 15.9551 18.5446 15.7676 18.2633 14.1798L18.0055 12.7442L19.107 11.6309C20.3024 10.418 20.3668 10.3184 20.1793 9.93171C20.1266 9.81452 20.027 9.69147 19.9567 9.65632C19.8922 9.62116 19.1598 9.49225 18.3395 9.37507C17.5192 9.25202 16.8395 9.12897 16.8336 9.09968C16.8219 9.07038 16.5289 8.46686 16.1774 7.75202C15.7906 6.97272 15.486 6.42194 15.4039 6.36335C15.2223 6.2403 14.7711 6.2403 14.5953 6.36921ZM15.4684 9.32233C15.7086 9.80866 15.9664 10.2481 16.0367 10.295C16.1071 10.3419 16.6051 10.4473 17.1442 10.5235C17.6832 10.5997 18.1344 10.6758 18.1461 10.6876C18.1578 10.6993 17.8356 11.0216 17.4371 11.4083C16.9977 11.8301 16.693 12.17 16.6696 12.2637C16.6461 12.3516 16.6989 12.8497 16.7985 13.418L16.9684 14.4083L16.0719 13.9454C15.5328 13.6583 15.111 13.4766 15.0055 13.4766C14.8942 13.4766 14.4723 13.6583 13.9274 13.9454L13.0309 14.4141L13.2008 13.418C13.3004 12.8497 13.3532 12.3516 13.3297 12.2637C13.3063 12.17 13.0016 11.8301 12.5621 11.4083C12.1637 11.0216 11.8414 10.6993 11.8532 10.6876C11.8649 10.6758 12.316 10.5997 12.8551 10.5235C13.3942 10.4473 13.8922 10.3419 13.9625 10.295C14.0328 10.2481 14.2907 9.80866 14.5309 9.32233C14.7711 8.836 14.9821 8.43757 14.9996 8.43757C15.0172 8.43757 15.2281 8.836 15.4684 9.32233Z" fill="#3A4662"/>
</svg>
