<svg width="19" height="18" viewBox="0 0 19 18" fill="none" xmlns="http://www.w3.org/2000/svg">
<path d="M9.68018 15.75C13.4081 15.75 16.4302 12.7279 16.4302 9C16.4302 5.27208 13.4081 2.25 9.68018 2.25C5.95225 2.25 2.93018 5.27208 2.93018 9C2.93018 12.7279 5.95225 15.75 9.68018 15.75Z" stroke="#525C76" stroke-width="1.5" stroke-linecap="round" stroke-linejoin="round"/>
<path d="M4.16699 12.8953L4.98965 12.3961C5.07123 12.3457 5.1386 12.2754 5.18537 12.1917C5.23213 12.108 5.25673 12.0138 5.25684 11.9179L5.2709 9.37966C5.27202 9.27443 5.30378 9.17181 5.3623 9.08435L6.75449 6.89763C6.79627 6.83302 6.8507 6.77755 6.91451 6.73456C6.97831 6.69157 7.05017 6.66195 7.12573 6.6475C7.2013 6.63304 7.27901 6.63404 7.35418 6.65045C7.42935 6.66685 7.50041 6.69832 7.56309 6.74294L8.94121 7.74138C9.06011 7.82428 9.20484 7.86171 9.34902 7.84685L11.5639 7.5445C11.6982 7.526 11.821 7.45837 11.9084 7.35466L13.4693 5.55466C13.5619 5.44494 13.6096 5.30431 13.6029 5.16091L13.5256 3.45232" stroke="#525C76" stroke-width="1.5" stroke-linecap="round" stroke-linejoin="round"/>
<path d="M13.8357 14.3227L13.0763 13.5633C13.0061 13.4931 12.9189 13.4422 12.8232 13.4156L11.3115 13.0219C11.1787 12.9855 11.0639 12.9018 10.9887 12.7864C10.9135 12.6711 10.8833 12.5322 10.9037 12.3961L11.0654 11.257C11.0814 11.1612 11.1214 11.071 11.1817 10.9948C11.2419 10.9186 11.3204 10.8589 11.4099 10.8211L13.5474 9.92813C13.6467 9.88672 13.7557 9.87465 13.8617 9.89334C13.9676 9.91204 14.066 9.96071 14.1451 10.0336L15.8958 11.6367" stroke="#525C76" stroke-width="1.5" stroke-linecap="round" stroke-linejoin="round"/>
</svg>
