<svg width="30" height="30" viewBox="0 0 30 30" fill="none" xmlns="http://www.w3.org/2000/svg">
<path d="M14.2671 0.0820312C13.7046 0.263672 13.4116 0.480469 12.3042 1.53516C11.6187 2.19141 11.103 2.63672 10.9858 2.67773C10.8218 2.73633 10.5522 2.71289 9.3628 2.54297C7.75147 2.32031 7.54639 2.30859 7.06006 2.43164C6.34522 2.61914 5.7417 3.09375 5.41358 3.72656C5.18506 4.1543 5.14991 4.3125 4.89209 5.80078C4.77491 6.46289 4.65186 7.08984 4.62256 7.19531C4.54053 7.45312 4.37061 7.56445 3.10498 8.23828C1.79248 8.92969 1.39991 9.1875 1.16553 9.50977C0.720219 10.1191 0.550297 10.6758 0.603032 11.3613C0.644047 11.8887 0.737797 12.123 1.4878 13.6641C1.82178 14.3555 2.0503 14.8945 2.0503 15C2.0503 15.1055 1.82178 15.6445 1.4878 16.3359C0.737797 17.877 0.644047 18.1113 0.603032 18.6387C0.550297 19.3242 0.720219 19.8809 1.16553 20.4902C1.39991 20.8125 1.79248 21.0703 3.10498 21.7617C4.37061 22.4355 4.54053 22.5469 4.62256 22.8047C4.65772 22.9102 4.78662 23.5898 4.91553 24.3164C5.17334 25.7754 5.23194 25.9863 5.51319 26.4609C5.94678 27.1816 6.83741 27.6621 7.72217 27.6562C7.87451 27.6504 8.63037 27.5625 9.40381 27.457C10.5405 27.2988 10.8394 27.2754 10.9917 27.3281C11.103 27.3633 11.6538 27.8438 12.3159 28.4707C13.2886 29.4023 13.5054 29.5781 13.8862 29.7598C14.314 29.9648 14.3491 29.9707 14.9995 29.9707C15.6499 29.9707 15.6851 29.9648 16.1128 29.7598C16.4937 29.5781 16.7105 29.4023 17.6831 28.4707C18.5093 27.6855 18.8726 27.375 19.0308 27.3281C19.2065 27.2754 19.5054 27.3047 20.6245 27.457C22.2007 27.6797 22.4585 27.6914 22.939 27.5684C23.6538 27.3809 24.2573 26.9062 24.5854 26.2734C24.814 25.8457 24.8491 25.6875 25.1069 24.1992C25.2241 23.5371 25.3472 22.9102 25.3765 22.8047C25.4585 22.5469 25.6284 22.4355 26.894 21.7617C28.2065 21.0703 28.5991 20.8125 28.8335 20.4902C29.2788 19.8809 29.4487 19.3242 29.396 18.6387C29.355 18.1113 29.2612 17.877 28.5112 16.3359C28.1772 15.6445 27.9487 15.1055 27.9487 15C27.9487 14.8945 28.1772 14.3555 28.5112 13.6641C29.2612 12.123 29.355 11.8887 29.396 11.3613C29.4487 10.6758 29.2788 10.1191 28.8335 9.50977C28.5991 9.1875 28.2065 8.92969 26.894 8.23828C25.6284 7.56445 25.4585 7.45312 25.3765 7.19531C25.3472 7.08984 25.2241 6.46289 25.1069 5.80078C24.8491 4.3125 24.814 4.1543 24.5854 3.72656C24.2573 3.09375 23.6538 2.61914 22.939 2.43164C22.4526 2.30859 22.2476 2.32031 20.6362 2.54297C19.4468 2.71289 19.1772 2.73633 19.0132 2.67773C18.896 2.63672 18.3804 2.19141 17.6831 1.5293C16.7046 0.597656 16.4937 0.421875 16.1128 0.240234C15.7144 0.046875 15.6206 0.0292969 15.0874 0.0175781C14.7183 0.00585938 14.4136 0.0292969 14.2671 0.0820312ZM15.3101 1.83984C15.4155 1.88672 15.9897 2.39062 16.5874 2.96484C17.7007 4.04297 18.0288 4.27734 18.5972 4.42969C19.0366 4.54688 19.4526 4.5293 20.9468 4.3125C21.8315 4.18359 22.353 4.13672 22.4644 4.16602C22.687 4.23047 22.8862 4.36523 22.9976 4.5293C23.0444 4.59961 23.1909 5.26758 23.3198 6.00586C23.6714 7.99805 23.7476 8.19727 24.3276 8.77148C24.5679 9.00586 24.9312 9.22852 25.9272 9.75586C26.6362 10.1367 27.2866 10.5176 27.3745 10.6055C27.5444 10.7871 27.6675 11.1387 27.6206 11.2969C27.603 11.3496 27.2866 12.0293 26.9175 12.8027C26.1733 14.3672 26.0913 14.6602 26.1968 15.3926C26.2378 15.7148 26.3784 16.0664 26.9175 17.1973C27.2866 17.9707 27.603 18.6504 27.6206 18.7031C27.6675 18.8613 27.5444 19.2129 27.3745 19.3945C27.2866 19.4824 26.6362 19.8633 25.9272 20.2441C24.9312 20.7715 24.5679 20.9941 24.3276 21.2285C23.7476 21.8027 23.6714 22.002 23.3198 23.9941C23.1909 24.7324 23.0444 25.4004 22.9976 25.4707C22.8862 25.6348 22.687 25.7695 22.4644 25.834C22.353 25.8633 21.8315 25.8164 20.9468 25.6875C19.4526 25.4707 19.0366 25.4531 18.5972 25.5703C18.0288 25.7227 17.7007 25.957 16.5581 27.0586C15.3394 28.2246 15.1929 28.3184 14.7827 28.1953C14.6187 28.1484 14.2612 27.8438 13.4409 27.0586C12.2808 25.9453 11.9937 25.7344 11.396 25.5762C10.9097 25.4531 10.5815 25.4648 9.05225 25.6875C8.16748 25.8164 7.646 25.8633 7.53467 25.834C7.31201 25.7695 7.1128 25.6348 7.00147 25.4707C6.95459 25.4004 6.80811 24.7324 6.6792 23.9941C6.32764 22.002 6.25147 21.8027 5.67139 21.2285C5.43116 20.9941 5.06787 20.7715 4.07178 20.2441C3.3628 19.8633 2.71241 19.4824 2.62452 19.3945C2.45459 19.2129 2.33155 18.8613 2.37842 18.7031C2.396 18.6504 2.71241 17.9707 3.08155 17.1973C3.82569 15.6328 3.90772 15.3398 3.80225 14.6074C3.76123 14.2852 3.62061 13.9336 3.08155 12.8027C2.71241 12.0293 2.396 11.3496 2.37842 11.2969C2.33155 11.1387 2.45459 10.7871 2.62452 10.6055C2.71241 10.5176 3.3628 10.1367 4.07178 9.75586C5.06787 9.22852 5.43116 9.00586 5.67139 8.77148C6.25147 8.19727 6.32764 7.99805 6.6792 6.00586C6.80811 5.26758 6.95459 4.59961 7.00147 4.5293C7.1128 4.36523 7.31201 4.23047 7.53467 4.16602C7.646 4.13672 8.16748 4.18359 9.05225 4.3125C10.5464 4.5293 10.9624 4.54688 11.4019 4.42969C11.9702 4.27734 12.2983 4.04297 13.4116 2.96484C14.7007 1.72852 14.8472 1.64062 15.3101 1.83984Z" fill="#3A4662"/>
<path d="M10.7227 7.28906C9.84965 7.54102 9.08207 8.15625 8.70121 8.90625C8.20902 9.87891 8.23832 11.0859 8.77738 12.0117C8.99418 12.3809 9.63871 13.002 10.002 13.2012C10.3887 13.4062 11.1153 13.5938 11.543 13.5938C11.9942 13.5938 12.7149 13.4004 13.1133 13.1719C13.8164 12.7676 14.3848 12.0352 14.6192 11.2207C14.7657 10.7344 14.7481 9.92578 14.5957 9.42773C14.3086 8.51367 13.5293 7.70508 12.6153 7.37109C12.1934 7.21289 11.1328 7.17188 10.7227 7.28906ZM11.9297 9.05273C12.5508 9.23438 12.9903 9.84961 12.9375 10.4531C12.8321 11.6719 11.4082 12.2168 10.5586 11.3672C10.295 11.1035 10.1895 10.875 10.1543 10.4941C10.0957 9.86719 10.4766 9.28711 11.086 9.07617C11.4668 8.94727 11.5606 8.94141 11.9297 9.05273Z" fill="#3A4662"/>
<path d="M20.4198 8.44346C20.3026 8.47862 18.3749 10.3653 14.3729 14.3673C9.46274 19.2774 8.48423 20.2794 8.43149 20.4669C8.25571 21.1173 8.80649 21.7032 9.48032 21.586C9.67368 21.5567 10.3416 20.9063 15.6034 15.6505C21.9374 9.32237 21.6795 9.60362 21.5858 9.10557C21.5331 8.82432 21.2518 8.51377 20.9881 8.4376C20.7362 8.36729 20.66 8.37315 20.4198 8.44346Z" fill="#3A4662"/>
<path d="M17.6474 16.5234C16.5575 16.8105 15.7021 17.6602 15.3798 18.7793C15.2392 19.2598 15.2509 20.0742 15.4032 20.5723C15.6962 21.498 16.5282 22.3535 17.4364 22.6523C17.9228 22.8105 18.9892 22.8105 19.4755 22.6523C20.1728 22.418 20.9228 21.7969 21.2626 21.1582C21.538 20.6309 21.6435 20.1973 21.6376 19.5703C21.6317 18.6504 21.3564 18.0117 20.6825 17.3438C20.2196 16.8867 19.8505 16.6758 19.2411 16.5234C18.6786 16.377 18.204 16.377 17.6474 16.5234ZM19.0126 18.334C19.7216 18.6504 20.0439 19.4531 19.745 20.1445C19.4755 20.7656 18.8134 21.123 18.1806 20.9766C17.5126 20.8301 17.0204 20.209 17.0614 19.5703C17.12 18.791 17.706 18.2227 18.456 18.2227C18.6435 18.2227 18.8778 18.2695 19.0126 18.334Z" fill="#3A4662"/>
</svg>
