<svg width="30" height="30" viewBox="0 0 30 30" fill="none" xmlns="http://www.w3.org/2000/svg">
<path d="M14.0739 0.357414C13.6168 0.433586 12.9196 0.67968 12.4801 0.914055C12.0758 1.12499 11.8297 1.31249 11.109 1.93945C10.2653 2.67187 9.52113 2.95898 8.23206 3.04687C7.35316 3.10546 7.318 3.11132 6.73792 3.29296C4.61097 3.96679 3.05824 6.02929 3.04652 8.19726C3.04066 9.00585 2.81214 9.83788 2.40199 10.5058C2.30238 10.6758 2.00941 11.0508 1.74574 11.3379C1.19496 11.959 0.884409 12.4512 0.644175 13.1133C0.198862 14.3379 0.187144 15.6211 0.620737 16.8281C0.884409 17.5664 1.16566 18.0059 1.9391 18.8906C2.6305 19.6816 2.96449 20.4961 3.02308 21.5273C3.08753 22.7109 3.2516 23.373 3.69691 24.1934C4.17738 25.0898 4.90394 25.8164 5.80042 26.3027C6.61488 26.7422 7.14222 26.8828 8.23206 26.9531C9.52113 27.0351 10.2653 27.3223 11.109 28.0605C11.8825 28.7344 12.0875 28.8809 12.6266 29.1504C13.5055 29.584 13.9332 29.6777 15.0289 29.6719C15.8785 29.6719 16.0192 29.6543 16.4938 29.5078C17.3961 29.2324 17.8766 28.9453 18.8903 28.0605C19.734 27.3223 20.4782 27.0351 21.7672 26.9531C22.8571 26.8828 23.3844 26.7422 24.1989 26.3027C25.0953 25.8164 25.8219 25.0898 26.3024 24.1934C26.7477 23.373 26.9117 22.7109 26.9762 21.5273C27.0348 20.4961 27.3688 19.6816 28.0602 18.8906C28.8336 18.0059 29.1149 17.5664 29.3785 16.8281C29.8004 15.6445 29.8004 14.3613 29.3785 13.1719C29.1149 12.4336 28.8453 12.0058 28.0602 11.1094C27.3688 10.3183 27.0348 9.5039 26.9762 8.47265C26.9352 7.69921 26.859 7.20702 26.7067 6.73827C26.2848 5.43163 25.3825 4.33593 24.1989 3.69726C23.3844 3.2578 22.8571 3.11718 21.7672 3.04687C20.4782 2.96484 19.734 2.67773 18.8903 1.93945C17.8707 1.05468 17.3903 0.761711 16.4938 0.498039C16.066 0.369133 15.82 0.333977 15.1754 0.322258C14.7418 0.310539 14.2438 0.322258 14.0739 0.357414ZM16.0192 1.72851C16.7692 1.93359 17.0856 2.1328 18.3395 3.19335C18.8082 3.59179 19.6227 4.00195 20.2438 4.16015C20.5016 4.2246 21.0875 4.30663 21.5387 4.33593C22.8981 4.42968 23.6657 4.74609 24.4567 5.54296C25.2535 6.33984 25.5758 7.11327 25.6637 8.46093C25.7692 10.0723 26.1266 10.9336 27.193 12.1113C27.9899 12.9902 28.3766 13.9336 28.3766 15C28.3766 15.6562 28.2653 16.1426 27.9723 16.7519C27.7848 17.1562 27.65 17.3437 26.7946 18.3574C26.4078 18.8086 25.9977 19.6289 25.8395 20.2441C25.7692 20.5078 25.693 21.0703 25.6637 21.5391C25.5758 22.8867 25.2535 23.6601 24.4567 24.457C23.6598 25.2539 22.8864 25.5762 21.5387 25.6641C19.8805 25.7695 19.1188 26.1035 17.6657 27.3691C17.2028 27.7734 16.5465 28.125 15.9899 28.2773C15.527 28.4004 14.5719 28.418 14.1207 28.3066C13.5875 28.1777 12.8434 27.7969 12.4098 27.4336C12.1871 27.2519 11.8414 26.959 11.6422 26.7949C11.191 26.4082 10.3707 25.998 9.7555 25.8398C9.49183 25.7695 8.92933 25.6934 8.46058 25.6641C7.11292 25.5762 6.33949 25.2539 5.54261 24.457C4.74574 23.6601 4.42347 22.8867 4.33558 21.5391C4.30628 21.0703 4.23011 20.5078 4.1598 20.2441C4.0016 19.6289 3.59144 18.8086 3.20472 18.3574C2.34925 17.3437 2.21449 17.1562 2.02699 16.7519C1.73402 16.1426 1.62269 15.6562 1.62269 15C1.62269 13.9336 2.00941 12.9902 2.80628 12.1113C3.87269 10.9336 4.23011 10.0723 4.33558 8.46093C4.42347 7.11327 4.74574 6.33984 5.54261 5.54296C6.33363 4.74609 7.1012 4.42968 8.46058 4.33593C10.1246 4.2246 10.8864 3.89062 12.3512 2.61327C12.9547 2.09765 13.5875 1.79882 14.4723 1.61718C14.736 1.56445 15.6617 1.63476 16.0192 1.72851Z" fill="#3A4662"/>
<path d="M22.4302 9.00585C22.1138 9.12303 21.856 9.24608 21.856 9.28124C21.856 9.32225 21.9849 10.2422 22.149 11.3379C22.3072 12.4336 22.4302 13.3301 22.4185 13.3418C22.4127 13.3476 21.8853 12.5801 21.2466 11.625C20.2154 10.0898 20.0748 9.90233 19.9634 9.93749C19.8931 9.96093 19.5767 10.0723 19.2545 10.1953L18.6685 10.4121L18.6861 10.6992C18.6919 10.8574 18.774 11.7949 18.8619 12.7851C18.9439 13.7754 19.0025 14.5664 18.9791 14.543C18.9615 14.5195 18.4752 13.7637 17.9009 12.8613C17.3326 11.959 16.8345 11.1914 16.7994 11.1562C16.7115 11.0683 15.5455 11.4961 15.5748 11.6074C15.6158 11.7656 18.9615 16.8164 19.0259 16.8164C19.1138 16.8164 20.1627 16.4062 20.233 16.3477C20.2623 16.3242 20.1861 15.3105 20.0748 14.0918C19.9576 12.8672 19.8755 11.8652 19.8873 11.8476C19.899 11.8359 20.4732 12.6387 21.1587 13.6348C21.8384 14.625 22.4244 15.4629 22.4478 15.4922C22.483 15.5273 23.6314 15.1816 23.772 15.0937C23.7837 15.082 23.1744 9.45702 23.1158 9.03514C23.0923 8.90038 23.063 8.78905 23.0396 8.79491C23.0162 8.79491 22.7408 8.88866 22.4302 9.00585Z" fill="#3A4662"/>
<path d="M12.9486 12.4803C11.8353 12.8964 10.892 13.2538 10.851 13.2831C10.7982 13.3182 11.0267 14.0214 11.8119 16.201C12.3744 17.7772 12.849 19.078 12.8549 19.0897C12.8783 19.1073 17.1849 17.5135 17.2435 17.4608C17.2728 17.4374 16.9857 16.5995 16.9037 16.4764C16.892 16.4706 16.183 16.7225 15.3158 17.0448C14.4486 17.367 13.722 17.6131 13.7045 17.5897C13.6517 17.5252 13.1713 16.1659 13.1947 16.1424C13.2064 16.1307 13.7396 15.9139 14.3841 15.6561C15.0287 15.3983 15.6791 15.1346 15.8314 15.0643L16.1068 14.9471L15.9076 14.4608C15.7904 14.1678 15.6791 13.9803 15.6381 13.9921C15.597 14.0038 14.9584 14.2323 14.2142 14.5077C13.4759 14.7772 12.8549 14.9881 12.8373 14.9647C12.7904 14.9178 12.4271 13.8631 12.4506 13.8397C12.4623 13.828 13.1302 13.576 13.9388 13.2772C14.7474 12.9784 15.4213 12.7206 15.4388 12.703C15.4916 12.6503 15.1049 11.7186 15.0345 11.7245C14.9994 11.7303 14.0619 12.0702 12.9486 12.4803Z" fill="#3A4662"/>
<path d="M9.01233 13.9629C8.72522 14.0684 8.49671 14.1797 8.49671 14.2149C8.49671 14.25 8.78382 15.082 9.14124 16.0606C9.4928 17.0391 9.77405 17.8418 9.76819 17.8477C9.76233 17.8535 8.95374 17.2148 7.96936 16.4297C6.98499 15.6445 6.1471 15 6.10608 15C6.01233 15 5.08655 15.3516 5.02209 15.4102C4.98108 15.4453 7.02014 21.0469 7.10803 21.1289C7.14319 21.1699 8.14515 20.9121 8.14515 20.8652C8.14515 20.8418 7.85804 20.0332 7.50061 19.0723C7.14905 18.1055 6.8678 17.3145 6.87952 17.3027C6.88538 17.291 7.68811 17.9063 8.66077 18.6621L10.4244 20.0391L11.028 19.8223C11.3619 19.6992 11.6315 19.5703 11.6315 19.541C11.6315 19.4355 9.59241 13.7695 9.55726 13.7754C9.53968 13.7754 9.29358 13.8633 9.01233 13.9629Z" fill="#3A4662"/>
</svg>
