<svg width="30" height="30" viewBox="0 0 30 30" fill="none" xmlns="http://www.w3.org/2000/svg">
<g clip-path="url(#clip0_841_2387)">
<path d="M13.2415 0.0878906C9.79621 0.568359 6.76691 2.28516 4.61066 4.98047C2.85285 7.17188 1.79816 10.0605 1.73957 12.8027C1.72785 13.4004 1.74543 13.5352 1.83332 13.6699C2.06184 14.0273 2.48957 14.1504 2.89973 13.9805C3.22199 13.8457 3.2923 13.6699 3.3509 12.9023C3.45637 11.3789 3.70832 10.1426 4.13019 9.07617C5.44269 5.76562 8.05012 3.29883 11.3958 2.19727C15.0286 0.996094 18.9603 1.66406 22.0482 3.99609C23.0443 4.74609 24.222 6.04688 24.9017 7.13672C27.2864 10.9922 27.2044 15.9199 24.6907 19.6875C22.7923 22.5352 19.722 24.4219 16.347 24.8145C15.6556 24.8965 13.7689 24.9375 13.7689 24.873C13.7689 24.8555 14.2142 24.3398 14.765 23.7305C15.7962 22.5703 15.8841 22.4238 15.7903 22.0488C15.6732 21.5508 15.1458 21.2988 14.6536 21.5039C14.4427 21.5859 11.5482 24.8027 11.3841 25.1309C11.2435 25.4121 11.2435 26.0332 11.3782 26.3086C11.5071 26.5605 14.2786 29.6836 14.5364 29.8652C14.9232 30.1406 15.5618 29.9824 15.7376 29.5605C15.8489 29.291 15.8431 29.0742 15.72 28.8457C15.6614 28.7402 15.1986 28.1953 14.6946 27.6328C14.1849 27.0645 13.7689 26.5957 13.7689 26.584C13.7689 26.5723 14.3431 26.543 15.0462 26.5254C17.3724 26.4609 19.0071 26.0801 20.8587 25.1602C22.2181 24.4863 23.1439 23.8359 24.2161 22.7988C26.3665 20.7188 27.72 18.0703 28.1536 15.0879C28.2767 14.2559 28.2943 12.4277 28.1888 11.6602C27.8196 9 26.8001 6.65625 25.1478 4.68164C23.0677 2.19727 19.9739 0.503906 16.7689 0.09375C15.89 -0.0175781 14.0443 -0.0234375 13.2415 0.0878906Z" fill="#3A4662"/>
</g>
<defs>
<clipPath id="clip0_841_2387">
<rect width="30" height="30" fill="white"/>
</clipPath>
</defs>
</svg>
