<svg width="19" height="18" viewBox="0 0 19 18" fill="none" xmlns="http://www.w3.org/2000/svg">
<path d="M14.1802 14.0625V15.75" stroke="#525C76" stroke-width="1.5" stroke-linecap="round" stroke-linejoin="round"/>
<path d="M5.18018 14.0625V15.75" stroke="#525C76" stroke-width="1.5" stroke-linecap="round" stroke-linejoin="round"/>
<path d="M15.8677 3.375H3.49268C3.18202 3.375 2.93018 3.62684 2.93018 3.9375V13.5C2.93018 13.8107 3.18202 14.0625 3.49268 14.0625H15.8677C16.1783 14.0625 16.4302 13.8107 16.4302 13.5V3.9375C16.4302 3.62684 16.1783 3.375 15.8677 3.375Z" stroke="#525C76" stroke-width="1.5" stroke-linecap="round" stroke-linejoin="round"/>
<path d="M11.3677 9.98438C11.9113 9.98438 12.3521 9.54366 12.3521 9C12.3521 8.45634 11.9113 8.01562 11.3677 8.01562C10.824 8.01562 10.3833 8.45634 10.3833 9C10.3833 9.54366 10.824 9.98438 11.3677 9.98438Z" fill="#525C76"/>
<path d="M11.3677 9H16.4302" stroke="#525C76" stroke-width="1.5" stroke-linecap="round" stroke-linejoin="round"/>
<path d="M11.3677 11.8125C12.921 11.8125 14.1802 10.5533 14.1802 9C14.1802 7.4467 12.921 6.1875 11.3677 6.1875C9.81437 6.1875 8.55518 7.4467 8.55518 9C8.55518 10.5533 9.81437 11.8125 11.3677 11.8125Z" stroke="#525C76" stroke-width="1.5" stroke-linecap="round" stroke-linejoin="round"/>
</svg>
