<svg width="19" height="18" viewBox="0 0 19 18" fill="none" xmlns="http://www.w3.org/2000/svg">
<path d="M16.4302 12.4664V5.53359C16.4296 5.43345 16.4027 5.33522 16.3521 5.24881C16.3015 5.16239 16.229 5.09085 16.1419 5.0414L9.95439 1.56093C9.87102 1.5128 9.77645 1.48746 9.68018 1.48746C9.5839 1.48746 9.48933 1.5128 9.40596 1.56093L3.21846 5.0414C3.13138 5.09085 3.05887 5.16239 3.00826 5.24881C2.95765 5.33522 2.93071 5.43345 2.93018 5.53359V12.4664C2.93071 12.5665 2.95765 12.6648 3.00826 12.7512C3.05887 12.8376 3.13138 12.9091 3.21846 12.9586L9.40596 16.4391C9.48933 16.4872 9.5839 16.5125 9.68018 16.5125C9.77645 16.5125 9.87102 16.4872 9.95439 16.4391L16.1419 12.9586C16.229 12.9091 16.3015 12.8376 16.3521 12.7512C16.4027 12.6648 16.4296 12.5665 16.4302 12.4664V12.4664Z" stroke="#525C76" stroke-width="1.5" stroke-linecap="round" stroke-linejoin="round"/>
<path d="M13.1255 10.7227V7.06641L6.30518 3.30469" stroke="#525C76" stroke-width="1.5" stroke-linecap="round" stroke-linejoin="round"/>
<path d="M16.3521 5.24529L9.74277 8.99997L3.00684 5.24529" stroke="#525C76" stroke-width="1.5" stroke-linecap="round" stroke-linejoin="round"/>
<path d="M9.74346 9L9.68018 16.5094" stroke="#525C76" stroke-width="1.5" stroke-linecap="round" stroke-linejoin="round"/>
</svg>
